<svg width="159" height="44" viewBox="0 0 159 44" fill="none" xmlns="http://www.w3.org/2000/svg">
<g clip-path="url(#clip0_155_395)">
<path d="M35.4004 2.45895C38.474 1.63205 41.3514 0.848665 44.4032 0C44.4032 0.652819 44.4032 1.06627 44.4032 1.50148C44.4032 9.16123 44.4032 16.821 44.4032 24.4807C44.4032 25.5035 44.425 26.5045 44.4904 27.5272C44.5994 29.4204 45.1443 31.1612 46.6048 32.7933C43.5748 33.4461 40.741 34.0554 37.7329 34.7082C37.7329 33.272 37.7329 31.9881 37.7329 30.7043C37.6457 30.6607 37.5367 30.6172 37.4495 30.5955C37.1007 31.0089 36.7301 31.4224 36.3814 31.8358C33.5694 35.1434 28.8609 35.7745 25.5257 33.2502C24.0871 32.1622 23.1933 30.6607 22.6702 28.9634C21.6674 25.7211 21.6892 22.4352 22.9099 19.2364C24.7192 14.5143 28.7083 11.9901 33.8091 12.2077C35.0081 12.2512 36.1852 12.4253 37.4931 12.5559C37.5803 9.05242 37.8636 5.57072 35.4004 2.45895ZM37.5367 23.3492C37.5367 21.5648 37.6457 19.7804 37.4931 18.0178C37.4059 16.8427 37.1443 15.6459 36.6647 14.5796C35.7056 12.4036 32.959 12.0336 31.3459 13.7745C30.8882 14.275 30.4304 14.8625 30.2124 15.4718C28.6647 19.7151 28.4685 24.0673 29.8854 28.3541C30.9536 31.5529 34.0925 32.4016 36.7737 30.3126C37.1661 30.0079 37.4713 29.3769 37.4931 28.8764C37.5803 27.0485 37.5367 25.1988 37.5367 23.3492Z" fill="#60034C"/>
<path d="M68.5779 14.449C71.5643 13.6221 74.3763 12.8388 77.3408 12.0119C77.4062 13.2957 77.4716 14.4055 77.5152 15.5371C77.6896 15.6676 77.8858 15.7764 78.0602 15.907C78.2564 15.5153 78.3872 15.0801 78.6705 14.7755C82.1147 10.9673 89.8531 10.8803 92.2728 17.6479C93.7986 21.9129 93.7551 26.1127 91.379 30.0949C89.9185 32.5321 87.6733 34.0336 84.8831 34.4253C82.9212 34.6864 80.9158 34.5123 78.9321 34.5123C78.5398 34.5123 78.1474 34.4253 77.6242 34.36C77.5806 37.6459 77.5806 40.8229 78.518 44C75.5534 44 72.7196 44 69.7768 44C69.9948 42.8902 70.3 41.8457 70.4089 40.7794C70.5615 38.9733 70.6705 37.1671 70.6705 35.361C70.7141 31.27 70.6705 27.1573 70.6923 23.0663C70.7359 20.0633 70.7795 17.0821 68.5779 14.449ZM77.6242 22.457C77.6242 23.9149 77.5152 25.3729 77.646 26.8091C77.7986 28.5282 78.0166 30.2473 78.4526 31.9228C78.7359 33.0109 79.5425 33.8813 80.785 34.1424C82.5071 34.4906 83.8804 33.7507 84.7305 32.0099C86.1256 29.1375 86.191 26.0475 86.0166 22.9792C85.9294 21.4777 85.7114 19.9327 85.1883 18.54C84.1419 15.7329 81.1338 14.6884 78.4744 16.0811C78.0602 16.2987 77.6678 16.9298 77.646 17.3867C77.5588 19.0405 77.6242 20.7379 77.6242 22.457Z" fill="#60034C"/>
<path d="M1.15532 16.6904C3.92372 13.6439 7.34607 12.0554 11.5314 12.2295C12.5341 12.273 13.5804 12.3818 14.5178 12.7082C16.8066 13.4916 17.9619 15.363 17.9837 18.0613C18.0055 21.4995 17.9837 24.9595 17.9837 28.3976C17.9837 31.0089 18.7684 31.64 21.3189 31.0524C20.8393 32.815 19.0518 34.3383 17.0028 34.5994C14.387 34.9258 12.1199 34.4471 11.139 31.3571C10.6812 31.8576 10.3325 32.2057 9.98368 32.5539C8.19621 34.4036 5.99457 35.0129 3.50955 34.5994C1.80927 34.3165 0.63216 33.3808 0.174393 31.7052C-0.348769 29.8121 0.261587 28.18 1.56949 26.8309C3.33516 24.9812 5.71119 24.1978 8.06542 23.4362C8.82837 23.1968 9.63491 23.1098 10.3761 22.8269C10.6812 22.7181 11.03 22.2829 11.0736 21.9565C11.1826 21.2384 11.139 20.4985 11.0954 19.7804C10.9864 17.2127 9.7875 15.907 7.21528 15.9723C5.23163 16.0158 3.22617 16.4293 1.15532 16.6904ZM11.0954 23.6103C8.98096 23.6103 6.64852 25.3294 6.16896 27.1355C5.86378 28.3106 5.88558 29.4639 6.82291 30.3779C7.84744 31.3571 9.08995 31.4224 10.3761 30.9654C10.6812 30.8566 11.0736 30.4431 11.0736 30.1602C11.1172 28.0059 11.0954 25.8299 11.0954 23.6103Z" fill="#60034C"/>
<path d="M68.8395 31.0742C67.7278 33.359 66.0929 34.5341 63.6733 34.6864C61.2319 34.817 59.4008 34.0336 58.2019 31.2483C58.0493 31.5747 57.9403 31.9446 57.7005 32.2057C56.0439 34.1424 53.9294 34.9476 51.4008 34.6864C47.9785 34.3383 46.3 30.9436 48.0875 27.9842C49.1992 26.1563 50.943 25.1118 52.8613 24.3719C54.3872 23.7844 55.9567 23.3709 57.5262 22.9357C58.1801 22.7616 58.5289 22.4787 58.4853 21.7606C58.4417 21.086 58.4853 20.3897 58.4635 19.6934C58.3763 17.2126 57.2646 15.9505 54.7796 15.9723C52.9921 15.994 51.2046 16.4293 49.4172 16.6904C49.1338 16.7339 48.8722 16.8427 48.349 17.0168C49.9185 15.0148 51.7496 13.8397 53.8204 13.0128C56.0439 12.1207 58.3545 12.0119 60.6869 12.3818C63.7169 12.8605 65.3082 14.7755 65.33 17.8655C65.3736 21.3907 65.33 24.8941 65.3518 28.4194C65.33 30.9218 66.1583 31.5964 68.8395 31.0742ZM58.4635 23.632C56.0439 23.5232 53.4063 25.9604 53.3845 28.2018C53.3627 30.5084 55.9567 32.0316 57.9839 30.8783C58.2019 30.7695 58.4417 30.4649 58.4417 30.2255C58.4635 28.0277 58.4635 25.8299 58.4635 23.632Z" fill="#60034C"/>
<path d="M158.54 28.2236C157.69 30.9001 156.208 32.7498 153.875 33.7725C146.965 36.7537 138.507 33.1197 138.638 23.6756C138.703 18.9318 140.6 15.0584 145.112 13.0999C150.889 10.5757 157.297 13.2305 158.584 19.6499C158.889 21.1514 158.78 21.3037 157.276 21.3037C153.831 21.3037 150.366 21.2819 146.921 21.2819C145.526 21.2819 145.439 21.4125 145.657 22.8052C145.722 23.1968 145.766 23.5885 145.853 23.9802C147.009 29.6162 152.698 31.9446 157.624 28.8111C157.864 28.637 158.104 28.5064 158.54 28.2236ZM148.818 20.6291C148.818 20.6073 148.818 20.5856 148.818 20.5856C149.646 20.5856 150.496 20.6291 151.325 20.5638C151.586 20.5421 152.044 20.2156 152.044 20.0198C152.088 18.0613 152.218 16.0811 151.346 14.2532C150.431 12.3165 148.382 12.1642 147.118 13.9268C145.94 15.5589 145.831 17.4956 145.592 19.3887C145.483 20.3027 145.744 20.7597 146.769 20.6291C147.423 20.5638 148.12 20.6291 148.818 20.6291Z" fill="#60034C"/>
<path d="M108.36 31.7052C106.943 33.5331 105.286 34.3818 103.303 34.6212C102.365 34.73 101.406 34.73 100.491 34.6429C97.8313 34.36 96.0438 32.5974 95.9784 29.9209C95.8476 25.0247 95.8476 20.1286 95.804 15.2325C95.7822 13.2958 95.913 13.5569 94.1038 13.5351C93.9294 13.5351 93.755 13.5134 93.4934 13.274C96.458 11.4243 99.4226 9.55293 102.692 7.52919C102.692 9.09596 102.736 10.3581 102.671 11.5984C102.627 12.5341 102.91 12.9041 103.891 12.8388C104.894 12.7517 105.918 12.7953 106.943 12.8388C107.248 12.8388 107.575 13.0129 107.88 13.0999C107.859 13.2522 107.837 13.4046 107.815 13.5569C106.943 13.5569 106.071 13.5569 105.177 13.5569C104.632 13.5569 104.087 13.5786 103.542 13.5569C102.954 13.5351 102.671 13.7527 102.671 14.362C102.692 19.2146 102.736 24.0673 102.736 28.9417C102.736 31.6835 104.807 32.6627 107.357 32.0099C107.619 31.9446 107.859 31.8576 108.36 31.7052Z" fill="#60034C"/>
<path d="M118.823 12.8823C122.289 12.8823 125.646 12.8823 129.155 12.8823C127.891 15.8853 128.937 18.5618 129.984 21.2384C130.551 22.6528 131.074 24.0673 131.64 25.5035C131.749 25.7864 131.902 26.0475 132.164 26.6133C132.469 25.8734 132.687 25.3729 132.883 24.8942C133.515 23.3927 134.147 21.8912 134.801 20.3897C135.848 17.9743 136.262 15.5371 134.888 12.9258C136.589 12.9258 138.115 12.9258 139.749 12.9258C139.03 13.9703 138.202 14.8843 137.7 15.9723C136.044 19.4758 134.496 23.0445 132.948 26.5915C131.924 28.9199 130.965 31.27 130.006 33.6202C129.744 34.2512 129.373 34.6647 128.719 34.4253C128.327 34.2948 127.891 33.9031 127.739 33.5331C125.341 27.7448 122.987 21.9347 120.589 16.1246C120.131 15.0148 119.455 14.0138 118.823 12.8823Z" fill="#60034C"/>
<path d="M118.453 34.1424C115.532 34.1424 112.698 34.1424 109.69 34.1424C109.951 32.8368 110.387 31.5747 110.431 30.3125C110.562 26.548 110.671 22.7834 110.474 19.0188C110.387 17.4955 109.428 15.9941 108.796 14.362C111.521 13.6221 114.398 12.817 117.384 12.0119C117.973 19.454 116.622 26.8308 118.453 34.1424Z" fill="#60034C"/>
<path d="M113.461 8.98715C111.433 9.00891 109.799 7.42038 109.755 5.37488C109.711 3.35114 111.325 1.69734 113.33 1.65381C115.379 1.61029 117.166 3.28586 117.188 5.26608C117.232 7.2463 115.51 8.96539 113.461 8.98715Z" fill="#60034C"/>
</g>
<defs>
<clipPath id="clip0_155_395">
<rect width="158.714" height="44" fill="white"/>
</clipPath>
</defs>
</svg>
