<svg width="28" height="28" viewBox="0 0 28 28" fill="none" xmlns="http://www.w3.org/2000/svg">
<g clip-path="url(#clip0_4195_1637)">
<path fill-rule="evenodd" clip-rule="evenodd" d="M13.6126 0.864227C13.4497 0.978633 12.049 1.99571 10.5 3.12435C8.95098 4.25305 6.05937 6.35305 4.07422 7.79105C2.08906 9.22906 0.360281 10.49 0.232422 10.5932C0.0812109 10.7152 0 10.8245 0 10.9061C0 10.975 0.715586 13.2312 1.59015 15.92C2.46477 18.6087 3.64459 22.2358 4.21209 23.9802C4.98761 26.3641 5.27324 27.1756 5.36233 27.2478C5.47422 27.3384 5.9588 27.3438 14.003 27.3438H22.5251L22.659 27.2207C22.765 27.1233 23.0172 26.4023 23.869 23.7617C25.9442 17.3281 27.948 11.1827 28.0011 11.0887C28.0612 10.9821 28.0754 10.6799 28.0174 10.7377C27.997 10.7582 27.917 10.7168 27.8397 10.6457C27.7624 10.5746 26.6164 9.73312 25.293 8.77565C23.9695 7.81818 21.1271 5.75466 18.9766 4.18999C14.1937 0.710281 14.1176 0.65625 14.002 0.65625C13.9507 0.65625 13.7755 0.749875 13.6126 0.864227ZM0.0126875 10.9375C0.0126875 11.0428 0.0239531 11.0859 0.0376797 11.0332C0.0514609 10.9805 0.0514609 10.8945 0.0376797 10.8418C0.0239531 10.7891 0.0126875 10.8322 0.0126875 10.9375Z" fill="url(#paint0_linear_4195_1637)"/>
</g>
<defs>
<linearGradient id="paint0_linear_4195_1637" x1="14.0271" y1="0.65625" x2="14.0271" y2="27.3438" gradientUnits="userSpaceOnUse">
<stop stop-color="#60034C"/>
<stop offset="1" stop-color="#FFDAF7" stop-opacity="0.98"/>
</linearGradient>
<clipPath id="clip0_4195_1637">
<rect width="28" height="28" fill="white"/>
</clipPath>
</defs>
</svg>
