<svg width="28" height="28" viewBox="0 0 28 28" fill="none" xmlns="http://www.w3.org/2000/svg">
<g clip-path="url(#clip0_4195_1639)">
<path fill-rule="evenodd" clip-rule="evenodd" d="M26.1548 6.98189C26.0866 6.87175 25.4693 6.4885 24.0083 5.64943C22.8804 5.0016 20.2225 3.47182 18.102 2.24989C15.3817 0.682325 14.1883 0.0225201 14.0486 0.00890286C13.8022 -0.015105 13.9692 -0.102878 11.0474 1.58691C9.70888 2.36101 7.1495 3.83528 5.35986 4.86313C3.57021 5.89093 2.03212 6.80492 1.94189 6.89422L1.77782 7.05653L1.77782 14.0271L1.77782 20.9977L1.94189 21.1569C2.06187 21.2734 12.9281 27.5557 13.7644 27.9921C13.905 28.0655 14.2568 28.0755 14.283 28.0068C14.2931 27.9806 16.9099 26.4637 20.0981 24.6359C23.2864 22.8081 25.9688 21.2418 26.0591 21.1552L26.2231 20.9977L26.2369 14.0671C26.2498 7.54604 26.245 7.12736 26.1548 6.98189ZM14.0005 0.014645C13.8651 0.014645 13.8097 0.0253091 13.8774 0.0383794C13.9451 0.051395 14.0558 0.051395 14.1235 0.0383794C14.1912 0.0253091 14.1358 0.0146451 14.0005 0.014645Z" fill="url(#paint0_linear_4195_1639)"/>
</g>
<defs>
<linearGradient id="paint0_linear_4195_1639" x1="17.5267" y1="0.899913" x2="2.65878" y2="21.5355" gradientUnits="userSpaceOnUse">
<stop stop-color="#E58B76"/>
<stop offset="1" stop-color="#60034C"/>
</linearGradient>
<clipPath id="clip0_4195_1639">
<rect width="28" height="28" fill="white" transform="translate(28) rotate(90)"/>
</clipPath>
</defs>
</svg>
