<svg width="65" height="64" viewBox="0 0 65 64" fill="none" xmlns="http://www.w3.org/2000/svg">
<path d="M55.9466 25.396C58.0533 27.5027 58.0533 30.9184 55.9466 33.0252C53.8398 35.1319 50.4241 35.1319 48.3174 33.0252C46.2106 30.9184 46.2106 27.5027 48.3174 25.396C50.4241 23.2892 53.8398 23.2892 55.9466 25.396" stroke="#333333" stroke-width="2" stroke-linecap="round" stroke-linejoin="round"/>
<path d="M38.3737 15.7665C41.6177 19.0104 41.6177 24.2699 38.3737 27.5139C35.1298 30.7578 29.8703 30.7578 26.6263 27.5139C23.3824 24.2699 23.3824 19.0104 26.6263 15.7665C29.8703 12.5225 35.1298 12.5225 38.3737 15.7665" stroke="#333333" stroke-width="2" stroke-linecap="round" stroke-linejoin="round"/>
<path d="M16.6829 25.396C18.7896 27.5027 18.7896 30.9184 16.6829 33.0252C14.5761 35.1319 11.1604 35.1319 9.05369 33.0252C6.94695 30.9184 6.94695 27.5027 9.05369 25.396C11.1604 23.2892 14.5761 23.2892 16.6829 25.396" stroke="#333333" stroke-width="2" stroke-linecap="round" stroke-linejoin="round"/>
<path d="M61.8339 50.667V47.7443C61.8339 44.0616 58.8499 41.0776 55.1672 41.0776H53.0312" stroke="#333333" stroke-width="2" stroke-linecap="round" stroke-linejoin="round"/>
<path d="M3.16699 50.667V47.7443C3.16699 44.0616 6.15099 41.0776 9.83366 41.0776H11.9697" stroke="#333333" stroke-width="2" stroke-linecap="round" stroke-linejoin="round"/>
<path d="M46.7381 50.6666V46.3973C46.7381 41.2426 42.5594 37.064 37.4047 37.064H27.5941C22.4394 37.064 18.2607 41.2426 18.2607 46.3973V50.6666" stroke="#333333" stroke-width="2" stroke-linecap="round" stroke-linejoin="round"/>
</svg>
