<svg width="60" height="90" viewBox="0 0 60 90" fill="none" xmlns="http://www.w3.org/2000/svg">
<path d="M32.9653 3.06445H31.1816V14.7677H32.9653V3.06445Z" fill="#E58B76"/>
<path d="M34.3592 2.28606C34.3592 2.73819 34.2251 3.18018 33.9739 3.55612C33.7227 3.93206 33.3657 4.22507 32.948 4.39809C32.5303 4.57112 32.0706 4.61639 31.6272 4.52818C31.1837 4.43997 30.7764 4.22225 30.4567 3.90253C30.137 3.58282 29.9192 3.17549 29.831 2.73204C29.7428 2.28859 29.7881 1.82894 29.9611 1.41122C30.1341 0.993499 30.4272 0.636465 30.8031 0.38527C31.179 0.134075 31.621 0 32.0732 0C32.6795 0 33.2609 0.240852 33.6896 0.66957C34.1184 1.09829 34.3592 1.67976 34.3592 2.28606Z" fill="url(#paint0_linear_4177_1675)"/>
<path d="M7.09846 59.3837C15.4709 61.6807 17.4549 61.0364 18.9473 63.2824C19.6021 64.2436 19.9102 65.399 19.821 66.5586C19.6946 67.6327 19.2144 68.6342 18.4559 69.4052C15.5874 72.1827 7.68818 68.7827 3.16703 65.0661C2.18054 64.258 -0.473179 62.0811 0.0655725 60.5377C0.283985 59.9043 0.964706 59.5912 1.44885 59.3728C3.60022 58.3972 5.8353 59.0379 7.09846 59.3837Z" fill="url(#paint1_linear_4177_1675)"/>
<path d="M27.0568 17.2188H37.0892C43.1638 17.2188 48.9896 19.6319 53.285 23.9272C57.5803 28.2226 59.9935 34.0484 59.9935 40.123V46.81C59.9958 48.5019 59.6647 50.1777 59.0189 51.7414C58.3731 53.3052 57.4253 54.7263 56.2298 55.9235C55.0343 57.1207 53.6146 58.0705 52.0517 58.7185C50.4888 59.3665 48.8135 59.7 47.1217 59.7H17.028C13.6142 59.7 10.3402 58.3439 7.92631 55.93C5.51238 53.516 4.15625 50.242 4.15625 46.8282V40.123C4.15625 34.049 6.56886 28.2238 10.8635 23.9285C15.158 19.6333 20.9829 17.2197 27.0568 17.2188Z" fill="url(#paint2_linear_4177_1675)"/>
<path d="M51.2118 45.5897C50.4707 45.9527 49.6563 46.1408 48.8311 46.1394H15.3411C14.5148 46.1408 13.6991 45.9528 12.9568 45.5897C12.1087 45.2043 11.4049 44.5594 10.9469 43.7481C10.489 42.9369 10.3005 42.0011 10.4087 41.0759V40.9412C11.2677 34.7164 16.9028 29.9295 23.8156 29.5728C26.7277 29.4199 29.8073 29.3398 33.0071 29.358C35.5152 29.358 37.9396 29.449 40.2875 29.5691C47.2257 29.9332 52.9045 34.6909 53.7563 40.9412L53.7745 41.0759C53.8803 42.0027 53.6892 42.9392 53.2287 43.7504C52.7681 44.5616 52.0619 45.2056 51.2118 45.5897Z" fill="url(#paint3_linear_4177_1675)"/>
<path style="mix-blend-mode:screen" d="M23.2432 44.7716C26.7333 44.7716 29.5626 41.9423 29.5626 38.4522C29.5626 34.9621 26.7333 32.1328 23.2432 32.1328C19.7531 32.1328 16.9238 34.9621 16.9238 38.4522C16.9238 41.9423 19.7531 44.7716 23.2432 44.7716Z" fill="url(#paint4_radial_4177_1675)"/>
<path d="M23.2427 42.9874C25.7477 42.9874 27.7784 40.9567 27.7784 38.4517C27.7784 35.9467 25.7477 33.916 23.2427 33.916C20.7377 33.916 18.707 35.9467 18.707 38.4517C18.707 40.9567 20.7377 42.9874 23.2427 42.9874Z" fill="#EEFDFF"/>
<path d="M38.2336 13.541H25.9188C25.0101 13.541 24.2734 14.2777 24.2734 15.1864V19.5874C24.2734 20.4961 25.0101 21.2328 25.9188 21.2328H38.2336C39.1424 21.2328 39.879 20.4961 39.879 19.5874V15.1864C39.879 14.2777 39.1424 13.541 38.2336 13.541Z" fill="url(#paint5_linear_4177_1675)"/>
<path d="M23.2432 42.2599C25.3461 42.2599 27.0509 40.5551 27.0509 38.4522C27.0509 36.3493 25.3461 34.6445 23.2432 34.6445C21.1403 34.6445 19.4355 36.3493 19.4355 38.4522C19.4355 40.5551 21.1403 42.2599 23.2432 42.2599Z" fill="url(#paint6_linear_4177_1675)"/>
<path d="M25.6861 37.4651C25.6861 37.7445 25.6033 38.0176 25.4481 38.2498C25.2929 38.4821 25.0723 38.6631 24.8142 38.77C24.5562 38.8769 24.2722 38.9049 23.9982 38.8504C23.7242 38.7959 23.4725 38.6614 23.275 38.4639C23.0775 38.2663 22.943 38.0147 22.8885 37.7407C22.834 37.4667 22.8619 37.1827 22.9688 36.9246C23.0757 36.6666 23.2568 36.446 23.489 36.2908C23.7213 36.1356 23.9944 36.0527 24.2737 36.0527C24.6483 36.0527 25.0076 36.2015 25.2725 36.4664C25.5373 36.7313 25.6861 37.0905 25.6861 37.4651Z" fill="#EEFDFF"/>
<path d="M22.6775 41.9351C22.9891 41.9351 23.2417 41.6825 23.2417 41.3709C23.2417 41.0593 22.9891 40.8066 22.6775 40.8066C22.3659 40.8066 22.1133 41.0593 22.1133 41.3709C22.1133 41.6825 22.3659 41.9351 22.6775 41.9351Z" fill="#EEFDFF"/>
<path d="M21.2846 40.5264C21.2854 40.5829 21.2692 40.6383 21.2383 40.6855C21.2074 40.7328 21.1631 40.7697 21.1111 40.7917C21.059 40.8136 21.0016 40.8195 20.9462 40.8087C20.8908 40.7979 20.8399 40.7707 20.8 40.7308C20.76 40.6909 20.7329 40.64 20.7221 40.5845C20.7112 40.5291 20.7172 40.4717 20.7391 40.4197C20.761 40.3677 20.798 40.3234 20.8452 40.2925C20.8925 40.2615 20.9479 40.2454 21.0044 40.2461C21.0784 40.2471 21.1491 40.2769 21.2015 40.3293C21.2539 40.3816 21.2837 40.4524 21.2846 40.5264Z" fill="#EEFDFF"/>
<path style="mix-blend-mode:screen" d="M40.3116 44.7716C43.8017 44.7716 46.631 41.9423 46.631 38.4522C46.631 34.9621 43.8017 32.1328 40.3116 32.1328C36.8215 32.1328 33.9922 34.9621 33.9922 38.4522C33.9922 41.9423 36.8215 44.7716 40.3116 44.7716Z" fill="url(#paint7_radial_4177_1675)"/>
<path d="M40.3111 42.9874C42.8161 42.9874 44.8468 40.9567 44.8468 38.4517C44.8468 35.9467 42.8161 33.916 40.3111 33.916C37.8061 33.916 35.7754 35.9467 35.7754 38.4517C35.7754 40.9567 37.8061 42.9874 40.3111 42.9874Z" fill="#EEFDFF"/>
<path d="M40.3116 42.2599C42.4145 42.2599 44.1192 40.5551 44.1192 38.4522C44.1192 36.3493 42.4145 34.6445 40.3116 34.6445C38.2087 34.6445 36.5039 36.3493 36.5039 38.4522C36.5039 40.5551 38.2087 42.2599 40.3116 42.2599Z" fill="url(#paint8_linear_4177_1675)"/>
<path d="M42.7545 37.4651C42.7545 37.7445 42.6717 38.0176 42.5165 38.2498C42.3613 38.4821 42.1407 38.6631 41.8826 38.77C41.6245 38.8769 41.3405 38.9049 41.0665 38.8504C40.7926 38.7959 40.5409 38.6614 40.3434 38.4639C40.1458 38.2663 40.0113 38.0147 39.9568 37.7407C39.9023 37.4667 39.9303 37.1827 40.0372 36.9246C40.1441 36.6666 40.3251 36.446 40.5574 36.2908C40.7897 36.1356 41.0627 36.0527 41.3421 36.0527C41.7167 36.0527 42.0759 36.2015 42.3408 36.4664C42.6057 36.7313 42.7545 37.0905 42.7545 37.4651Z" fill="#EEFDFF"/>
<path d="M39.7517 41.9351C40.0633 41.9351 40.316 41.6825 40.316 41.3709C40.316 41.0593 40.0633 40.8066 39.7517 40.8066C39.4401 40.8066 39.1875 41.0593 39.1875 41.3709C39.1875 41.6825 39.4401 41.9351 39.7517 41.9351Z" fill="#EEFDFF"/>
<path d="M38.3541 40.5263C38.3546 40.5634 38.3477 40.6002 38.3339 40.6346C38.32 40.6691 38.2994 40.7004 38.2733 40.7268C38.2473 40.7532 38.2162 40.7742 38.182 40.7885C38.1477 40.8028 38.111 40.8102 38.0738 40.8102C38.0341 40.8147 37.9939 40.8108 37.9557 40.7987C37.9176 40.7866 37.8825 40.7665 37.8527 40.7399C37.8228 40.7133 37.799 40.6806 37.7826 40.6441C37.7663 40.6076 37.7578 40.5681 37.7578 40.5281C37.7578 40.4881 37.7663 40.4485 37.7826 40.412C37.799 40.3755 37.8228 40.3429 37.8527 40.3163C37.8825 40.2896 37.9176 40.2696 37.9557 40.2575C37.9939 40.2454 38.0341 40.2414 38.0738 40.246C38.1482 40.246 38.2195 40.2755 38.2721 40.3281C38.3246 40.3806 38.3541 40.4519 38.3541 40.5263Z" fill="#EEFDFF"/>
<path d="M33.6654 1.39423C33.6654 1.53247 33.6244 1.6676 33.5476 1.78253C33.4708 1.89747 33.3617 1.98705 33.234 2.03995C33.1063 2.09285 32.9657 2.10669 32.8301 2.07972C32.6946 2.05276 32.57 1.98619 32.4723 1.88844C32.3745 1.7907 32.308 1.66616 32.281 1.53058C32.254 1.39501 32.2679 1.25448 32.3208 1.12677C32.3737 0.999057 32.4633 0.8899 32.5782 0.813102C32.6931 0.736303 32.8283 0.695312 32.9665 0.695312C33.1519 0.695313 33.3296 0.768949 33.4607 0.900022C33.5918 1.03109 33.6654 1.20887 33.6654 1.39423Z" fill="white"/>
<path d="M51.7486 24.5466C51.7777 25.6132 50.9077 26.8873 49.9285 26.9965C48.993 27.0984 48.2467 26.1447 47.475 25.1582C46.7033 24.1717 45.0579 21.6963 45.7168 20.9901C46.5722 20.0582 51.6758 22.0421 51.7486 24.5466Z" fill="white"/>
<path d="M43.2057 20.4797C43.644 20.4797 43.9992 20.1244 43.9992 19.6861C43.9992 19.2479 43.644 18.8926 43.2057 18.8926C42.7674 18.8926 42.4121 19.2479 42.4121 19.6861C42.4121 20.1244 42.7674 20.4797 43.2057 20.4797Z" fill="white"/>
<path d="M51.6264 39.3426C51.3716 39.521 49.5952 35.9026 44.8265 32.7647C43.152 31.6727 41.4957 30.8755 41.594 30.6461C41.6923 30.4168 43.5561 30.8463 45.0486 31.538C49.8063 33.7439 51.9395 39.1278 51.6264 39.3426Z" fill="white"/>
<path d="M39.426 15.8173C39.3678 15.8173 39.3313 15.4933 39.062 14.9764C38.9771 14.8232 38.8835 14.6749 38.7817 14.5323C38.3048 13.8734 36.6813 13.888 36.5539 13.888C34.0239 13.9098 32.4004 13.7497 32.4004 13.7642C32.4004 13.7788 33.5871 13.7642 34.4571 13.7351C36.907 13.6841 38.3667 13.5531 38.9928 14.212C39.1596 14.3953 39.2915 14.6075 39.3823 14.8381C39.5204 15.1472 39.536 15.4971 39.426 15.8173Z" fill="white"/>
<path d="M38.8853 48.8515C38.8502 49.1463 38.7144 49.4201 38.5009 49.6264C38.2873 49.8326 38.009 49.9588 37.7131 49.9836L29.3406 50.7917C29.0462 50.823 28.7499 50.7522 28.5014 50.5912C28.253 50.4301 28.0673 50.1887 27.9755 49.9071C27.8965 49.6447 27.8356 49.3771 27.7935 49.1063C27.7885 49.0684 27.791 49.0299 27.801 48.9931C27.811 48.9562 27.8283 48.9217 27.8518 48.8915C27.8749 48.8615 27.9039 48.8366 27.9371 48.8185C27.9704 48.8003 28.007 48.7892 28.0447 48.786L38.6013 47.7667C38.6385 47.7635 38.676 47.7676 38.7116 47.7788C38.7472 47.79 38.7802 47.8082 38.8088 47.8322C38.865 47.8828 38.899 47.9534 38.9035 48.0288C38.9176 48.3031 38.9115 48.5781 38.8853 48.8515Z" fill="#EEFDFF"/>
<path d="M38.885 48.8555C38.7535 50.13 38.1879 51.3207 37.283 52.2279C36.3781 53.135 35.1889 53.7037 33.9147 53.8385C32.6405 53.9733 31.3586 53.6661 30.284 52.9683C29.2093 52.2705 28.4071 51.2246 28.0117 50.0058C28.1198 50.2623 28.3079 50.4771 28.548 50.6182C28.7881 50.7592 29.0673 50.8189 29.344 50.7884L37.7165 49.9839C38.011 49.9579 38.2876 49.8316 38.5003 49.6263C38.7129 49.4209 38.8487 49.1488 38.885 48.8555Z" fill="url(#paint9_linear_4177_1675)"/>
<path d="M52.2175 67.6535C52.2175 67.73 52.2175 67.8028 52.2175 67.8756C52.1982 68.3714 52.1074 68.8618 51.9481 69.3317C49.6439 76.3682 48.2642 80.0812 46.3277 83.0844C45.9928 83.6013 45.6397 84.1 45.2647 84.5878C44.7697 85.2394 44.2273 85.8764 43.6266 86.5317C42.287 87.9878 40.2631 88.643 39.6224 88.8723C37.2381 89.7132 35.134 89.5603 33.7325 89.5713H33.4886C32.0835 89.5713 29.9795 89.7132 27.5951 88.8723C26.9435 88.643 24.9196 87.9841 23.5909 86.5317C19.9143 82.5275 18.4946 79.2003 15.2694 69.3317C15.1191 68.8857 15.0285 68.4218 15 67.952C15 67.7628 15 67.588 15 67.3805C15.0975 66.1308 15.5866 64.9436 16.3978 63.9879C17.1291 63.0998 18.0495 62.3863 19.0918 61.8995C20.1342 61.4127 21.272 61.1648 22.4224 61.174L33.6197 61.1266L44.6131 61.083C45.7893 61.0649 46.9547 61.3087 48.025 61.7966C49.0953 62.2846 50.0437 63.0045 50.8015 63.9041C51.4965 64.7152 51.9671 65.6941 52.1666 66.7435C52.1884 66.8818 52.2102 67.0274 52.2248 67.1658C52.2394 67.3041 52.2175 67.4934 52.2175 67.6535Z" fill="url(#paint10_linear_4177_1675)"/>
<path d="M29.4927 70.789C30.6607 69.5708 32.1047 68.9356 33.8705 69.0052C34.2936 69.0226 34.735 69.0661 35.1305 69.1966C36.0962 69.5099 36.5836 70.2582 36.5928 71.3372C36.602 72.7121 36.5928 74.0957 36.5928 75.4706C36.5928 76.5148 36.9239 76.7671 38 76.5322C37.7977 77.237 37.0435 77.8461 36.179 77.9506C35.0753 78.0811 34.1188 77.8897 33.705 76.654C33.5118 76.8541 33.3647 76.9934 33.2175 77.1326C32.4634 77.8723 31.5345 78.1159 30.486 77.9506C29.7686 77.8374 29.272 77.4633 29.0788 76.7932C28.8581 76.0362 29.1156 75.3836 29.6674 74.844C30.4124 74.1044 31.4149 73.7911 32.4082 73.4866C32.7301 73.3909 33.0704 73.356 33.3831 73.2429C33.5118 73.1994 33.659 73.0254 33.6774 72.8949C33.7234 72.6077 33.705 72.3118 33.6866 72.0247C33.6406 70.9979 33.1347 70.4758 32.0495 70.5019C31.2126 70.5193 30.3664 70.6846 29.4927 70.789ZM33.6866 73.5562C32.7945 73.5562 31.8104 74.2436 31.608 74.9659C31.4793 75.4358 31.4885 75.897 31.8839 76.2624C32.3162 76.654 32.8404 76.6801 33.3831 76.4974C33.5118 76.4539 33.6774 76.2885 33.6774 76.1754C33.6958 75.3139 33.6866 74.4438 33.6866 73.5562Z" fill="#60034C"/>
<path d="M33.4654 61.1384L22.2681 61.1857C21.118 61.1781 19.9806 61.4267 18.9385 61.9134C17.8965 62.4001 16.9759 63.1128 16.2435 63.9996C15.4338 64.9576 14.9449 66.1455 14.8457 67.3959C14.9414 66.1089 15.4524 64.8876 16.3018 63.9159C17.0592 63.0158 18.0076 62.2957 19.0779 61.8077C20.1483 61.3197 21.3139 61.0762 22.4901 61.0947L33.4654 61.1384Z" fill="url(#paint11_linear_4177_1675)"/>
<path d="M44.5963 77.6345C44.4325 68.9489 43.2567 67.2308 44.9894 65.1631C45.7252 64.2675 46.7428 63.6477 47.8761 63.4049C48.9422 63.2238 50.0382 63.4018 50.9921 63.9109C54.4685 65.8802 53.4347 74.4165 51.145 79.8041C50.6463 80.9798 49.3067 84.1323 47.6759 84.0558C47.0061 84.0267 46.5147 83.4625 46.1689 83.0584C44.6363 81.2674 44.6218 78.945 44.5963 77.6345Z" fill="url(#paint12_linear_4177_1675)"/>
<path d="M46.194 83.0949C45.8591 83.6118 45.506 84.1105 45.1311 84.5983C45.011 84.4745 44.9018 84.3507 44.8071 84.2342C43.2746 82.4396 43.2564 80.1208 43.2346 78.8103C43.0707 70.1248 41.8913 68.4066 43.6277 66.3426C44.0093 65.8826 44.4644 65.489 44.9746 65.1777C43.2637 67.2381 44.4322 68.9708 44.6106 77.6309C44.6324 78.9414 44.6542 81.2711 46.1795 83.0548C46.1863 83.0673 46.1912 83.0809 46.194 83.0949Z" fill="white"/>
<path d="M51.0953 70.4006C51.0123 69.3853 50.8194 68.382 50.5201 67.4083C50.0651 65.6137 49.4899 64.7364 49.8612 64.3906C50.1051 64.1649 50.5893 64.3178 50.6912 64.3506C52.3329 64.8747 52.8426 67.9544 52.7698 69.8837C52.7297 71.0631 52.4385 72.3809 52.0089 72.4318C51.9443 72.4403 51.8785 72.4352 51.8159 72.4171C51.7533 72.3989 51.6951 72.368 51.6449 72.3263C51.1644 71.9113 51.1317 71.1104 51.0953 70.4006Z" fill="white"/>
<path d="M52.2215 73.6957C52.2215 73.7634 52.2014 73.8296 52.1638 73.8858C52.1262 73.9421 52.0728 73.9859 52.0102 74.0118C51.9477 74.0377 51.8789 74.0445 51.8125 74.0313C51.7461 74.0181 51.6852 73.9855 51.6373 73.9377C51.5895 73.8898 51.5569 73.8288 51.5437 73.7625C51.5305 73.6961 51.5373 73.6273 51.5631 73.5648C51.589 73.5022 51.6329 73.4488 51.6892 73.4112C51.7455 73.3736 51.8116 73.3535 51.8793 73.3535C51.9244 73.353 51.9691 73.3616 52.0108 73.3786C52.0525 73.3956 52.0905 73.4208 52.1223 73.4527C52.1542 73.4845 52.1794 73.5225 52.1964 73.5642C52.2134 73.6059 52.222 73.6506 52.2215 73.6957Z" fill="white"/>
<defs>
<linearGradient id="paint0_linear_4177_1675" x1="29.9338" y1="1.62882" x2="33.5968" y2="3.93037" gradientUnits="userSpaceOnUse">
<stop stop-color="#E29B8B"/>
<stop offset="1" stop-color="#60034C"/>
</linearGradient>
<linearGradient id="paint1_linear_4177_1675" x1="9.94721" y1="58.8555" x2="9.94705" y2="70.4221" gradientUnits="userSpaceOnUse">
<stop stop-color="#FFE9E4" stop-opacity="0.64"/>
<stop offset="1" stop-color="#E58B76"/>
</linearGradient>
<linearGradient id="paint2_linear_4177_1675" x1="32.1652" y1="17.2188" x2="32.1644" y2="59.7" gradientUnits="userSpaceOnUse">
<stop stop-color="#FFE9E4" stop-opacity="0.64"/>
<stop offset="1" stop-color="#E58B76"/>
</linearGradient>
<linearGradient id="paint3_linear_4177_1675" x1="31.9769" y1="46.0884" x2="32.3118" y2="31.0398" gradientUnits="userSpaceOnUse">
<stop stop-color="#030D14"/>
<stop offset="1" stop-color="#0B2F45"/>
</linearGradient>
<radialGradient id="paint4_radial_4177_1675" cx="0" cy="0" r="1" gradientUnits="userSpaceOnUse" gradientTransform="translate(23.2432 38.4522) scale(6.25388)">
<stop offset="0.13" stop-color="#3280FC"/>
<stop offset="1"/>
</radialGradient>
<linearGradient id="paint5_linear_4177_1675" x1="32.1015" y1="13.541" x2="32.1014" y2="21.2328" gradientUnits="userSpaceOnUse">
<stop stop-color="white"/>
<stop offset="1" stop-color="#E58B76"/>
</linearGradient>
<linearGradient id="paint6_linear_4177_1675" x1="19.4355" y1="38.4522" x2="27.0545" y2="38.4522" gradientUnits="userSpaceOnUse">
<stop stop-color="#030D14"/>
<stop offset="1" stop-color="#0B2F45"/>
</linearGradient>
<radialGradient id="paint7_radial_4177_1675" cx="0" cy="0" r="1" gradientUnits="userSpaceOnUse" gradientTransform="translate(40.3116 38.4522) scale(6.25388)">
<stop offset="0.13" stop-color="#3280FC"/>
<stop offset="1"/>
</radialGradient>
<linearGradient id="paint8_linear_4177_1675" x1="36.5039" y1="38.4522" x2="44.1229" y2="38.4522" gradientUnits="userSpaceOnUse">
<stop stop-color="#030D14"/>
<stop offset="1" stop-color="#0B2F45"/>
</linearGradient>
<linearGradient id="paint9_linear_4177_1675" x1="28.3605" y1="50.6417" x2="32.6139" y2="56.4373" gradientUnits="userSpaceOnUse">
<stop stop-color="#E58B76"/>
<stop offset="1" stop-color="#60034C"/>
</linearGradient>
<linearGradient id="paint10_linear_4177_1675" x1="33.6751" y1="61.082" x2="33.6746" y2="89.5803" gradientUnits="userSpaceOnUse">
<stop stop-color="#FFE9E4" stop-opacity="0.64"/>
<stop offset="1" stop-color="#E58B76"/>
</linearGradient>
<linearGradient id="paint11_linear_4177_1675" x1="20.0294" y1="68.1859" x2="37.3859" y2="47.9208" gradientUnits="userSpaceOnUse">
<stop offset="0.04" stop-color="#06CFF1"/>
<stop offset="1" stop-color="#DEFA8E"/>
</linearGradient>
<linearGradient id="paint12_linear_4177_1675" x1="48.6639" y1="63.3359" x2="48.6628" y2="84.0572" gradientUnits="userSpaceOnUse">
<stop stop-color="#FFE9E4" stop-opacity="0.64"/>
<stop offset="1" stop-color="#E58B76"/>
</linearGradient>
</defs>
</svg>
