<svg width="64" height="65" viewBox="0 0 64 65" fill="none" xmlns="http://www.w3.org/2000/svg">
<path fill-rule="evenodd" clip-rule="evenodd" d="M41.334 40.3838L33.334 45.0025C32.5089 45.4788 31.4924 45.4788 30.6673 45.0025L22.6673 40.3838C21.8423 39.9075 21.334 39.0271 21.334 38.0745V28.6451C21.334 27.6924 21.8423 26.8121 22.6673 26.3358L30.6673 21.7171C31.4924 21.2408 32.5089 21.2408 33.334 21.7171L41.334 26.3358C42.159 26.8121 42.6673 27.6924 42.6673 28.6451V38.0745C42.6673 39.0271 42.159 39.9075 41.334 40.3838Z" stroke="#60034C" stroke-width="3" stroke-linecap="round" stroke-linejoin="round"/>
<path d="M42.3101 27.3115L33.3341 32.494C32.509 32.9702 31.4925 32.9702 30.6674 32.494L21.6914 27.3115" stroke="#60034C" stroke-width="3" stroke-linecap="round" stroke-linejoin="round"/>
<path d="M31.9993 45.3598V32.8491" stroke="#60034C" stroke-width="3" stroke-linecap="round" stroke-linejoin="round"/>
<path fill-rule="evenodd" clip-rule="evenodd" d="M50.9895 16.2612L44.298 9.56974C42.7977 8.06944 40.7629 7.22658 38.6412 7.22656H18.666C14.2477 7.22656 10.666 10.8083 10.666 15.2266V48.8266C10.666 53.2448 14.2477 56.8266 18.666 56.8266H45.3327C49.751 56.8266 53.3327 53.2448 53.3327 48.8266V21.9181C53.3327 19.7964 52.4898 17.7615 50.9895 16.2612Z" stroke="#60034C" stroke-width="3" stroke-linecap="round" stroke-linejoin="round"/>
</svg>
