<svg width="1920" height="646" viewBox="0 0 1920 646" fill="none" xmlns="http://www.w3.org/2000/svg">
<mask id="mask0_3398_5856" style="mask-type:alpha" maskUnits="userSpaceOnUse" x="0" y="0" width="1920" height="646">
<rect x="1920" y="645.026" width="1920" height="645" transform="rotate(-180 1920 645.026)" fill="white"/>
</mask>
<g mask="url(#mask0_3398_5856)">
<mask id="mask1_3398_5856" style="mask-type:alpha" maskUnits="userSpaceOnUse" x="1453" y="-30" width="934" height="701">
<ellipse cx="1920" cy="320.024" rx="466.667" ry="350" transform="rotate(-180 1920 320.024)" fill="url(#paint0_radial_3398_5856)"/>
</mask>
<g mask="url(#mask1_3398_5856)">
<rect x="1966.67" y="645.026" width="50" height="5" rx="2.5" transform="rotate(-180 1966.67 645.026)" fill="#E58B76"/>
<rect x="1966.67" y="630.026" width="50" height="5" rx="2.5" transform="rotate(-180 1966.67 630.026)" fill="#E58B76"/>
<rect x="1966.67" y="615.026" width="50" height="5" rx="2.5" transform="rotate(-180 1966.67 615.026)" fill="#E58B76"/>
<rect x="1966.67" y="600.026" width="50" height="5" rx="2.5" transform="rotate(-180 1966.67 600.026)" fill="#E58B76"/>
<rect x="1966.67" y="585.026" width="50" height="5" rx="2.5" transform="rotate(-180 1966.67 585.026)" fill="#E58B76"/>
<rect x="1966.67" y="570.026" width="50" height="5" rx="2.5" transform="rotate(-180 1966.67 570.026)" fill="#E58B76"/>
<rect x="1966.67" y="555.026" width="50" height="5" rx="2.5" transform="rotate(-180 1966.67 555.026)" fill="#E58B76"/>
<rect x="1966.67" y="540.026" width="50" height="5" rx="2.5" transform="rotate(-180 1966.67 540.026)" fill="#E58B76"/>
<rect x="1966.67" y="525.026" width="50" height="5" rx="2.5" transform="rotate(-180 1966.67 525.026)" fill="#E58B76"/>
<rect x="1966.67" y="510.026" width="50" height="5" rx="2.5" transform="rotate(-180 1966.67 510.026)" fill="#E58B76"/>
<rect x="1966.67" y="495.026" width="50" height="5" rx="2.5" transform="rotate(-180 1966.67 495.026)" fill="#E58B76"/>
<rect x="1966.67" y="480.026" width="50" height="5" rx="2.5" transform="rotate(-180 1966.67 480.026)" fill="#E58B76"/>
<rect x="1966.67" y="465.026" width="50" height="5" rx="2.5" transform="rotate(-180 1966.67 465.026)" fill="#E58B76"/>
<rect x="1966.67" y="450.026" width="50" height="5" rx="2.5" transform="rotate(-180 1966.67 450.026)" fill="#E58B76"/>
<rect x="1966.67" y="435.026" width="50" height="5" rx="2.5" transform="rotate(-180 1966.67 435.026)" fill="#E58B76"/>
<rect x="1966.67" y="420.026" width="50" height="5" rx="2.5" transform="rotate(-180 1966.67 420.026)" fill="#E58B76"/>
<rect x="1966.67" y="405.026" width="50" height="5" rx="2.5" transform="rotate(-180 1966.67 405.026)" fill="#E58B76"/>
<rect x="1966.67" y="390.026" width="50" height="5" rx="2.5" transform="rotate(-180 1966.67 390.026)" fill="#E58B76"/>
<rect x="1966.67" y="375.026" width="50" height="5" rx="2.5" transform="rotate(-180 1966.67 375.026)" fill="#E58B76"/>
<rect x="1966.67" y="360.026" width="50" height="5" rx="2.5" transform="rotate(-180 1966.67 360.026)" fill="#E58B76"/>
<rect x="1966.67" y="345.026" width="50" height="5" rx="2.5" transform="rotate(-180 1966.67 345.026)" fill="#E58B76"/>
<rect x="1966.67" y="330.026" width="50" height="5" rx="2.5" transform="rotate(-180 1966.67 330.026)" fill="#E58B76"/>
<rect x="1966.67" y="315.026" width="50" height="5" rx="2.5" transform="rotate(-180 1966.67 315.026)" fill="#E58B76"/>
<rect x="1966.67" y="300.026" width="50" height="5" rx="2.5" transform="rotate(-180 1966.67 300.026)" fill="#E58B76"/>
<rect x="1966.67" y="285.026" width="50" height="5" rx="2.5" transform="rotate(-180 1966.67 285.026)" fill="#E58B76"/>
<rect x="1966.67" y="270.026" width="50" height="5" rx="2.5" transform="rotate(-180 1966.67 270.026)" fill="#E58B76"/>
<rect x="1966.67" y="255.026" width="50" height="5" rx="2.5" transform="rotate(-180 1966.67 255.026)" fill="#E58B76"/>
<rect x="1966.67" y="240.026" width="50" height="5" rx="2.5" transform="rotate(-180 1966.67 240.026)" fill="#E58B76"/>
<rect x="1966.67" y="225.026" width="50" height="5" rx="2.5" transform="rotate(-180 1966.67 225.026)" fill="#E58B76"/>
<rect x="1966.67" y="210.026" width="50" height="5" rx="2.5" transform="rotate(-180 1966.67 210.026)" fill="#E58B76"/>
<rect x="1966.67" y="195.026" width="50" height="5" rx="2.5" transform="rotate(-180 1966.67 195.026)" fill="#E58B76"/>
<rect x="1966.67" y="180.026" width="50" height="5" rx="2.5" transform="rotate(-180 1966.67 180.026)" fill="#E58B76"/>
<rect x="1966.67" y="165.026" width="50" height="5" rx="2.5" transform="rotate(-180 1966.67 165.026)" fill="#E58B76"/>
<rect x="1966.67" y="150.026" width="50" height="5" rx="2.5" transform="rotate(-180 1966.67 150.026)" fill="#E58B76"/>
<rect x="1966.67" y="135.026" width="50" height="5" rx="2.5" transform="rotate(-180 1966.67 135.026)" fill="#E58B76"/>
<rect x="1966.67" y="120.026" width="50" height="5" rx="2.5" transform="rotate(-180 1966.67 120.026)" fill="#E58B76"/>
<rect x="1966.67" y="105.026" width="50" height="5" rx="2.5" transform="rotate(-180 1966.67 105.026)" fill="#E58B76"/>
<rect x="1966.67" y="90.0264" width="50" height="5" rx="2.5" transform="rotate(-180 1966.67 90.0264)" fill="#E58B76"/>
<rect x="1966.67" y="75.0264" width="50" height="5" rx="2.5" transform="rotate(-180 1966.67 75.0264)" fill="#E58B76"/>
<rect x="1966.67" y="60.0264" width="50" height="5" rx="2.5" transform="rotate(-180 1966.67 60.0264)" fill="#E58B76"/>
<rect x="1966.67" y="45.0264" width="50" height="5" rx="2.5" transform="rotate(-180 1966.67 45.0264)" fill="#E58B76"/>
<rect x="1966.67" y="30.0264" width="50" height="5" rx="2.5" transform="rotate(-180 1966.67 30.0264)" fill="#E58B76"/>
<rect x="1966.67" y="15.0264" width="50" height="5" rx="2.5" transform="rotate(-180 1966.67 15.0264)" fill="#E58B76"/>
<rect x="1906.67" y="645.026" width="50" height="5" rx="2.5" transform="rotate(-180 1906.67 645.026)" fill="#E58B76"/>
<rect x="1906.67" y="630.026" width="50" height="5" rx="2.5" transform="rotate(-180 1906.67 630.026)" fill="#E58B76"/>
<rect x="1906.67" y="615.026" width="50" height="5" rx="2.5" transform="rotate(-180 1906.67 615.026)" fill="#E58B76"/>
<rect x="1906.67" y="600.026" width="50" height="5" rx="2.5" transform="rotate(-180 1906.67 600.026)" fill="#E58B76"/>
<rect x="1906.67" y="585.026" width="50" height="5" rx="2.5" transform="rotate(-180 1906.67 585.026)" fill="#E58B76"/>
<rect x="1906.67" y="570.026" width="50" height="5" rx="2.5" transform="rotate(-180 1906.67 570.026)" fill="#E58B76"/>
<rect x="1906.67" y="555.026" width="50" height="5" rx="2.5" transform="rotate(-180 1906.67 555.026)" fill="#E58B76"/>
<rect x="1906.67" y="540.026" width="50" height="5" rx="2.5" transform="rotate(-180 1906.67 540.026)" fill="#E58B76"/>
<rect x="1906.67" y="525.026" width="50" height="5" rx="2.5" transform="rotate(-180 1906.67 525.026)" fill="#E58B76"/>
<rect x="1906.67" y="510.026" width="50" height="5" rx="2.5" transform="rotate(-180 1906.67 510.026)" fill="#E58B76"/>
<rect x="1906.67" y="495.026" width="50" height="5" rx="2.5" transform="rotate(-180 1906.67 495.026)" fill="#E58B76"/>
<rect x="1906.67" y="480.026" width="50" height="5" rx="2.5" transform="rotate(-180 1906.67 480.026)" fill="#E58B76"/>
<rect x="1906.67" y="465.026" width="50" height="5" rx="2.5" transform="rotate(-180 1906.67 465.026)" fill="#E58B76"/>
<rect x="1906.67" y="450.026" width="50" height="5" rx="2.5" transform="rotate(-180 1906.67 450.026)" fill="#E58B76"/>
<rect x="1906.67" y="435.026" width="50" height="5" rx="2.5" transform="rotate(-180 1906.67 435.026)" fill="#E58B76"/>
<rect x="1906.67" y="420.026" width="50" height="5" rx="2.5" transform="rotate(-180 1906.67 420.026)" fill="#E58B76"/>
<rect x="1906.67" y="405.026" width="50" height="5" rx="2.5" transform="rotate(-180 1906.67 405.026)" fill="#E58B76"/>
<rect x="1906.67" y="390.026" width="50" height="5" rx="2.5" transform="rotate(-180 1906.67 390.026)" fill="#E58B76"/>
<rect x="1906.67" y="375.026" width="50" height="5" rx="2.5" transform="rotate(-180 1906.67 375.026)" fill="#E58B76"/>
<rect x="1906.67" y="360.026" width="50" height="5" rx="2.5" transform="rotate(-180 1906.67 360.026)" fill="#E58B76"/>
<rect x="1906.67" y="345.026" width="50" height="5" rx="2.5" transform="rotate(-180 1906.67 345.026)" fill="#E58B76"/>
<rect x="1906.67" y="330.026" width="50" height="5" rx="2.5" transform="rotate(-180 1906.67 330.026)" fill="#E58B76"/>
<rect x="1906.67" y="315.026" width="50" height="5" rx="2.5" transform="rotate(-180 1906.67 315.026)" fill="#E58B76"/>
<rect x="1906.67" y="300.026" width="50" height="5" rx="2.5" transform="rotate(-180 1906.67 300.026)" fill="#E58B76"/>
<rect x="1906.67" y="285.026" width="50" height="5" rx="2.5" transform="rotate(-180 1906.67 285.026)" fill="#E58B76"/>
<rect x="1906.67" y="270.026" width="50" height="5" rx="2.5" transform="rotate(-180 1906.67 270.026)" fill="#E58B76"/>
<rect x="1906.67" y="255.026" width="50" height="5" rx="2.5" transform="rotate(-180 1906.67 255.026)" fill="#E58B76"/>
<rect x="1906.67" y="240.026" width="50" height="5" rx="2.5" transform="rotate(-180 1906.67 240.026)" fill="#E58B76"/>
<rect x="1906.67" y="225.026" width="50" height="5" rx="2.5" transform="rotate(-180 1906.67 225.026)" fill="#E58B76"/>
<rect x="1906.67" y="210.026" width="50" height="5" rx="2.5" transform="rotate(-180 1906.67 210.026)" fill="#E58B76"/>
<rect x="1906.67" y="195.026" width="50" height="5" rx="2.5" transform="rotate(-180 1906.67 195.026)" fill="#E58B76"/>
<rect x="1906.67" y="180.026" width="50" height="5" rx="2.5" transform="rotate(-180 1906.67 180.026)" fill="#E58B76"/>
<rect x="1906.67" y="165.026" width="50" height="5" rx="2.5" transform="rotate(-180 1906.67 165.026)" fill="#E58B76"/>
<rect x="1906.67" y="150.026" width="50" height="5" rx="2.5" transform="rotate(-180 1906.67 150.026)" fill="#E58B76"/>
<rect x="1906.67" y="135.026" width="50" height="5" rx="2.5" transform="rotate(-180 1906.67 135.026)" fill="#E58B76"/>
<rect x="1906.67" y="120.026" width="50" height="5" rx="2.5" transform="rotate(-180 1906.67 120.026)" fill="#E58B76"/>
<rect x="1906.67" y="105.026" width="50" height="5" rx="2.5" transform="rotate(-180 1906.67 105.026)" fill="#E58B76"/>
<rect x="1906.67" y="90.0264" width="50" height="5" rx="2.5" transform="rotate(-180 1906.67 90.0264)" fill="#E58B76"/>
<rect x="1906.67" y="75.0264" width="50" height="5" rx="2.5" transform="rotate(-180 1906.67 75.0264)" fill="#E58B76"/>
<rect x="1906.67" y="60.0264" width="50" height="5" rx="2.5" transform="rotate(-180 1906.67 60.0264)" fill="#E58B76"/>
<rect x="1906.67" y="45.0264" width="50" height="5" rx="2.5" transform="rotate(-180 1906.67 45.0264)" fill="#E58B76"/>
<rect x="1906.67" y="30.0264" width="50" height="5" rx="2.5" transform="rotate(-180 1906.67 30.0264)" fill="#E58B76"/>
<rect x="1906.67" y="15.0264" width="50" height="5" rx="2.5" transform="rotate(-180 1906.67 15.0264)" fill="#E58B76"/>
<rect x="1846.67" y="645.026" width="50" height="5" rx="2.5" transform="rotate(-180 1846.67 645.026)" fill="#E58B76"/>
<rect x="1846.67" y="630.026" width="50" height="5" rx="2.5" transform="rotate(-180 1846.67 630.026)" fill="#E58B76"/>
<rect x="1846.67" y="615.026" width="50" height="5" rx="2.5" transform="rotate(-180 1846.67 615.026)" fill="#E58B76"/>
<rect x="1846.67" y="600.026" width="50" height="5" rx="2.5" transform="rotate(-180 1846.67 600.026)" fill="#E58B76"/>
<rect x="1846.67" y="585.026" width="50" height="5" rx="2.5" transform="rotate(-180 1846.67 585.026)" fill="#E58B76"/>
<rect x="1846.67" y="570.026" width="50" height="5" rx="2.5" transform="rotate(-180 1846.67 570.026)" fill="#E58B76"/>
<rect x="1846.67" y="555.026" width="50" height="5" rx="2.5" transform="rotate(-180 1846.67 555.026)" fill="#E58B76"/>
<rect x="1846.67" y="540.026" width="50" height="5" rx="2.5" transform="rotate(-180 1846.67 540.026)" fill="#E58B76"/>
<rect x="1846.67" y="525.026" width="50" height="5" rx="2.5" transform="rotate(-180 1846.67 525.026)" fill="#E58B76"/>
<rect x="1846.67" y="510.026" width="50" height="5" rx="2.5" transform="rotate(-180 1846.67 510.026)" fill="#E58B76"/>
<rect x="1846.67" y="495.026" width="50" height="5" rx="2.5" transform="rotate(-180 1846.67 495.026)" fill="#E58B76"/>
<rect x="1846.67" y="480.026" width="50" height="5" rx="2.5" transform="rotate(-180 1846.67 480.026)" fill="#E58B76"/>
<rect x="1846.67" y="465.026" width="50" height="5" rx="2.5" transform="rotate(-180 1846.67 465.026)" fill="#E58B76"/>
<rect x="1846.67" y="450.026" width="50" height="5" rx="2.5" transform="rotate(-180 1846.67 450.026)" fill="#E58B76"/>
<rect x="1846.67" y="435.026" width="50" height="5" rx="2.5" transform="rotate(-180 1846.67 435.026)" fill="#E58B76"/>
<rect x="1846.67" y="420.026" width="50" height="5" rx="2.5" transform="rotate(-180 1846.67 420.026)" fill="#E58B76"/>
<rect x="1846.67" y="405.026" width="50" height="5" rx="2.5" transform="rotate(-180 1846.67 405.026)" fill="#E58B76"/>
<rect x="1846.67" y="390.026" width="50" height="5" rx="2.5" transform="rotate(-180 1846.67 390.026)" fill="#E58B76"/>
<rect x="1846.67" y="375.026" width="50" height="5" rx="2.5" transform="rotate(-180 1846.67 375.026)" fill="#E58B76"/>
<rect x="1846.67" y="360.026" width="50" height="5" rx="2.5" transform="rotate(-180 1846.67 360.026)" fill="#E58B76"/>
<rect x="1846.67" y="345.026" width="50" height="5" rx="2.5" transform="rotate(-180 1846.67 345.026)" fill="#E58B76"/>
<rect x="1846.67" y="330.026" width="50" height="5" rx="2.5" transform="rotate(-180 1846.67 330.026)" fill="#E58B76"/>
<rect x="1846.67" y="315.026" width="50" height="5" rx="2.5" transform="rotate(-180 1846.67 315.026)" fill="#E58B76"/>
<rect x="1846.67" y="300.026" width="50" height="5" rx="2.5" transform="rotate(-180 1846.67 300.026)" fill="#E58B76"/>
<rect x="1846.67" y="285.026" width="50" height="5" rx="2.5" transform="rotate(-180 1846.67 285.026)" fill="#E58B76"/>
<rect x="1846.67" y="270.026" width="50" height="5" rx="2.5" transform="rotate(-180 1846.67 270.026)" fill="#E58B76"/>
<rect x="1846.67" y="255.026" width="50" height="5" rx="2.5" transform="rotate(-180 1846.67 255.026)" fill="#E58B76"/>
<rect x="1846.67" y="240.026" width="50" height="5" rx="2.5" transform="rotate(-180 1846.67 240.026)" fill="#E58B76"/>
<rect x="1846.67" y="225.026" width="50" height="5" rx="2.5" transform="rotate(-180 1846.67 225.026)" fill="#E58B76"/>
<rect x="1846.67" y="210.026" width="50" height="5" rx="2.5" transform="rotate(-180 1846.67 210.026)" fill="#E58B76"/>
<rect x="1846.67" y="195.026" width="50" height="5" rx="2.5" transform="rotate(-180 1846.67 195.026)" fill="#E58B76"/>
<rect x="1846.67" y="180.026" width="50" height="5" rx="2.5" transform="rotate(-180 1846.67 180.026)" fill="#E58B76"/>
<rect x="1846.67" y="165.026" width="50" height="5" rx="2.5" transform="rotate(-180 1846.67 165.026)" fill="#E58B76"/>
<rect x="1846.67" y="150.026" width="50" height="5" rx="2.5" transform="rotate(-180 1846.67 150.026)" fill="#E58B76"/>
<rect x="1846.67" y="135.026" width="50" height="5" rx="2.5" transform="rotate(-180 1846.67 135.026)" fill="#E58B76"/>
<rect x="1846.67" y="120.026" width="50" height="5" rx="2.5" transform="rotate(-180 1846.67 120.026)" fill="#E58B76"/>
<rect x="1846.67" y="105.026" width="50" height="5" rx="2.5" transform="rotate(-180 1846.67 105.026)" fill="#E58B76"/>
<rect x="1846.67" y="90.0264" width="50" height="5" rx="2.5" transform="rotate(-180 1846.67 90.0264)" fill="#E58B76"/>
<rect x="1846.67" y="75.0264" width="50" height="5" rx="2.5" transform="rotate(-180 1846.67 75.0264)" fill="#E58B76"/>
<rect x="1846.67" y="60.0264" width="50" height="5" rx="2.5" transform="rotate(-180 1846.67 60.0264)" fill="#E58B76"/>
<rect x="1846.67" y="45.0264" width="50" height="5" rx="2.5" transform="rotate(-180 1846.67 45.0264)" fill="#E58B76"/>
<rect x="1846.67" y="30.0264" width="50" height="5" rx="2.5" transform="rotate(-180 1846.67 30.0264)" fill="#E58B76"/>
<rect x="1846.67" y="15.0264" width="50" height="5" rx="2.5" transform="rotate(-180 1846.67 15.0264)" fill="#E58B76"/>
<rect x="1786.67" y="645.026" width="50" height="5" rx="2.5" transform="rotate(-180 1786.67 645.026)" fill="#E58B76"/>
<rect x="1786.67" y="630.026" width="50" height="5" rx="2.5" transform="rotate(-180 1786.67 630.026)" fill="#E58B76"/>
<rect x="1786.67" y="615.026" width="50" height="5" rx="2.5" transform="rotate(-180 1786.67 615.026)" fill="#E58B76"/>
<rect x="1786.67" y="600.026" width="50" height="5" rx="2.5" transform="rotate(-180 1786.67 600.026)" fill="#E58B76"/>
<rect x="1786.67" y="585.026" width="50" height="5" rx="2.5" transform="rotate(-180 1786.67 585.026)" fill="#E58B76"/>
<rect x="1786.67" y="570.026" width="50" height="5" rx="2.5" transform="rotate(-180 1786.67 570.026)" fill="#E58B76"/>
<rect x="1786.67" y="555.026" width="50" height="5" rx="2.5" transform="rotate(-180 1786.67 555.026)" fill="#E58B76"/>
<rect x="1786.67" y="540.026" width="50" height="5" rx="2.5" transform="rotate(-180 1786.67 540.026)" fill="#E58B76"/>
<rect x="1786.67" y="525.026" width="50" height="5" rx="2.5" transform="rotate(-180 1786.67 525.026)" fill="#E58B76"/>
<rect x="1786.67" y="510.026" width="50" height="5" rx="2.5" transform="rotate(-180 1786.67 510.026)" fill="#E58B76"/>
<rect x="1786.67" y="495.026" width="50" height="5" rx="2.5" transform="rotate(-180 1786.67 495.026)" fill="#E58B76"/>
<rect x="1786.67" y="480.026" width="50" height="5" rx="2.5" transform="rotate(-180 1786.67 480.026)" fill="#E58B76"/>
<rect x="1786.67" y="465.026" width="50" height="5" rx="2.5" transform="rotate(-180 1786.67 465.026)" fill="#E58B76"/>
<rect x="1786.67" y="450.026" width="50" height="5" rx="2.5" transform="rotate(-180 1786.67 450.026)" fill="#E58B76"/>
<rect x="1786.67" y="435.026" width="50" height="5" rx="2.5" transform="rotate(-180 1786.67 435.026)" fill="#E58B76"/>
<rect x="1786.67" y="420.026" width="50" height="5" rx="2.5" transform="rotate(-180 1786.67 420.026)" fill="#E58B76"/>
<rect x="1786.67" y="405.026" width="50" height="5" rx="2.5" transform="rotate(-180 1786.67 405.026)" fill="#E58B76"/>
<rect x="1786.67" y="390.026" width="50" height="5" rx="2.5" transform="rotate(-180 1786.67 390.026)" fill="#E58B76"/>
<rect x="1786.67" y="375.026" width="50" height="5" rx="2.5" transform="rotate(-180 1786.67 375.026)" fill="#E58B76"/>
<rect x="1786.67" y="360.026" width="50" height="5" rx="2.5" transform="rotate(-180 1786.67 360.026)" fill="#E58B76"/>
<rect x="1786.67" y="345.026" width="50" height="5" rx="2.5" transform="rotate(-180 1786.67 345.026)" fill="#E58B76"/>
<rect x="1786.67" y="330.026" width="50" height="5" rx="2.5" transform="rotate(-180 1786.67 330.026)" fill="#E58B76"/>
<rect x="1786.67" y="315.026" width="50" height="5" rx="2.5" transform="rotate(-180 1786.67 315.026)" fill="#E58B76"/>
<rect x="1786.67" y="300.026" width="50" height="5" rx="2.5" transform="rotate(-180 1786.67 300.026)" fill="#E58B76"/>
<rect x="1786.67" y="285.026" width="50" height="5" rx="2.5" transform="rotate(-180 1786.67 285.026)" fill="#E58B76"/>
<rect x="1786.67" y="270.026" width="50" height="5" rx="2.5" transform="rotate(-180 1786.67 270.026)" fill="#E58B76"/>
<rect x="1786.67" y="255.026" width="50" height="5" rx="2.5" transform="rotate(-180 1786.67 255.026)" fill="#E58B76"/>
<rect x="1786.67" y="240.026" width="50" height="5" rx="2.5" transform="rotate(-180 1786.67 240.026)" fill="#E58B76"/>
<rect x="1786.67" y="225.026" width="50" height="5" rx="2.5" transform="rotate(-180 1786.67 225.026)" fill="#E58B76"/>
<rect x="1786.67" y="210.026" width="50" height="5" rx="2.5" transform="rotate(-180 1786.67 210.026)" fill="#E58B76"/>
<rect x="1786.67" y="195.026" width="50" height="5" rx="2.5" transform="rotate(-180 1786.67 195.026)" fill="#E58B76"/>
<rect x="1786.67" y="180.026" width="50" height="5" rx="2.5" transform="rotate(-180 1786.67 180.026)" fill="#E58B76"/>
<rect x="1786.67" y="165.026" width="50" height="5" rx="2.5" transform="rotate(-180 1786.67 165.026)" fill="#E58B76"/>
<rect x="1786.67" y="150.026" width="50" height="5" rx="2.5" transform="rotate(-180 1786.67 150.026)" fill="#E58B76"/>
<rect x="1786.67" y="135.026" width="50" height="5" rx="2.5" transform="rotate(-180 1786.67 135.026)" fill="#E58B76"/>
<rect x="1786.67" y="120.026" width="50" height="5" rx="2.5" transform="rotate(-180 1786.67 120.026)" fill="#E58B76"/>
<rect x="1786.67" y="105.026" width="50" height="5" rx="2.5" transform="rotate(-180 1786.67 105.026)" fill="#E58B76"/>
<rect x="1786.67" y="90.0264" width="50" height="5" rx="2.5" transform="rotate(-180 1786.67 90.0264)" fill="#E58B76"/>
<rect x="1786.67" y="75.0264" width="50" height="5" rx="2.5" transform="rotate(-180 1786.67 75.0264)" fill="#E58B76"/>
<rect x="1786.67" y="60.0264" width="50" height="5" rx="2.5" transform="rotate(-180 1786.67 60.0264)" fill="#E58B76"/>
<rect x="1786.67" y="45.0264" width="50" height="5" rx="2.5" transform="rotate(-180 1786.67 45.0264)" fill="#E58B76"/>
<rect x="1786.67" y="30.0264" width="50" height="5" rx="2.5" transform="rotate(-180 1786.67 30.0264)" fill="#E58B76"/>
<rect x="1786.67" y="15.0264" width="50" height="5" rx="2.5" transform="rotate(-180 1786.67 15.0264)" fill="#E58B76"/>
<rect x="1726.67" y="645.026" width="50" height="5" rx="2.5" transform="rotate(-180 1726.67 645.026)" fill="#E58B76"/>
<rect x="1726.67" y="630.026" width="50" height="5" rx="2.5" transform="rotate(-180 1726.67 630.026)" fill="#E58B76"/>
<rect x="1726.67" y="615.026" width="50" height="5" rx="2.5" transform="rotate(-180 1726.67 615.026)" fill="#E58B76"/>
<rect x="1726.67" y="600.026" width="50" height="5" rx="2.5" transform="rotate(-180 1726.67 600.026)" fill="#E58B76"/>
<rect x="1726.67" y="585.026" width="50" height="5" rx="2.5" transform="rotate(-180 1726.67 585.026)" fill="#E58B76"/>
<rect x="1726.67" y="570.026" width="50" height="5" rx="2.5" transform="rotate(-180 1726.67 570.026)" fill="#E58B76"/>
<rect x="1726.67" y="555.026" width="50" height="5" rx="2.5" transform="rotate(-180 1726.67 555.026)" fill="#E58B76"/>
<rect x="1726.67" y="540.026" width="50" height="5" rx="2.5" transform="rotate(-180 1726.67 540.026)" fill="#E58B76"/>
<rect x="1726.67" y="525.026" width="50" height="5" rx="2.5" transform="rotate(-180 1726.67 525.026)" fill="#E58B76"/>
<rect x="1726.67" y="510.026" width="50" height="5" rx="2.5" transform="rotate(-180 1726.67 510.026)" fill="#E58B76"/>
<rect x="1726.67" y="495.026" width="50" height="5" rx="2.5" transform="rotate(-180 1726.67 495.026)" fill="#E58B76"/>
<rect x="1726.67" y="480.026" width="50" height="5" rx="2.5" transform="rotate(-180 1726.67 480.026)" fill="#E58B76"/>
<rect x="1726.67" y="465.026" width="50" height="5" rx="2.5" transform="rotate(-180 1726.67 465.026)" fill="#E58B76"/>
<rect x="1726.67" y="450.026" width="50" height="5" rx="2.5" transform="rotate(-180 1726.67 450.026)" fill="#E58B76"/>
<rect x="1726.67" y="435.026" width="50" height="5" rx="2.5" transform="rotate(-180 1726.67 435.026)" fill="#E58B76"/>
<rect x="1726.67" y="420.026" width="50" height="5" rx="2.5" transform="rotate(-180 1726.67 420.026)" fill="#E58B76"/>
<rect x="1726.67" y="405.026" width="50" height="5" rx="2.5" transform="rotate(-180 1726.67 405.026)" fill="#E58B76"/>
<rect x="1726.67" y="390.026" width="50" height="5" rx="2.5" transform="rotate(-180 1726.67 390.026)" fill="#E58B76"/>
<rect x="1726.67" y="375.026" width="50" height="5" rx="2.5" transform="rotate(-180 1726.67 375.026)" fill="#E58B76"/>
<rect x="1726.67" y="360.026" width="50" height="5" rx="2.5" transform="rotate(-180 1726.67 360.026)" fill="#E58B76"/>
<rect x="1726.67" y="345.026" width="50" height="5" rx="2.5" transform="rotate(-180 1726.67 345.026)" fill="#E58B76"/>
<rect x="1726.67" y="330.026" width="50" height="5" rx="2.5" transform="rotate(-180 1726.67 330.026)" fill="#E58B76"/>
<rect x="1726.67" y="315.026" width="50" height="5" rx="2.5" transform="rotate(-180 1726.67 315.026)" fill="#E58B76"/>
<rect x="1726.67" y="300.026" width="50" height="5" rx="2.5" transform="rotate(-180 1726.67 300.026)" fill="#E58B76"/>
<rect x="1726.67" y="285.026" width="50" height="5" rx="2.5" transform="rotate(-180 1726.67 285.026)" fill="#E58B76"/>
<rect x="1726.67" y="270.026" width="50" height="5" rx="2.5" transform="rotate(-180 1726.67 270.026)" fill="#E58B76"/>
<rect x="1726.67" y="255.026" width="50" height="5" rx="2.5" transform="rotate(-180 1726.67 255.026)" fill="#E58B76"/>
<rect x="1726.67" y="240.026" width="50" height="5" rx="2.5" transform="rotate(-180 1726.67 240.026)" fill="#E58B76"/>
<rect x="1726.67" y="225.026" width="50" height="5" rx="2.5" transform="rotate(-180 1726.67 225.026)" fill="#E58B76"/>
<rect x="1726.67" y="210.026" width="50" height="5" rx="2.5" transform="rotate(-180 1726.67 210.026)" fill="#E58B76"/>
<rect x="1726.67" y="195.026" width="50" height="5" rx="2.5" transform="rotate(-180 1726.67 195.026)" fill="#E58B76"/>
<rect x="1726.67" y="180.026" width="50" height="5" rx="2.5" transform="rotate(-180 1726.67 180.026)" fill="#E58B76"/>
<rect x="1726.67" y="165.026" width="50" height="5" rx="2.5" transform="rotate(-180 1726.67 165.026)" fill="#E58B76"/>
<rect x="1726.67" y="150.026" width="50" height="5" rx="2.5" transform="rotate(-180 1726.67 150.026)" fill="#E58B76"/>
<rect x="1726.67" y="135.026" width="50" height="5" rx="2.5" transform="rotate(-180 1726.67 135.026)" fill="#E58B76"/>
<rect x="1726.67" y="120.026" width="50" height="5" rx="2.5" transform="rotate(-180 1726.67 120.026)" fill="#E58B76"/>
<rect x="1726.67" y="105.026" width="50" height="5" rx="2.5" transform="rotate(-180 1726.67 105.026)" fill="#E58B76"/>
<rect x="1726.67" y="90.0264" width="50" height="5" rx="2.5" transform="rotate(-180 1726.67 90.0264)" fill="#E58B76"/>
<rect x="1726.67" y="75.0264" width="50" height="5" rx="2.5" transform="rotate(-180 1726.67 75.0264)" fill="#E58B76"/>
<rect x="1726.67" y="60.0264" width="50" height="5" rx="2.5" transform="rotate(-180 1726.67 60.0264)" fill="#E58B76"/>
<rect x="1726.67" y="45.0264" width="50" height="5" rx="2.5" transform="rotate(-180 1726.67 45.0264)" fill="#E58B76"/>
<rect x="1726.67" y="30.0264" width="50" height="5" rx="2.5" transform="rotate(-180 1726.67 30.0264)" fill="#E58B76"/>
<rect x="1726.67" y="15.0264" width="50" height="5" rx="2.5" transform="rotate(-180 1726.67 15.0264)" fill="#E58B76"/>
<rect x="1666.67" y="645.026" width="50" height="5" rx="2.5" transform="rotate(-180 1666.67 645.026)" fill="#E58B76"/>
<rect x="1666.67" y="630.026" width="50" height="5" rx="2.5" transform="rotate(-180 1666.67 630.026)" fill="#E58B76"/>
<rect x="1666.67" y="615.026" width="50" height="5" rx="2.5" transform="rotate(-180 1666.67 615.026)" fill="#E58B76"/>
<rect x="1666.67" y="600.026" width="50" height="5" rx="2.5" transform="rotate(-180 1666.67 600.026)" fill="#E58B76"/>
<rect x="1666.67" y="585.026" width="50" height="5" rx="2.5" transform="rotate(-180 1666.67 585.026)" fill="#E58B76"/>
<rect x="1666.67" y="570.026" width="50" height="5" rx="2.5" transform="rotate(-180 1666.67 570.026)" fill="#E58B76"/>
<rect x="1666.67" y="555.026" width="50" height="5" rx="2.5" transform="rotate(-180 1666.67 555.026)" fill="#E58B76"/>
<rect x="1666.67" y="540.026" width="50" height="5" rx="2.5" transform="rotate(-180 1666.67 540.026)" fill="#E58B76"/>
<rect x="1666.67" y="525.026" width="50" height="5" rx="2.5" transform="rotate(-180 1666.67 525.026)" fill="#E58B76"/>
<rect x="1666.67" y="510.026" width="50" height="5" rx="2.5" transform="rotate(-180 1666.67 510.026)" fill="#E58B76"/>
<rect x="1666.67" y="495.026" width="50" height="5" rx="2.5" transform="rotate(-180 1666.67 495.026)" fill="#E58B76"/>
<rect x="1666.67" y="480.026" width="50" height="5" rx="2.5" transform="rotate(-180 1666.67 480.026)" fill="#E58B76"/>
<rect x="1666.67" y="465.026" width="50" height="5" rx="2.5" transform="rotate(-180 1666.67 465.026)" fill="#E58B76"/>
<rect x="1666.67" y="450.026" width="50" height="5" rx="2.5" transform="rotate(-180 1666.67 450.026)" fill="#E58B76"/>
<rect x="1666.67" y="435.026" width="50" height="5" rx="2.5" transform="rotate(-180 1666.67 435.026)" fill="#E58B76"/>
<rect x="1666.67" y="420.026" width="50" height="5" rx="2.5" transform="rotate(-180 1666.67 420.026)" fill="#E58B76"/>
<rect x="1666.67" y="405.026" width="50" height="5" rx="2.5" transform="rotate(-180 1666.67 405.026)" fill="#E58B76"/>
<rect x="1666.67" y="390.026" width="50" height="5" rx="2.5" transform="rotate(-180 1666.67 390.026)" fill="#E58B76"/>
<rect x="1666.67" y="375.026" width="50" height="5" rx="2.5" transform="rotate(-180 1666.67 375.026)" fill="#E58B76"/>
<rect x="1666.67" y="360.026" width="50" height="5" rx="2.5" transform="rotate(-180 1666.67 360.026)" fill="#E58B76"/>
<rect x="1666.67" y="345.026" width="50" height="5" rx="2.5" transform="rotate(-180 1666.67 345.026)" fill="#E58B76"/>
<rect x="1666.67" y="330.026" width="50" height="5" rx="2.5" transform="rotate(-180 1666.67 330.026)" fill="#E58B76"/>
<rect x="1666.67" y="315.026" width="50" height="5" rx="2.5" transform="rotate(-180 1666.67 315.026)" fill="#E58B76"/>
<rect x="1666.67" y="300.026" width="50" height="5" rx="2.5" transform="rotate(-180 1666.67 300.026)" fill="#E58B76"/>
<rect x="1666.67" y="285.026" width="50" height="5" rx="2.5" transform="rotate(-180 1666.67 285.026)" fill="#E58B76"/>
<rect x="1666.67" y="270.026" width="50" height="5" rx="2.5" transform="rotate(-180 1666.67 270.026)" fill="#E58B76"/>
<rect x="1666.67" y="255.026" width="50" height="5" rx="2.5" transform="rotate(-180 1666.67 255.026)" fill="#E58B76"/>
<rect x="1666.67" y="240.026" width="50" height="5" rx="2.5" transform="rotate(-180 1666.67 240.026)" fill="#E58B76"/>
<rect x="1666.67" y="225.026" width="50" height="5" rx="2.5" transform="rotate(-180 1666.67 225.026)" fill="#E58B76"/>
<rect x="1666.67" y="210.026" width="50" height="5" rx="2.5" transform="rotate(-180 1666.67 210.026)" fill="#E58B76"/>
<rect x="1666.67" y="195.026" width="50" height="5" rx="2.5" transform="rotate(-180 1666.67 195.026)" fill="#E58B76"/>
<rect x="1666.67" y="180.026" width="50" height="5" rx="2.5" transform="rotate(-180 1666.67 180.026)" fill="#E58B76"/>
<rect x="1666.67" y="165.026" width="50" height="5" rx="2.5" transform="rotate(-180 1666.67 165.026)" fill="#E58B76"/>
<rect x="1666.67" y="150.026" width="50" height="5" rx="2.5" transform="rotate(-180 1666.67 150.026)" fill="#E58B76"/>
<rect x="1666.67" y="135.026" width="50" height="5" rx="2.5" transform="rotate(-180 1666.67 135.026)" fill="#E58B76"/>
<rect x="1666.67" y="120.026" width="50" height="5" rx="2.5" transform="rotate(-180 1666.67 120.026)" fill="#E58B76"/>
<rect x="1666.67" y="105.026" width="50" height="5" rx="2.5" transform="rotate(-180 1666.67 105.026)" fill="#E58B76"/>
<rect x="1666.67" y="90.0264" width="50" height="5" rx="2.5" transform="rotate(-180 1666.67 90.0264)" fill="#E58B76"/>
<rect x="1666.67" y="75.0264" width="50" height="5" rx="2.5" transform="rotate(-180 1666.67 75.0264)" fill="#E58B76"/>
<rect x="1666.67" y="60.0264" width="50" height="5" rx="2.5" transform="rotate(-180 1666.67 60.0264)" fill="#E58B76"/>
<rect x="1666.67" y="45.0264" width="50" height="5" rx="2.5" transform="rotate(-180 1666.67 45.0264)" fill="#E58B76"/>
<rect x="1666.67" y="30.0264" width="50" height="5" rx="2.5" transform="rotate(-180 1666.67 30.0264)" fill="#E58B76"/>
<rect x="1666.67" y="15.0264" width="50" height="5" rx="2.5" transform="rotate(-180 1666.67 15.0264)" fill="#E58B76"/>
</g>
</g>
<defs>
<radialGradient id="paint0_radial_3398_5856" cx="0" cy="0" r="1" gradientUnits="userSpaceOnUse" gradientTransform="translate(1920 320.024) rotate(90) scale(350 466.667)">
<stop stop-color="#E58B76" stop-opacity="0.34"/>
<stop offset="1" stop-color="#60034C" stop-opacity="0"/>
</radialGradient>
</defs>
</svg>
