<svg width="1920" height="645" viewBox="0 0 1920 645" fill="none" xmlns="http://www.w3.org/2000/svg">
<mask id="mask0_3424_6202" style="mask-type:alpha" maskUnits="userSpaceOnUse" x="0" y="0" width="1920" height="645">
<rect width="1920" height="645" fill="white"/>
</mask>
<g mask="url(#mask0_3424_6202)">
<mask id="mask1_3424_6202" style="mask-type:alpha" maskUnits="userSpaceOnUse" x="-467" y="-25" width="934" height="700">
<ellipse cx="-0.00131226" cy="325" rx="466.667" ry="350" fill="url(#paint0_radial_3424_6202)"/>
</mask>
<g mask="url(#mask1_3424_6202)">
<rect x="-46.668" width="50" height="5" rx="2.5" fill="#60034C"/>
<rect x="-46.668" y="15" width="50" height="5" rx="2.5" fill="#60034C"/>
<rect x="-46.668" y="30" width="50" height="5" rx="2.5" fill="#60034C"/>
<rect x="-46.668" y="45" width="50" height="5" rx="2.5" fill="#60034C"/>
<rect x="-46.668" y="60" width="50" height="5" rx="2.5" fill="#60034C"/>
<rect x="-46.668" y="75" width="50" height="5" rx="2.5" fill="#60034C"/>
<rect x="-46.668" y="90" width="50" height="5" rx="2.5" fill="#60034C"/>
<rect x="-46.668" y="105" width="50" height="5" rx="2.5" fill="#60034C"/>
<rect x="-46.668" y="120" width="50" height="5" rx="2.5" fill="#60034C"/>
<rect x="-46.668" y="135" width="50" height="5" rx="2.5" fill="#60034C"/>
<rect x="-46.668" y="150" width="50" height="5" rx="2.5" fill="#60034C"/>
<rect x="-46.668" y="165" width="50" height="5" rx="2.5" fill="#60034C"/>
<rect x="-46.668" y="180" width="50" height="5" rx="2.5" fill="#60034C"/>
<rect x="-46.668" y="195" width="50" height="5" rx="2.5" fill="#60034C"/>
<rect x="-46.668" y="210" width="50" height="5" rx="2.5" fill="#60034C"/>
<rect x="-46.668" y="225" width="50" height="5" rx="2.5" fill="#60034C"/>
<rect x="-46.668" y="240" width="50" height="5" rx="2.5" fill="#60034C"/>
<rect x="-46.668" y="255" width="50" height="5" rx="2.5" fill="#60034C"/>
<rect x="-46.668" y="270" width="50" height="5" rx="2.5" fill="#60034C"/>
<rect x="-46.668" y="285" width="50" height="5" rx="2.5" fill="#60034C"/>
<rect x="-46.668" y="300" width="50" height="5" rx="2.5" fill="#60034C"/>
<rect x="-46.668" y="315" width="50" height="5" rx="2.5" fill="#60034C"/>
<rect x="-46.668" y="330" width="50" height="5" rx="2.5" fill="#60034C"/>
<rect x="-46.668" y="345" width="50" height="5" rx="2.5" fill="#60034C"/>
<rect x="-46.668" y="360" width="50" height="5" rx="2.5" fill="#60034C"/>
<rect x="-46.668" y="375" width="50" height="5" rx="2.5" fill="#60034C"/>
<rect x="-46.668" y="390" width="50" height="5" rx="2.5" fill="#60034C"/>
<rect x="-46.668" y="405" width="50" height="5" rx="2.5" fill="#60034C"/>
<rect x="-46.668" y="420" width="50" height="5" rx="2.5" fill="#60034C"/>
<rect x="-46.668" y="435" width="50" height="5" rx="2.5" fill="#60034C"/>
<rect x="-46.668" y="450" width="50" height="5" rx="2.5" fill="#60034C"/>
<rect x="-46.668" y="465" width="50" height="5" rx="2.5" fill="#60034C"/>
<rect x="-46.668" y="480" width="50" height="5" rx="2.5" fill="#60034C"/>
<rect x="-46.668" y="495" width="50" height="5" rx="2.5" fill="#60034C"/>
<rect x="-46.668" y="510" width="50" height="5" rx="2.5" fill="#60034C"/>
<rect x="-46.668" y="525" width="50" height="5" rx="2.5" fill="#60034C"/>
<rect x="-46.668" y="540" width="50" height="5" rx="2.5" fill="#60034C"/>
<rect x="-46.668" y="555" width="50" height="5" rx="2.5" fill="#60034C"/>
<rect x="-46.668" y="570" width="50" height="5" rx="2.5" fill="#60034C"/>
<rect x="-46.668" y="585" width="50" height="5" rx="2.5" fill="#60034C"/>
<rect x="-46.668" y="600" width="50" height="5" rx="2.5" fill="#60034C"/>
<rect x="-46.668" y="615" width="50" height="5" rx="2.5" fill="#60034C"/>
<rect x="-46.668" y="630" width="50" height="5" rx="2.5" fill="#60034C"/>
<rect x="13.332" width="50" height="5" rx="2.5" fill="#60034C"/>
<rect x="13.332" y="15" width="50" height="5" rx="2.5" fill="#60034C"/>
<rect x="13.332" y="30" width="50" height="5" rx="2.5" fill="#60034C"/>
<rect x="13.332" y="45" width="50" height="5" rx="2.5" fill="#60034C"/>
<rect x="13.332" y="60" width="50" height="5" rx="2.5" fill="#60034C"/>
<rect x="13.332" y="75" width="50" height="5" rx="2.5" fill="#60034C"/>
<rect x="13.332" y="90" width="50" height="5" rx="2.5" fill="#60034C"/>
<rect x="13.332" y="105" width="50" height="5" rx="2.5" fill="#60034C"/>
<rect x="13.332" y="120" width="50" height="5" rx="2.5" fill="#60034C"/>
<rect x="13.332" y="135" width="50" height="5" rx="2.5" fill="#60034C"/>
<rect x="13.332" y="150" width="50" height="5" rx="2.5" fill="#60034C"/>
<rect x="13.332" y="165" width="50" height="5" rx="2.5" fill="#60034C"/>
<rect x="13.332" y="180" width="50" height="5" rx="2.5" fill="#60034C"/>
<rect x="13.332" y="195" width="50" height="5" rx="2.5" fill="#60034C"/>
<rect x="13.332" y="210" width="50" height="5" rx="2.5" fill="#60034C"/>
<rect x="13.332" y="225" width="50" height="5" rx="2.5" fill="#60034C"/>
<rect x="13.332" y="240" width="50" height="5" rx="2.5" fill="#60034C"/>
<rect x="13.332" y="255" width="50" height="5" rx="2.5" fill="#60034C"/>
<rect x="13.332" y="270" width="50" height="5" rx="2.5" fill="#60034C"/>
<rect x="13.332" y="285" width="50" height="5" rx="2.5" fill="#60034C"/>
<rect x="13.332" y="300" width="50" height="5" rx="2.5" fill="#60034C"/>
<rect x="13.332" y="315" width="50" height="5" rx="2.5" fill="#60034C"/>
<rect x="13.332" y="330" width="50" height="5" rx="2.5" fill="#60034C"/>
<rect x="13.332" y="345" width="50" height="5" rx="2.5" fill="#60034C"/>
<rect x="13.332" y="360" width="50" height="5" rx="2.5" fill="#60034C"/>
<rect x="13.332" y="375" width="50" height="5" rx="2.5" fill="#60034C"/>
<rect x="13.332" y="390" width="50" height="5" rx="2.5" fill="#60034C"/>
<rect x="13.332" y="405" width="50" height="5" rx="2.5" fill="#60034C"/>
<rect x="13.332" y="420" width="50" height="5" rx="2.5" fill="#60034C"/>
<rect x="13.332" y="435" width="50" height="5" rx="2.5" fill="#60034C"/>
<rect x="13.332" y="450" width="50" height="5" rx="2.5" fill="#60034C"/>
<rect x="13.332" y="465" width="50" height="5" rx="2.5" fill="#60034C"/>
<rect x="13.332" y="480" width="50" height="5" rx="2.5" fill="#60034C"/>
<rect x="13.332" y="495" width="50" height="5" rx="2.5" fill="#60034C"/>
<rect x="13.332" y="510" width="50" height="5" rx="2.5" fill="#60034C"/>
<rect x="13.332" y="525" width="50" height="5" rx="2.5" fill="#60034C"/>
<rect x="13.332" y="540" width="50" height="5" rx="2.5" fill="#60034C"/>
<rect x="13.332" y="555" width="50" height="5" rx="2.5" fill="#60034C"/>
<rect x="13.332" y="570" width="50" height="5" rx="2.5" fill="#60034C"/>
<rect x="13.332" y="585" width="50" height="5" rx="2.5" fill="#60034C"/>
<rect x="13.332" y="600" width="50" height="5" rx="2.5" fill="#60034C"/>
<rect x="13.332" y="615" width="50" height="5" rx="2.5" fill="#60034C"/>
<rect x="13.332" y="630" width="50" height="5" rx="2.5" fill="#60034C"/>
<rect x="73.332" width="50" height="5" rx="2.5" fill="#60034C"/>
<rect x="73.332" y="15" width="50" height="5" rx="2.5" fill="#60034C"/>
<rect x="73.332" y="30" width="50" height="5" rx="2.5" fill="#60034C"/>
<rect x="73.332" y="45" width="50" height="5" rx="2.5" fill="#60034C"/>
<rect x="73.332" y="60" width="50" height="5" rx="2.5" fill="#60034C"/>
<rect x="73.332" y="75" width="50" height="5" rx="2.5" fill="#60034C"/>
<rect x="73.332" y="90" width="50" height="5" rx="2.5" fill="#60034C"/>
<rect x="73.332" y="105" width="50" height="5" rx="2.5" fill="#60034C"/>
<rect x="73.332" y="120" width="50" height="5" rx="2.5" fill="#60034C"/>
<rect x="73.332" y="135" width="50" height="5" rx="2.5" fill="#60034C"/>
<rect x="73.332" y="150" width="50" height="5" rx="2.5" fill="#60034C"/>
<rect x="73.332" y="165" width="50" height="5" rx="2.5" fill="#60034C"/>
<rect x="73.332" y="180" width="50" height="5" rx="2.5" fill="#60034C"/>
<rect x="73.332" y="195" width="50" height="5" rx="2.5" fill="#60034C"/>
<rect x="73.332" y="210" width="50" height="5" rx="2.5" fill="#60034C"/>
<rect x="73.332" y="225" width="50" height="5" rx="2.5" fill="#60034C"/>
<rect x="73.332" y="240" width="50" height="5" rx="2.5" fill="#60034C"/>
<rect x="73.332" y="255" width="50" height="5" rx="2.5" fill="#60034C"/>
<rect x="73.332" y="270" width="50" height="5" rx="2.5" fill="#60034C"/>
<rect x="73.332" y="285" width="50" height="5" rx="2.5" fill="#60034C"/>
<rect x="73.332" y="300" width="50" height="5" rx="2.5" fill="#60034C"/>
<rect x="73.332" y="315" width="50" height="5" rx="2.5" fill="#60034C"/>
<rect x="73.332" y="330" width="50" height="5" rx="2.5" fill="#60034C"/>
<rect x="73.332" y="345" width="50" height="5" rx="2.5" fill="#60034C"/>
<rect x="73.332" y="360" width="50" height="5" rx="2.5" fill="#60034C"/>
<rect x="73.332" y="375" width="50" height="5" rx="2.5" fill="#60034C"/>
<rect x="73.332" y="390" width="50" height="5" rx="2.5" fill="#60034C"/>
<rect x="73.332" y="405" width="50" height="5" rx="2.5" fill="#60034C"/>
<rect x="73.332" y="420" width="50" height="5" rx="2.5" fill="#60034C"/>
<rect x="73.332" y="435" width="50" height="5" rx="2.5" fill="#60034C"/>
<rect x="73.332" y="450" width="50" height="5" rx="2.5" fill="#60034C"/>
<rect x="73.332" y="465" width="50" height="5" rx="2.5" fill="#60034C"/>
<rect x="73.332" y="480" width="50" height="5" rx="2.5" fill="#60034C"/>
<rect x="73.332" y="495" width="50" height="5" rx="2.5" fill="#60034C"/>
<rect x="73.332" y="510" width="50" height="5" rx="2.5" fill="#60034C"/>
<rect x="73.332" y="525" width="50" height="5" rx="2.5" fill="#60034C"/>
<rect x="73.332" y="540" width="50" height="5" rx="2.5" fill="#60034C"/>
<rect x="73.332" y="555" width="50" height="5" rx="2.5" fill="#60034C"/>
<rect x="73.332" y="570" width="50" height="5" rx="2.5" fill="#60034C"/>
<rect x="73.332" y="585" width="50" height="5" rx="2.5" fill="#60034C"/>
<rect x="73.332" y="600" width="50" height="5" rx="2.5" fill="#60034C"/>
<rect x="73.332" y="615" width="50" height="5" rx="2.5" fill="#60034C"/>
<rect x="73.332" y="630" width="50" height="5" rx="2.5" fill="#60034C"/>
<rect x="133.332" width="50" height="5" rx="2.5" fill="#60034C"/>
<rect x="133.332" y="15" width="50" height="5" rx="2.5" fill="#60034C"/>
<rect x="133.332" y="30" width="50" height="5" rx="2.5" fill="#60034C"/>
<rect x="133.332" y="45" width="50" height="5" rx="2.5" fill="#60034C"/>
<rect x="133.332" y="60" width="50" height="5" rx="2.5" fill="#60034C"/>
<rect x="133.332" y="75" width="50" height="5" rx="2.5" fill="#60034C"/>
<rect x="133.332" y="90" width="50" height="5" rx="2.5" fill="#60034C"/>
<rect x="133.332" y="105" width="50" height="5" rx="2.5" fill="#60034C"/>
<rect x="133.332" y="120" width="50" height="5" rx="2.5" fill="#60034C"/>
<rect x="133.332" y="135" width="50" height="5" rx="2.5" fill="#60034C"/>
<rect x="133.332" y="150" width="50" height="5" rx="2.5" fill="#60034C"/>
<rect x="133.332" y="165" width="50" height="5" rx="2.5" fill="#60034C"/>
<rect x="133.332" y="180" width="50" height="5" rx="2.5" fill="#60034C"/>
<rect x="133.332" y="195" width="50" height="5" rx="2.5" fill="#60034C"/>
<rect x="133.332" y="210" width="50" height="5" rx="2.5" fill="#60034C"/>
<rect x="133.332" y="225" width="50" height="5" rx="2.5" fill="#60034C"/>
<rect x="133.332" y="240" width="50" height="5" rx="2.5" fill="#60034C"/>
<rect x="133.332" y="255" width="50" height="5" rx="2.5" fill="#60034C"/>
<rect x="133.332" y="270" width="50" height="5" rx="2.5" fill="#60034C"/>
<rect x="133.332" y="285" width="50" height="5" rx="2.5" fill="#60034C"/>
<rect x="133.332" y="300" width="50" height="5" rx="2.5" fill="#60034C"/>
<rect x="133.332" y="315" width="50" height="5" rx="2.5" fill="#60034C"/>
<rect x="133.332" y="330" width="50" height="5" rx="2.5" fill="#60034C"/>
<rect x="133.332" y="345" width="50" height="5" rx="2.5" fill="#60034C"/>
<rect x="133.332" y="360" width="50" height="5" rx="2.5" fill="#60034C"/>
<rect x="133.332" y="375" width="50" height="5" rx="2.5" fill="#60034C"/>
<rect x="133.332" y="390" width="50" height="5" rx="2.5" fill="#60034C"/>
<rect x="133.332" y="405" width="50" height="5" rx="2.5" fill="#60034C"/>
<rect x="133.332" y="420" width="50" height="5" rx="2.5" fill="#60034C"/>
<rect x="133.332" y="435" width="50" height="5" rx="2.5" fill="#60034C"/>
<rect x="133.332" y="450" width="50" height="5" rx="2.5" fill="#60034C"/>
<rect x="133.332" y="465" width="50" height="5" rx="2.5" fill="#60034C"/>
<rect x="133.332" y="480" width="50" height="5" rx="2.5" fill="#60034C"/>
<rect x="133.332" y="495" width="50" height="5" rx="2.5" fill="#60034C"/>
<rect x="133.332" y="510" width="50" height="5" rx="2.5" fill="#60034C"/>
<rect x="133.332" y="525" width="50" height="5" rx="2.5" fill="#60034C"/>
<rect x="133.332" y="540" width="50" height="5" rx="2.5" fill="#60034C"/>
<rect x="133.332" y="555" width="50" height="5" rx="2.5" fill="#60034C"/>
<rect x="133.332" y="570" width="50" height="5" rx="2.5" fill="#60034C"/>
<rect x="133.332" y="585" width="50" height="5" rx="2.5" fill="#60034C"/>
<rect x="133.332" y="600" width="50" height="5" rx="2.5" fill="#60034C"/>
<rect x="133.332" y="615" width="50" height="5" rx="2.5" fill="#60034C"/>
<rect x="133.332" y="630" width="50" height="5" rx="2.5" fill="#60034C"/>
<rect x="193.332" width="50" height="5" rx="2.5" fill="#60034C"/>
<rect x="193.332" y="15" width="50" height="5" rx="2.5" fill="#60034C"/>
<rect x="193.332" y="30" width="50" height="5" rx="2.5" fill="#60034C"/>
<rect x="193.332" y="45" width="50" height="5" rx="2.5" fill="#60034C"/>
<rect x="193.332" y="60" width="50" height="5" rx="2.5" fill="#60034C"/>
<rect x="193.332" y="75" width="50" height="5" rx="2.5" fill="#60034C"/>
<rect x="193.332" y="90" width="50" height="5" rx="2.5" fill="#60034C"/>
<rect x="193.332" y="105" width="50" height="5" rx="2.5" fill="#60034C"/>
<rect x="193.332" y="120" width="50" height="5" rx="2.5" fill="#60034C"/>
<rect x="193.332" y="135" width="50" height="5" rx="2.5" fill="#60034C"/>
<rect x="193.332" y="150" width="50" height="5" rx="2.5" fill="#60034C"/>
<rect x="193.332" y="165" width="50" height="5" rx="2.5" fill="#60034C"/>
<rect x="193.332" y="180" width="50" height="5" rx="2.5" fill="#60034C"/>
<rect x="193.332" y="195" width="50" height="5" rx="2.5" fill="#60034C"/>
<rect x="193.332" y="210" width="50" height="5" rx="2.5" fill="#60034C"/>
<rect x="193.332" y="225" width="50" height="5" rx="2.5" fill="#60034C"/>
<rect x="193.332" y="240" width="50" height="5" rx="2.5" fill="#60034C"/>
<rect x="193.332" y="255" width="50" height="5" rx="2.5" fill="#60034C"/>
<rect x="193.332" y="270" width="50" height="5" rx="2.5" fill="#60034C"/>
<rect x="193.332" y="285" width="50" height="5" rx="2.5" fill="#60034C"/>
<rect x="193.332" y="300" width="50" height="5" rx="2.5" fill="#60034C"/>
<rect x="193.332" y="315" width="50" height="5" rx="2.5" fill="#60034C"/>
<rect x="193.332" y="330" width="50" height="5" rx="2.5" fill="#60034C"/>
<rect x="193.332" y="345" width="50" height="5" rx="2.5" fill="#60034C"/>
<rect x="193.332" y="360" width="50" height="5" rx="2.5" fill="#60034C"/>
<rect x="193.332" y="375" width="50" height="5" rx="2.5" fill="#60034C"/>
<rect x="193.332" y="390" width="50" height="5" rx="2.5" fill="#60034C"/>
<rect x="193.332" y="405" width="50" height="5" rx="2.5" fill="#60034C"/>
<rect x="193.332" y="420" width="50" height="5" rx="2.5" fill="#60034C"/>
<rect x="193.332" y="435" width="50" height="5" rx="2.5" fill="#60034C"/>
<rect x="193.332" y="450" width="50" height="5" rx="2.5" fill="#60034C"/>
<rect x="193.332" y="465" width="50" height="5" rx="2.5" fill="#60034C"/>
<rect x="193.332" y="480" width="50" height="5" rx="2.5" fill="#60034C"/>
<rect x="193.332" y="495" width="50" height="5" rx="2.5" fill="#60034C"/>
<rect x="193.332" y="510" width="50" height="5" rx="2.5" fill="#60034C"/>
<rect x="193.332" y="525" width="50" height="5" rx="2.5" fill="#60034C"/>
<rect x="193.332" y="540" width="50" height="5" rx="2.5" fill="#60034C"/>
<rect x="193.332" y="555" width="50" height="5" rx="2.5" fill="#60034C"/>
<rect x="193.332" y="570" width="50" height="5" rx="2.5" fill="#60034C"/>
<rect x="193.332" y="585" width="50" height="5" rx="2.5" fill="#60034C"/>
<rect x="193.332" y="600" width="50" height="5" rx="2.5" fill="#60034C"/>
<rect x="193.332" y="615" width="50" height="5" rx="2.5" fill="#60034C"/>
<rect x="193.332" y="630" width="50" height="5" rx="2.5" fill="#60034C"/>
<rect x="253.332" width="50" height="5" rx="2.5" fill="#60034C"/>
<rect x="253.332" y="15" width="50" height="5" rx="2.5" fill="#60034C"/>
<rect x="253.332" y="30" width="50" height="5" rx="2.5" fill="#60034C"/>
<rect x="253.332" y="45" width="50" height="5" rx="2.5" fill="#60034C"/>
<rect x="253.332" y="60" width="50" height="5" rx="2.5" fill="#60034C"/>
<rect x="253.332" y="75" width="50" height="5" rx="2.5" fill="#60034C"/>
<rect x="253.332" y="90" width="50" height="5" rx="2.5" fill="#60034C"/>
<rect x="253.332" y="105" width="50" height="5" rx="2.5" fill="#60034C"/>
<rect x="253.332" y="120" width="50" height="5" rx="2.5" fill="#60034C"/>
<rect x="253.332" y="135" width="50" height="5" rx="2.5" fill="#60034C"/>
<rect x="253.332" y="150" width="50" height="5" rx="2.5" fill="#60034C"/>
<rect x="253.332" y="165" width="50" height="5" rx="2.5" fill="#60034C"/>
<rect x="253.332" y="180" width="50" height="5" rx="2.5" fill="#60034C"/>
<rect x="253.332" y="195" width="50" height="5" rx="2.5" fill="#60034C"/>
<rect x="253.332" y="210" width="50" height="5" rx="2.5" fill="#60034C"/>
<rect x="253.332" y="225" width="50" height="5" rx="2.5" fill="#60034C"/>
<rect x="253.332" y="240" width="50" height="5" rx="2.5" fill="#60034C"/>
<rect x="253.332" y="255" width="50" height="5" rx="2.5" fill="#60034C"/>
<rect x="253.332" y="270" width="50" height="5" rx="2.5" fill="#60034C"/>
<rect x="253.332" y="285" width="50" height="5" rx="2.5" fill="#60034C"/>
<rect x="253.332" y="300" width="50" height="5" rx="2.5" fill="#60034C"/>
<rect x="253.332" y="315" width="50" height="5" rx="2.5" fill="#60034C"/>
<rect x="253.332" y="330" width="50" height="5" rx="2.5" fill="#60034C"/>
<rect x="253.332" y="345" width="50" height="5" rx="2.5" fill="#60034C"/>
<rect x="253.332" y="360" width="50" height="5" rx="2.5" fill="#60034C"/>
<rect x="253.332" y="375" width="50" height="5" rx="2.5" fill="#60034C"/>
<rect x="253.332" y="390" width="50" height="5" rx="2.5" fill="#60034C"/>
<rect x="253.332" y="405" width="50" height="5" rx="2.5" fill="#60034C"/>
<rect x="253.332" y="420" width="50" height="5" rx="2.5" fill="#60034C"/>
<rect x="253.332" y="435" width="50" height="5" rx="2.5" fill="#60034C"/>
<rect x="253.332" y="450" width="50" height="5" rx="2.5" fill="#60034C"/>
<rect x="253.332" y="465" width="50" height="5" rx="2.5" fill="#60034C"/>
<rect x="253.332" y="480" width="50" height="5" rx="2.5" fill="#60034C"/>
<rect x="253.332" y="495" width="50" height="5" rx="2.5" fill="#60034C"/>
<rect x="253.332" y="510" width="50" height="5" rx="2.5" fill="#60034C"/>
<rect x="253.332" y="525" width="50" height="5" rx="2.5" fill="#60034C"/>
<rect x="253.332" y="540" width="50" height="5" rx="2.5" fill="#60034C"/>
<rect x="253.332" y="555" width="50" height="5" rx="2.5" fill="#60034C"/>
<rect x="253.332" y="570" width="50" height="5" rx="2.5" fill="#60034C"/>
<rect x="253.332" y="585" width="50" height="5" rx="2.5" fill="#60034C"/>
<rect x="253.332" y="600" width="50" height="5" rx="2.5" fill="#60034C"/>
<rect x="253.332" y="615" width="50" height="5" rx="2.5" fill="#60034C"/>
<rect x="253.332" y="630" width="50" height="5" rx="2.5" fill="#60034C"/>
</g>
</g>
<defs>
<radialGradient id="paint0_radial_3424_6202" cx="0" cy="0" r="1" gradientUnits="userSpaceOnUse" gradientTransform="translate(-0.00131226 325) rotate(90) scale(350 466.667)">
<stop stop-color="#E58B76" stop-opacity="0.34"/>
<stop offset="1" stop-color="#60034C" stop-opacity="0"/>
</radialGradient>
</defs>
</svg>
