<svg width="228" height="215" viewBox="0 0 228 215" fill="none" xmlns="http://www.w3.org/2000/svg">
<path d="M79.493 69.9137C81.283 69.5337 82.8231 69.4237 84.1131 69.5637C85.4031 69.7037 86.493 70.0237 87.383 70.4937C88.273 70.9737 88.983 71.5737 89.513 72.3037C90.053 73.0337 90.463 73.7937 90.743 74.5937C91.023 75.3937 91.213 76.1937 91.303 76.9637C91.393 77.7437 91.4331 78.4237 91.4331 79.0037C91.4331 79.2537 91.413 79.5637 91.373 79.9237C91.333 80.2937 91.193 80.6637 90.943 81.0437C90.703 81.4237 90.3131 81.7937 89.7831 82.1337C89.2531 82.4737 88.503 82.7537 87.523 82.9537C87.193 83.0237 86.793 83.0837 86.303 83.1437C85.813 83.2037 85.3431 83.1937 84.8931 83.1137C84.4431 83.0337 84.043 82.8637 83.723 82.6137C83.393 82.3537 83.233 81.9437 83.233 81.3537C83.233 80.4537 83.1831 79.6637 83.0731 78.9737C82.9631 78.2837 82.7731 77.7137 82.5031 77.2737C82.2231 76.8337 81.8431 76.5337 81.3531 76.3637C80.8631 76.2037 80.243 76.2037 79.473 76.3637C78.673 76.5337 78.063 76.8337 77.633 77.2637C77.203 77.6937 76.893 78.1337 76.693 78.5737C76.463 79.1037 76.333 79.6737 76.303 80.2737V96.0737C76.333 96.7937 76.463 97.4137 76.693 97.9137C76.883 98.3537 77.203 98.7237 77.633 99.0337C78.063 99.3437 78.673 99.4137 79.473 99.2437C80.233 99.0837 80.8631 98.7937 81.3531 98.3637C81.8431 97.9337 82.2231 97.4237 82.5031 96.8137C82.7831 96.2037 82.9731 95.5337 83.0731 94.8037C83.1831 94.0637 83.233 93.3137 83.233 92.5237C83.233 92.2737 83.2731 92.0037 83.3531 91.7237C83.4331 91.4437 83.623 91.1537 83.913 90.8737C84.203 90.5837 84.633 90.3137 85.203 90.0437C85.773 89.7737 86.543 89.5337 87.523 89.3337C88.503 89.1237 89.2531 89.0837 89.7831 89.1937C90.3131 89.3037 90.693 89.4837 90.943 89.7237C91.183 89.9637 91.333 90.2137 91.373 90.4837C91.413 90.7537 91.4331 90.9237 91.4331 91.0037C91.4331 92.8337 91.1331 94.5237 90.5331 96.0837C89.9331 97.6437 89.083 99.0437 87.983 100.274C86.883 101.504 85.573 102.534 84.053 103.374C82.533 104.214 80.863 104.824 79.043 105.214C78.753 105.274 78.2731 105.354 77.6131 105.434C76.9531 105.524 76.223 105.544 75.403 105.494C74.593 105.444 73.7531 105.304 72.8931 105.054C72.0331 104.804 71.243 104.364 70.543 103.744C69.833 103.124 69.253 102.284 68.803 101.224C68.343 100.164 68.123 98.8037 68.123 97.1437V83.2437C68.123 81.8837 68.2831 80.6437 68.6131 79.5337C68.9331 78.4237 69.3631 77.4237 69.8931 76.5337C70.4231 75.6537 71.0231 74.8737 71.7131 74.2137C72.3931 73.5437 73.093 72.9637 73.813 72.4637C75.473 71.3137 77.363 70.4637 79.493 69.9037V69.9137Z" fill="#242424"/>
<path d="M94.043 76.9237C94.043 75.3337 94.273 73.9237 94.723 72.7037C95.173 71.4837 95.763 70.4337 96.463 69.5337C97.173 68.6337 97.953 67.8837 98.803 67.2837C99.653 66.6837 100.483 66.1837 101.293 65.8037C102.093 65.4237 102.823 65.1337 103.473 64.9437C104.123 64.7537 104.603 64.6337 104.913 64.5637L105.743 64.3937C106.053 64.3337 106.533 64.2537 107.183 64.1637C107.833 64.0737 108.553 64.0537 109.353 64.1037C110.153 64.1537 110.973 64.3037 111.823 64.5437C112.673 64.7837 113.453 65.2137 114.143 65.8137C114.833 66.4137 115.403 67.2337 115.853 68.2537C116.303 69.2837 116.523 70.5937 116.523 72.1837V87.0837C116.523 88.7237 116.303 90.1737 115.853 91.4137C115.403 92.6537 114.833 93.7237 114.143 94.6337C113.453 95.5437 112.683 96.3037 111.823 96.9237C110.973 97.5437 110.143 98.0437 109.353 98.4237C108.553 98.8037 107.833 99.0937 107.183 99.2737C106.533 99.4637 106.053 99.5837 105.743 99.6537L104.913 99.8237C104.603 99.8937 104.123 99.9637 103.473 100.054C102.823 100.144 102.093 100.164 101.293 100.114C100.493 100.064 99.663 99.9137 98.803 99.6537C97.953 99.3937 97.173 98.9537 96.463 98.3437C95.753 97.7237 95.173 96.8937 94.723 95.8437C94.263 94.7937 94.043 93.4437 94.043 91.8037V76.9037V76.9237ZM102.133 91.0737C102.163 91.6837 102.303 92.1937 102.543 92.6037C102.753 92.9737 103.073 93.2837 103.503 93.5237C103.933 93.7637 104.543 93.8037 105.343 93.6337C106.123 93.4737 106.723 93.1737 107.143 92.7537C107.563 92.3337 107.883 91.8937 108.093 91.4337C108.323 90.9237 108.463 90.3537 108.503 89.7237V73.4837C108.453 72.8937 108.313 72.3837 108.093 71.9537C107.883 71.6037 107.563 71.2937 107.143 71.0437C106.723 70.7937 106.123 70.7437 105.343 70.9137C104.543 71.0837 103.933 71.3837 103.503 71.8137C103.073 72.2437 102.753 72.6837 102.543 73.1237C102.303 73.6537 102.163 74.2237 102.133 74.8337V91.0737Z" fill="#242424"/>
<path d="M136.623 84.9237C136.153 85.0237 135.753 85.0137 135.413 84.9037C135.083 84.7937 134.793 84.6237 134.543 84.3837C134.303 84.1537 134.093 83.8837 133.923 83.5637C133.753 83.2537 133.613 82.9437 133.493 82.6337L128.863 69.9537L128.233 70.0837V90.8637C128.233 91.3937 128.203 91.9037 128.133 92.3837C128.073 92.8637 127.923 93.3037 127.703 93.7037C127.483 94.1037 127.153 94.4537 126.723 94.7537C126.293 95.0537 125.703 95.2837 124.953 95.4337C124.103 95.6137 123.443 95.6437 122.953 95.5437C122.463 95.4437 122.103 95.2337 121.853 94.9237C121.613 94.6137 121.453 94.2437 121.393 93.7837C121.333 93.3337 121.293 92.8437 121.293 92.3137V67.0037C121.293 66.2937 121.313 65.5837 121.353 64.8937C121.393 64.2037 121.523 63.5737 121.753 62.9937C121.983 62.4137 122.343 61.9137 122.843 61.4837C123.343 61.0537 124.043 60.7437 124.953 60.5537L128.273 59.8537C128.823 59.7337 129.293 59.6637 129.673 59.6237C130.053 59.5837 130.413 59.6537 130.733 59.8237C131.053 59.9937 131.383 60.3137 131.693 60.7837C132.013 61.2437 132.363 61.9237 132.743 62.8137C133.123 63.7037 133.563 64.8537 134.073 66.2437C134.573 67.6437 135.193 69.3637 135.923 71.3937L136.553 73.2537L137.133 73.1337L137.913 70.4737C138.583 68.2437 139.153 66.3537 139.623 64.8037C140.093 63.2637 140.513 61.9837 140.863 60.9637C141.223 59.9537 141.543 59.1637 141.823 58.5937C142.103 58.0237 142.403 57.5937 142.723 57.2837C143.043 56.9737 143.383 56.7637 143.763 56.6437C144.133 56.5237 144.593 56.4037 145.133 56.2937L148.693 55.5437C149.603 55.3537 150.303 55.3637 150.803 55.5837C151.303 55.8037 151.663 56.1537 151.893 56.6437C152.123 57.1237 152.253 57.7037 152.293 58.3737C152.333 59.0437 152.353 59.7437 152.353 60.4537V85.7637C152.353 86.2937 152.323 86.8037 152.253 87.2837C152.193 87.7637 152.033 88.2037 151.793 88.6137C151.553 89.0237 151.183 89.3837 150.693 89.6937C150.203 90.0037 149.543 90.2437 148.693 90.4237C147.943 90.5837 147.353 90.6037 146.923 90.4837C146.493 90.3637 146.163 90.1537 145.953 89.8437C145.733 89.5337 145.593 89.1537 145.523 88.7037C145.453 88.2537 145.423 87.7637 145.423 87.2337V66.4537L144.743 66.5937L140.163 81.2137C140.033 81.5737 139.883 81.9437 139.723 82.3237C139.563 82.7037 139.353 83.0637 139.113 83.3937C138.873 83.7237 138.583 84.0237 138.263 84.2737C137.943 84.5237 137.543 84.6937 137.093 84.7937L136.603 84.8937L136.623 84.9237Z" fill="#242424"/>
<path d="M158.973 59.1538C158.973 58.4438 159.013 57.7338 159.083 57.0338C159.153 56.3338 159.323 55.6938 159.593 55.0938C159.863 54.4938 160.263 53.9738 160.803 53.5338C161.343 53.0938 162.083 52.7638 163.023 52.5738C163.963 52.3738 164.703 52.3838 165.243 52.6038C165.783 52.8238 166.183 53.1738 166.453 53.6538C166.723 54.1338 166.893 54.7138 166.963 55.3738C167.033 56.0438 167.073 56.7338 167.073 57.4438V80.8638C167.073 81.5938 167.043 82.3038 166.973 83.0038C166.913 83.7038 166.743 84.3438 166.473 84.9438C166.203 85.5438 165.803 86.0538 165.253 86.4938C164.703 86.9338 163.963 87.2538 163.023 87.4438C162.083 87.6438 161.343 87.6338 160.803 87.4238C160.263 87.2138 159.863 86.8638 159.593 86.3838C159.323 85.9038 159.153 85.3238 159.083 84.6638C159.013 83.9938 158.973 83.3038 158.973 82.5738V59.1538Z" fill="#242424"/>
<path d="M191.953 71.0637L192.543 70.9438V50.2637C192.543 49.7337 192.573 49.2238 192.643 48.7338C192.703 48.2438 192.853 47.8038 193.073 47.4138C193.293 47.0138 193.613 46.6737 194.053 46.3737C194.483 46.0737 195.073 45.8437 195.823 45.6937C196.653 45.5237 197.303 45.4838 197.783 45.5938C198.263 45.7038 198.623 45.9038 198.873 46.2038C199.113 46.5038 199.273 46.8838 199.333 47.3438C199.403 47.8038 199.433 48.3038 199.433 48.8338V74.0937C199.433 74.8237 199.413 75.5338 199.373 76.2238C199.333 76.9138 199.203 77.5537 198.983 78.1337C198.763 78.7237 198.403 79.2238 197.913 79.6538C197.413 80.0838 196.723 80.3937 195.833 80.5737L192.613 81.2537C191.853 81.4137 191.213 81.3938 190.703 81.1938C190.193 80.9938 189.763 80.7137 189.423 80.3437C189.083 79.9737 188.813 79.5737 188.603 79.1337C188.403 78.6937 188.243 78.3238 188.123 78.0138L180.763 59.1838L180.173 59.3038V79.9838C180.173 80.5138 180.143 81.0238 180.073 81.5138C180.013 82.0038 179.863 82.4438 179.643 82.8338C179.423 83.2238 179.093 83.5738 178.663 83.8738C178.233 84.1738 177.643 84.4038 176.893 84.5538C176.043 84.7338 175.383 84.7638 174.893 84.6638C174.403 84.5538 174.043 84.3537 173.793 84.0637C173.553 83.7637 173.393 83.3837 173.333 82.9237C173.263 82.4637 173.233 81.9638 173.233 81.4338V56.1737C173.233 55.4637 173.253 54.7538 173.293 54.0538C173.333 53.3538 173.463 52.7137 173.693 52.1237C173.923 51.5337 174.283 51.0237 174.783 50.6037C175.283 50.1737 175.983 49.8637 176.893 49.6737L180.113 48.9938C180.923 48.8238 181.593 48.8438 182.103 49.0638C182.613 49.2838 183.033 49.5438 183.363 49.8638C183.723 50.2338 184.003 50.6938 184.213 51.2338L191.963 71.0838L191.953 71.0637Z" fill="#242424"/>
<path d="M227.413 71.6437C227.413 71.8637 227.393 72.1137 227.353 72.4037C227.313 72.6937 227.203 72.9837 227.033 73.2837C226.863 73.5837 226.613 73.8537 226.293 74.1037C225.963 74.3537 225.533 74.5337 224.973 74.6537C224.353 74.7837 223.863 74.7937 223.513 74.7037C223.153 74.6037 222.883 74.4437 222.693 74.2237C222.503 74.0037 222.383 73.7637 222.323 73.4937C222.263 73.2237 222.243 72.9737 222.243 72.7437V71.2437C221.463 72.5837 220.463 73.7537 219.253 74.7437C218.043 75.7337 216.553 76.4237 214.783 76.7937C214.473 76.8637 213.993 76.9337 213.343 77.0237C212.693 77.1137 211.963 77.1337 211.153 77.0837C210.343 77.0437 209.503 76.8937 208.643 76.6437C207.783 76.3937 206.993 75.9537 206.293 75.3337C205.583 74.7137 205.003 73.8737 204.553 72.8137C204.103 71.7537 203.873 70.3937 203.873 68.7337V54.7837C203.873 53.4237 204.033 52.1837 204.363 51.0737C204.693 49.9637 205.113 48.9637 205.643 48.0737C206.173 47.1937 206.773 46.4137 207.463 45.7537C208.143 45.0837 208.843 44.5037 209.563 44.0037C211.223 42.8537 213.113 42.0037 215.243 41.4437C217.043 41.0637 218.593 40.9437 219.873 41.0937C221.153 41.2437 222.243 41.5537 223.143 42.0237C224.033 42.5037 224.753 43.1037 225.293 43.8237C225.833 44.5537 226.243 45.3137 226.533 46.1137C226.823 46.9137 227.013 47.7037 227.103 48.4837C227.193 49.2637 227.233 49.9437 227.233 50.5237C227.233 50.7737 227.213 51.0837 227.173 51.4437C227.133 51.8137 226.993 52.1837 226.743 52.5537C226.503 52.9337 226.113 53.2837 225.583 53.6237C225.053 53.9537 224.303 54.2237 223.333 54.4337C222.993 54.5037 222.573 54.5737 222.073 54.6337C221.573 54.6937 221.103 54.6937 220.643 54.6237C220.183 54.5537 219.793 54.3937 219.473 54.1337C219.143 53.8737 218.983 53.4637 218.983 52.9037C218.983 52.0037 218.933 51.2137 218.823 50.5337C218.713 49.8537 218.523 49.2837 218.253 48.8437C217.973 48.4037 217.593 48.1037 217.103 47.9537C216.613 47.8037 215.993 47.8037 215.223 47.9537C214.423 48.1237 213.813 48.4137 213.383 48.8337C212.953 49.2537 212.643 49.6837 212.443 50.1237C212.213 50.6337 212.083 51.1937 212.053 51.8037V67.7537C212.053 68.2837 212.143 68.7637 212.333 69.1937C212.523 69.6237 212.783 69.9737 213.123 70.2437C213.463 70.5237 213.863 70.7137 214.333 70.8137C214.793 70.9137 215.303 70.9037 215.853 70.7937C216.503 70.6537 217.093 70.3837 217.623 69.9837C218.153 69.5837 218.623 69.0937 219.053 68.5137C219.473 67.9337 219.853 67.3037 220.183 66.6037C220.513 65.9137 220.813 65.1937 221.073 64.4637L218.733 64.9537C218.263 65.0037 217.843 64.9637 217.493 64.8437C217.163 64.7437 216.883 64.5537 216.623 64.2737C216.373 63.9937 216.243 63.5637 216.243 62.9837C216.243 62.3537 216.373 61.8437 216.623 61.4437C216.873 61.0537 217.163 60.7337 217.493 60.5037C217.853 60.2437 218.263 60.0537 218.733 59.9137L225.073 58.5837C225.183 58.5637 225.373 58.5437 225.623 58.5337C225.873 58.5237 226.133 58.5837 226.403 58.7337C226.673 58.8737 226.903 59.1237 227.113 59.4737C227.313 59.8237 227.413 60.3437 227.413 61.0437V71.6537V71.6437Z" fill="#242424"/>
<path d="M101.572 115.014C101.592 115.784 101.812 116.434 102.232 116.964C102.652 117.494 103.222 117.964 103.912 118.374C104.612 118.784 105.402 119.154 106.282 119.494C107.172 119.834 108.072 120.194 109.012 120.584C109.942 120.974 110.852 121.414 111.742 121.914C112.632 122.414 113.422 123.024 114.132 123.744C114.842 124.464 115.402 125.324 115.842 126.324C116.272 127.324 116.512 128.514 116.552 129.894V130.114C116.552 131.634 116.372 132.994 116.012 134.194C115.652 135.394 115.172 136.464 114.572 137.404C113.972 138.344 113.282 139.154 112.482 139.854C111.682 140.544 110.852 141.144 109.972 141.644C109.092 142.144 108.212 142.554 107.312 142.864C106.412 143.184 105.572 143.434 104.772 143.614L104.502 143.674C102.962 143.994 101.622 144.124 100.462 144.054C99.3023 143.984 98.3123 143.774 97.4823 143.424C96.6523 143.074 95.9623 142.614 95.4023 142.044C94.8523 141.474 94.4123 140.864 94.0823 140.204C93.7523 139.544 93.5223 138.864 93.3723 138.174C93.2323 137.484 93.1523 136.824 93.1523 136.194C93.1523 135.564 93.2623 134.964 93.4823 134.434C93.7023 133.904 93.9823 133.454 94.3323 133.074C94.6823 132.694 95.0923 132.384 95.5523 132.134C96.0123 131.894 96.4923 131.714 97.0023 131.604C97.4723 131.504 97.9523 131.474 98.4523 131.524C98.9523 131.564 99.4023 131.694 99.8123 131.914C100.222 132.134 100.552 132.454 100.812 132.864C101.072 133.284 101.212 133.804 101.232 134.424C101.272 135.804 101.572 136.684 102.152 137.074C102.732 137.464 103.562 137.544 104.652 137.314C105.192 137.184 105.692 137.004 106.162 136.794C106.622 136.574 107.012 136.284 107.342 135.904C107.672 135.534 107.922 135.074 108.112 134.524C108.302 133.974 108.402 133.314 108.402 132.534C108.402 131.574 108.192 130.754 107.762 130.064C107.332 129.374 106.782 128.774 106.092 128.254C105.402 127.734 104.622 127.264 103.732 126.854C102.842 126.444 101.942 126.024 101.022 125.624C100.102 125.214 99.2023 124.774 98.3223 124.304C97.4423 123.834 96.6523 123.284 95.9523 122.654C95.2423 122.024 94.6823 121.284 94.2523 120.434C93.8223 119.584 93.6023 118.554 93.5923 117.354V116.914C93.6123 114.934 93.8724 113.234 94.3624 111.814C94.8624 110.394 95.5923 109.204 96.5623 108.224C97.5323 107.244 98.7223 106.444 100.132 105.824C101.542 105.204 103.162 104.704 104.992 104.324L105.702 104.174C107.362 103.824 108.772 103.714 109.932 103.844C111.092 103.974 112.052 104.244 112.822 104.654C113.592 105.064 114.192 105.584 114.642 106.214C115.082 106.844 115.412 107.484 115.632 108.144C115.852 108.804 115.982 109.424 116.042 110.024C116.102 110.624 116.122 111.104 116.122 111.474C116.122 112.024 116.022 112.554 115.812 113.054C115.602 113.554 115.322 113.994 114.972 114.384C114.622 114.774 114.202 115.104 113.722 115.384C113.242 115.664 112.722 115.854 112.162 115.974C111.732 116.064 111.292 116.074 110.862 115.984C110.432 115.904 110.042 115.754 109.692 115.554C109.352 115.344 109.072 115.094 108.852 114.774C108.632 114.454 108.522 114.114 108.522 113.744C108.522 112.224 108.252 111.234 107.722 110.754C107.192 110.274 106.402 110.144 105.372 110.364C104.882 110.464 104.412 110.594 103.952 110.744C103.492 110.894 103.082 111.134 102.732 111.454C102.382 111.774 102.102 112.224 101.892 112.784C101.682 113.344 101.582 114.094 101.582 115.044L101.572 115.014Z" fill="#60034C"/>
<path d="M119.442 112.474C119.442 110.704 119.692 109.134 120.202 107.784C120.712 106.434 121.352 105.254 122.142 104.254C122.932 103.254 123.792 102.424 124.742 101.754C125.692 101.084 126.612 100.534 127.512 100.104C128.412 99.6737 129.212 99.3537 129.942 99.1537C130.662 98.9437 131.202 98.8037 131.542 98.7337L132.462 98.5437C132.802 98.4737 133.342 98.3837 134.062 98.2937C134.782 98.1937 135.592 98.1737 136.482 98.2337C137.372 98.2837 138.282 98.4537 139.232 98.7237C140.182 98.9937 141.042 99.4637 141.812 100.134C142.582 100.804 143.212 101.714 143.712 102.854C144.212 103.994 144.462 105.454 144.462 107.234V123.814C144.462 125.644 144.212 127.244 143.712 128.624C143.212 130.004 142.582 131.204 141.812 132.214C141.042 133.224 140.182 134.074 139.232 134.764C138.282 135.454 137.362 136.014 136.482 136.434C135.592 136.864 134.792 137.174 134.062 137.384C133.342 137.594 132.802 137.734 132.462 137.804L131.542 137.994C131.202 138.064 130.662 138.154 129.942 138.244C129.222 138.344 128.412 138.364 127.512 138.314C126.612 138.264 125.692 138.094 124.742 137.804C123.792 137.514 122.922 137.024 122.142 136.344C121.352 135.664 120.712 134.734 120.202 133.564C119.692 132.394 119.442 130.894 119.442 129.064V112.484V112.474ZM128.452 128.214C128.492 128.894 128.642 129.454 128.912 129.924C129.142 130.334 129.502 130.674 129.982 130.944C130.462 131.214 131.142 131.254 132.032 131.064C132.902 130.884 133.572 130.554 134.042 130.084C134.512 129.614 134.862 129.124 135.102 128.614C135.352 128.044 135.512 127.414 135.562 126.714V108.644C135.512 107.994 135.352 107.424 135.102 106.934C134.872 106.544 134.512 106.204 134.042 105.924C133.572 105.644 132.902 105.594 132.032 105.774C131.142 105.964 130.462 106.294 129.982 106.774C129.502 107.254 129.142 107.744 128.912 108.234C128.642 108.824 128.482 109.464 128.452 110.134V128.204V128.214Z" fill="#60034C"/>
<path d="M148.372 106.404C148.372 104.634 148.622 103.064 149.132 101.714C149.642 100.364 150.282 99.1839 151.072 98.1839C151.862 97.1839 152.722 96.3539 153.672 95.6839C154.622 95.0139 155.542 94.4639 156.442 94.0339C157.342 93.6039 158.142 93.2839 158.872 93.0839C159.592 92.8739 160.132 92.7339 160.472 92.6639L161.392 92.4739C161.732 92.4039 162.272 92.3139 162.992 92.2239C163.712 92.1239 164.522 92.1039 165.402 92.1639C166.292 92.2139 167.202 92.3839 168.152 92.6539C169.102 92.9239 169.962 93.3939 170.732 94.0639C171.502 94.7339 172.132 95.6439 172.632 96.7839C173.132 97.9239 173.382 99.3839 173.382 101.164V117.744C173.382 119.574 173.132 121.174 172.632 122.554C172.132 123.934 171.502 125.134 170.732 126.144C169.962 127.154 169.102 128.004 168.152 128.694C167.202 129.384 166.282 129.944 165.402 130.364C164.512 130.794 163.712 131.104 162.992 131.314C162.272 131.524 161.732 131.664 161.392 131.734L160.472 131.924C160.132 131.994 159.592 132.084 158.872 132.174C158.152 132.274 157.342 132.294 156.442 132.244C155.542 132.194 154.622 132.024 153.672 131.734C152.722 131.444 151.852 130.954 151.072 130.274C150.282 129.594 149.642 128.664 149.132 127.494C148.622 126.324 148.372 124.824 148.372 122.994V106.414V106.404ZM157.382 122.144C157.422 122.824 157.572 123.384 157.842 123.844C158.072 124.254 158.432 124.594 158.912 124.864C159.392 125.134 160.072 125.174 160.962 124.984C161.832 124.804 162.502 124.474 162.972 124.004C163.442 123.534 163.792 123.044 164.032 122.534C164.282 121.964 164.442 121.334 164.492 120.634V102.564C164.442 101.914 164.282 101.344 164.032 100.864C163.792 100.474 163.442 100.134 162.972 99.8539C162.502 99.5739 161.832 99.5239 160.962 99.7039C160.072 99.8939 159.392 100.224 158.912 100.704C158.432 101.184 158.072 101.674 157.842 102.164C157.572 102.754 157.412 103.394 157.382 104.064V122.134V122.144Z" fill="#60034C"/>
<path d="M199.332 112.064L199.982 111.924V88.9138C199.982 88.3238 200.022 87.7538 200.092 87.2138C200.162 86.6738 200.322 86.1838 200.562 85.7438C200.802 85.3038 201.172 84.9238 201.642 84.5838C202.122 84.2538 202.782 84.0038 203.612 83.8238C204.532 83.6338 205.262 83.5938 205.792 83.7138C206.322 83.8338 206.732 84.0538 207.002 84.3938C207.272 84.7238 207.442 85.1438 207.522 85.6538C207.592 86.1638 207.632 86.7138 207.632 87.3038V115.414C207.632 116.224 207.612 117.014 207.562 117.784C207.512 118.554 207.372 119.264 207.132 119.914C206.892 120.564 206.492 121.134 205.942 121.604C205.392 122.084 204.612 122.424 203.622 122.634L200.042 123.384C199.192 123.564 198.482 123.544 197.912 123.314C197.342 123.094 196.872 122.774 196.492 122.364C196.112 121.954 195.812 121.504 195.582 121.014C195.352 120.524 195.182 120.114 195.052 119.764L186.862 98.8138L186.212 98.9538V121.964C186.212 122.554 186.172 123.124 186.102 123.664C186.032 124.204 185.872 124.694 185.622 125.134C185.382 125.574 185.012 125.964 184.542 126.294C184.062 126.624 183.402 126.884 182.572 127.054C181.632 127.254 180.892 127.294 180.352 127.174C179.812 127.054 179.402 126.834 179.132 126.504C178.862 126.174 178.692 125.754 178.612 125.244C178.542 124.734 178.502 124.184 178.502 123.594V95.4838C178.502 94.6938 178.522 93.9038 178.572 93.1238C178.612 92.3438 178.762 91.6338 179.022 90.9738C179.272 90.3238 179.682 89.7538 180.232 89.2738C180.782 88.7938 181.562 88.4538 182.582 88.2438L186.162 87.4938C187.062 87.3038 187.802 87.3338 188.372 87.5738C188.942 87.8138 189.412 88.1138 189.772 88.4638C190.172 88.8838 190.482 89.3838 190.722 89.9838L199.352 112.064H199.332Z" fill="#60034C"/>
<path d="M189.813 143.524L180.953 170.414L90.4332 189.284L28.8332 120.314L57.7632 32.4937L148.283 13.6237L177.123 45.9237L178.323 45.8037L148.633 12.5637L57.0132 31.6537L27.7432 120.544L90.0832 190.344L181.703 171.254L190.873 143.404L189.813 143.524Z" fill="#242424"/>
<path d="M114.323 148.034C114.323 148.224 114.383 148.384 114.493 148.524C114.603 148.654 114.743 148.774 114.913 148.874C115.083 148.974 115.283 149.074 115.503 149.154C115.723 149.234 115.953 149.334 116.183 149.424C116.413 149.514 116.643 149.634 116.863 149.754C117.083 149.874 117.283 150.034 117.453 150.214C117.633 150.394 117.773 150.604 117.883 150.854C117.993 151.104 118.053 151.394 118.063 151.744V151.804C118.063 152.184 118.013 152.524 117.923 152.824C117.833 153.124 117.713 153.394 117.563 153.624C117.413 153.854 117.243 154.064 117.043 154.234C116.843 154.404 116.633 154.554 116.413 154.684C116.193 154.804 115.973 154.914 115.753 154.994C115.533 155.074 115.323 155.134 115.123 155.184H115.053C114.673 155.274 114.333 155.314 114.043 155.294C113.753 155.274 113.503 155.224 113.303 155.134C113.093 155.044 112.923 154.934 112.783 154.794C112.643 154.654 112.533 154.504 112.453 154.334C112.373 154.164 112.313 154.004 112.273 153.824C112.233 153.654 112.223 153.484 112.223 153.334C112.223 153.184 112.253 153.024 112.303 152.894C112.353 152.764 112.423 152.654 112.513 152.554C112.603 152.464 112.703 152.384 112.813 152.324C112.933 152.264 113.053 152.224 113.173 152.194C113.293 152.174 113.413 152.164 113.533 152.174C113.653 152.184 113.773 152.214 113.873 152.274C113.973 152.324 114.053 152.404 114.123 152.514C114.193 152.614 114.223 152.744 114.223 152.904C114.223 153.244 114.313 153.464 114.453 153.564C114.593 153.664 114.803 153.684 115.073 153.624C115.213 153.594 115.333 153.544 115.453 153.494C115.563 153.444 115.663 153.364 115.743 153.274C115.823 153.184 115.883 153.064 115.933 152.934C115.983 152.794 116.003 152.634 116.003 152.444C116.003 152.204 115.953 151.994 115.843 151.824C115.733 151.654 115.603 151.504 115.423 151.374C115.253 151.244 115.053 151.124 114.833 151.024C114.613 150.924 114.383 150.824 114.153 150.714C113.923 150.614 113.703 150.504 113.483 150.384C113.263 150.264 113.063 150.134 112.893 149.974C112.713 149.814 112.573 149.634 112.473 149.424C112.363 149.214 112.313 148.954 112.303 148.654V148.544C112.303 148.054 112.373 147.624 112.493 147.274C112.613 146.924 112.803 146.624 113.043 146.374C113.283 146.134 113.583 145.934 113.933 145.774C114.283 145.624 114.683 145.494 115.143 145.394L115.323 145.354C115.733 145.264 116.093 145.244 116.373 145.274C116.663 145.304 116.903 145.374 117.093 145.474C117.283 145.574 117.433 145.704 117.543 145.864C117.653 146.024 117.733 146.184 117.793 146.344C117.843 146.504 117.883 146.664 117.893 146.814C117.903 146.964 117.913 147.084 117.913 147.174C117.913 147.314 117.883 147.444 117.833 147.564C117.783 147.684 117.713 147.794 117.623 147.894C117.533 147.994 117.433 148.074 117.313 148.144C117.193 148.214 117.063 148.264 116.923 148.294C116.813 148.314 116.703 148.314 116.603 148.294C116.493 148.274 116.393 148.234 116.313 148.184C116.223 148.134 116.153 148.064 116.103 147.994C116.053 147.914 116.023 147.834 116.023 147.734C116.023 147.354 115.953 147.104 115.823 146.984C115.693 146.864 115.493 146.834 115.233 146.884C115.113 146.914 114.993 146.944 114.883 146.984C114.773 147.024 114.663 147.084 114.583 147.164C114.493 147.244 114.423 147.354 114.373 147.494C114.323 147.634 114.293 147.824 114.293 148.054L114.323 148.034Z" fill="#E58B76"/>
<path d="M123.533 143.664C123.713 143.624 123.892 143.594 124.072 143.574C124.252 143.554 124.422 143.554 124.572 143.584C124.722 143.614 124.842 143.694 124.932 143.804C125.022 143.914 125.072 144.084 125.072 144.324C125.072 144.564 125.022 144.744 124.932 144.894C124.842 145.044 124.722 145.164 124.572 145.264C124.422 145.364 124.262 145.434 124.072 145.494C123.892 145.544 123.713 145.594 123.533 145.634L122.842 145.784V151.914C122.842 152.114 122.842 152.304 122.822 152.494C122.802 152.684 122.772 152.864 122.712 153.024C122.652 153.184 122.553 153.324 122.413 153.444C122.273 153.564 122.072 153.654 121.812 153.704C121.553 153.754 121.353 153.754 121.223 153.704C121.083 153.644 120.983 153.544 120.923 153.414C120.863 153.284 120.822 153.124 120.812 152.934C120.803 152.744 120.792 152.554 120.792 152.354V146.224L120.102 146.374C119.922 146.414 119.743 146.444 119.562 146.464C119.382 146.484 119.213 146.484 119.062 146.444C118.912 146.414 118.792 146.334 118.702 146.224C118.612 146.114 118.562 145.944 118.562 145.714C118.562 145.484 118.612 145.284 118.702 145.134C118.792 144.984 118.912 144.864 119.062 144.764C119.213 144.664 119.373 144.594 119.562 144.544C119.743 144.494 119.922 144.444 120.102 144.404L123.542 143.684L123.533 143.664Z" fill="#E58B76"/>
<path d="M132.032 148.054C132.032 148.364 132.052 148.684 132.062 149.004C132.072 149.324 132.082 149.644 132.082 149.944V150.154C132.082 150.334 132.082 150.504 132.062 150.664C132.052 150.834 132.012 150.984 131.962 151.124C131.902 151.264 131.812 151.394 131.682 151.494C131.552 151.604 131.382 151.674 131.152 151.724C130.922 151.774 130.742 151.774 130.612 151.724C130.482 151.674 130.392 151.584 130.332 151.474C130.272 151.354 130.232 151.214 130.222 151.054C130.212 150.894 130.202 150.724 130.202 150.544V149.574L127.492 150.144V151.114C127.492 151.294 127.492 151.464 127.472 151.624C127.462 151.794 127.422 151.944 127.362 152.094C127.302 152.234 127.212 152.354 127.082 152.464C126.952 152.574 126.772 152.644 126.542 152.694C126.312 152.744 126.122 152.744 126.002 152.694C125.872 152.644 125.782 152.554 125.722 152.434C125.662 152.314 125.632 152.174 125.622 152.014C125.622 151.854 125.612 151.684 125.612 151.504V151.294C125.612 151.154 125.612 151.004 125.612 150.834C125.612 150.674 125.612 150.504 125.622 150.344C125.622 150.174 125.622 150.014 125.632 149.844C125.632 149.684 125.632 149.524 125.642 149.374C125.872 148.524 126.102 147.664 126.352 146.794C126.602 145.924 126.832 145.054 127.062 144.204C127.102 144.024 127.162 143.844 127.222 143.674C127.282 143.504 127.372 143.344 127.472 143.204C127.572 143.064 127.712 142.944 127.872 142.834C128.032 142.724 128.242 142.654 128.492 142.594L129.172 142.454C129.422 142.404 129.622 142.394 129.792 142.434C129.962 142.474 130.092 142.534 130.192 142.634C130.292 142.734 130.382 142.854 130.442 142.994C130.502 143.144 130.562 143.294 130.612 143.454L132.022 148.034L132.032 148.054ZM127.782 148.264L129.932 147.814L128.932 144.324L128.782 144.354L127.782 148.264Z" fill="#E58B76"/>
<path d="M137.013 148.944C137.013 149.134 137.013 149.334 136.983 149.524C136.963 149.714 136.923 149.894 136.853 150.054C136.783 150.214 136.683 150.354 136.553 150.474C136.413 150.594 136.233 150.674 136.003 150.724C135.763 150.774 135.573 150.764 135.443 150.704C135.303 150.644 135.203 150.544 135.133 150.414C135.063 150.284 135.023 150.124 135.003 149.944C134.983 149.764 134.973 149.574 134.973 149.384V146.984L132.963 143.734C132.853 143.564 132.753 143.394 132.653 143.234C132.553 143.064 132.503 142.894 132.503 142.704C132.503 142.584 132.543 142.444 132.613 142.304C132.683 142.164 132.813 142.014 132.993 141.864C133.193 141.714 133.383 141.614 133.563 141.574C133.703 141.544 133.823 141.554 133.933 141.594C134.043 141.634 134.143 141.694 134.233 141.774C134.323 141.854 134.403 141.954 134.473 142.064C134.543 142.174 134.613 142.294 134.673 142.404L135.903 144.784L136.123 144.734L137.353 141.834C137.413 141.694 137.473 141.554 137.553 141.414C137.623 141.274 137.703 141.144 137.793 141.024C137.883 140.904 137.983 140.804 138.093 140.714C138.203 140.624 138.323 140.574 138.463 140.544C138.553 140.524 138.653 140.514 138.743 140.524C138.833 140.524 138.933 140.554 139.033 140.584C139.213 140.654 139.333 140.754 139.413 140.864C139.483 140.974 139.523 141.094 139.523 141.214C139.523 141.294 139.483 141.434 139.413 141.644C139.343 141.844 139.223 142.114 139.063 142.444L137.033 146.544V148.944H137.013Z" fill="#E58B76"/>
<path d="M149.792 138.154C149.972 138.114 150.152 138.084 150.332 138.064C150.512 138.044 150.682 138.044 150.832 138.074C150.982 138.104 151.102 138.184 151.192 138.294C151.282 138.404 151.332 138.574 151.332 138.814C151.332 139.054 151.282 139.234 151.192 139.384C151.102 139.534 150.982 139.654 150.832 139.754C150.682 139.854 150.522 139.924 150.332 139.984C150.152 140.034 149.972 140.084 149.792 140.124L149.102 140.264V146.394C149.102 146.594 149.102 146.784 149.082 146.974C149.072 147.164 149.032 147.344 148.972 147.504C148.912 147.664 148.812 147.804 148.672 147.924C148.532 148.044 148.332 148.134 148.082 148.184C147.822 148.234 147.622 148.234 147.482 148.184C147.342 148.124 147.242 148.024 147.182 147.894C147.122 147.764 147.082 147.604 147.072 147.414C147.062 147.224 147.052 147.034 147.052 146.834V140.704L146.362 140.854C146.182 140.894 146.002 140.924 145.822 140.944C145.642 140.964 145.472 140.964 145.322 140.924C145.172 140.894 145.052 140.814 144.962 140.704C144.872 140.594 144.822 140.424 144.822 140.194C144.822 139.964 144.872 139.764 144.962 139.614C145.052 139.464 145.172 139.344 145.322 139.244C145.472 139.144 145.632 139.074 145.822 139.024C146.002 138.974 146.182 138.924 146.362 138.884L149.792 138.164V138.154Z" fill="#E58B76"/>
<path d="M152.343 139.194C152.343 138.994 152.353 138.804 152.373 138.604C152.393 138.414 152.443 138.234 152.513 138.074C152.583 137.914 152.703 137.764 152.853 137.644C153.003 137.524 153.203 137.434 153.473 137.384C153.733 137.334 153.943 137.334 154.093 137.384C154.243 137.444 154.353 137.534 154.433 137.674C154.503 137.804 154.553 137.964 154.573 138.154C154.593 138.344 154.603 138.534 154.603 138.724V144.164C154.613 144.364 154.653 144.534 154.723 144.674C154.753 144.734 154.783 144.794 154.833 144.854C154.873 144.914 154.933 144.954 154.993 144.994C155.053 145.034 155.123 145.054 155.213 145.074C155.293 145.084 155.393 145.074 155.503 145.054C155.613 145.034 155.703 144.994 155.793 144.944C155.883 144.894 155.953 144.844 156.013 144.774C156.073 144.714 156.123 144.644 156.173 144.564C156.213 144.494 156.253 144.414 156.283 144.344C156.353 144.174 156.393 143.984 156.403 143.784V138.344C156.403 138.144 156.403 137.954 156.433 137.754C156.453 137.564 156.493 137.384 156.573 137.224C156.643 137.064 156.763 136.914 156.903 136.794C157.053 136.674 157.263 136.584 157.523 136.524C157.783 136.464 157.993 136.474 158.143 136.524C158.293 136.584 158.403 136.674 158.483 136.814C158.553 136.944 158.603 137.104 158.623 137.284C158.643 137.464 158.653 137.664 158.653 137.854V143.114C158.653 143.594 158.573 144.024 158.423 144.424C158.273 144.814 158.053 145.164 157.783 145.464C157.503 145.764 157.173 146.014 156.793 146.214C156.403 146.414 155.983 146.564 155.523 146.664C155.053 146.764 154.633 146.784 154.243 146.744C153.863 146.694 153.533 146.584 153.253 146.394C152.973 146.204 152.763 145.954 152.613 145.624C152.463 145.294 152.383 144.904 152.383 144.434V139.174L152.343 139.194Z" fill="#E58B76"/>
<path d="M165.743 141.614L165.903 141.584V135.854C165.903 135.704 165.903 135.564 165.933 135.434C165.953 135.304 165.993 135.174 166.053 135.064C166.113 134.954 166.203 134.854 166.323 134.774C166.443 134.694 166.603 134.624 166.813 134.584C167.043 134.534 167.223 134.524 167.353 134.554C167.483 134.584 167.583 134.644 167.653 134.724C167.723 134.804 167.763 134.914 167.783 135.034C167.803 135.164 167.813 135.304 167.813 135.444V142.454C167.813 142.654 167.813 142.854 167.793 143.044C167.783 143.234 167.743 143.414 167.683 143.574C167.623 143.734 167.523 143.874 167.383 143.994C167.243 144.114 167.053 144.194 166.803 144.254L165.913 144.444C165.703 144.484 165.523 144.484 165.383 144.424C165.243 144.374 165.123 144.294 165.023 144.184C164.933 144.084 164.853 143.974 164.793 143.844C164.733 143.724 164.693 143.624 164.663 143.534L162.623 138.314L162.463 138.344V144.074C162.463 144.224 162.463 144.364 162.433 144.494C162.413 144.624 162.373 144.754 162.313 144.864C162.253 144.974 162.163 145.074 162.043 145.154C161.923 145.234 161.763 145.304 161.553 145.344C161.323 145.394 161.133 145.404 161.003 145.374C160.863 145.344 160.763 145.294 160.703 145.204C160.633 145.124 160.593 145.014 160.573 144.894C160.553 144.764 160.543 144.634 160.543 144.484V137.474C160.543 137.274 160.543 137.084 160.563 136.884C160.573 136.694 160.613 136.514 160.673 136.344C160.733 136.174 160.833 136.044 160.973 135.924C161.113 135.804 161.303 135.724 161.553 135.664L162.443 135.474C162.673 135.424 162.853 135.434 162.993 135.494C163.133 135.554 163.253 135.624 163.343 135.714C163.443 135.814 163.523 135.944 163.583 136.094L165.733 141.594L165.743 141.614Z" fill="#E58B76"/>
<path d="M173.363 133.204C173.543 133.164 173.723 133.134 173.913 133.114C174.093 133.094 174.263 133.094 174.413 133.124C174.563 133.154 174.683 133.234 174.783 133.344C174.873 133.454 174.923 133.624 174.923 133.864C174.923 134.104 174.873 134.294 174.783 134.444C174.693 134.594 174.563 134.714 174.413 134.814C174.263 134.914 174.093 134.984 173.913 135.034C173.733 135.084 173.543 135.134 173.363 135.174L171.753 135.514V137.394L172.603 137.214C172.783 137.174 172.963 137.144 173.143 137.114C173.323 137.084 173.483 137.094 173.633 137.114C173.773 137.144 173.893 137.214 173.983 137.324C174.073 137.434 174.123 137.594 174.123 137.824C174.123 138.054 174.073 138.244 173.983 138.384C173.893 138.524 173.773 138.644 173.633 138.734C173.493 138.824 173.333 138.894 173.143 138.944C172.963 138.994 172.783 139.034 172.603 139.074L171.753 139.254V141.244L173.363 140.904C173.543 140.864 173.723 140.834 173.913 140.814C174.093 140.794 174.263 140.794 174.413 140.814C174.563 140.844 174.683 140.914 174.783 141.024C174.873 141.134 174.923 141.304 174.923 141.534C174.923 141.764 174.873 141.974 174.773 142.124C174.673 142.274 174.553 142.404 174.403 142.494C174.253 142.594 174.083 142.664 173.903 142.714C173.713 142.764 173.533 142.814 173.363 142.844L170.713 143.404C170.463 143.454 170.263 143.454 170.133 143.384C169.993 143.324 169.893 143.224 169.833 143.084C169.773 142.944 169.733 142.784 169.723 142.604C169.713 142.414 169.703 142.224 169.703 142.024V135.534C169.703 135.334 169.703 135.144 169.723 134.954C169.733 134.764 169.773 134.584 169.833 134.424C169.893 134.264 169.993 134.124 170.133 133.994C170.273 133.864 170.463 133.784 170.713 133.734L173.363 133.174V133.204Z" fill="#E58B76"/>
<path d="M179.313 131.954C179.723 131.864 180.103 131.844 180.463 131.874C180.813 131.904 181.123 131.994 181.393 132.154C181.663 132.314 181.863 132.524 182.013 132.804C182.163 133.084 182.243 133.434 182.243 133.854V138.134C182.243 138.494 182.203 138.814 182.133 139.104C182.053 139.394 181.953 139.654 181.833 139.884C181.713 140.114 181.573 140.314 181.413 140.484C181.253 140.654 181.093 140.804 180.933 140.924C180.543 141.214 180.103 141.434 179.613 141.564L177.373 142.034C177.113 142.084 176.913 142.084 176.773 142.034C176.633 141.974 176.533 141.874 176.473 141.734C176.413 141.594 176.373 141.434 176.363 141.254C176.353 141.064 176.343 140.874 176.343 140.674V134.164C176.343 133.964 176.343 133.774 176.363 133.584C176.373 133.394 176.413 133.214 176.473 133.054C176.533 132.894 176.633 132.754 176.773 132.634C176.913 132.514 177.113 132.424 177.373 132.374L179.333 131.964L179.313 131.954ZM178.383 133.764V140.174L179.263 139.994C179.453 139.944 179.633 139.864 179.783 139.744C179.843 139.694 179.913 139.644 179.973 139.574C180.033 139.504 180.093 139.424 180.143 139.344C180.193 139.254 180.233 139.154 180.263 139.044C180.293 138.934 180.303 138.804 180.303 138.664V134.584C180.303 134.434 180.293 134.304 180.263 134.194C180.233 134.084 180.193 133.984 180.143 133.914C180.093 133.834 180.033 133.774 179.973 133.734C179.913 133.684 179.843 133.654 179.783 133.624C179.633 133.574 179.453 133.554 179.263 133.584L178.383 133.764Z" fill="#E58B76"/>
<path d="M186.233 135.974C186.233 136.124 186.233 136.264 186.213 136.404C186.193 136.544 186.163 136.674 186.113 136.794C186.063 136.914 185.983 137.014 185.883 137.104C185.783 137.194 185.643 137.254 185.473 137.294C185.303 137.334 185.163 137.324 185.063 137.284C184.963 137.234 184.883 137.164 184.833 137.074C184.783 136.974 184.743 136.864 184.733 136.724C184.713 136.584 184.713 136.444 184.713 136.304L184.363 134.144V132.454C184.363 132.264 184.383 132.064 184.413 131.874C184.443 131.684 184.503 131.504 184.583 131.344C184.663 131.184 184.773 131.044 184.923 130.924C185.073 130.804 185.253 130.724 185.483 130.674C185.713 130.624 185.903 130.634 186.043 130.694C186.183 130.754 186.303 130.844 186.383 130.974C186.463 131.104 186.523 131.254 186.553 131.434C186.583 131.614 186.593 131.794 186.593 131.994V133.694L186.253 135.974H186.233ZM186.573 138.974C186.573 139.364 186.473 139.674 186.283 139.904C186.093 140.134 185.813 140.284 185.463 140.354C185.103 140.434 184.823 140.394 184.633 140.244C184.443 140.094 184.343 139.834 184.343 139.434C184.343 139.034 184.443 138.734 184.633 138.514C184.823 138.294 185.103 138.144 185.463 138.074C185.833 137.994 186.113 138.024 186.303 138.164C186.483 138.304 186.573 138.574 186.573 138.974Z" fill="#E58B76"/>
<path d="M58.0626 112.414C56.1326 101.494 52.9926 92.2939 50.0026 88.0039C35.5926 101.934 18.2926 110.274 14.4426 112.024L17.2126 127.724C19.7326 127.974 27.5426 128.894 37.2826 131.234L37.4326 132.104C37.6626 133.434 36.7726 134.704 35.4526 134.934L17.5526 138.094C16.2226 138.324 14.9526 137.434 14.7226 136.114L13.1426 127.134L14.4526 126.904L12.1326 113.724L4.10257 115.144C3.65257 115.224 3.38257 115.804 3.25257 116.674L0.67257 117.124C-1.02743 117.424 0.832569 127.924 2.52257 127.624L5.10257 127.174C5.52257 127.954 5.97257 128.404 6.43257 128.324L10.4726 127.614L12.0526 136.594C12.5426 139.404 15.2326 141.284 18.0426 140.784L35.9426 137.624C38.6426 137.144 40.4726 134.644 40.1726 131.964C46.0726 133.484 52.5026 135.524 58.8326 138.224C60.1926 133.194 60.0126 123.414 58.0726 112.424L58.0626 112.414Z" fill="#E58B76"/>
<path d="M53.8023 84.1039C53.0023 84.2439 52.3423 84.9639 51.8223 86.1639C55.0923 89.6239 58.7723 99.6939 60.9223 111.904C63.0823 124.154 63.0623 134.894 61.1523 139.244C61.1823 139.264 61.2223 139.274 61.2623 139.294C62.1223 140.174 62.9623 140.604 63.7323 140.464C67.4323 139.814 68.2023 126.664 65.4623 111.104C62.7223 95.5439 57.4923 83.4539 53.7923 84.1039H53.8023Z" fill="#E58B76"/>
<path d="M155.182 42.3838C155.082 42.3838 154.972 42.3538 154.882 42.2838C154.662 42.1238 154.612 41.8038 154.772 41.5838L185.172 0.20377C185.332 -0.0162301 185.652 -0.0662301 185.872 0.0937699C186.092 0.25377 186.142 0.57377 185.982 0.79377L155.582 42.1738C155.482 42.3038 155.332 42.3738 155.182 42.3738V42.3838Z" fill="#E58B76"/>
<path d="M60.3329 207.914C60.2329 207.914 60.1229 207.884 60.0329 207.814C59.8129 207.654 59.7629 207.334 59.9229 207.114L90.3229 165.734C90.4829 165.514 90.8029 165.464 91.0229 165.624C91.2429 165.784 91.2929 166.104 91.1329 166.324L60.7329 207.704C60.6329 207.834 60.4829 207.904 60.3329 207.904V207.914Z" fill="#E58B76"/>
<path d="M104.642 214.724C104.542 214.724 104.432 214.694 104.342 214.624C104.122 214.464 104.072 214.144 104.232 213.924L118.512 194.484C118.672 194.264 118.992 194.214 119.212 194.374C119.432 194.534 119.482 194.854 119.322 195.074L105.042 214.514C104.942 214.644 104.792 214.714 104.642 214.714V214.724Z" fill="#242424"/>
<path d="M113.793 54.5038C113.693 54.5038 113.583 54.4738 113.493 54.4038C113.273 54.2438 113.223 53.9238 113.383 53.7038L127.663 34.2638C127.823 34.0438 128.143 33.9938 128.363 34.1538C128.583 34.3138 128.633 34.6338 128.473 34.8538L114.193 54.2938C114.093 54.4238 113.943 54.4938 113.793 54.4938V54.5038Z" fill="#242424"/>
</svg>
