<svg width="108" height="60" viewBox="0 0 108 60" fill="none" xmlns="http://www.w3.org/2000/svg">
<g clip-path="url(#clip0_1601_1238)">
<path d="M53.1998 55.1564C52.7998 56.0784 52.0686 56.3537 51.0891 56.3537C36.7827 56.3399 22.4901 56.3399 8.18367 56.3399C7.96293 56.3399 7.7422 56.3262 7.52146 56.2986C7.12138 56.2436 6.91444 55.9684 6.90064 55.583C6.88685 55.1702 7.09379 54.8812 7.49387 54.7986C7.7146 54.7436 7.93534 54.7573 8.15608 54.7573C22.4073 54.7573 36.6585 54.7573 50.9097 54.7573C51.1304 54.7573 51.3512 54.7573 51.6133 54.7573C51.6133 54.0968 51.6133 53.45 51.6133 52.7757C35.0444 52.7757 18.4892 52.7757 1.90651 52.7757C1.90651 53.4225 1.90651 54.0555 1.90651 54.7573C2.55492 54.7573 3.20333 54.7298 3.85174 54.7711C4.12766 54.7849 4.44497 54.8812 4.63811 55.0601C5.06578 55.4729 4.81746 56.2298 4.22423 56.2711C3.3137 56.3399 2.40317 56.3399 1.50643 56.2436C0.844224 56.1748 0.361366 55.4729 0.34757 54.7849C0.333774 54.1518 0.34757 53.5188 0.34757 52.8858C0.34757 51.8262 1.02357 51.1656 2.09965 51.1518C3.25851 51.1518 4.40358 51.1518 5.63142 51.1518C5.54864 51.0005 5.49346 50.8766 5.42448 50.7803C3.25851 47.6151 4.01729 43.4454 7.17656 41.2298C10.2117 39.0968 14.4056 39.7986 16.613 42.8262C16.8337 43.1151 16.9855 43.1977 17.358 43.1014C19.5101 42.4821 21.883 43.3353 23.1799 45.1931C23.373 45.4684 23.5386 45.5372 23.8559 45.4546C24.1594 45.372 24.4905 45.3445 24.8354 45.2895C24.8078 43.7619 25.0699 42.3032 25.6493 40.9133C25.9528 40.1839 26.2977 39.4821 26.6426 38.7665C27.3048 37.3904 27.8291 35.9867 27.7325 34.4317C27.7325 34.3766 27.7325 34.3353 27.7325 34.2803C27.6635 33.1656 27.5532 33.0555 26.4633 32.9179C25.9666 32.8491 25.47 32.7803 24.9871 32.6839C24.4491 32.5739 24.1732 32.1748 24.2697 31.7344C24.3801 31.2665 24.7526 31.0601 25.3044 31.1564C25.6769 31.2252 26.0494 31.2803 26.4219 31.3353C26.4357 31.3353 26.4495 31.3216 26.6151 31.239C25.7873 30.4546 25.0285 29.6564 24.187 28.9684C22.5314 27.6335 20.8208 26.3537 19.1376 25.0463C18.8479 24.8262 18.5582 24.606 18.3237 24.3307C17.6063 23.4775 16.6682 23.0784 15.6473 22.7344C14.5298 22.3628 13.4675 21.8262 12.3776 21.3445C12.0327 21.1931 11.812 20.8628 11.95 20.5051C12.0465 20.2573 12.2949 20.0096 12.5432 19.8858C12.7087 19.8032 12.9985 19.9408 13.2192 20.0234C13.8676 20.2986 14.516 20.6151 15.1644 20.9041C15.192 20.8628 15.2334 20.8216 15.261 20.794C15.1506 20.6151 15.0127 20.45 14.9161 20.2711C14.1435 18.8812 13.3571 17.4913 12.626 16.0876C12.4466 15.7436 12.3914 15.3307 12.3362 14.9454C12.1431 13.6106 12.4742 12.9638 13.7572 12.5234C14.8195 12.1518 15.9232 11.8628 17.0407 11.6839C22.4625 10.8032 27.9257 10.7895 33.4027 11.0234C33.9545 11.0509 34.5063 11.0784 35.0444 11.1335C35.5686 11.1748 35.8859 11.505 35.8721 11.9317C35.8583 12.3858 35.4996 12.6885 34.9478 12.6748C33.1405 12.606 31.3333 12.4408 29.5398 12.4821C26.1874 12.5509 22.835 12.6885 19.4963 12.9225C18.0064 13.0326 16.5302 13.4317 15.0403 13.7206C14.7505 13.7757 14.4608 13.9133 14.1711 14.0234C14.1711 14.0922 14.1573 14.1473 14.1573 14.2161C15.2472 14.4638 16.3233 14.7803 17.427 14.9592C22.8074 15.7986 28.2154 15.8262 33.6372 15.5647C36.3688 15.4271 39.0866 15.1931 41.7354 14.4638C42.0527 14.3812 42.3562 14.2573 42.6597 14.1473C42.6735 14.0922 42.6735 14.0509 42.6873 13.9959C41.9975 13.8032 41.3215 13.583 40.6179 13.4317C39.9971 13.294 39.3625 13.2115 38.7417 13.1014C38.1623 13.005 37.845 12.661 37.9139 12.1931C37.9829 11.7115 38.3554 11.45 38.9624 11.5739C40.2179 11.8216 41.4871 12.083 42.7287 12.3858C43.1288 12.4821 43.5289 12.7161 43.8738 12.95C44.7705 13.5693 44.7843 14.4638 43.9428 15.1794C42.7011 16.239 41.7492 17.5051 41.2112 19.0463C40.4248 21.2757 40.9352 23.3124 42.2045 25.3216C42.3838 25.0739 42.508 24.8812 42.6459 24.7023C42.8943 24.3445 43.3219 24.2344 43.6806 24.4271C44.0393 24.6197 44.2187 25.0601 43.9979 25.4454C43.7772 25.8307 43.4461 26.1473 43.1978 26.5051C43.1012 26.6427 43.046 26.8904 43.1012 27.0142C44.3842 29.7115 44.3704 32.4087 43.0736 35.2023C43.5979 35.0372 44.0531 34.9271 44.4946 34.7757C45.0602 34.583 45.5017 34.7069 45.6672 35.1335C45.8604 35.6014 45.6535 36.0555 45.0464 36.2344C44.1083 36.5096 43.1426 36.6885 42.2045 36.9225C42.0113 36.9638 41.832 37.0601 41.6802 37.184C40.8249 37.817 40.0385 38.5326 39.128 39.083C37.0172 40.3353 35.003 41.684 33.444 43.6243C32.6991 44.5601 32.1196 45.5784 31.8161 46.7619C32.4093 46.7895 32.9888 46.8307 33.6096 46.8583C34.4236 45.661 35.61 44.9317 37.1276 44.8216C37.5828 44.794 38.0519 44.8629 38.5072 44.9317C38.7693 44.9729 38.921 44.9592 39.1142 44.7252C40.7283 42.6748 43.2943 41.9179 45.6672 42.7711C47.9574 43.5968 49.5439 45.9087 49.3922 48.4408C49.337 49.3353 48.9921 50.2161 48.7713 51.1518C49.5025 51.1518 50.3579 51.1794 51.2132 51.1381C52.1927 51.0968 52.8825 51.4546 53.255 52.3629C53.1998 53.2986 53.1998 54.2344 53.1998 55.1564ZM40.8249 26.161C38.7417 22.8995 38.6589 19.6381 40.7559 16.4179C31.8713 17.5876 23.0281 17.794 14.1987 15.9775C14.2677 16.1427 14.3505 16.3216 14.4332 16.5142C15.3162 18.3307 16.4888 19.9684 17.7443 21.5372C17.9098 21.7436 18.1857 21.9225 18.4479 21.9913C21.6209 22.7895 24.8216 22.9959 28.0222 22.1289C28.6017 21.9775 29.0293 22.1977 29.1259 22.6518C29.2363 23.1335 28.988 23.5463 28.4085 23.6427C26.9324 23.8766 25.4562 24.1518 23.98 24.2344C22.7936 24.3032 21.5795 24.1381 20.3655 24.0693C20.4345 24.1243 20.4896 24.1931 20.5586 24.2482C21.9796 25.3353 23.4144 26.4087 24.8078 27.5096C26.1598 28.583 27.4152 29.7528 28.312 31.2528C28.3947 31.3904 28.6431 31.5142 28.7948 31.5005C30.0502 31.4041 31.2919 31.294 32.5335 31.1702C33.0716 31.1151 33.4578 31.3628 33.5268 31.817C33.5958 32.2298 33.2785 32.6151 32.7818 32.7115C32.5059 32.7665 32.2438 32.8078 31.9679 32.8353C31.0298 32.9317 30.0916 33.028 29.1535 33.1243C29.1949 33.8124 29.2777 34.4867 29.2501 35.161C29.1949 36.7573 28.6293 38.2023 27.9395 39.606C27.567 40.3628 27.1807 41.106 26.891 41.8904C25.6493 45.3995 26.684 48.4684 29.6915 50.2711C29.8019 50.3399 29.9123 50.3812 29.9813 50.4087C29.9813 49.4454 29.8985 48.4959 29.9951 47.5601C30.2434 45.2069 31.4022 43.294 33.0302 41.6289C34.6581 39.9638 36.5757 38.7115 38.5899 37.5693C38.7555 37.4729 38.9072 37.3629 39.128 37.2252C38.1761 37.2252 37.3345 37.2252 36.4929 37.2252C35.8583 37.2252 35.4996 36.9225 35.5134 36.4271C35.5272 35.9317 35.8721 35.6702 36.5205 35.6564C37.7346 35.6289 38.9624 35.5188 40.1765 35.5601C40.9076 35.5739 41.2388 35.2023 41.5285 34.6381C42.7425 32.2849 42.7287 29.9592 41.5423 27.5784C41.3077 27.661 41.1146 27.7436 40.9214 27.8124C39.4729 28.3629 37.9829 28.6243 36.4378 28.6931C36.2308 28.7069 35.9273 28.6794 35.8169 28.5417C35.6514 28.3216 35.4996 27.9913 35.541 27.7298C35.5824 27.3307 35.9273 27.1794 36.3412 27.1381C37.9001 27.0142 39.3901 26.8078 40.8249 26.161ZM28.2154 51.1656C27.9119 50.9041 27.7049 50.739 27.5256 50.5739C26.5737 49.7069 25.8011 48.7161 25.3182 47.5051C25.0561 46.8583 24.9595 46.8032 24.2559 46.9408C24.118 46.9684 23.9938 47.0096 23.8559 47.0509C22.8901 47.3399 22.5452 47.2161 22.0348 46.3491C21.0967 44.794 19.1928 44.0922 17.4821 44.6702C16.4061 45.0418 16.1301 44.9179 15.4817 43.9821C14.1987 42.1381 12.419 41.2986 10.1841 41.6702C8.0733 42.0142 6.63852 43.2803 5.99011 45.317C5.32791 47.4087 5.87974 49.2252 7.42489 50.7665C7.70081 51.0418 8.01812 51.1794 8.43199 51.1794C14.8057 51.1656 21.1932 51.1656 27.567 51.1656C27.7463 51.1656 27.9119 51.1656 28.2154 51.1656ZM39.3073 51.1656C41.5836 51.1656 43.8462 51.1794 46.1225 51.1518C46.357 51.1518 46.6606 51.0142 46.8123 50.8353C47.7229 49.7895 47.9988 48.5647 47.6677 47.2298C47.2262 45.4684 46.1087 44.3262 44.2877 44.0647C42.5356 43.8032 41.1284 44.4638 40.1213 45.95C39.6384 46.6656 39.2521 46.8032 38.4244 46.5418C37.0172 46.0876 35.6238 46.5693 34.8374 47.8216C34.3684 48.5509 34.0097 48.661 33.1405 48.4684C32.7542 48.372 32.3266 48.3995 31.9265 48.4133C31.623 48.4271 31.4574 48.5922 31.5126 48.9225C31.623 49.528 31.7333 50.1335 31.8437 50.739C31.9127 51.083 32.1058 51.1794 32.4645 51.1794C34.7409 51.1518 37.031 51.1656 39.3073 51.1656Z" fill="#E58B76"/>
<path d="M32.4369 26.2573C31.8575 26.2161 31.2781 26.1885 30.6986 26.1197C30.1882 26.0509 29.9123 25.6794 29.9675 25.239C30.0364 24.7986 30.3951 24.5647 30.9194 24.5784C31.9817 24.5922 33.044 24.6335 34.1062 24.5647C34.6995 24.5234 35.3065 24.2894 35.8721 24.0968C36.3826 23.9179 36.8103 24.0005 37.0172 24.4133C37.2103 24.8261 37.0724 25.2252 36.6033 25.4867C35.6928 25.9959 34.6857 26.106 33.6786 26.1885C33.2647 26.2298 32.8508 26.1885 32.4369 26.1885C32.4369 26.2161 32.4369 26.2436 32.4369 26.2573Z" fill="#E58B76"/>
<path d="M51.9306 56.3675C51.4064 56.0648 51.3374 55.5969 51.4064 55.0464C51.6685 52.9547 53.4206 51.1932 55.3658 50.973C58.1112 50.6565 60.0426 52.4455 60.5255 54.3033C60.5669 54.4409 60.6221 54.5785 60.6634 54.6886C61.7809 54.7712 61.7671 54.7712 61.9603 53.7253C62.8708 48.9638 63.7813 44.2024 64.7057 39.4409C64.9678 38.0648 65.6852 37.0051 66.8716 36.207C70.4862 33.7712 74.0731 31.2804 77.6738 28.8033C78.3774 28.3216 79.1638 27.9638 79.9916 28.3354C80.5296 28.5831 81.0814 28.9822 81.4125 29.4776C84.0062 33.262 86.5446 37.0739 89.0831 40.8859C89.6901 41.7804 89.8005 42.7987 89.6625 43.8446C89.5659 44.5739 89.4004 45.2895 89.2624 46.0051C89.1521 46.5556 88.752 46.8583 88.3105 46.7758C87.8415 46.6932 87.5655 46.3079 87.6345 45.7437C87.7311 45.0418 87.869 44.34 88.007 43.6382C88.1588 42.895 87.9932 42.2207 87.5655 41.6015C85.0823 37.8996 82.599 34.2116 80.1157 30.5097C79.6467 29.8079 79.288 29.7391 78.5706 30.2207C76.1149 31.8996 73.673 33.5785 71.2173 35.2574C70.0999 36.0281 68.9962 36.8262 67.8511 37.5556C67.0096 38.0923 66.5129 38.8216 66.3336 39.7987C65.7955 42.6198 65.2437 45.4409 64.7057 48.262C64.3194 50.2987 63.9331 52.3216 63.533 54.3583C63.5192 54.4684 63.5054 54.5785 63.4916 54.7024C65.4644 54.7024 67.4235 54.7024 69.4101 54.7024C69.8653 52.3216 70.3206 49.9547 70.7621 47.5739C71.0794 45.8675 72.2796 44.7528 73.7696 44.8905C74.5008 44.9593 75.2182 45.1244 75.9356 45.2482C76.8047 45.3996 77.66 45.551 78.5292 45.7437C80.4744 46.1565 81.3436 47.5327 80.9573 49.473C80.64 51.0694 80.3365 52.6657 80.0329 54.262C80.0054 54.3859 80.0192 54.5097 80.0054 54.7161C80.7641 54.7161 81.5091 54.7161 82.2541 54.7161C83.3026 54.7161 84.3511 54.7024 85.3996 54.7299C85.7859 54.7437 85.9238 54.6473 86.0066 54.2345C86.3377 52.3767 86.7102 50.5327 87.0689 48.6886C87.2068 48.0005 87.5517 47.6978 88.076 47.7941C88.6002 47.8904 88.8348 48.3583 88.6968 49.0602C88.3519 50.8629 87.9932 52.6519 87.6483 54.4547C87.6345 54.5235 87.6345 54.5923 87.6345 54.7299C88.2691 54.7299 88.8899 54.7437 89.5108 54.7161C89.6349 54.7161 89.7867 54.5235 89.8419 54.3859C90.5455 52.2116 92.0768 51.0281 94.3255 50.8904C94.5463 50.8767 94.7946 50.7253 94.9602 50.5602C98.216 47.1336 103.583 47.4363 106.383 51.2207C107.073 52.1427 107.514 53.1886 107.694 54.3308C107.708 54.4409 107.763 54.5372 107.804 54.6336C107.804 55.2253 107.804 55.8033 107.804 56.395C89.1659 56.3675 70.5413 56.3675 51.9306 56.3675ZM78.2395 54.6886C78.612 52.762 78.9983 50.8767 79.3432 48.9914C79.5087 48.0831 79.1776 47.5877 78.2671 47.4088C76.8461 47.106 75.4389 46.8308 74.0041 46.5831C73.1764 46.4317 72.6935 46.7758 72.4866 47.6152C72.39 48.0281 72.321 48.4409 72.2382 48.8538C71.8657 50.7941 71.4933 52.7345 71.1208 54.7024C73.5075 54.6886 75.8528 54.6886 78.2395 54.6886ZM106.011 54.7161C105.804 52.6382 104.176 50.7116 102.148 50.0923C100.051 49.4593 97.6366 50.0235 96.5467 51.3996C97.7331 52.1015 98.5609 53.0785 98.892 54.4409C98.9196 54.551 99.1127 54.7024 99.2231 54.7024C101.458 54.7161 103.721 54.7161 106.011 54.7161ZM91.4974 54.6886C93.4012 54.6886 95.2775 54.6886 97.1675 54.6886C96.7812 53.3813 95.6775 52.5693 94.3255 52.5556C92.9873 52.5418 91.8837 53.3675 91.4974 54.6886ZM58.8424 54.7024C58.6216 53.4638 57.4214 52.5969 55.9866 52.6106C54.6346 52.6244 53.4482 53.5189 53.2412 54.7024C55.1037 54.7024 56.9661 54.7024 58.8424 54.7024Z" fill="#E58B76"/>
<path d="M88.0622 0.000516838C89.1935 0.303269 90.173 0.826205 90.7938 1.87208C92.3941 4.58309 90.4903 7.78951 87.2482 7.80327C82.4058 7.81703 77.5635 7.80327 72.7073 7.80327C71.9347 7.80327 71.1622 7.80327 70.3896 7.80327C69.6998 7.80327 69.3135 7.51428 69.2997 6.99134C69.2859 6.44088 69.6584 6.13813 70.3896 6.13813C75.908 6.13813 81.4401 6.13813 86.9585 6.13813C87.3172 6.13813 87.7035 6.12437 88.0484 6.0418C88.9727 5.82162 89.6763 4.8996 89.6901 3.9363C89.7177 2.98676 89.0279 2.06474 88.1036 1.77575C87.1655 1.48676 86.1446 1.87208 85.6203 2.69776C85.5375 2.82162 85.4685 2.94547 85.3858 3.06932C85.0823 3.52345 84.6684 3.64731 84.2545 3.41336C83.8406 3.17942 83.7165 2.75281 83.9234 2.27116C84.3925 1.25281 85.165 0.564737 86.2273 0.193177C86.3929 0.138131 86.5446 0.0555627 86.7102 -0.0132446C87.1792 0.000516838 87.6207 0.000516838 88.0622 0.000516838Z" fill="#E58B76"/>
<path d="M86.7102 20.5326C87.1517 21.606 87.5517 22.5968 88.007 23.5739C88.0622 23.6977 88.3657 23.7666 88.5588 23.7666C92.4493 23.7803 96.3398 23.7803 100.23 23.7803C100.561 23.7803 100.892 23.7803 101.224 23.7803C101.858 23.7941 102.231 24.1244 102.217 24.6335C102.203 25.1289 101.858 25.4317 101.237 25.4317C98.2574 25.4317 95.2913 25.4317 92.3113 25.4317C91.1801 25.4317 90.035 25.4317 88.8072 25.4317C88.8761 25.6519 88.9313 25.8033 88.9865 25.9684C89.3038 26.7253 89.6487 27.4822 89.9246 28.2528C90.0626 28.6244 90.242 28.7482 90.642 28.7344C92.5459 28.7069 94.4635 28.7207 96.3674 28.7207C96.933 28.7207 97.2917 29.0372 97.3055 29.5051C97.3193 30.0005 96.9606 30.3445 96.3674 30.3583C96.2432 30.3583 96.1052 30.3583 95.9811 30.3583C94.4773 30.3583 92.9735 30.3583 91.4698 30.3583C91.2904 30.3583 91.1111 30.3583 90.849 30.3583C90.9317 30.5922 91.0007 30.7711 91.0697 30.95C92.2148 33.6886 93.3736 36.4133 94.5049 39.1519C95.2361 40.8996 94.3255 42.5372 92.5321 42.7299C91.4836 42.8537 90.5179 42.2344 90.035 41.1198C89.3038 39.3996 88.5864 37.6794 87.869 35.9592C87.2068 34.3904 86.5584 32.8216 85.8962 31.2528C85.841 31.1152 85.7859 30.9776 85.7445 30.84C85.6065 30.3583 85.7583 30.0143 86.1997 29.8078C86.5998 29.6289 87.0275 29.7803 87.262 30.2207C87.469 30.6473 87.6483 31.0877 87.8277 31.528C89.0417 34.4317 90.2557 37.3354 91.4698 40.239C91.5526 40.4179 91.6215 40.6106 91.7457 40.7757C91.994 41.0922 92.3803 41.1886 92.67 40.9546C92.8908 40.7895 92.9735 40.4317 93.0701 40.1427C93.0977 40.0464 93.0011 39.895 92.9598 39.7849C90.3661 33.6335 87.7863 27.4684 85.1926 21.317C84.8063 20.4088 84.5856 20.3399 83.6889 20.7253C77.6187 23.3399 71.5484 25.9546 65.4782 28.5693C65.3127 28.6381 65.1333 28.7069 64.9954 28.817C64.6643 29.051 64.5677 29.3812 64.7194 29.739C64.8712 30.0968 65.1747 30.2482 65.5748 30.1656C65.7541 30.1244 65.9197 30.0555 66.099 29.9867C71.645 27.5922 77.191 25.2115 82.7369 22.817C83.7716 22.3629 84.0476 22.473 84.489 23.5326C85.0271 24.8262 85.6065 26.1198 86.0894 27.4409C86.1997 27.7299 86.1308 28.1702 85.979 28.4455C85.8824 28.6244 85.4272 28.7482 85.2064 28.6656C84.9443 28.5693 84.6822 28.2803 84.558 28.0051C84.1165 27.0418 83.7303 26.051 83.3164 25.0739C83.2336 24.895 83.1508 24.7161 83.0543 24.4959C80.8469 25.4455 78.6671 26.3812 76.4874 27.3308C73.1764 28.762 69.8653 30.1932 66.5543 31.6106C65.0643 32.2436 63.6434 31.6519 63.1053 30.2069C62.6776 29.0372 63.2571 27.7436 64.5125 27.1794C66.0714 26.4776 67.6442 25.8308 69.2031 25.1565C73.811 23.1748 78.405 21.1794 83.0267 19.2115C83.5785 18.9776 84.2269 18.8537 84.8339 18.8399C87.2896 18.7987 89.7591 18.8262 92.2148 18.8262C92.3113 18.8262 92.3941 18.8262 92.4907 18.8262C93.0977 18.8537 93.4564 19.1702 93.4702 19.6519C93.484 20.1335 93.1253 20.4913 92.5183 20.4913C91.3456 20.5188 90.173 20.5051 89.0003 20.5051C88.2415 20.5326 87.5104 20.5326 86.7102 20.5326Z" fill="#E58B76"/>
<path d="M70.1551 10.4593C73.066 10.4593 75.9907 10.418 78.9017 10.473C80.8745 10.5143 82.4748 12.207 82.5438 14.1748C82.6128 16.1978 81.1504 17.918 79.15 18.1657C77.5083 18.3721 75.9493 17.5739 75.2182 16.129C74.9146 15.551 74.9836 15.0693 75.3975 14.8216C75.839 14.5464 76.308 14.7253 76.6667 15.2895C77.3427 16.3492 78.2809 16.762 79.3018 16.4455C80.2813 16.1427 80.9711 15.1519 80.8745 14.1886C80.7641 13.0602 79.9088 12.1932 78.8189 12.0969C78.612 12.0831 78.4188 12.0831 78.2119 12.0831C72.7211 12.0831 67.2441 12.0831 61.7533 12.0831C61.643 12.0831 61.5326 12.0831 61.4222 12.0831C60.6496 12.0831 60.2496 11.7941 60.2634 11.2299C60.2634 10.6657 60.6358 10.418 61.4498 10.418C64.347 10.418 67.2441 10.418 70.1413 10.418C70.1551 10.4455 70.1551 10.4593 70.1551 10.4593Z" fill="#E58B76"/>
<path d="M66.4853 16.0739C65.9887 16.0464 65.492 16.0464 65.0092 15.9776C64.5953 15.9225 64.3745 15.6198 64.3745 15.2069C64.3745 14.7803 64.5815 14.4638 64.9954 14.4363C66.4715 14.3399 67.9615 14.1473 69.3549 14.8904C70.8586 15.7023 71.6588 17.4913 71.2725 19.1427C70.8862 20.8354 69.3963 22.0601 67.6718 22.1702C66.0439 22.2803 64.8436 21.5647 63.9745 20.2574C63.8365 20.0509 63.7675 19.7895 63.7261 19.5418C63.6572 19.1565 63.8365 18.7987 64.2228 18.7436C64.5125 18.7023 64.8712 18.8399 65.1471 18.9776C65.3127 19.0601 65.3955 19.3354 65.5058 19.5143C66.0301 20.3262 67.1061 20.6977 68.0719 20.4087C69.079 20.106 69.686 19.2803 69.686 18.2482C69.6722 17.2574 69.0514 16.3904 68.0719 16.1565C67.5614 16.0326 67.0234 16.0601 66.4853 16.0188C66.4853 16.0326 66.4853 16.0464 66.4853 16.0739Z" fill="#E58B76"/>
<path d="M81.0263 44.1473C79.8674 43.9271 78.5844 43.6932 77.3152 43.4455C75.8252 43.1565 74.3352 42.8675 72.8453 42.5923C72.3762 42.5097 71.9899 42.3308 71.9485 41.7804C71.8933 41.2024 72.3624 40.8033 72.997 40.9271C74.7077 41.2299 76.4184 41.5739 78.1153 41.8905C79.1914 42.0969 80.2675 42.2895 81.3436 42.5097C81.854 42.6198 82.1437 43.0051 82.0886 43.4455C82.0334 43.8996 81.6747 44.1749 81.0263 44.1473Z" fill="#E58B76"/>
<path d="M81.7575 41.2712C80.1157 40.9684 78.5016 40.6657 76.8737 40.3492C75.7562 40.1427 74.6387 39.9226 73.5351 39.7161C73.4385 39.7024 73.3557 39.6749 73.2729 39.6473C72.6797 39.496 72.4176 39.1382 72.528 38.629C72.6245 38.1473 73.066 37.9134 73.6454 38.0235C74.9285 38.2712 76.1977 38.5051 77.4807 38.7528C78.9707 39.0418 80.4606 39.3171 81.9506 39.6336C82.4748 39.7437 82.737 40.129 82.6542 40.5831C82.5714 41.0235 82.1989 41.3125 81.7575 41.2712Z" fill="#E58B76"/>
<path d="M97.7055 20.395C97.2779 20.395 96.864 20.4088 96.4363 20.395C95.9673 20.3675 95.6913 20.0922 95.6637 19.6243C95.6224 19.184 95.9259 18.7849 96.4087 18.7711C97.3055 18.7299 98.2022 18.7299 99.0989 18.7711C99.568 18.7987 99.8715 19.1152 99.8439 19.6243C99.8163 20.106 99.5404 20.3675 99.0714 20.395C98.6299 20.4088 98.1608 20.395 97.7055 20.395Z" fill="#E58B76"/>
<path d="M57.7525 10.4593C57.9594 10.4593 58.1526 10.4455 58.3595 10.4593C58.8424 10.4868 59.1045 10.7758 59.1183 11.2299C59.1459 11.6978 58.8838 12.0143 58.4285 12.0693C57.9594 12.1244 57.4766 12.1244 57.0075 12.0693C56.566 12.0143 56.2901 11.6978 56.3315 11.2161C56.3591 10.7482 56.635 10.4868 57.1041 10.4455C57.3248 10.4455 57.5456 10.4593 57.7525 10.4593Z" fill="#E58B76"/>
</g>
<defs>
<clipPath id="clip0_1601_1238">
<rect width="107.553" height="60" fill="white" transform="translate(0.223404 0.000488281)"/>
</clipPath>
</defs>
</svg>
