<svg width="100" height="101" viewBox="0 0 100 101" fill="none" xmlns="http://www.w3.org/2000/svg">
<path d="M25 12.5264H20.8333C16.2292 12.5264 12.5 16.2555 12.5 20.8597V25.0264" stroke="#60034C" stroke-width="4" stroke-linecap="round" stroke-linejoin="round"/>
<path d="M75 87.5264H79.1667C83.7708 87.5264 87.5 83.7972 87.5 79.193V75.0264" stroke="#60034C" stroke-width="4" stroke-linecap="round" stroke-linejoin="round"/>
<path d="M12.5 75.0264V79.193C12.5 83.7972 16.2292 87.5264 20.8333 87.5264H25" stroke="#60034C" stroke-width="4" stroke-linecap="round" stroke-linejoin="round"/>
<path d="M87.5 25.0264V20.8597C87.5 16.2555 83.7708 12.5264 79.1667 12.5264H75" stroke="#60034C" stroke-width="4" stroke-linecap="round" stroke-linejoin="round"/>
<path fill-rule="evenodd" clip-rule="evenodd" d="M57.2143 50.6391C60.231 48.0266 61.8227 43.8141 60.6352 39.3141C59.6643 35.6308 56.6477 32.6224 52.9602 31.6641C45.5935 29.7474 38.9727 35.2558 38.9727 42.3099C38.9727 45.6391 40.4518 48.6183 42.7852 50.6391C43.431 51.1974 43.7602 52.0349 43.5227 52.8599L40.4893 63.4724C39.7268 66.1349 41.7268 68.7849 44.4977 68.7849H55.5102C58.2768 68.7849 60.2768 66.1349 59.5185 63.4724L56.4852 52.8558C56.2477 52.0308 56.5727 51.1933 57.2143 50.6391V50.6391Z" stroke="#60034C" stroke-width="4" stroke-linecap="round" stroke-linejoin="round"/>
</svg>
