<svg width="24" height="25" viewBox="0 0 24 25" fill="none" xmlns="http://www.w3.org/2000/svg">
<path d="M13.1111 22H8.66666V8.66666H13.1111V10.8889C14.0584 9.6836 15.4951 8.96507 17.0278 8.92999C19.784 8.94529 22.008 11.1882 22 13.9444V22H17.5555V14.5C17.3778 13.2584 16.3131 12.3373 15.0589 12.34C14.5103 12.3573 13.9924 12.5975 13.6249 13.0051C13.2573 13.4128 13.0718 13.9525 13.1111 14.5V22ZM6.44444 22H2V8.66666H6.44444V22ZM4.22222 6.44444C2.99492 6.44444 2 5.44952 2 4.22222C2 2.99492 2.99492 2 4.22222 2C5.44952 2 6.44444 2.99492 6.44444 4.22222C6.44444 4.81159 6.21032 5.37682 5.79356 5.79356C5.37682 6.21032 4.81159 6.44444 4.22222 6.44444Z" fill="white"/>
</svg>
