<svg width="882" height="301" viewBox="0 0 882 301" fill="none" xmlns="http://www.w3.org/2000/svg">
<g clip-path="url(#clip0_6331_21149)">
<path opacity="0.08" d="M461.708 298.025C510.72 298.025 550.452 258.31 550.452 209.32C550.452 160.329 510.72 120.614 461.708 120.614C412.696 120.614 372.964 160.329 372.964 209.32C372.964 258.31 412.696 298.025 461.708 298.025Z" fill="white"/>
<path opacity="0.5" d="M458.144 294.945C507.156 294.945 546.888 255.23 546.888 206.239C546.888 157.249 507.156 117.534 458.144 117.534C409.132 117.534 369.4 157.249 369.4 206.239C369.4 255.23 409.132 294.945 458.144 294.945Z" fill="#E58B76"/>
<path opacity="0.31" d="M391.275 250.307L408.785 242.865L399.772 221.676L382.262 229.119L381.817 228.086C381.069 226.323 379.038 225.504 377.274 226.252L373.908 227.677L373.658 227.089C373.373 226.395 372.572 226.092 371.895 226.377L367.851 228.086C367.157 228.371 366.854 229.172 367.139 229.849L367.388 230.436L365.482 231.256L365.233 230.668C364.948 229.974 364.146 229.671 363.469 229.956L359.426 231.665C358.731 231.95 358.428 232.751 358.713 233.428L358.963 234.015L335.236 244.093C333.472 244.841 332.653 246.871 333.401 248.633L335.628 253.85L327.755 257.198L329.144 260.456C309.461 268.914 287.337 278.226 265.872 278.831C256.681 279.098 238.85 275.697 222.676 249.969C218.259 242.936 214.678 235.422 211.757 228.994C211.258 227.873 210.759 226.68 210.243 225.415C207.731 219.344 204.899 212.453 198.272 209.106C188.796 204.334 180.353 209.693 173.548 214.002C172.729 214.519 171.909 215.035 171.108 215.534C168.935 216.851 166.708 218.293 164.553 219.682C153.188 227 141.431 234.567 128.695 233.303C117.188 232.164 106.928 224.561 101.228 212.97C89.8274 189.769 91.7334 166.284 107.017 141.215C120.483 119.1 141.841 99.5326 160.687 82.2615C163.537 79.6441 166.227 77.187 168.863 74.7299C174.225 69.7444 180.264 63.8153 184.129 56.3905C188.529 47.9509 189.223 38.8702 186.071 31.5166C183.363 25.2136 177.681 19.8364 169.184 15.5454C155.379 8.61914 140.737 5.68128 125.614 6.85642C112.503 7.87132 98.627 12.0199 84.3767 19.1954C58.922 32.0152 36.1749 52.0282 15.3694 71.7564L0.584717 85.7869L5.18045 90.63L19.9652 76.5994C40.3788 57.2274 62.6805 37.5882 87.3692 25.1602C100.836 18.3764 113.875 14.4592 126.112 13.5156C140.006 12.4473 153.455 15.1358 166.085 21.5279C173.138 25.1068 177.77 29.3622 179.854 34.1874C182.187 39.618 181.546 46.7757 178.126 53.3458C174.759 59.8269 169.184 65.2753 164.232 69.8691C161.613 72.3084 158.924 74.7655 156.091 77.3651C136.925 94.9388 115.193 114.863 101.228 137.778C93.4791 150.509 89.0258 162.599 87.6008 174.777C85.9976 188.63 88.5271 202.482 95.1535 215.961C96.436 218.578 97.9145 221.018 99.5711 223.261C106.607 232.805 116.778 238.894 127.947 239.998C143.017 241.494 156.341 232.911 168.097 225.344C170.324 223.92 172.426 222.567 174.528 221.285C175.365 220.768 176.202 220.234 177.075 219.7C184.343 215.088 189.544 212.275 195.191 215.124C199.591 217.35 201.835 222.762 203.99 228.015C204.507 229.279 205.041 230.579 205.611 231.807C208.622 238.431 212.327 246.212 216.958 253.565C224.653 265.815 241.273 286.256 266.015 285.544C288.726 284.903 311.491 275.323 331.709 266.634L333.098 269.911L340.972 266.563L343.252 271.923C344 273.685 346.031 274.504 347.794 273.757L371.521 263.679L371.77 264.266C372.055 264.961 372.857 265.263 373.534 264.979L377.577 263.269C378.272 262.984 378.575 262.183 378.29 261.507L378.04 260.919L379.946 260.1L380.196 260.688C380.481 261.382 381.282 261.685 381.959 261.4L386.003 259.69C386.697 259.406 387 258.604 386.715 257.928L386.466 257.34L389.833 255.916C391.596 255.168 392.415 253.138 391.667 251.375L391.275 250.307Z" fill="white"/>
<path d="M381.229 254.135C381.514 254.829 382.315 255.132 382.992 254.847L387.036 253.138C387.73 252.853 388.033 252.052 387.748 251.375L387.499 250.788L390.865 249.363C392.629 248.615 393.448 246.586 392.7 244.823L382.796 221.552C382.048 219.789 380.017 218.97 378.254 219.718L374.887 221.142L374.638 220.554C374.353 219.86 373.551 219.557 372.874 219.842L368.831 221.552C368.136 221.836 367.833 222.638 368.118 223.314L368.368 223.902L366.462 224.721L366.212 224.133C365.927 223.439 365.126 223.136 364.449 223.421L360.405 225.13C359.711 225.415 359.408 226.216 359.693 226.893L359.942 227.481L336.215 237.558C334.452 238.306 333.633 240.336 334.381 242.099L344.285 265.37C345.033 267.133 347.063 267.952 348.827 267.204L372.554 257.126L372.803 257.714C373.088 258.408 373.89 258.711 374.567 258.426L378.61 256.717C379.305 256.432 379.608 255.631 379.323 254.954L379.073 254.367L380.979 253.547L381.229 254.135Z" fill="#E58B76"/>
<path opacity="0.14" d="M338.976 253.619L391.096 231.665L381.21 213.183L328.662 236.241L333.401 248.651L338.976 253.619Z" fill="#60034C"/>
<path d="M409.765 236.345L400.753 215.158L383.245 222.599L392.257 243.786L409.765 236.345Z" fill="#60034C"/>
<path d="M401.231 219.992L399.885 216.83L395.541 218.676L396.887 221.839L401.231 219.992Z" fill="white"/>
<path d="M403.471 225.275L402.126 222.113L397.782 223.959L399.127 227.122L403.471 225.275Z" fill="white"/>
<path d="M405.731 230.552L404.386 227.389L400.041 229.235L401.387 232.398L405.731 230.552Z" fill="white"/>
<path d="M407.965 235.834L406.62 232.671L402.276 234.517L403.621 237.68L407.965 235.834Z" fill="white"/>
<path d="M380.99 253.571L368.381 223.929L366.479 224.737L379.088 254.38L380.99 253.571Z" fill="#60034C"/>
<path d="M341.784 260.221L336.389 247.538L327.914 251.14L333.309 263.823L341.784 260.221Z" fill="#60034C"/>
<path d="M99.7664 217.154C98.1098 214.91 96.6313 212.471 95.3488 209.854C88.7402 196.393 86.1929 182.541 87.7961 168.67C89.2033 156.491 93.6565 144.384 101.423 131.671C115.37 108.756 137.102 88.8317 156.269 71.2579C159.119 68.6584 161.791 66.2013 164.409 63.7619C169.361 59.1682 174.919 53.702 178.304 47.2387C181.724 40.6864 182.365 33.5109 180.031 28.0803C177.965 23.2551 173.334 18.9996 166.262 15.4208C153.633 9.02872 140.184 6.34013 126.29 7.40845C114.052 8.35212 101.013 12.2693 87.5467 19.0531C62.858 31.4811 40.5562 51.1202 20.1426 70.4923L5.35793 84.5228L0.744385 79.6798L15.5291 65.6493C36.3346 45.9211 59.0817 25.9081 84.5363 13.0883C98.7867 5.91281 112.645 1.7642 125.773 0.749298C140.896 -0.425846 155.539 2.51201 169.272 9.45605C177.769 13.7649 183.451 19.1243 186.159 25.4273C189.33 32.7987 188.617 41.8615 184.217 50.3012C180.352 57.726 174.313 63.6551 168.952 68.6406C166.315 71.0977 163.626 73.5548 160.776 76.1722C141.93 93.4432 120.59 113.029 107.105 135.125C91.8218 160.213 89.9336 183.68 101.316 206.88C107.016 218.471 117.276 226.074 128.784 227.214C141.538 228.478 153.276 220.911 164.641 213.593C166.796 212.204 169.023 210.762 171.196 209.444C171.998 208.946 172.817 208.429 173.637 207.913C180.423 203.604 188.884 198.227 198.361 203.016C204.987 206.364 207.837 213.237 210.331 219.326C210.848 220.59 211.346 221.783 211.845 222.905C214.767 229.333 218.347 236.846 222.765 243.879C238.939 269.608 256.769 273.009 265.961 272.742C287.995 272.119 310.743 262.326 330.818 253.672L333.721 252.426L336.357 258.569L333.454 259.815C312.827 268.7 289.474 278.76 266.139 279.419C241.415 280.131 224.795 259.69 217.082 247.44C212.451 240.087 208.746 232.306 205.735 225.683C205.183 224.454 204.649 223.154 204.114 221.89C201.959 216.655 199.715 211.225 195.315 208.999C189.65 206.15 184.467 208.963 177.199 213.575C176.344 214.127 175.489 214.661 174.652 215.16C172.55 216.442 170.448 217.795 168.221 219.219C156.465 226.786 143.141 235.369 128.071 233.873C116.956 232.787 106.802 226.697 99.7664 217.154Z" fill="#60034C"/>
<path opacity="0.31" d="M881.008 297.331C870.284 297.384 856.283 290.191 849.194 273.953C840.448 253.922 845.008 232.36 849.39 211.492C849.728 209.907 850.067 208.305 850.387 206.738L850.637 205.527C855.624 181.401 860.79 156.438 860.879 131.315C860.933 115.985 857.869 100.334 852.276 87.2648C845.578 71.6141 835.407 60.0941 822.866 53.8979C811.092 48.0934 797.875 47.5414 787.508 52.3844C778.281 56.7111 772.011 64.6878 769.41 75.46C765.099 93.2652 768.626 111.854 772.011 129.837C772.456 132.152 772.883 134.431 773.293 136.71C773.507 137.938 773.738 139.185 773.97 140.431C778.726 166.356 784.123 195.734 766.809 217.368C761.519 223.991 755.587 227.427 748.676 227.908C730.631 229.155 710.022 209.604 693.473 193.9C687.025 187.775 681.45 182.487 676.711 179.069C646.839 157.417 620.12 150.402 595.128 157.684L593.08 153.269L583.728 157.578L581.84 153.465C581.127 151.898 579.275 151.221 577.707 151.933L553.785 162.973L553.321 161.958C552.947 161.156 551.985 160.8 551.184 161.174L527.582 172.071C526.78 172.445 526.424 173.406 526.798 174.208L527.261 175.223L516.894 180.012C515.326 180.724 514.65 182.576 515.362 184.143L518.479 190.873L494.77 201.877C492.864 202.749 492.027 205.011 492.918 206.916C493.791 208.821 496.053 209.658 497.959 208.768L521.668 197.782L524.821 204.601C525.533 206.168 527.386 206.845 528.953 206.132L539.32 201.343L539.784 202.358C540.158 203.159 541.12 203.515 541.921 203.141L565.523 192.244C566.325 191.87 566.681 190.909 566.307 190.108L565.844 189.093L589.767 178.054C591.334 177.341 592.011 175.49 591.299 173.923L589.874 170.86L589.393 169.828L598.744 165.519L596.464 160.569C620.334 153.803 646.02 160.694 674.841 181.615C679.401 184.926 684.905 190.143 691.282 196.179C708.294 212.311 729.455 232.377 748.889 231.042C756.62 230.508 763.478 226.573 769.285 219.326C787.49 196.571 781.968 166.427 777.087 139.844C776.856 138.597 776.624 137.369 776.41 136.14C776.001 133.861 775.555 131.564 775.128 129.25C771.797 111.587 768.341 93.3364 772.491 76.2078C774.861 66.3971 780.525 59.1682 788.862 55.2689C798.374 50.8176 810.558 51.3695 821.477 56.7467C833.34 62.5868 842.995 73.5726 849.39 88.5112C854.823 101.206 857.78 116.412 857.744 131.315C857.655 156.118 852.525 180.92 847.573 204.904L847.324 206.115C847.003 207.699 846.664 209.266 846.326 210.869C841.837 232.217 837.188 254.278 846.326 275.234C849.372 282.214 854.288 288.535 860.167 293.057C866.579 297.99 873.811 300.553 881.043 300.518L881.008 297.331Z" fill="white"/>
<path d="M582.253 147.197L591.711 167.673C592.424 169.24 591.747 171.092 590.179 171.804L529.366 199.865C527.799 200.577 525.946 199.9 525.233 198.334L515.775 177.858C515.062 176.291 515.739 174.439 517.307 173.727L578.12 145.666C579.688 144.954 581.54 145.63 582.253 147.197Z" fill="#E58B76"/>
<path opacity="0.14" d="M588.112 157.435L516.184 189.787L510.359 171.84L535.885 152.806L584.763 139.398L588.112 157.435Z" fill="#60034C"/>
<path d="M553.734 155.69L566.737 183.84C567.111 184.641 566.755 185.603 565.953 185.977L542.351 196.874C541.55 197.248 540.588 196.891 540.214 196.09L527.21 167.94C526.836 167.139 527.193 166.177 527.994 165.804L551.596 154.907C552.416 154.533 553.378 154.889 553.734 155.69Z" fill="#60034C"/>
<path d="M563.836 182.647C564.103 183.235 563.853 183.912 563.266 184.179L542.763 193.633C542.175 193.9 541.498 193.651 541.231 193.063C540.964 192.476 541.213 191.799 541.801 191.532L562.304 182.078C562.874 181.811 563.568 182.06 563.836 182.647Z" fill="#E58B76"/>
<path d="M561.626 177.858C561.893 178.445 561.643 179.122 561.055 179.389L540.553 188.844C539.965 189.111 539.288 188.862 539.021 188.274C538.754 187.686 539.003 187.01 539.591 186.743L560.094 177.288C560.664 177.021 561.358 177.27 561.626 177.858Z" fill="#E58B76"/>
<path d="M559.418 173.068C559.685 173.656 559.435 174.332 558.848 174.6L538.345 184.054C537.757 184.321 537.08 184.072 536.813 183.484C536.546 182.897 536.795 182.22 537.383 181.953L557.886 172.499C558.456 172.231 559.15 172.481 559.418 173.068Z" fill="#E58B76"/>
<path d="M557.191 168.279C557.458 168.866 557.209 169.543 556.621 169.81L536.118 179.265C535.531 179.532 534.854 179.282 534.586 178.695C534.319 178.107 534.569 177.431 535.156 177.164L555.659 167.709C556.247 167.442 556.924 167.691 557.191 168.279Z" fill="#E58B76"/>
<path d="M554.984 163.471C555.251 164.059 555.002 164.735 554.414 165.003L533.911 174.475C533.324 174.742 532.647 174.493 532.379 173.905C532.112 173.318 532.362 172.641 532.949 172.374L553.452 162.919C554.022 162.652 554.717 162.902 554.984 163.471Z" fill="#E58B76"/>
<path d="M552.773 158.682C553.04 159.269 552.791 159.946 552.203 160.213L531.7 169.668C531.113 169.935 530.436 169.685 530.168 169.098C529.901 168.51 530.151 167.834 530.738 167.567L551.241 158.112C551.811 157.845 552.506 158.112 552.773 158.682Z" fill="#E58B76"/>
<path d="M518.927 184.659L522.115 191.55L498.389 202.5C496.483 203.373 494.22 202.553 493.348 200.648C492.475 198.743 493.294 196.482 495.2 195.609L518.927 184.659Z" fill="#60034C"/>
<path d="M584.141 151.322L589.807 163.591L599.155 159.278L593.488 147.009L584.141 151.322Z" fill="#60034C"/>
<path d="M592.369 152.396C618.269 143.529 645.986 150.188 677.123 172.783C681.861 176.22 687.437 181.508 693.885 187.615C710.433 203.319 731.043 222.851 749.087 221.623C755.999 221.142 761.912 217.706 767.221 211.082C784.517 189.449 779.137 160.07 774.381 134.146C774.15 132.9 773.918 131.653 773.705 130.425C773.295 128.163 772.867 125.867 772.422 123.552C769.02 105.569 765.511 86.9621 769.821 69.1747C772.422 58.4026 778.692 50.4258 787.919 46.0992C798.286 41.2562 811.504 41.8081 823.278 47.6126C835.818 53.791 846.007 65.3288 852.687 80.9796C858.28 94.0664 861.344 109.699 861.291 125.03C861.202 150.153 856.036 175.116 851.048 199.242L850.799 200.453C850.478 202.037 850.14 203.622 849.801 205.206C845.419 226.056 840.859 247.619 849.605 267.667C856.695 283.906 870.678 291.117 881.419 291.045L881.437 294.215C874.187 294.25 866.973 291.669 860.56 286.754C854.682 282.232 849.766 275.911 846.72 268.931C837.582 247.975 842.231 225.896 846.72 204.566C847.058 202.981 847.397 201.396 847.717 199.812L847.967 198.601C852.936 174.617 858.067 149.815 858.138 125.012C858.191 110.109 855.216 94.9032 849.783 82.2081C843.389 67.2696 833.734 56.2837 821.871 50.4436C810.951 45.0665 798.767 44.5145 789.255 48.9658C780.919 52.8652 775.272 60.1119 772.885 69.9047C768.735 87.0333 772.19 105.301 775.521 122.946C775.967 125.261 776.394 127.558 776.804 129.837C777.036 131.066 777.249 132.294 777.481 133.541C782.362 160.124 787.884 190.268 769.679 213.023C763.872 220.27 757.014 224.222 749.283 224.739C729.849 226.074 708.687 205.99 691.676 189.876C685.299 183.84 679.795 178.606 675.235 175.312C644.988 153.376 618.216 146.859 593.367 155.37L592.369 152.396Z" fill="#60034C"/>
</g>
<defs>
<clipPath id="clip0_6331_21149">
<rect width="880.831" height="300" fill="white" transform="translate(0.584717 0.5)"/>
</clipPath>
</defs>
</svg>
