<svg width="1842" height="2087" viewBox="0 0 1842 2087" fill="none" xmlns="http://www.w3.org/2000/svg">
<g clip-path="url(#clip0_3893_8463)">
<path d="M850.63 1548.84C1223.42 1548.84 1525.63 1246.63 1525.63 873.84C1525.63 501.048 1223.42 198.84 850.63 198.84C477.838 198.84 175.63 501.048 175.63 873.84C175.63 1246.63 477.838 1548.84 850.63 1548.84Z" fill="#FBECE6"/>
<path d="M867.42 1182.16V1587.34C867.42 1657.49 810.55 1714.36 740.4 1714.36H127.01C74.86 1714.36 32.58 1756.64 32.58 1808.79V2070.15C32.58 2079.15 25.29 2086.44 16.29 2086.44C7.29 2086.44 0 2079.15 0 2070.15V1808.79C0 1738.64 56.87 1681.78 127.01 1681.78H740.41C792.56 1681.78 834.83 1639.51 834.83 1587.36V1182.16H867.43H867.42Z" fill="#60034C"/>
<path d="M904.08 1269.61V1334.54C904.08 1350.05 891.51 1362.61 876.01 1362.61H826.23C817.67 1362.61 810.01 1358.78 804.87 1352.75C800.69 1347.84 798.16 1341.49 798.16 1334.54V1269.61H904.07H904.08Z" fill="#60034C"/>
<path d="M959.41 1118.25V1247.95C959.41 1267.98 943.17 1284.22 923.13 1284.22H779.11C759.08 1284.22 742.84 1267.98 742.84 1247.95V1118.25H959.41Z" fill="#60034C"/>
<path d="M729.94 1118.26H972.3C974.928 1118.26 977.06 1116.13 977.06 1113.5V1094.46C977.06 1091.83 974.928 1089.7 972.3 1089.7H729.94C727.311 1089.7 725.18 1091.83 725.18 1094.46V1113.5C725.18 1116.13 727.311 1118.26 729.94 1118.26Z" fill="#E58B76"/>
<path d="M818.62 1089.69H781.71V1001.42C781.71 991.23 789.97 982.97 800.16 982.97C810.35 982.97 818.61 991.23 818.61 1001.42V1089.69H818.62Z" fill="#E58B76"/>
<path d="M902.08 982.97C912.27 982.97 920.53 991.24 920.53 1001.42V1089.69H883.62V1001.42C883.62 991.23 891.89 982.97 902.07 982.97H902.08Z" fill="#E58B76"/>
<path d="M959.41 1118.25V1247.95C959.41 1267.98 943.17 1284.22 923.13 1284.22H779.11C759.08 1284.22 742.84 1267.98 742.84 1247.95C898.35 1237.15 912.63 1118.25 912.63 1118.25H959.4H959.41Z" fill="#E58B76"/>
<path d="M959.41 1118.25H742.84V1128.71H959.41V1118.25Z" fill="#60034C"/>
<path d="M959.409 1173.07V1247.95C959.409 1267.98 943.169 1284.22 923.129 1284.22H822.029C924.129 1284.22 959.409 1173.07 959.409 1173.07Z" fill="#60034C"/>
<path d="M904.08 1284.22H798.17V1291H904.08V1284.22Z" fill="#E58B76"/>
<path d="M818.63 1076.77H781.72V1089.69H818.63V1076.77Z" fill="#60034C"/>
<path d="M920.53 1076.77H883.62V1089.69H920.53V1076.77Z" fill="#60034C"/>
<path d="M904.08 1284.22V1334.54C904.08 1350.05 891.51 1362.61 876.01 1362.61H826.23C817.67 1362.61 810.01 1358.78 804.87 1352.75C882.46 1362.26 894.31 1284.21 894.31 1284.21H904.08V1284.22Z" fill="#E58B76"/>
<path d="M1841.49 16.29C1841.49 25.29 1834.19 32.59 1825.19 32.59H961.85C909.7 32.59 867.42 74.87 867.42 127.02V555.21H834.83V127.02C834.83 56.87 891.69 0 961.85 0H1825.19C1834.19 0 1841.49 7.3 1841.49 16.29Z" fill="#60034C"/>
<path d="M904.08 518.54V453.61C904.08 438.1 891.51 425.54 876.01 425.54H826.23C817.67 425.54 810.01 429.37 804.87 435.4C800.69 440.31 798.16 446.66 798.16 453.61V518.54H904.07H904.08Z" fill="#60034C"/>
<path d="M959.41 669.91V540.21C959.41 520.18 943.17 503.94 923.13 503.94H779.11C759.08 503.94 742.84 520.18 742.84 540.21V669.91H959.41Z" fill="#60034C"/>
<path d="M729.94 698.46H972.3C974.928 698.46 977.06 696.329 977.06 693.7V674.66C977.06 672.031 974.928 669.9 972.3 669.9H729.94C727.311 669.9 725.18 672.031 725.18 674.66V693.7C725.18 696.329 727.311 698.46 729.94 698.46Z" fill="#E58B76"/>
<path d="M959.41 669.91V540.21C959.41 520.18 943.17 503.94 923.13 503.94H779.11C759.08 503.94 742.84 520.18 742.84 540.21C898.35 551.01 912.63 669.91 912.63 669.91H959.4H959.41Z" fill="#E58B76"/>
<path d="M959.41 659.45H742.84V669.91H959.41V659.45Z" fill="#60034C"/>
<path d="M959.409 615.09V540.21C959.409 520.18 943.169 503.94 923.129 503.94H822.029C924.129 503.94 959.409 615.09 959.409 615.09Z" fill="#60034C"/>
<path d="M904.08 497.16H798.17V503.94H904.08V497.16Z" fill="#E58B76"/>
<path d="M904.08 503.93V453.61C904.08 438.1 891.51 425.54 876.01 425.54H826.23C817.67 425.54 810.01 429.37 804.87 435.4C882.46 425.89 894.31 503.94 894.31 503.94H904.08V503.93Z" fill="#E58B76"/>
<path d="M567.06 811.72H500C494.9 811.72 490.77 807.59 490.77 802.49C490.77 797.39 494.9 793.26 500 793.26H567.06C572.16 793.26 576.29 797.39 576.29 802.49C576.29 807.59 572.16 811.72 567.06 811.72Z" fill="#60034C"/>
<path d="M652.169 726.61C647.069 726.61 642.939 722.48 642.939 717.38V650.32C642.939 645.22 647.069 641.09 652.169 641.09C657.269 641.09 661.399 645.22 661.399 650.32V717.38C661.399 722.48 657.269 726.61 652.169 726.61Z" fill="#60034C"/>
<path d="M590.64 750.19C588.28 750.19 585.92 749.29 584.11 747.49L538.05 701.43C534.45 697.82 534.45 691.98 538.05 688.38C541.65 684.78 547.5 684.78 551.1 688.38L597.16 734.44C600.77 738.04 600.77 743.89 597.16 747.49C595.36 749.29 593 750.19 590.63 750.19H590.64Z" fill="#60034C"/>
<path d="M1135.18 1019.4H1202.24C1207.34 1019.4 1211.47 1023.53 1211.47 1028.63C1211.47 1033.73 1207.34 1037.86 1202.24 1037.86H1135.18C1130.08 1037.86 1125.95 1033.73 1125.95 1028.63C1125.95 1023.53 1130.08 1019.4 1135.18 1019.4Z" fill="#60034C"/>
<path d="M1050.08 1104.5C1055.18 1104.5 1059.31 1108.63 1059.31 1113.73V1180.79C1059.31 1185.89 1055.18 1190.02 1050.08 1190.02C1044.98 1190.02 1040.85 1185.89 1040.85 1180.79V1113.73C1040.85 1108.63 1044.98 1104.5 1050.08 1104.5Z" fill="#60034C"/>
<path d="M1111.61 1080.93C1113.97 1080.93 1116.33 1081.83 1118.14 1083.63L1164.2 1129.69C1167.8 1133.29 1167.8 1139.14 1164.2 1142.74C1160.6 1146.34 1154.75 1146.34 1151.15 1142.74L1105.09 1096.68C1101.49 1093.07 1101.48 1087.23 1105.09 1083.63C1106.89 1081.83 1109.25 1080.93 1111.62 1080.93H1111.61Z" fill="#60034C"/>
</g>
<defs>
<clipPath id="clip0_3893_8463">
<rect width="1841.49" height="2086.45" fill="white"/>
</clipPath>
</defs>
</svg>
