<svg width="681" height="456" viewBox="0 0 681 456" fill="none" xmlns="http://www.w3.org/2000/svg">
<path d="M45.75 4C45.75 1.79086 47.5409 0 49.75 0H631.75C633.959 0 635.75 1.79086 635.75 4V68H45.75V4Z" fill="#60034C"/>
<path d="M193.354 41V21.4H201.11C202.725 21.4 203.999 21.694 204.932 22.282C205.875 22.8607 206.547 23.6073 206.948 24.522C207.349 25.4367 207.55 26.384 207.55 27.364C207.55 28.0547 207.433 28.75 207.2 29.45C206.967 30.1407 206.593 30.78 206.08 31.368C205.567 31.956 204.899 32.4273 204.078 32.782C203.266 33.1367 202.277 33.314 201.11 33.314H196.182V41H193.354ZM196.182 30.668H201.278C202.118 30.668 202.785 30.5 203.28 30.164C203.784 29.828 204.143 29.408 204.358 28.904C204.573 28.4 204.68 27.8867 204.68 27.364C204.68 26.8973 204.582 26.4073 204.386 25.894C204.199 25.3713 203.859 24.9327 203.364 24.578C202.869 24.2233 202.174 24.046 201.278 24.046H196.182V30.668ZM209.751 41V26.692H212.537V28.456C212.845 27.784 213.283 27.266 213.853 26.902C214.422 26.538 215.071 26.356 215.799 26.356C216.713 26.356 217.488 26.636 218.123 27.196L217.717 29.786C217.39 29.5433 217.054 29.366 216.709 29.254C216.363 29.142 215.99 29.086 215.589 29.086C214.963 29.086 214.422 29.2493 213.965 29.576C213.517 29.8933 213.167 30.346 212.915 30.934C212.663 31.522 212.537 32.2173 212.537 33.02V41H209.751ZM224.768 41.336C222.789 41.336 221.231 40.6687 220.092 39.334C218.953 37.99 218.384 36.1653 218.384 33.86C218.384 32.32 218.641 30.99 219.154 29.87C219.677 28.75 220.414 27.8867 221.366 27.28C222.327 26.664 223.461 26.356 224.768 26.356C226.084 26.356 227.218 26.6593 228.17 27.266C229.131 27.8633 229.869 28.722 230.382 29.842C230.895 30.962 231.152 32.292 231.152 33.832C231.152 35.3813 230.891 36.716 230.368 37.836C229.855 38.956 229.122 39.8193 228.17 40.426C227.218 41.0327 226.084 41.336 224.768 41.336ZM224.768 38.704C225.888 38.704 226.761 38.2747 227.386 37.416C228.021 36.5573 228.338 35.3627 228.338 33.832C228.338 32.3013 228.021 31.1067 227.386 30.248C226.761 29.3893 225.888 28.96 224.768 28.96C223.648 28.96 222.771 29.3893 222.136 30.248C221.511 31.1067 221.198 32.3107 221.198 33.86C221.198 35.3813 221.511 36.5713 222.136 37.43C222.771 38.2793 223.648 38.704 224.768 38.704ZM237.65 41.336C236.623 41.336 235.839 41.0373 235.298 40.44C234.766 39.8333 234.5 38.956 234.5 37.808V29.128H232.26V26.692H234.5V22.128L237.286 20.784V26.692H240.716V29.128H237.286V37.066C237.286 37.6633 237.393 38.102 237.608 38.382C237.832 38.662 238.177 38.802 238.644 38.802C239.316 38.802 240.044 38.564 240.828 38.088L240.506 40.692C240.077 40.916 239.629 41.0793 239.162 41.182C238.695 41.2847 238.191 41.336 237.65 41.336ZM248.76 41.336C247.425 41.336 246.273 41.0187 245.302 40.384C244.341 39.7493 243.599 38.8673 243.076 37.738C242.563 36.6087 242.306 35.3067 242.306 33.832C242.306 32.264 242.572 30.9247 243.104 29.814C243.645 28.694 244.397 27.84 245.358 27.252C246.329 26.6547 247.463 26.356 248.76 26.356C249.861 26.356 250.865 26.5987 251.77 27.084C252.685 27.56 253.413 28.302 253.954 29.31C254.505 30.3087 254.78 31.592 254.78 33.16C254.78 33.384 254.771 33.6547 254.752 33.972C254.743 34.28 254.719 34.5973 254.682 34.924H245.12C245.195 35.7173 245.386 36.4173 245.694 37.024C246.011 37.6213 246.431 38.088 246.954 38.424C247.477 38.76 248.093 38.928 248.802 38.928C249.427 38.928 249.997 38.8207 250.51 38.606C251.023 38.382 251.504 38.0367 251.952 37.57L253.576 39.32C253.016 39.908 252.33 40.3933 251.518 40.776C250.706 41.1493 249.787 41.336 248.76 41.336ZM245.106 32.6H252.008C251.989 31.844 251.849 31.1813 251.588 30.612C251.336 30.0333 250.967 29.5807 250.482 29.254C250.006 28.9273 249.423 28.764 248.732 28.764C247.771 28.764 246.945 29.072 246.254 29.688C245.563 30.304 245.181 31.2747 245.106 32.6ZM263.146 41.336C261.886 41.336 260.799 41.0373 259.884 40.44C258.979 39.8333 258.279 38.9747 257.784 37.864C257.299 36.744 257.056 35.4093 257.056 33.86C257.056 32.3107 257.303 30.976 257.798 29.856C258.302 28.736 259.016 27.8727 259.94 27.266C260.864 26.6593 261.965 26.356 263.244 26.356C264.56 26.356 265.666 26.6593 266.562 27.266C267.467 27.8727 268.121 28.764 268.522 29.94L265.89 30.864C265.657 30.2573 265.316 29.7907 264.868 29.464C264.42 29.1373 263.888 28.974 263.272 28.974C262.199 28.974 261.368 29.3987 260.78 30.248C260.192 31.0973 259.898 32.3013 259.898 33.86C259.898 35.3907 260.187 36.5807 260.766 37.43C261.345 38.27 262.157 38.69 263.202 38.69C263.883 38.69 264.467 38.508 264.952 38.144C265.447 37.78 265.797 37.2573 266.002 36.576L268.62 37.416C268.247 38.6853 267.589 39.656 266.646 40.328C265.703 41 264.537 41.336 263.146 41.336ZM275.064 41.336C274.037 41.336 273.253 41.0373 272.712 40.44C272.18 39.8333 271.914 38.956 271.914 37.808V29.128H269.674V26.692H271.914V22.128L274.7 20.784V26.692H278.13V29.128H274.7V37.066C274.7 37.6633 274.807 38.102 275.022 38.382C275.246 38.662 275.591 38.802 276.058 38.802C276.73 38.802 277.458 38.564 278.242 38.088L277.92 40.692C277.491 40.916 277.043 41.0793 276.576 41.182C276.109 41.2847 275.605 41.336 275.064 41.336ZM280.232 41V26.692H283.018V41H280.232ZM281.618 24.354C281.151 24.354 280.75 24.1907 280.414 23.864C280.087 23.528 279.924 23.1267 279.924 22.66C279.924 22.184 280.087 21.778 280.414 21.442C280.741 21.106 281.142 20.938 281.618 20.938C282.103 20.938 282.509 21.106 282.836 21.442C283.163 21.778 283.326 22.184 283.326 22.66C283.326 23.136 283.163 23.5373 282.836 23.864C282.509 24.1907 282.103 24.354 281.618 24.354ZM292.159 41.336C290.18 41.336 288.621 40.6687 287.483 39.334C286.344 37.99 285.775 36.1653 285.775 33.86C285.775 32.32 286.031 30.99 286.545 29.87C287.067 28.75 287.805 27.8867 288.757 27.28C289.718 26.664 290.852 26.356 292.159 26.356C293.475 26.356 294.609 26.6593 295.561 27.266C296.522 27.8633 297.259 28.722 297.773 29.842C298.286 30.962 298.543 32.292 298.543 33.832C298.543 35.3813 298.281 36.716 297.759 37.836C297.245 38.956 296.513 39.8193 295.561 40.426C294.609 41.0327 293.475 41.336 292.159 41.336ZM292.159 38.704C293.279 38.704 294.151 38.2747 294.777 37.416C295.411 36.5573 295.729 35.3627 295.729 33.832C295.729 32.3013 295.411 31.1067 294.777 30.248C294.151 29.3893 293.279 28.96 292.159 28.96C291.039 28.96 290.161 29.3893 289.527 30.248C288.901 31.1067 288.589 32.3107 288.589 33.86C288.589 35.3813 288.901 36.5713 289.527 37.43C290.161 38.2793 291.039 38.704 292.159 38.704ZM301.091 41V26.692H303.877V28.12C304.325 27.5227 304.857 27.0793 305.473 26.79C306.098 26.5007 306.812 26.356 307.615 26.356C309.304 26.356 310.573 26.8693 311.423 27.896C312.272 28.9227 312.697 30.472 312.697 32.544V41H309.911V32.614C309.911 31.41 309.663 30.5 309.169 29.884C308.674 29.268 307.955 28.96 307.013 28.96C305.967 28.96 305.183 29.2587 304.661 29.856C304.138 30.4533 303.877 31.354 303.877 32.558V41H301.091ZM322.163 41V21.4H329.919C331.533 21.4 332.807 21.694 333.741 22.282C334.683 22.8607 335.355 23.6073 335.757 24.522C336.158 25.4367 336.359 26.384 336.359 27.364C336.359 28.0547 336.242 28.75 336.009 29.45C335.775 30.1407 335.402 30.78 334.889 31.368C334.375 31.956 333.708 32.4273 332.887 32.782C332.075 33.1367 331.085 33.314 329.919 33.314H324.991V41H322.163ZM324.991 30.668H330.087C330.927 30.668 331.594 30.5 332.089 30.164C332.593 29.828 332.952 29.408 333.167 28.904C333.381 28.4 333.489 27.8867 333.489 27.364C333.489 26.8973 333.391 26.4073 333.195 25.894C333.008 25.3713 332.667 24.9327 332.173 24.578C331.678 24.2233 330.983 24.046 330.087 24.046H324.991V30.668ZM338.559 41V26.692H341.345V28.456C341.653 27.784 342.092 27.266 342.661 26.902C343.231 26.538 343.879 26.356 344.607 26.356C345.522 26.356 346.297 26.636 346.931 27.196L346.525 29.786C346.199 29.5433 345.863 29.366 345.517 29.254C345.172 29.142 344.799 29.086 344.397 29.086C343.772 29.086 343.231 29.2493 342.773 29.576C342.325 29.8933 341.975 30.346 341.723 30.934C341.471 31.522 341.345 32.2173 341.345 33.02V41H338.559ZM348.607 41V26.692H351.393V41H348.607ZM349.993 24.354C349.526 24.354 349.125 24.1907 348.789 23.864C348.462 23.528 348.299 23.1267 348.299 22.66C348.299 22.184 348.462 21.778 348.789 21.442C349.116 21.106 349.517 20.938 349.993 20.938C350.478 20.938 350.884 21.106 351.211 21.442C351.538 21.778 351.701 22.184 351.701 22.66C351.701 23.136 351.538 23.5373 351.211 23.864C350.884 24.1907 350.478 24.354 349.993 24.354ZM360.24 41.336C358.98 41.336 357.892 41.0373 356.978 40.44C356.072 39.8333 355.372 38.9747 354.878 37.864C354.392 36.744 354.15 35.4093 354.15 33.86C354.15 32.3107 354.397 30.976 354.892 29.856C355.396 28.736 356.11 27.8727 357.034 27.266C357.958 26.6593 359.059 26.356 360.338 26.356C361.654 26.356 362.76 26.6593 363.656 27.266C364.561 27.8727 365.214 28.764 365.616 29.94L362.984 30.864C362.75 30.2573 362.41 29.7907 361.962 29.464C361.514 29.1373 360.982 28.974 360.366 28.974C359.292 28.974 358.462 29.3987 357.874 30.248C357.286 31.0973 356.992 32.3013 356.992 33.86C356.992 35.3907 357.281 36.5807 357.86 37.43C358.438 38.27 359.25 38.69 360.296 38.69C360.977 38.69 361.56 38.508 362.046 38.144C362.54 37.78 362.89 37.2573 363.096 36.576L365.714 37.416C365.34 38.6853 364.682 39.656 363.74 40.328C362.797 41 361.63 41.336 360.24 41.336ZM374.123 41.336C372.789 41.336 371.636 41.0187 370.665 40.384C369.704 39.7493 368.962 38.8673 368.439 37.738C367.926 36.6087 367.669 35.3067 367.669 33.832C367.669 32.264 367.935 30.9247 368.467 29.814C369.009 28.694 369.76 27.84 370.721 27.252C371.692 26.6547 372.826 26.356 374.123 26.356C375.225 26.356 376.228 26.5987 377.133 27.084C378.048 27.56 378.776 28.302 379.317 29.31C379.868 30.3087 380.143 31.592 380.143 33.16C380.143 33.384 380.134 33.6547 380.115 33.972C380.106 34.28 380.083 34.5973 380.045 34.924H370.483C370.558 35.7173 370.749 36.4173 371.057 37.024C371.375 37.6213 371.795 38.088 372.317 38.424C372.84 38.76 373.456 38.928 374.165 38.928C374.791 38.928 375.36 38.8207 375.873 38.606C376.387 38.382 376.867 38.0367 377.315 37.57L378.939 39.32C378.379 39.908 377.693 40.3933 376.881 40.776C376.069 41.1493 375.15 41.336 374.123 41.336ZM370.469 32.6H377.371C377.353 31.844 377.213 31.1813 376.951 30.612C376.699 30.0333 376.331 29.5807 375.845 29.254C375.369 28.9273 374.786 28.764 374.095 28.764C373.134 28.764 372.308 29.072 371.617 29.688C370.927 30.304 370.544 31.2747 370.469 32.6ZM388.788 41V21.4H400.968V24.074H391.616V29.534H397.566V32.208H391.616V38.298H401.57V41H388.788ZM408.349 41.336C407.304 41.336 406.301 41.112 405.339 40.664C404.387 40.216 403.613 39.614 403.015 38.858L404.947 37.22C405.442 37.752 405.997 38.1673 406.613 38.466C407.229 38.7553 407.831 38.9 408.419 38.9C409.222 38.9 409.843 38.7553 410.281 38.466C410.72 38.1673 410.939 37.7567 410.939 37.234C410.939 36.898 410.837 36.5947 410.631 36.324C410.435 36.044 410.099 35.778 409.623 35.526C409.147 35.2647 408.503 34.9847 407.691 34.686C406.105 34.098 404.971 33.4633 404.289 32.782C403.608 32.0913 403.267 31.228 403.267 30.192C403.267 29.0533 403.725 28.1293 404.639 27.42C405.554 26.7107 406.739 26.356 408.195 26.356C409.203 26.356 410.127 26.5473 410.967 26.93C411.807 27.3033 412.531 27.8493 413.137 28.568L411.247 30.122C410.398 29.2353 409.371 28.792 408.167 28.792C407.486 28.792 406.945 28.9227 406.543 29.184C406.142 29.436 405.941 29.786 405.941 30.234C405.941 30.6727 406.17 31.0553 406.627 31.382C407.085 31.7087 407.92 32.0913 409.133 32.53C410.179 32.894 411.028 33.2953 411.681 33.734C412.344 34.1727 412.825 34.6767 413.123 35.246C413.431 35.806 413.585 36.4547 413.585 37.192C413.585 38.48 413.119 39.4927 412.185 40.23C411.261 40.9673 409.983 41.336 408.349 41.336ZM420.029 41.336C419.002 41.336 418.218 41.0373 417.677 40.44C417.145 39.8333 416.879 38.956 416.879 37.808V29.128H414.639V26.692H416.879V22.128L419.665 20.784V26.692H423.095V29.128H419.665V37.066C419.665 37.6633 419.772 38.102 419.987 38.382C420.211 38.662 420.556 38.802 421.023 38.802C421.695 38.802 422.423 38.564 423.207 38.088L422.885 40.692C422.456 40.916 422.008 41.0793 421.541 41.182C421.074 41.2847 420.57 41.336 420.029 41.336ZM425.197 41V26.692H427.983V41H425.197ZM426.583 24.354C426.116 24.354 425.715 24.1907 425.379 23.864C425.052 23.528 424.889 23.1267 424.889 22.66C424.889 22.184 425.052 21.778 425.379 21.442C425.705 21.106 426.107 20.938 426.583 20.938C427.068 20.938 427.474 21.106 427.801 21.442C428.127 21.778 428.291 22.184 428.291 22.66C428.291 23.136 428.127 23.5373 427.801 23.864C427.474 24.1907 427.068 24.354 426.583 24.354ZM431.552 41V26.692H434.338V28.036C434.767 27.476 435.29 27.056 435.906 26.776C436.531 26.496 437.231 26.356 438.006 26.356C438.846 26.356 439.592 26.538 440.246 26.902C440.899 27.2567 441.403 27.7653 441.758 28.428C442.215 27.7653 442.808 27.2567 443.536 26.902C444.264 26.538 445.08 26.356 445.986 26.356C447.591 26.356 448.846 26.832 449.752 27.784C450.657 28.7267 451.11 30.0427 451.11 31.732V41H448.324V32.6C448.324 31.4053 448.09 30.5 447.624 29.884C447.166 29.268 446.494 28.96 445.608 28.96C445.01 28.96 444.492 29.1093 444.054 29.408C443.624 29.6973 443.293 30.122 443.06 30.682C442.826 31.2327 442.71 31.886 442.71 32.642V41H439.924V32.6C439.924 31.3867 439.7 30.4767 439.252 29.87C438.804 29.2633 438.127 28.96 437.222 28.96C436.307 28.96 435.598 29.2727 435.094 29.898C434.59 30.5233 434.338 31.41 434.338 32.558V41H431.552ZM458.813 41.336C457.255 41.336 456.027 40.9113 455.131 40.062C454.245 39.2033 453.801 38.0367 453.801 36.562C453.801 35.61 454.025 34.7793 454.473 34.07C454.921 33.3607 455.551 32.8147 456.363 32.432C457.185 32.04 458.146 31.844 459.247 31.844C459.919 31.844 460.554 31.914 461.151 32.054C461.758 32.194 462.313 32.404 462.817 32.684V31.718C462.817 30.71 462.575 29.968 462.089 29.492C461.604 29.0067 460.862 28.764 459.863 28.764C459.173 28.764 458.459 28.89 457.721 29.142C456.993 29.394 456.289 29.7487 455.607 30.206L454.795 27.924C455.551 27.4293 456.401 27.0467 457.343 26.776C458.295 26.496 459.243 26.356 460.185 26.356C461.959 26.356 463.284 26.7947 464.161 27.672C465.048 28.5493 465.491 29.8607 465.491 31.606V41H462.817V39.74C462.285 40.2533 461.674 40.65 460.983 40.93C460.293 41.2007 459.569 41.336 458.813 41.336ZM459.317 38.928C459.952 38.928 460.573 38.7833 461.179 38.494C461.795 38.1953 462.341 37.78 462.817 37.248V35.036C462.369 34.7747 461.861 34.5693 461.291 34.42C460.722 34.2707 460.176 34.196 459.653 34.196C458.664 34.196 457.885 34.4107 457.315 34.84C456.746 35.26 456.461 35.8387 456.461 36.576C456.461 37.304 456.713 37.878 457.217 38.298C457.721 38.718 458.421 38.928 459.317 38.928ZM472.275 41.336C471.248 41.336 470.464 41.0373 469.923 40.44C469.391 39.8333 469.125 38.956 469.125 37.808V29.128H466.885V26.692H469.125V22.128L471.911 20.784V26.692H475.341V29.128H471.911V37.066C471.911 37.6633 472.018 38.102 472.233 38.382C472.457 38.662 472.802 38.802 473.269 38.802C473.941 38.802 474.669 38.564 475.453 38.088L475.131 40.692C474.702 40.916 474.254 41.0793 473.787 41.182C473.32 41.2847 472.816 41.336 472.275 41.336ZM483.385 41.336C482.05 41.336 480.898 41.0187 479.927 40.384C478.966 39.7493 478.224 38.8673 477.701 37.738C477.188 36.6087 476.931 35.3067 476.931 33.832C476.931 32.264 477.197 30.9247 477.729 29.814C478.27 28.694 479.022 27.84 479.983 27.252C480.954 26.6547 482.088 26.356 483.385 26.356C484.486 26.356 485.49 26.5987 486.395 27.084C487.31 27.56 488.038 28.302 488.579 29.31C489.13 30.3087 489.405 31.592 489.405 33.16C489.405 33.384 489.396 33.6547 489.377 33.972C489.368 34.28 489.344 34.5973 489.307 34.924H479.745C479.82 35.7173 480.011 36.4173 480.319 37.024C480.636 37.6213 481.056 38.088 481.579 38.424C482.102 38.76 482.718 38.928 483.427 38.928C484.052 38.928 484.622 38.8207 485.135 38.606C485.648 38.382 486.129 38.0367 486.577 37.57L488.201 39.32C487.641 39.908 486.955 40.3933 486.143 40.776C485.331 41.1493 484.412 41.336 483.385 41.336ZM479.731 32.6H486.633C486.614 31.844 486.474 31.1813 486.213 30.612C485.961 30.0333 485.592 29.5807 485.107 29.254C484.631 28.9273 484.048 28.764 483.357 28.764C482.396 28.764 481.57 29.072 480.879 29.688C480.188 30.304 479.806 31.2747 479.731 32.6Z" fill="white"/>
<g filter="url(#filter0_d_3424_15333)">
<rect x="60.75" y="68" width="560" height="318" fill="white" shape-rendering="crispEdges"/>
<path d="M93.102 142V125.2H99.534C100.894 125.2 101.97 125.448 102.762 125.944C103.554 126.432 104.118 127.064 104.454 127.84C104.79 128.608 104.958 129.408 104.958 130.24C104.958 130.816 104.858 131.4 104.658 131.992C104.466 132.576 104.154 133.116 103.722 133.612C103.29 134.108 102.73 134.508 102.042 134.812C101.354 135.108 100.518 135.256 99.534 135.256H95.19V142H93.102ZM95.19 133.312H99.678C100.47 133.312 101.098 133.156 101.562 132.844C102.034 132.532 102.37 132.14 102.57 131.668C102.77 131.196 102.87 130.72 102.87 130.24C102.87 129.8 102.778 129.34 102.594 128.86C102.418 128.38 102.098 127.976 101.634 127.648C101.17 127.312 100.518 127.144 99.678 127.144H95.19V133.312ZM106.859 142V129.736H108.947V131.344C109.227 130.72 109.611 130.248 110.099 129.928C110.595 129.608 111.179 129.448 111.851 129.448C112.595 129.448 113.227 129.656 113.747 130.072L113.435 132.04C113.171 131.856 112.895 131.724 112.607 131.644C112.327 131.556 112.019 131.512 111.683 131.512C111.131 131.512 110.651 131.66 110.243 131.956C109.835 132.252 109.515 132.668 109.283 133.204C109.059 133.74 108.947 134.368 108.947 135.088V142H106.859ZM119.282 142.288C117.602 142.288 116.278 141.716 115.31 140.572C114.342 139.42 113.858 137.856 113.858 135.88C113.858 134.56 114.078 133.42 114.518 132.46C114.958 131.5 115.582 130.76 116.39 130.24C117.206 129.712 118.17 129.448 119.282 129.448C120.402 129.448 121.366 129.708 122.174 130.228C122.99 130.74 123.614 131.476 124.046 132.436C124.486 133.396 124.706 134.536 124.706 135.856C124.706 137.176 124.486 138.32 124.046 139.288C123.606 140.248 122.978 140.988 122.162 141.508C121.354 142.028 120.394 142.288 119.282 142.288ZM119.282 140.344C120.314 140.344 121.122 139.948 121.706 139.156C122.298 138.356 122.594 137.256 122.594 135.856C122.594 134.448 122.298 133.348 121.706 132.556C121.122 131.764 120.314 131.368 119.282 131.368C118.242 131.368 117.43 131.764 116.846 132.556C116.262 133.34 115.97 134.448 115.97 135.88C115.97 137.28 116.262 138.376 116.846 139.168C117.43 139.952 118.242 140.344 119.282 140.344ZM130.134 142.288C129.294 142.288 128.65 142.036 128.202 141.532C127.762 141.028 127.542 140.304 127.542 139.36V131.56H125.55V129.736H127.542V125.68L129.63 124.672V129.736H132.654V131.56H129.63V138.664C129.63 139.248 129.73 139.676 129.93 139.948C130.138 140.212 130.462 140.344 130.902 140.344C131.462 140.344 132.07 140.128 132.726 139.696L132.486 141.736C132.126 141.928 131.75 142.068 131.358 142.156C130.974 142.244 130.566 142.288 130.134 142.288ZM139.29 142.288C138.17 142.288 137.202 142.012 136.386 141.46C135.57 140.908 134.942 140.148 134.502 139.18C134.062 138.212 133.842 137.104 133.842 135.856C133.842 134.504 134.07 133.352 134.526 132.4C134.982 131.44 135.618 130.708 136.434 130.204C137.25 129.7 138.202 129.448 139.29 129.448C140.21 129.448 141.054 129.656 141.822 130.072C142.59 130.48 143.202 131.116 143.658 131.98C144.122 132.836 144.354 133.936 144.354 135.28C144.354 135.472 144.346 135.696 144.33 135.952C144.322 136.2 144.306 136.456 144.282 136.72H135.978C136.058 137.464 136.242 138.116 136.53 138.676C136.818 139.236 137.198 139.676 137.67 139.996C138.142 140.308 138.698 140.464 139.338 140.464C139.858 140.464 140.338 140.372 140.778 140.188C141.226 140.004 141.642 139.72 142.026 139.336L143.25 140.704C142.794 141.16 142.226 141.54 141.546 141.844C140.874 142.14 140.122 142.288 139.29 142.288ZM135.954 134.896H142.242C142.242 134.2 142.126 133.58 141.894 133.036C141.67 132.484 141.338 132.052 140.898 131.74C140.458 131.428 139.922 131.272 139.29 131.272C138.402 131.272 137.638 131.56 136.998 132.136C136.366 132.712 136.018 133.632 135.954 134.896ZM151.266 142.288C150.21 142.288 149.302 142.032 148.542 141.52C147.782 141 147.198 140.264 146.79 139.312C146.382 138.352 146.178 137.208 146.178 135.88C146.178 134.544 146.386 133.396 146.802 132.436C147.218 131.476 147.81 130.74 148.578 130.228C149.354 129.708 150.282 129.448 151.362 129.448C152.418 129.448 153.314 129.692 154.05 130.18C154.786 130.668 155.322 131.376 155.658 132.304L153.69 133.024C153.49 132.496 153.19 132.092 152.79 131.812C152.398 131.532 151.93 131.392 151.386 131.392C150.394 131.392 149.634 131.776 149.106 132.544C148.578 133.312 148.314 134.424 148.314 135.88C148.314 137.304 148.574 138.4 149.094 139.168C149.614 139.936 150.354 140.32 151.314 140.32C151.93 140.32 152.454 140.16 152.886 139.84C153.326 139.52 153.634 139.072 153.81 138.496L155.754 139.144C155.458 140.152 154.918 140.928 154.134 141.472C153.35 142.016 152.394 142.288 151.266 142.288ZM161.072 142.288C160.232 142.288 159.588 142.036 159.14 141.532C158.7 141.028 158.48 140.304 158.48 139.36V131.56H156.488V129.736H158.48V125.68L160.568 124.672V129.736H163.592V131.56H160.568V138.664C160.568 139.248 160.668 139.676 160.868 139.948C161.076 140.212 161.4 140.344 161.84 140.344C162.4 140.344 163.008 140.128 163.664 139.696L163.424 141.736C163.064 141.928 162.688 142.068 162.296 142.156C161.912 142.244 161.504 142.288 161.072 142.288ZM165.289 142V129.736H167.377V142H165.289ZM166.321 127.504C165.961 127.504 165.653 127.38 165.397 127.132C165.149 126.876 165.025 126.568 165.025 126.208C165.025 125.832 165.149 125.516 165.397 125.26C165.653 124.996 165.961 124.864 166.321 124.864C166.697 124.864 167.009 124.996 167.257 125.26C167.513 125.516 167.641 125.832 167.641 126.208C167.641 126.568 167.513 126.876 167.257 127.132C167.009 127.38 166.697 127.504 166.321 127.504ZM175.063 142.288C173.383 142.288 172.059 141.716 171.091 140.572C170.123 139.42 169.639 137.856 169.639 135.88C169.639 134.56 169.859 133.42 170.299 132.46C170.739 131.5 171.363 130.76 172.171 130.24C172.987 129.712 173.951 129.448 175.063 129.448C176.183 129.448 177.147 129.708 177.955 130.228C178.771 130.74 179.395 131.476 179.827 132.436C180.267 133.396 180.487 134.536 180.487 135.856C180.487 137.176 180.267 138.32 179.827 139.288C179.387 140.248 178.759 140.988 177.943 141.508C177.135 142.028 176.175 142.288 175.063 142.288ZM175.063 140.344C176.095 140.344 176.903 139.948 177.487 139.156C178.079 138.356 178.375 137.256 178.375 135.856C178.375 134.448 178.079 133.348 177.487 132.556C176.903 131.764 176.095 131.368 175.063 131.368C174.023 131.368 173.211 131.764 172.627 132.556C172.043 133.34 171.751 134.448 171.751 135.88C171.751 137.28 172.043 138.376 172.627 139.168C173.211 139.952 174.023 140.344 175.063 140.344ZM182.625 142V129.736H184.713V130.984C185.089 130.464 185.541 130.08 186.069 129.832C186.597 129.576 187.201 129.448 187.881 129.448C189.369 129.448 190.473 129.9 191.193 130.804C191.913 131.7 192.273 133.08 192.273 134.944V142H190.185V134.584C190.185 133.552 189.953 132.76 189.489 132.208C189.033 131.648 188.385 131.368 187.545 131.368C186.609 131.368 185.901 131.636 185.421 132.172C184.949 132.7 184.713 133.488 184.713 134.536V142H182.625ZM200.157 142V125.2H206.589C207.949 125.2 209.025 125.448 209.817 125.944C210.609 126.432 211.173 127.064 211.509 127.84C211.845 128.608 212.013 129.408 212.013 130.24C212.013 130.816 211.913 131.4 211.713 131.992C211.521 132.576 211.209 133.116 210.777 133.612C210.345 134.108 209.785 134.508 209.097 134.812C208.409 135.108 207.573 135.256 206.589 135.256H202.245V142H200.157ZM202.245 133.312H206.733C207.525 133.312 208.153 133.156 208.617 132.844C209.089 132.532 209.425 132.14 209.625 131.668C209.825 131.196 209.925 130.72 209.925 130.24C209.925 129.8 209.833 129.34 209.649 128.86C209.473 128.38 209.153 127.976 208.689 127.648C208.225 127.312 207.573 127.144 206.733 127.144H202.245V133.312ZM218.712 142.288C217.592 142.288 216.624 142.012 215.808 141.46C214.992 140.908 214.364 140.148 213.924 139.18C213.484 138.212 213.264 137.104 213.264 135.856C213.264 134.504 213.492 133.352 213.948 132.4C214.404 131.44 215.04 130.708 215.856 130.204C216.672 129.7 217.624 129.448 218.712 129.448C219.632 129.448 220.476 129.656 221.244 130.072C222.012 130.48 222.624 131.116 223.08 131.98C223.544 132.836 223.776 133.936 223.776 135.28C223.776 135.472 223.768 135.696 223.752 135.952C223.744 136.2 223.728 136.456 223.704 136.72H215.4C215.48 137.464 215.664 138.116 215.952 138.676C216.24 139.236 216.62 139.676 217.092 139.996C217.564 140.308 218.12 140.464 218.76 140.464C219.28 140.464 219.76 140.372 220.2 140.188C220.648 140.004 221.064 139.72 221.448 139.336L222.672 140.704C222.216 141.16 221.648 141.54 220.968 141.844C220.296 142.14 219.544 142.288 218.712 142.288ZM215.376 134.896H221.664C221.664 134.2 221.548 133.58 221.316 133.036C221.092 132.484 220.76 132.052 220.32 131.74C219.88 131.428 219.344 131.272 218.712 131.272C217.824 131.272 217.06 131.56 216.42 132.136C215.788 132.712 215.44 133.632 215.376 134.896ZM226.133 142V129.736H228.221V131.344C228.501 130.72 228.885 130.248 229.373 129.928C229.869 129.608 230.453 129.448 231.125 129.448C231.869 129.448 232.501 129.656 233.021 130.072L232.709 132.04C232.445 131.856 232.169 131.724 231.881 131.644C231.601 131.556 231.293 131.512 230.957 131.512C230.405 131.512 229.925 131.66 229.517 131.956C229.109 132.252 228.789 132.668 228.557 133.204C228.333 133.74 228.221 134.368 228.221 135.088V142H226.133ZM234.368 142V129.736H236.456V142H234.368ZM235.4 127.504C235.04 127.504 234.732 127.38 234.476 127.132C234.228 126.876 234.104 126.568 234.104 126.208C234.104 125.832 234.228 125.516 234.476 125.26C234.732 124.996 235.04 124.864 235.4 124.864C235.776 124.864 236.088 124.996 236.336 125.26C236.592 125.516 236.72 125.832 236.72 126.208C236.72 126.568 236.592 126.876 236.336 127.132C236.088 127.38 235.776 127.504 235.4 127.504ZM244.141 142.288C242.461 142.288 241.137 141.716 240.169 140.572C239.201 139.42 238.717 137.856 238.717 135.88C238.717 134.56 238.937 133.42 239.377 132.46C239.817 131.5 240.441 130.76 241.249 130.24C242.065 129.712 243.029 129.448 244.141 129.448C245.261 129.448 246.225 129.708 247.033 130.228C247.849 130.74 248.473 131.476 248.905 132.436C249.345 133.396 249.565 134.536 249.565 135.856C249.565 137.176 249.345 138.32 248.905 139.288C248.465 140.248 247.837 140.988 247.021 141.508C246.213 142.028 245.253 142.288 244.141 142.288ZM244.141 140.344C245.173 140.344 245.981 139.948 246.565 139.156C247.157 138.356 247.453 137.256 247.453 135.856C247.453 134.448 247.157 133.348 246.565 132.556C245.981 131.764 245.173 131.368 244.141 131.368C243.101 131.368 242.289 131.764 241.705 132.556C241.121 133.34 240.829 134.448 240.829 135.88C240.829 137.28 241.121 138.376 241.705 139.168C242.289 139.952 243.101 140.344 244.141 140.344ZM256.539 142.288C254.979 142.288 253.743 141.712 252.831 140.56C251.927 139.4 251.475 137.832 251.475 135.856C251.475 134.544 251.679 133.408 252.087 132.448C252.503 131.488 253.087 130.748 253.839 130.228C254.599 129.708 255.499 129.448 256.539 129.448C257.739 129.448 258.771 129.832 259.635 130.6V125.656L261.723 124.672V142H259.635V141.04C258.827 141.872 257.795 142.288 256.539 142.288ZM256.827 140.344C257.403 140.344 257.935 140.2 258.423 139.912C258.919 139.624 259.323 139.216 259.635 138.688V132.928C259.323 132.448 258.919 132.068 258.423 131.788C257.927 131.508 257.395 131.368 256.827 131.368C255.795 131.368 254.995 131.756 254.427 132.532C253.867 133.308 253.587 134.416 253.587 135.856C253.587 136.744 253.723 137.524 253.995 138.196C254.267 138.868 254.647 139.396 255.135 139.78C255.623 140.156 256.187 140.344 256.827 140.344Z" fill="#242424"/>
<rect x="90.75" y="159" width="500" height="58" fill="#242424" fill-opacity="0.04"/>
<path d="M110.988 193.216C109.938 193.216 109.05 192.967 108.324 192.469C107.604 191.971 107.058 191.242 106.686 190.282L108.144 189.688C108.696 191.044 109.644 191.722 110.988 191.722C111.828 191.722 112.488 191.521 112.968 191.119C113.448 190.711 113.688 190.162 113.688 189.472C113.688 188.752 113.457 188.191 112.995 187.789C112.539 187.387 111.9 187.186 111.078 187.186H110.178V185.71H110.988C111.654 185.71 112.188 185.527 112.59 185.161C112.998 184.789 113.202 184.306 113.202 183.712C113.202 183.088 113.004 182.59 112.608 182.218C112.212 181.846 111.69 181.66 111.042 181.66C110.496 181.66 110.004 181.804 109.566 182.092C109.134 182.38 108.792 182.8 108.54 183.352L107.082 182.794C107.4 181.972 107.907 181.333 108.603 180.877C109.305 180.415 110.118 180.184 111.042 180.184C111.774 180.184 112.425 180.331 112.995 180.625C113.571 180.913 114.021 181.309 114.345 181.813C114.675 182.317 114.84 182.89 114.84 183.532C114.84 184.114 114.696 184.651 114.408 185.143C114.12 185.629 113.724 186.004 113.22 186.268C113.898 186.538 114.417 186.946 114.777 187.492C115.143 188.038 115.326 188.68 115.326 189.418C115.326 190.156 115.14 190.81 114.768 191.38C114.402 191.95 113.892 192.4 113.238 192.73C112.584 193.054 111.834 193.216 110.988 193.216ZM128.05 193.216L124.63 185.26C124.54 185.05 124.444 184.822 124.342 184.576C124.246 184.324 124.162 184.096 124.09 183.892C124.108 184.054 124.12 184.27 124.126 184.54C124.138 184.804 124.144 185.044 124.144 185.26V193H122.578V180.4H124.054L127.726 188.878C127.78 189.01 127.834 189.148 127.888 189.292C127.942 189.436 127.996 189.58 128.05 189.724C128.098 189.586 128.149 189.448 128.203 189.31C128.257 189.166 128.314 189.022 128.374 188.878L132.028 180.4H133.522V193H131.956V185.26C131.956 185.044 131.959 184.801 131.965 184.531C131.977 184.255 131.986 184.036 131.992 183.874C131.92 184.078 131.83 184.312 131.722 184.576C131.62 184.84 131.524 185.08 131.434 185.296L128.05 193.216ZM140.338 193.216C139.078 193.216 138.085 192.787 137.359 191.929C136.633 191.065 136.27 189.892 136.27 188.41C136.27 187.42 136.435 186.565 136.765 185.845C137.095 185.125 137.563 184.57 138.169 184.18C138.781 183.784 139.504 183.586 140.338 183.586C141.178 183.586 141.901 183.781 142.507 184.171C143.119 184.555 143.587 185.107 143.911 185.827C144.241 186.547 144.406 187.402 144.406 188.392C144.406 189.382 144.241 190.24 143.911 190.966C143.581 191.686 143.11 192.241 142.498 192.631C141.892 193.021 141.172 193.216 140.338 193.216ZM140.338 191.758C141.112 191.758 141.718 191.461 142.156 190.867C142.6 190.267 142.822 189.442 142.822 188.392C142.822 187.336 142.6 186.511 142.156 185.917C141.718 185.323 141.112 185.026 140.338 185.026C139.558 185.026 138.949 185.323 138.511 185.917C138.073 186.505 137.854 187.336 137.854 188.41C137.854 189.46 138.073 190.282 138.511 190.876C138.949 191.464 139.558 191.758 140.338 191.758ZM146.76 193V183.802H148.326V184.738C148.608 184.348 148.947 184.06 149.343 183.874C149.739 183.682 150.192 183.586 150.702 183.586C151.818 183.586 152.646 183.925 153.186 184.603C153.726 185.275 153.996 186.31 153.996 187.708V193H152.43V187.438C152.43 186.664 152.256 186.07 151.908 185.656C151.566 185.236 151.08 185.026 150.45 185.026C149.748 185.026 149.217 185.227 148.857 185.629C148.503 186.025 148.326 186.616 148.326 187.402V193H146.76ZM159.195 193.216C158.565 193.216 158.082 193.027 157.746 192.649C157.416 192.271 157.251 191.728 157.251 191.02V185.17H155.757V183.802H157.251V180.76L158.817 180.004V183.802H161.085V185.17H158.817V190.498C158.817 190.936 158.892 191.257 159.042 191.461C159.198 191.659 159.441 191.758 159.771 191.758C160.191 191.758 160.647 191.596 161.139 191.272L160.959 192.802C160.689 192.946 160.407 193.051 160.113 193.117C159.825 193.183 159.519 193.216 159.195 193.216ZM163.09 193V180.724L164.656 180.004V184.756C164.938 184.366 165.277 184.075 165.673 183.883C166.075 183.685 166.528 183.586 167.032 183.586C167.83 183.586 168.469 183.751 168.949 184.081C169.435 184.411 169.786 184.885 170.002 185.503C170.218 186.115 170.326 186.85 170.326 187.708V193H168.76V187.438C168.76 186.718 168.598 186.136 168.274 185.692C167.956 185.248 167.458 185.026 166.78 185.026C166.078 185.026 165.547 185.227 165.187 185.629C164.833 186.025 164.656 186.616 164.656 187.402V193H163.09ZM175.95 193.216C175.302 193.216 174.678 193.078 174.078 192.802C173.484 192.52 172.998 192.142 172.62 191.668L173.736 190.714C174.06 191.062 174.42 191.332 174.816 191.524C175.212 191.716 175.602 191.812 175.986 191.812C176.526 191.812 176.946 191.71 177.246 191.506C177.546 191.296 177.696 191.008 177.696 190.642C177.696 190.402 177.627 190.186 177.489 189.994C177.357 189.802 177.135 189.619 176.823 189.445C176.517 189.271 176.106 189.088 175.59 188.896C174.576 188.518 173.847 188.107 173.403 187.663C172.965 187.219 172.746 186.67 172.746 186.016C172.746 185.296 173.031 184.711 173.601 184.261C174.177 183.811 174.924 183.586 175.842 183.586C176.472 183.586 177.051 183.706 177.579 183.946C178.107 184.18 178.56 184.522 178.938 184.972L177.858 185.872C177.306 185.284 176.628 184.99 175.824 184.99C175.35 184.99 174.975 185.083 174.699 185.269C174.429 185.449 174.294 185.698 174.294 186.016C174.294 186.322 174.447 186.592 174.753 186.826C175.065 187.054 175.626 187.318 176.436 187.618C177.096 187.858 177.63 188.119 178.038 188.401C178.452 188.683 178.752 189.004 178.938 189.364C179.13 189.724 179.226 190.138 179.226 190.606C179.226 191.416 178.935 192.055 178.353 192.523C177.771 192.985 176.97 193.216 175.95 193.216Z" fill="#666666"/>
<path d="M559.75 186L563.75 190L567.75 186" stroke="#242424" stroke-width="1.5" stroke-linecap="round" stroke-linejoin="round"/>
<rect x="91.25" y="159.5" width="499" height="57" stroke="#242424" stroke-opacity="0.1"/>
<path d="M93.102 261V244.2H99.534C100.894 244.2 101.97 244.448 102.762 244.944C103.554 245.432 104.118 246.064 104.454 246.84C104.79 247.608 104.958 248.408 104.958 249.24C104.958 249.816 104.858 250.4 104.658 250.992C104.466 251.576 104.154 252.116 103.722 252.612C103.29 253.108 102.73 253.508 102.042 253.812C101.354 254.108 100.518 254.256 99.534 254.256H95.19V261H93.102ZM95.19 252.312H99.678C100.47 252.312 101.098 252.156 101.562 251.844C102.034 251.532 102.37 251.14 102.57 250.668C102.77 250.196 102.87 249.72 102.87 249.24C102.87 248.8 102.778 248.34 102.594 247.86C102.418 247.38 102.098 246.976 101.634 246.648C101.17 246.312 100.518 246.144 99.678 246.144H95.19V252.312ZM106.859 261V248.736H108.947V250.344C109.227 249.72 109.611 249.248 110.099 248.928C110.595 248.608 111.179 248.448 111.851 248.448C112.595 248.448 113.227 248.656 113.747 249.072L113.435 251.04C113.171 250.856 112.895 250.724 112.607 250.644C112.327 250.556 112.019 250.512 111.683 250.512C111.131 250.512 110.651 250.66 110.243 250.956C109.835 251.252 109.515 251.668 109.283 252.204C109.059 252.74 108.947 253.368 108.947 254.088V261H106.859ZM119.282 261.288C117.602 261.288 116.278 260.716 115.31 259.572C114.342 258.42 113.858 256.856 113.858 254.88C113.858 253.56 114.078 252.42 114.518 251.46C114.958 250.5 115.582 249.76 116.39 249.24C117.206 248.712 118.17 248.448 119.282 248.448C120.402 248.448 121.366 248.708 122.174 249.228C122.99 249.74 123.614 250.476 124.046 251.436C124.486 252.396 124.706 253.536 124.706 254.856C124.706 256.176 124.486 257.32 124.046 258.288C123.606 259.248 122.978 259.988 122.162 260.508C121.354 261.028 120.394 261.288 119.282 261.288ZM119.282 259.344C120.314 259.344 121.122 258.948 121.706 258.156C122.298 257.356 122.594 256.256 122.594 254.856C122.594 253.448 122.298 252.348 121.706 251.556C121.122 250.764 120.314 250.368 119.282 250.368C118.242 250.368 117.43 250.764 116.846 251.556C116.262 252.34 115.97 253.448 115.97 254.88C115.97 256.28 116.262 257.376 116.846 258.168C117.43 258.952 118.242 259.344 119.282 259.344ZM130.134 261.288C129.294 261.288 128.65 261.036 128.202 260.532C127.762 260.028 127.542 259.304 127.542 258.36V250.56H125.55V248.736H127.542V244.68L129.63 243.672V248.736H132.654V250.56H129.63V257.664C129.63 258.248 129.73 258.676 129.93 258.948C130.138 259.212 130.462 259.344 130.902 259.344C131.462 259.344 132.07 259.128 132.726 258.696L132.486 260.736C132.126 260.928 131.75 261.068 131.358 261.156C130.974 261.244 130.566 261.288 130.134 261.288ZM139.29 261.288C138.17 261.288 137.202 261.012 136.386 260.46C135.57 259.908 134.942 259.148 134.502 258.18C134.062 257.212 133.842 256.104 133.842 254.856C133.842 253.504 134.07 252.352 134.526 251.4C134.982 250.44 135.618 249.708 136.434 249.204C137.25 248.7 138.202 248.448 139.29 248.448C140.21 248.448 141.054 248.656 141.822 249.072C142.59 249.48 143.202 250.116 143.658 250.98C144.122 251.836 144.354 252.936 144.354 254.28C144.354 254.472 144.346 254.696 144.33 254.952C144.322 255.2 144.306 255.456 144.282 255.72H135.978C136.058 256.464 136.242 257.116 136.53 257.676C136.818 258.236 137.198 258.676 137.67 258.996C138.142 259.308 138.698 259.464 139.338 259.464C139.858 259.464 140.338 259.372 140.778 259.188C141.226 259.004 141.642 258.72 142.026 258.336L143.25 259.704C142.794 260.16 142.226 260.54 141.546 260.844C140.874 261.14 140.122 261.288 139.29 261.288ZM135.954 253.896H142.242C142.242 253.2 142.126 252.58 141.894 252.036C141.67 251.484 141.338 251.052 140.898 250.74C140.458 250.428 139.922 250.272 139.29 250.272C138.402 250.272 137.638 250.56 136.998 251.136C136.366 251.712 136.018 252.632 135.954 253.896ZM151.266 261.288C150.21 261.288 149.302 261.032 148.542 260.52C147.782 260 147.198 259.264 146.79 258.312C146.382 257.352 146.178 256.208 146.178 254.88C146.178 253.544 146.386 252.396 146.802 251.436C147.218 250.476 147.81 249.74 148.578 249.228C149.354 248.708 150.282 248.448 151.362 248.448C152.418 248.448 153.314 248.692 154.05 249.18C154.786 249.668 155.322 250.376 155.658 251.304L153.69 252.024C153.49 251.496 153.19 251.092 152.79 250.812C152.398 250.532 151.93 250.392 151.386 250.392C150.394 250.392 149.634 250.776 149.106 251.544C148.578 252.312 148.314 253.424 148.314 254.88C148.314 256.304 148.574 257.4 149.094 258.168C149.614 258.936 150.354 259.32 151.314 259.32C151.93 259.32 152.454 259.16 152.886 258.84C153.326 258.52 153.634 258.072 153.81 257.496L155.754 258.144C155.458 259.152 154.918 259.928 154.134 260.472C153.35 261.016 152.394 261.288 151.266 261.288ZM161.072 261.288C160.232 261.288 159.588 261.036 159.14 260.532C158.7 260.028 158.48 259.304 158.48 258.36V250.56H156.488V248.736H158.48V244.68L160.568 243.672V248.736H163.592V250.56H160.568V257.664C160.568 258.248 160.668 258.676 160.868 258.948C161.076 259.212 161.4 259.344 161.84 259.344C162.4 259.344 163.008 259.128 163.664 258.696L163.424 260.736C163.064 260.928 162.688 261.068 162.296 261.156C161.912 261.244 161.504 261.288 161.072 261.288ZM165.289 261V248.736H167.377V261H165.289ZM166.321 246.504C165.961 246.504 165.653 246.38 165.397 246.132C165.149 245.876 165.025 245.568 165.025 245.208C165.025 244.832 165.149 244.516 165.397 244.26C165.653 243.996 165.961 243.864 166.321 243.864C166.697 243.864 167.009 243.996 167.257 244.26C167.513 244.516 167.641 244.832 167.641 245.208C167.641 245.568 167.513 245.876 167.257 246.132C167.009 246.38 166.697 246.504 166.321 246.504ZM175.063 261.288C173.383 261.288 172.059 260.716 171.091 259.572C170.123 258.42 169.639 256.856 169.639 254.88C169.639 253.56 169.859 252.42 170.299 251.46C170.739 250.5 171.363 249.76 172.171 249.24C172.987 248.712 173.951 248.448 175.063 248.448C176.183 248.448 177.147 248.708 177.955 249.228C178.771 249.74 179.395 250.476 179.827 251.436C180.267 252.396 180.487 253.536 180.487 254.856C180.487 256.176 180.267 257.32 179.827 258.288C179.387 259.248 178.759 259.988 177.943 260.508C177.135 261.028 176.175 261.288 175.063 261.288ZM175.063 259.344C176.095 259.344 176.903 258.948 177.487 258.156C178.079 257.356 178.375 256.256 178.375 254.856C178.375 253.448 178.079 252.348 177.487 251.556C176.903 250.764 176.095 250.368 175.063 250.368C174.023 250.368 173.211 250.764 172.627 251.556C172.043 252.34 171.751 253.448 171.751 254.88C171.751 256.28 172.043 257.376 172.627 258.168C173.211 258.952 174.023 259.344 175.063 259.344ZM182.625 261V248.736H184.713V249.984C185.089 249.464 185.541 249.08 186.069 248.832C186.597 248.576 187.201 248.448 187.881 248.448C189.369 248.448 190.473 248.9 191.193 249.804C191.913 250.7 192.273 252.08 192.273 253.944V261H190.185V253.584C190.185 252.552 189.953 251.76 189.489 251.208C189.033 250.648 188.385 250.368 187.545 250.368C186.609 250.368 185.901 250.636 185.421 251.172C184.949 251.7 184.713 252.488 184.713 253.536V261H182.625ZM200.157 261V244.2H202.245V258.984H210.501V261H200.157ZM216.931 261.288C215.811 261.288 214.843 261.012 214.027 260.46C213.211 259.908 212.583 259.148 212.143 258.18C211.703 257.212 211.483 256.104 211.483 254.856C211.483 253.504 211.711 252.352 212.167 251.4C212.623 250.44 213.259 249.708 214.075 249.204C214.891 248.7 215.843 248.448 216.931 248.448C217.851 248.448 218.695 248.656 219.463 249.072C220.231 249.48 220.843 250.116 221.299 250.98C221.763 251.836 221.995 252.936 221.995 254.28C221.995 254.472 221.987 254.696 221.971 254.952C221.963 255.2 221.947 255.456 221.923 255.72H213.619C213.699 256.464 213.883 257.116 214.171 257.676C214.459 258.236 214.839 258.676 215.311 258.996C215.783 259.308 216.339 259.464 216.979 259.464C217.499 259.464 217.979 259.372 218.419 259.188C218.867 259.004 219.283 258.72 219.667 258.336L220.891 259.704C220.435 260.16 219.867 260.54 219.187 260.844C218.515 261.14 217.763 261.288 216.931 261.288ZM213.595 253.896H219.883C219.883 253.2 219.767 252.58 219.535 252.036C219.311 251.484 218.979 251.052 218.539 250.74C218.099 250.428 217.563 250.272 216.931 250.272C216.043 250.272 215.279 250.56 214.639 251.136C214.007 251.712 213.659 252.632 213.595 253.896ZM226.924 261L222.436 248.736H224.548L227.452 256.92C227.524 257.12 227.592 257.316 227.656 257.508C227.72 257.7 227.78 257.904 227.836 258.12C227.9 257.904 227.96 257.7 228.016 257.508C228.08 257.316 228.148 257.12 228.22 256.92L231.076 248.736H233.164L228.676 261H226.924ZM239.54 261.288C238.42 261.288 237.452 261.012 236.636 260.46C235.82 259.908 235.192 259.148 234.752 258.18C234.312 257.212 234.092 256.104 234.092 254.856C234.092 253.504 234.32 252.352 234.776 251.4C235.232 250.44 235.868 249.708 236.684 249.204C237.5 248.7 238.452 248.448 239.54 248.448C240.46 248.448 241.304 248.656 242.072 249.072C242.84 249.48 243.452 250.116 243.908 250.98C244.372 251.836 244.604 252.936 244.604 254.28C244.604 254.472 244.596 254.696 244.58 254.952C244.572 255.2 244.556 255.456 244.532 255.72H236.228C236.308 256.464 236.492 257.116 236.78 257.676C237.068 258.236 237.448 258.676 237.92 258.996C238.392 259.308 238.948 259.464 239.588 259.464C240.108 259.464 240.588 259.372 241.028 259.188C241.476 259.004 241.892 258.72 242.276 258.336L243.5 259.704C243.044 260.16 242.476 260.54 241.796 260.844C241.124 261.14 240.372 261.288 239.54 261.288ZM236.204 253.896H242.492C242.492 253.2 242.376 252.58 242.144 252.036C241.92 251.484 241.588 251.052 241.148 250.74C240.708 250.428 240.172 250.272 239.54 250.272C238.652 250.272 237.888 250.56 237.248 251.136C236.616 251.712 236.268 252.632 236.204 253.896ZM246.846 261V244.656L248.934 243.672V261H246.846Z" fill="#242424"/>
<rect x="90.75" y="278" width="500" height="58" fill="#242424" fill-opacity="0.04"/>
<path d="M108.882 312.216V310.758C109.608 310.626 110.286 310.365 110.916 309.975C111.552 309.579 112.089 309.063 112.527 308.427C112.965 307.785 113.256 307.032 113.4 306.168C113.148 306.474 112.785 306.732 112.311 306.942C111.843 307.146 111.288 307.248 110.646 307.248C109.914 307.248 109.254 307.077 108.666 306.735C108.084 306.387 107.622 305.916 107.28 305.322C106.944 304.722 106.776 304.044 106.776 303.288C106.776 302.496 106.962 301.791 107.334 301.173C107.706 300.555 108.213 300.069 108.855 299.715C109.503 299.361 110.238 299.184 111.06 299.184C112.014 299.184 112.8 299.4 113.418 299.832C114.042 300.258 114.504 300.84 114.804 301.578C115.104 302.31 115.254 303.138 115.254 304.062C115.254 305.442 115.005 306.714 114.507 307.878C114.009 309.042 113.283 310.008 112.329 310.776C111.381 311.544 110.232 312.024 108.882 312.216ZM111.006 305.79C111.522 305.79 111.978 305.682 112.374 305.466C112.77 305.25 113.079 304.95 113.301 304.566C113.523 304.176 113.634 303.726 113.634 303.216C113.634 302.73 113.52 302.298 113.292 301.92C113.064 301.536 112.752 301.236 112.356 301.02C111.96 300.804 111.51 300.696 111.006 300.696C110.484 300.696 110.025 300.804 109.629 301.02C109.239 301.236 108.933 301.536 108.711 301.92C108.489 302.298 108.378 302.73 108.378 303.216C108.378 303.732 108.483 304.185 108.693 304.575C108.909 304.959 109.212 305.259 109.602 305.475C109.998 305.685 110.466 305.79 111.006 305.79ZM122.128 312.216C121.282 312.216 120.574 312.027 120.004 311.649C119.44 311.271 118.99 310.767 118.654 310.137C118.318 309.501 118.078 308.799 117.934 308.031C117.79 307.257 117.718 306.48 117.718 305.7C117.718 305.148 117.757 304.572 117.835 303.972C117.919 303.366 118.057 302.781 118.249 302.217C118.441 301.647 118.705 301.134 119.041 300.678C119.377 300.222 119.797 299.859 120.301 299.589C120.811 299.319 121.42 299.184 122.128 299.184C122.974 299.184 123.679 299.376 124.243 299.76C124.813 300.138 125.266 300.645 125.602 301.281C125.938 301.917 126.178 302.619 126.322 303.387C126.466 304.155 126.538 304.926 126.538 305.7C126.538 306.252 126.496 306.831 126.412 307.437C126.328 308.037 126.187 308.622 125.989 309.192C125.797 309.756 125.533 310.266 125.197 310.722C124.861 311.178 124.441 311.541 123.937 311.811C123.433 312.081 122.83 312.216 122.128 312.216ZM122.128 310.74C122.698 310.74 123.163 310.587 123.523 310.281C123.883 309.969 124.162 309.564 124.36 309.066C124.558 308.562 124.693 308.016 124.765 307.428C124.843 306.84 124.882 306.264 124.882 305.7C124.882 305.076 124.84 304.467 124.756 303.873C124.672 303.273 124.528 302.73 124.324 302.244C124.126 301.752 123.847 301.362 123.487 301.074C123.133 300.786 122.68 300.642 122.128 300.642C121.552 300.642 121.081 300.798 120.715 301.11C120.349 301.416 120.067 301.821 119.869 302.325C119.671 302.829 119.533 303.378 119.455 303.972C119.377 304.56 119.338 305.136 119.338 305.7C119.338 306.318 119.38 306.927 119.464 307.527C119.548 308.127 119.692 308.67 119.896 309.156C120.106 309.636 120.391 310.02 120.751 310.308C121.117 310.596 121.576 310.74 122.128 310.74ZM130.67 312.216L139.274 299.184H140.786L132.182 312.216H130.67ZM131.732 305.592C131.024 305.592 130.457 305.43 130.031 305.106C129.611 304.782 129.305 304.374 129.113 303.882C128.927 303.39 128.834 302.892 128.834 302.388C128.834 302.04 128.885 301.68 128.987 301.308C129.089 300.936 129.251 300.591 129.473 300.273C129.701 299.949 130.001 299.688 130.373 299.49C130.745 299.286 131.198 299.184 131.732 299.184C132.26 299.184 132.707 299.277 133.073 299.463C133.439 299.649 133.733 299.898 133.955 300.21C134.183 300.522 134.348 300.867 134.45 301.245C134.558 301.623 134.612 302.004 134.612 302.388C134.612 302.736 134.561 303.096 134.459 303.468C134.363 303.84 134.204 304.188 133.982 304.512C133.76 304.83 133.463 305.091 133.091 305.295C132.725 305.493 132.272 305.592 131.732 305.592ZM131.732 304.35C132.08 304.35 132.368 304.26 132.596 304.08C132.824 303.894 132.995 303.654 133.109 303.36C133.223 303.06 133.28 302.736 133.28 302.388C133.28 302.004 133.223 301.665 133.109 301.371C132.995 301.077 132.821 300.846 132.587 300.678C132.359 300.51 132.074 300.426 131.732 300.426C131.372 300.426 131.078 300.516 130.85 300.696C130.622 300.87 130.454 301.107 130.346 301.407C130.238 301.701 130.184 302.028 130.184 302.388C130.184 302.766 130.238 303.102 130.346 303.396C130.46 303.69 130.631 303.924 130.859 304.098C131.087 304.266 131.378 304.35 131.732 304.35ZM139.724 312.216C139.022 312.216 138.461 312.054 138.041 311.73C137.621 311.406 137.315 310.998 137.123 310.506C136.937 310.014 136.844 309.516 136.844 309.012C136.844 308.664 136.895 308.304 136.997 307.932C137.099 307.56 137.261 307.215 137.483 306.897C137.711 306.573 138.008 306.312 138.374 306.114C138.746 305.91 139.196 305.808 139.724 305.808C140.258 305.808 140.708 305.901 141.074 306.087C141.446 306.273 141.743 306.522 141.965 306.834C142.193 307.146 142.358 307.491 142.46 307.869C142.568 308.247 142.622 308.628 142.622 309.012C142.622 309.36 142.571 309.72 142.469 310.092C142.373 310.464 142.211 310.812 141.983 311.136C141.761 311.454 141.464 311.715 141.092 311.919C140.726 312.117 140.27 312.216 139.724 312.216ZM139.724 310.974C140.078 310.974 140.369 310.884 140.597 310.704C140.825 310.518 140.993 310.278 141.101 309.984C141.215 309.684 141.272 309.36 141.272 309.012C141.272 308.628 141.215 308.289 141.101 307.995C140.987 307.701 140.816 307.47 140.588 307.302C140.36 307.134 140.072 307.05 139.724 307.05C139.37 307.05 139.079 307.14 138.851 307.32C138.623 307.494 138.452 307.731 138.338 308.031C138.23 308.325 138.176 308.652 138.176 309.012C138.176 309.39 138.233 309.726 138.347 310.02C138.461 310.314 138.632 310.548 138.86 310.722C139.088 310.89 139.376 310.974 139.724 310.974Z" fill="#666666"/>
<path d="M559.75 305L563.75 309L567.75 305" stroke="#242424" stroke-width="1.5" stroke-linecap="round" stroke-linejoin="round"/>
<rect x="91.25" y="278.5" width="499" height="57" stroke="#242424" stroke-opacity="0.1"/>
<rect x="61.25" y="68.5" width="559" height="317" stroke="#242424" stroke-opacity="0.12" shape-rendering="crispEdges"/>
</g>
<path d="M45.75 68H60.75V83L45.75 68Z" fill="#480139"/>
<path d="M635.75 68H620.75V83L635.75 68Z" fill="#480139"/>
<defs>
<filter id="filter0_d_3424_15333" x="0.75" y="18" width="680" height="438" filterUnits="userSpaceOnUse" color-interpolation-filters="sRGB">
<feFlood flood-opacity="0" result="BackgroundImageFix"/>
<feColorMatrix in="SourceAlpha" type="matrix" values="0 0 0 0 0 0 0 0 0 0 0 0 0 0 0 0 0 0 127 0" result="hardAlpha"/>
<feOffset dy="10"/>
<feGaussianBlur stdDeviation="30"/>
<feComposite in2="hardAlpha" operator="out"/>
<feColorMatrix type="matrix" values="0 0 0 0 0 0 0 0 0 0 0 0 0 0 0 0 0 0 0.04 0"/>
<feBlend mode="normal" in2="BackgroundImageFix" result="effect1_dropShadow_3424_15333"/>
<feBlend mode="normal" in="SourceGraphic" in2="effect1_dropShadow_3424_15333" result="shape"/>
</filter>
</defs>
</svg>
