<svg width="681" height="473" viewBox="0 0 681 473" fill="none" xmlns="http://www.w3.org/2000/svg">
<rect width="590" height="68" transform="translate(45.75)" fill="#60034C"/>
<path d="M211.854 41V21.4H219.61C221.225 21.4 222.499 21.694 223.432 22.282C224.375 22.8607 225.047 23.6073 225.448 24.522C225.849 25.4367 226.05 26.384 226.05 27.364C226.05 28.0547 225.933 28.75 225.7 29.45C225.467 30.1407 225.093 30.78 224.58 31.368C224.067 31.956 223.399 32.4273 222.578 32.782C221.766 33.1367 220.777 33.314 219.61 33.314H214.682V41H211.854ZM214.682 30.668H219.778C220.618 30.668 221.285 30.5 221.78 30.164C222.284 29.828 222.643 29.408 222.858 28.904C223.073 28.4 223.18 27.8867 223.18 27.364C223.18 26.8973 223.082 26.4073 222.886 25.894C222.699 25.3713 222.359 24.9327 221.864 24.578C221.369 24.2233 220.674 24.046 219.778 24.046H214.682V30.668ZM228.251 41V26.692H231.037V28.456C231.345 27.784 231.783 27.266 232.353 26.902C232.922 26.538 233.571 26.356 234.299 26.356C235.213 26.356 235.988 26.636 236.623 27.196L236.217 29.786C235.89 29.5433 235.554 29.366 235.209 29.254C234.863 29.142 234.49 29.086 234.089 29.086C233.463 29.086 232.922 29.2493 232.465 29.576C232.017 29.8933 231.667 30.346 231.415 30.934C231.163 31.522 231.037 32.2173 231.037 33.02V41H228.251ZM243.268 41.336C241.289 41.336 239.731 40.6687 238.592 39.334C237.453 37.99 236.884 36.1653 236.884 33.86C236.884 32.32 237.141 30.99 237.654 29.87C238.177 28.75 238.914 27.8867 239.866 27.28C240.827 26.664 241.961 26.356 243.268 26.356C244.584 26.356 245.718 26.6593 246.67 27.266C247.631 27.8633 248.369 28.722 248.882 29.842C249.395 30.962 249.652 32.292 249.652 33.832C249.652 35.3813 249.391 36.716 248.868 37.836C248.355 38.956 247.622 39.8193 246.67 40.426C245.718 41.0327 244.584 41.336 243.268 41.336ZM243.268 38.704C244.388 38.704 245.261 38.2747 245.886 37.416C246.521 36.5573 246.838 35.3627 246.838 33.832C246.838 32.3013 246.521 31.1067 245.886 30.248C245.261 29.3893 244.388 28.96 243.268 28.96C242.148 28.96 241.271 29.3893 240.636 30.248C240.011 31.1067 239.698 32.3107 239.698 33.86C239.698 35.3813 240.011 36.5713 240.636 37.43C241.271 38.2793 242.148 38.704 243.268 38.704ZM256.15 41.336C255.123 41.336 254.339 41.0373 253.798 40.44C253.266 39.8333 253 38.956 253 37.808V29.128H250.76V26.692H253V22.128L255.786 20.784V26.692H259.216V29.128H255.786V37.066C255.786 37.6633 255.893 38.102 256.108 38.382C256.332 38.662 256.677 38.802 257.144 38.802C257.816 38.802 258.544 38.564 259.328 38.088L259.006 40.692C258.577 40.916 258.129 41.0793 257.662 41.182C257.195 41.2847 256.691 41.336 256.15 41.336ZM267.26 41.336C265.925 41.336 264.773 41.0187 263.802 40.384C262.841 39.7493 262.099 38.8673 261.576 37.738C261.063 36.6087 260.806 35.3067 260.806 33.832C260.806 32.264 261.072 30.9247 261.604 29.814C262.145 28.694 262.897 27.84 263.858 27.252C264.829 26.6547 265.963 26.356 267.26 26.356C268.361 26.356 269.365 26.5987 270.27 27.084C271.185 27.56 271.913 28.302 272.454 29.31C273.005 30.3087 273.28 31.592 273.28 33.16C273.28 33.384 273.271 33.6547 273.252 33.972C273.243 34.28 273.219 34.5973 273.182 34.924H263.62C263.695 35.7173 263.886 36.4173 264.194 37.024C264.511 37.6213 264.931 38.088 265.454 38.424C265.977 38.76 266.593 38.928 267.302 38.928C267.927 38.928 268.497 38.8207 269.01 38.606C269.523 38.382 270.004 38.0367 270.452 37.57L272.076 39.32C271.516 39.908 270.83 40.3933 270.018 40.776C269.206 41.1493 268.287 41.336 267.26 41.336ZM263.606 32.6H270.508C270.489 31.844 270.349 31.1813 270.088 30.612C269.836 30.0333 269.467 29.5807 268.982 29.254C268.506 28.9273 267.923 28.764 267.232 28.764C266.271 28.764 265.445 29.072 264.754 29.688C264.063 30.304 263.681 31.2747 263.606 32.6ZM281.646 41.336C280.386 41.336 279.299 41.0373 278.384 40.44C277.479 39.8333 276.779 38.9747 276.284 37.864C275.799 36.744 275.556 35.4093 275.556 33.86C275.556 32.3107 275.803 30.976 276.298 29.856C276.802 28.736 277.516 27.8727 278.44 27.266C279.364 26.6593 280.465 26.356 281.744 26.356C283.06 26.356 284.166 26.6593 285.062 27.266C285.967 27.8727 286.621 28.764 287.022 29.94L284.39 30.864C284.157 30.2573 283.816 29.7907 283.368 29.464C282.92 29.1373 282.388 28.974 281.772 28.974C280.699 28.974 279.868 29.3987 279.28 30.248C278.692 31.0973 278.398 32.3013 278.398 33.86C278.398 35.3907 278.687 36.5807 279.266 37.43C279.845 38.27 280.657 38.69 281.702 38.69C282.383 38.69 282.967 38.508 283.452 38.144C283.947 37.78 284.297 37.2573 284.502 36.576L287.12 37.416C286.747 38.6853 286.089 39.656 285.146 40.328C284.203 41 283.037 41.336 281.646 41.336ZM293.564 41.336C292.537 41.336 291.753 41.0373 291.212 40.44C290.68 39.8333 290.414 38.956 290.414 37.808V29.128H288.174V26.692H290.414V22.128L293.2 20.784V26.692H296.63V29.128H293.2V37.066C293.2 37.6633 293.307 38.102 293.522 38.382C293.746 38.662 294.091 38.802 294.558 38.802C295.23 38.802 295.958 38.564 296.742 38.088L296.42 40.692C295.991 40.916 295.543 41.0793 295.076 41.182C294.609 41.2847 294.105 41.336 293.564 41.336ZM298.732 41V26.692H301.518V41H298.732ZM300.118 24.354C299.651 24.354 299.25 24.1907 298.914 23.864C298.587 23.528 298.424 23.1267 298.424 22.66C298.424 22.184 298.587 21.778 298.914 21.442C299.241 21.106 299.642 20.938 300.118 20.938C300.603 20.938 301.009 21.106 301.336 21.442C301.663 21.778 301.826 22.184 301.826 22.66C301.826 23.136 301.663 23.5373 301.336 23.864C301.009 24.1907 300.603 24.354 300.118 24.354ZM310.659 41.336C308.68 41.336 307.121 40.6687 305.983 39.334C304.844 37.99 304.275 36.1653 304.275 33.86C304.275 32.32 304.531 30.99 305.045 29.87C305.567 28.75 306.305 27.8867 307.257 27.28C308.218 26.664 309.352 26.356 310.659 26.356C311.975 26.356 313.109 26.6593 314.061 27.266C315.022 27.8633 315.759 28.722 316.273 29.842C316.786 30.962 317.043 32.292 317.043 33.832C317.043 35.3813 316.781 36.716 316.259 37.836C315.745 38.956 315.013 39.8193 314.061 40.426C313.109 41.0327 311.975 41.336 310.659 41.336ZM310.659 38.704C311.779 38.704 312.651 38.2747 313.277 37.416C313.911 36.5573 314.229 35.3627 314.229 33.832C314.229 32.3013 313.911 31.1067 313.277 30.248C312.651 29.3893 311.779 28.96 310.659 28.96C309.539 28.96 308.661 29.3893 308.027 30.248C307.401 31.1067 307.089 32.3107 307.089 33.86C307.089 35.3813 307.401 36.5713 308.027 37.43C308.661 38.2793 309.539 38.704 310.659 38.704ZM319.591 41V26.692H322.377V28.12C322.825 27.5227 323.357 27.0793 323.973 26.79C324.598 26.5007 325.312 26.356 326.115 26.356C327.804 26.356 329.073 26.8693 329.923 27.896C330.772 28.9227 331.197 30.472 331.197 32.544V41H328.411V32.614C328.411 31.41 328.163 30.5 327.669 29.884C327.174 29.268 326.455 28.96 325.513 28.96C324.467 28.96 323.683 29.2587 323.161 29.856C322.638 30.4533 322.377 31.354 322.377 32.558V41H319.591ZM338.17 41L345.282 21.4H347.942L355.068 41H352.114L350.476 36.422H342.79L341.18 41H338.17ZM343.658 33.888H349.566L347.228 27.294C347.162 27.1167 347.092 26.916 347.018 26.692C346.943 26.4587 346.868 26.23 346.794 26.006C346.719 25.782 346.663 25.586 346.626 25.418C346.579 25.586 346.518 25.782 346.444 26.006C346.378 26.23 346.308 26.4587 346.234 26.692C346.159 26.916 346.089 27.1167 346.024 27.294L343.658 33.888ZM361.911 46.964L360.483 44.724C361.79 44.64 362.835 44.472 363.619 44.22C364.413 43.968 364.987 43.6133 365.341 43.156C365.696 42.6987 365.873 42.12 365.873 41.42V39.782C365.061 40.818 363.899 41.336 362.387 41.336C361.193 41.336 360.152 41.028 359.265 40.412C358.379 39.796 357.693 38.928 357.207 37.808C356.731 36.6787 356.493 35.3533 356.493 33.832C356.493 32.3107 356.736 30.99 357.221 29.87C357.716 28.75 358.407 27.8867 359.293 27.28C360.189 26.664 361.244 26.356 362.457 26.356C363.148 26.356 363.787 26.4773 364.375 26.72C364.973 26.9627 365.472 27.3033 365.873 27.742V26.692H368.659V40.314C368.659 41.4153 368.529 42.3673 368.267 43.17C368.015 43.9727 367.614 44.64 367.063 45.172C366.513 45.7133 365.813 46.1287 364.963 46.418C364.114 46.7073 363.097 46.8893 361.911 46.964ZM362.919 38.704C363.489 38.704 364.039 38.5453 364.571 38.228C365.113 37.9013 365.547 37.472 365.873 36.94V30.654C365.575 30.1593 365.145 29.7533 364.585 29.436C364.025 29.1187 363.475 28.96 362.933 28.96C361.757 28.96 360.857 29.3753 360.231 30.206C359.615 31.0367 359.307 32.2453 359.307 33.832C359.307 34.8307 359.452 35.6987 359.741 36.436C360.04 37.164 360.46 37.724 361.001 38.116C361.543 38.508 362.182 38.704 362.919 38.704ZM372.356 41V26.692H375.142V28.456C375.45 27.784 375.889 27.266 376.458 26.902C377.028 26.538 377.676 26.356 378.404 26.356C379.319 26.356 380.094 26.636 380.728 27.196L380.322 29.786C379.996 29.5433 379.66 29.366 379.314 29.254C378.969 29.142 378.596 29.086 378.194 29.086C377.569 29.086 377.028 29.2493 376.57 29.576C376.122 29.8933 375.772 30.346 375.52 30.934C375.268 31.522 375.142 32.2173 375.142 33.02V41H372.356ZM387.444 41.336C386.109 41.336 384.956 41.0187 383.986 40.384C383.024 39.7493 382.282 38.8673 381.76 37.738C381.246 36.6087 380.99 35.3067 380.99 33.832C380.99 32.264 381.256 30.9247 381.788 29.814C382.329 28.694 383.08 27.84 384.042 27.252C385.012 26.6547 386.146 26.356 387.444 26.356C388.545 26.356 389.548 26.5987 390.454 27.084C391.368 27.56 392.096 28.302 392.638 29.31C393.188 30.3087 393.464 31.592 393.464 33.16C393.464 33.384 393.454 33.6547 393.436 33.972C393.426 34.28 393.403 34.5973 393.366 34.924H383.804C383.878 35.7173 384.07 36.4173 384.378 37.024C384.695 37.6213 385.115 38.088 385.638 38.424C386.16 38.76 386.776 38.928 387.486 38.928C388.111 38.928 388.68 38.8207 389.194 38.606C389.707 38.382 390.188 38.0367 390.636 37.57L392.26 39.32C391.7 39.908 391.014 40.3933 390.202 40.776C389.39 41.1493 388.47 41.336 387.444 41.336ZM383.79 32.6H390.692C390.673 31.844 390.533 31.1813 390.272 30.612C390.02 30.0333 389.651 29.5807 389.166 29.254C388.69 28.9273 388.106 28.764 387.416 28.764C386.454 28.764 385.628 29.072 384.938 29.688C384.247 30.304 383.864 31.2747 383.79 32.6ZM402.194 41.336C400.859 41.336 399.706 41.0187 398.736 40.384C397.774 39.7493 397.032 38.8673 396.51 37.738C395.996 36.6087 395.74 35.3067 395.74 33.832C395.74 32.264 396.006 30.9247 396.538 29.814C397.079 28.694 397.83 27.84 398.792 27.252C399.762 26.6547 400.896 26.356 402.194 26.356C403.295 26.356 404.298 26.5987 405.204 27.084C406.118 27.56 406.846 28.302 407.388 29.31C407.938 30.3087 408.214 31.592 408.214 33.16C408.214 33.384 408.204 33.6547 408.186 33.972C408.176 34.28 408.153 34.5973 408.116 34.924H398.554C398.628 35.7173 398.82 36.4173 399.128 37.024C399.445 37.6213 399.865 38.088 400.388 38.424C400.91 38.76 401.526 38.928 402.236 38.928C402.861 38.928 403.43 38.8207 403.944 38.606C404.457 38.382 404.938 38.0367 405.386 37.57L407.01 39.32C406.45 39.908 405.764 40.3933 404.952 40.776C404.14 41.1493 403.22 41.336 402.194 41.336ZM398.54 32.6H405.442C405.423 31.844 405.283 31.1813 405.022 30.612C404.77 30.0333 404.401 29.5807 403.916 29.254C403.44 28.9273 402.856 28.764 402.166 28.764C401.204 28.764 400.378 29.072 399.688 29.688C398.997 30.304 398.614 31.2747 398.54 32.6ZM411.028 41V26.692H413.814V28.036C414.243 27.476 414.766 27.056 415.382 26.776C416.007 26.496 416.707 26.356 417.482 26.356C418.322 26.356 419.069 26.538 419.722 26.902C420.375 27.2567 420.879 27.7653 421.234 28.428C421.691 27.7653 422.284 27.2567 423.012 26.902C423.74 26.538 424.557 26.356 425.462 26.356C427.067 26.356 428.323 26.832 429.228 27.784C430.133 28.7267 430.586 30.0427 430.586 31.732V41H427.8V32.6C427.8 31.4053 427.567 30.5 427.1 29.884C426.643 29.268 425.971 28.96 425.084 28.96C424.487 28.96 423.969 29.1093 423.53 29.408C423.101 29.6973 422.769 30.122 422.536 30.682C422.303 31.2327 422.186 31.886 422.186 32.642V41H419.4V32.6C419.4 31.3867 419.176 30.4767 418.728 29.87C418.28 29.2633 417.603 28.96 416.698 28.96C415.783 28.96 415.074 29.2727 414.57 29.898C414.066 30.5233 413.814 31.41 413.814 32.558V41H411.028ZM439.979 41.336C438.644 41.336 437.491 41.0187 436.521 40.384C435.559 39.7493 434.817 38.8673 434.295 37.738C433.781 36.6087 433.525 35.3067 433.525 33.832C433.525 32.264 433.791 30.9247 434.323 29.814C434.864 28.694 435.615 27.84 436.577 27.252C437.547 26.6547 438.681 26.356 439.979 26.356C441.08 26.356 442.083 26.5987 442.989 27.084C443.903 27.56 444.631 28.302 445.173 29.31C445.723 30.3087 445.999 31.592 445.999 33.16C445.999 33.384 445.989 33.6547 445.971 33.972C445.961 34.28 445.938 34.5973 445.901 34.924H436.339C436.413 35.7173 436.605 36.4173 436.913 37.024C437.23 37.6213 437.65 38.088 438.173 38.424C438.695 38.76 439.311 38.928 440.021 38.928C440.646 38.928 441.215 38.8207 441.729 38.606C442.242 38.382 442.723 38.0367 443.171 37.57L444.795 39.32C444.235 39.908 443.549 40.3933 442.737 40.776C441.925 41.1493 441.005 41.336 439.979 41.336ZM436.325 32.6H443.227C443.208 31.844 443.068 31.1813 442.807 30.612C442.555 30.0333 442.186 29.5807 441.701 29.254C441.225 28.9273 440.641 28.764 439.951 28.764C438.989 28.764 438.163 29.072 437.473 29.688C436.782 30.304 436.399 31.2747 436.325 32.6ZM448.813 41V26.692H451.599V28.12C452.047 27.5227 452.579 27.0793 453.195 26.79C453.821 26.5007 454.535 26.356 455.337 26.356C457.027 26.356 458.296 26.8693 459.145 27.896C459.995 28.9227 460.419 30.472 460.419 32.544V41H457.633V32.614C457.633 31.41 457.386 30.5 456.891 29.884C456.397 29.268 455.678 28.96 454.735 28.96C453.69 28.96 452.906 29.2587 452.383 29.856C451.861 30.4533 451.599 31.354 451.599 32.558V41H448.813ZM467.459 41.336C466.432 41.336 465.648 41.0373 465.107 40.44C464.575 39.8333 464.309 38.956 464.309 37.808V29.128H462.069V26.692H464.309V22.128L467.095 20.784V26.692H470.525V29.128H467.095V37.066C467.095 37.6633 467.202 38.102 467.417 38.382C467.641 38.662 467.986 38.802 468.453 38.802C469.125 38.802 469.853 38.564 470.637 38.088L470.315 40.692C469.885 40.916 469.437 41.0793 468.971 41.182C468.504 41.2847 468 41.336 467.459 41.336Z" fill="white"/>
<g filter="url(#filter0_d_3424_19507)">
<rect x="60.75" y="68" width="560" height="335" fill="white" shape-rendering="crispEdges"/>
<path d="M93.102 142V125.2H99.534C100.894 125.2 101.97 125.448 102.762 125.944C103.554 126.432 104.118 127.064 104.454 127.84C104.79 128.608 104.958 129.408 104.958 130.24C104.958 130.816 104.858 131.4 104.658 131.992C104.466 132.576 104.154 133.116 103.722 133.612C103.29 134.108 102.73 134.508 102.042 134.812C101.354 135.108 100.518 135.256 99.534 135.256H95.19V142H93.102ZM95.19 133.312H99.678C100.47 133.312 101.098 133.156 101.562 132.844C102.034 132.532 102.37 132.14 102.57 131.668C102.77 131.196 102.87 130.72 102.87 130.24C102.87 129.8 102.778 129.34 102.594 128.86C102.418 128.38 102.098 127.976 101.634 127.648C101.17 127.312 100.518 127.144 99.678 127.144H95.19V133.312ZM106.859 142V129.736H108.947V131.344C109.227 130.72 109.611 130.248 110.099 129.928C110.595 129.608 111.179 129.448 111.851 129.448C112.595 129.448 113.227 129.656 113.747 130.072L113.435 132.04C113.171 131.856 112.895 131.724 112.607 131.644C112.327 131.556 112.019 131.512 111.683 131.512C111.131 131.512 110.651 131.66 110.243 131.956C109.835 132.252 109.515 132.668 109.283 133.204C109.059 133.74 108.947 134.368 108.947 135.088V142H106.859ZM119.282 142.288C117.602 142.288 116.278 141.716 115.31 140.572C114.342 139.42 113.858 137.856 113.858 135.88C113.858 134.56 114.078 133.42 114.518 132.46C114.958 131.5 115.582 130.76 116.39 130.24C117.206 129.712 118.17 129.448 119.282 129.448C120.402 129.448 121.366 129.708 122.174 130.228C122.99 130.74 123.614 131.476 124.046 132.436C124.486 133.396 124.706 134.536 124.706 135.856C124.706 137.176 124.486 138.32 124.046 139.288C123.606 140.248 122.978 140.988 122.162 141.508C121.354 142.028 120.394 142.288 119.282 142.288ZM119.282 140.344C120.314 140.344 121.122 139.948 121.706 139.156C122.298 138.356 122.594 137.256 122.594 135.856C122.594 134.448 122.298 133.348 121.706 132.556C121.122 131.764 120.314 131.368 119.282 131.368C118.242 131.368 117.43 131.764 116.846 132.556C116.262 133.34 115.97 134.448 115.97 135.88C115.97 137.28 116.262 138.376 116.846 139.168C117.43 139.952 118.242 140.344 119.282 140.344ZM130.134 142.288C129.294 142.288 128.65 142.036 128.202 141.532C127.762 141.028 127.542 140.304 127.542 139.36V131.56H125.55V129.736H127.542V125.68L129.63 124.672V129.736H132.654V131.56H129.63V138.664C129.63 139.248 129.73 139.676 129.93 139.948C130.138 140.212 130.462 140.344 130.902 140.344C131.462 140.344 132.07 140.128 132.726 139.696L132.486 141.736C132.126 141.928 131.75 142.068 131.358 142.156C130.974 142.244 130.566 142.288 130.134 142.288ZM139.29 142.288C138.17 142.288 137.202 142.012 136.386 141.46C135.57 140.908 134.942 140.148 134.502 139.18C134.062 138.212 133.842 137.104 133.842 135.856C133.842 134.504 134.07 133.352 134.526 132.4C134.982 131.44 135.618 130.708 136.434 130.204C137.25 129.7 138.202 129.448 139.29 129.448C140.21 129.448 141.054 129.656 141.822 130.072C142.59 130.48 143.202 131.116 143.658 131.98C144.122 132.836 144.354 133.936 144.354 135.28C144.354 135.472 144.346 135.696 144.33 135.952C144.322 136.2 144.306 136.456 144.282 136.72H135.978C136.058 137.464 136.242 138.116 136.53 138.676C136.818 139.236 137.198 139.676 137.67 139.996C138.142 140.308 138.698 140.464 139.338 140.464C139.858 140.464 140.338 140.372 140.778 140.188C141.226 140.004 141.642 139.72 142.026 139.336L143.25 140.704C142.794 141.16 142.226 141.54 141.546 141.844C140.874 142.14 140.122 142.288 139.29 142.288ZM135.954 134.896H142.242C142.242 134.2 142.126 133.58 141.894 133.036C141.67 132.484 141.338 132.052 140.898 131.74C140.458 131.428 139.922 131.272 139.29 131.272C138.402 131.272 137.638 131.56 136.998 132.136C136.366 132.712 136.018 133.632 135.954 134.896ZM151.266 142.288C150.21 142.288 149.302 142.032 148.542 141.52C147.782 141 147.198 140.264 146.79 139.312C146.382 138.352 146.178 137.208 146.178 135.88C146.178 134.544 146.386 133.396 146.802 132.436C147.218 131.476 147.81 130.74 148.578 130.228C149.354 129.708 150.282 129.448 151.362 129.448C152.418 129.448 153.314 129.692 154.05 130.18C154.786 130.668 155.322 131.376 155.658 132.304L153.69 133.024C153.49 132.496 153.19 132.092 152.79 131.812C152.398 131.532 151.93 131.392 151.386 131.392C150.394 131.392 149.634 131.776 149.106 132.544C148.578 133.312 148.314 134.424 148.314 135.88C148.314 137.304 148.574 138.4 149.094 139.168C149.614 139.936 150.354 140.32 151.314 140.32C151.93 140.32 152.454 140.16 152.886 139.84C153.326 139.52 153.634 139.072 153.81 138.496L155.754 139.144C155.458 140.152 154.918 140.928 154.134 141.472C153.35 142.016 152.394 142.288 151.266 142.288ZM161.072 142.288C160.232 142.288 159.588 142.036 159.14 141.532C158.7 141.028 158.48 140.304 158.48 139.36V131.56H156.488V129.736H158.48V125.68L160.568 124.672V129.736H163.592V131.56H160.568V138.664C160.568 139.248 160.668 139.676 160.868 139.948C161.076 140.212 161.4 140.344 161.84 140.344C162.4 140.344 163.008 140.128 163.664 139.696L163.424 141.736C163.064 141.928 162.688 142.068 162.296 142.156C161.912 142.244 161.504 142.288 161.072 142.288ZM165.289 142V129.736H167.377V142H165.289ZM166.321 127.504C165.961 127.504 165.653 127.38 165.397 127.132C165.149 126.876 165.025 126.568 165.025 126.208C165.025 125.832 165.149 125.516 165.397 125.26C165.653 124.996 165.961 124.864 166.321 124.864C166.697 124.864 167.009 124.996 167.257 125.26C167.513 125.516 167.641 125.832 167.641 126.208C167.641 126.568 167.513 126.876 167.257 127.132C167.009 127.38 166.697 127.504 166.321 127.504ZM175.063 142.288C173.383 142.288 172.059 141.716 171.091 140.572C170.123 139.42 169.639 137.856 169.639 135.88C169.639 134.56 169.859 133.42 170.299 132.46C170.739 131.5 171.363 130.76 172.171 130.24C172.987 129.712 173.951 129.448 175.063 129.448C176.183 129.448 177.147 129.708 177.955 130.228C178.771 130.74 179.395 131.476 179.827 132.436C180.267 133.396 180.487 134.536 180.487 135.856C180.487 137.176 180.267 138.32 179.827 139.288C179.387 140.248 178.759 140.988 177.943 141.508C177.135 142.028 176.175 142.288 175.063 142.288ZM175.063 140.344C176.095 140.344 176.903 139.948 177.487 139.156C178.079 138.356 178.375 137.256 178.375 135.856C178.375 134.448 178.079 133.348 177.487 132.556C176.903 131.764 176.095 131.368 175.063 131.368C174.023 131.368 173.211 131.764 172.627 132.556C172.043 133.34 171.751 134.448 171.751 135.88C171.751 137.28 172.043 138.376 172.627 139.168C173.211 139.952 174.023 140.344 175.063 140.344ZM182.625 142V129.736H184.713V130.984C185.089 130.464 185.541 130.08 186.069 129.832C186.597 129.576 187.201 129.448 187.881 129.448C189.369 129.448 190.473 129.9 191.193 130.804C191.913 131.7 192.273 133.08 192.273 134.944V142H190.185V134.584C190.185 133.552 189.953 132.76 189.489 132.208C189.033 131.648 188.385 131.368 187.545 131.368C186.609 131.368 185.901 131.636 185.421 132.172C184.949 132.7 184.713 133.488 184.713 134.536V142H182.625ZM200.157 142V125.2H206.589C207.949 125.2 209.025 125.448 209.817 125.944C210.609 126.432 211.173 127.064 211.509 127.84C211.845 128.608 212.013 129.408 212.013 130.24C212.013 130.816 211.913 131.4 211.713 131.992C211.521 132.576 211.209 133.116 210.777 133.612C210.345 134.108 209.785 134.508 209.097 134.812C208.409 135.108 207.573 135.256 206.589 135.256H202.245V142H200.157ZM202.245 133.312H206.733C207.525 133.312 208.153 133.156 208.617 132.844C209.089 132.532 209.425 132.14 209.625 131.668C209.825 131.196 209.925 130.72 209.925 130.24C209.925 129.8 209.833 129.34 209.649 128.86C209.473 128.38 209.153 127.976 208.689 127.648C208.225 127.312 207.573 127.144 206.733 127.144H202.245V133.312ZM213.914 142V129.736H216.002V131.344C216.282 130.72 216.666 130.248 217.154 129.928C217.65 129.608 218.234 129.448 218.906 129.448C219.65 129.448 220.282 129.656 220.802 130.072L220.49 132.04C220.226 131.856 219.95 131.724 219.662 131.644C219.382 131.556 219.074 131.512 218.738 131.512C218.186 131.512 217.706 131.66 217.298 131.956C216.89 132.252 216.57 132.668 216.338 133.204C216.114 133.74 216.002 134.368 216.002 135.088V142H213.914ZM222.149 142V129.736H224.237V142H222.149ZM223.181 127.504C222.821 127.504 222.513 127.38 222.257 127.132C222.009 126.876 221.885 126.568 221.885 126.208C221.885 125.832 222.009 125.516 222.257 125.26C222.513 124.996 222.821 124.864 223.181 124.864C223.557 124.864 223.869 124.996 224.117 125.26C224.373 125.516 224.501 125.832 224.501 126.208C224.501 126.568 224.373 126.876 224.117 127.132C223.869 127.38 223.557 127.504 223.181 127.504ZM231.587 142.288C230.531 142.288 229.623 142.032 228.863 141.52C228.103 141 227.519 140.264 227.111 139.312C226.703 138.352 226.499 137.208 226.499 135.88C226.499 134.544 226.707 133.396 227.123 132.436C227.539 131.476 228.131 130.74 228.899 130.228C229.675 129.708 230.603 129.448 231.683 129.448C232.739 129.448 233.635 129.692 234.371 130.18C235.107 130.668 235.643 131.376 235.979 132.304L234.011 133.024C233.811 132.496 233.511 132.092 233.111 131.812C232.719 131.532 232.251 131.392 231.707 131.392C230.715 131.392 229.955 131.776 229.427 132.544C228.899 133.312 228.635 134.424 228.635 135.88C228.635 137.304 228.895 138.4 229.415 139.168C229.935 139.936 230.675 140.32 231.635 140.32C232.251 140.32 232.775 140.16 233.207 139.84C233.647 139.52 233.955 139.072 234.131 138.496L236.075 139.144C235.779 140.152 235.239 140.928 234.455 141.472C233.671 142.016 232.715 142.288 231.587 142.288ZM243.134 142.288C242.014 142.288 241.046 142.012 240.23 141.46C239.414 140.908 238.786 140.148 238.346 139.18C237.906 138.212 237.686 137.104 237.686 135.856C237.686 134.504 237.914 133.352 238.37 132.4C238.826 131.44 239.462 130.708 240.278 130.204C241.094 129.7 242.046 129.448 243.134 129.448C244.054 129.448 244.898 129.656 245.666 130.072C246.434 130.48 247.046 131.116 247.502 131.98C247.966 132.836 248.198 133.936 248.198 135.28C248.198 135.472 248.19 135.696 248.174 135.952C248.166 136.2 248.15 136.456 248.126 136.72H239.822C239.902 137.464 240.086 138.116 240.374 138.676C240.662 139.236 241.042 139.676 241.514 139.996C241.986 140.308 242.542 140.464 243.182 140.464C243.702 140.464 244.182 140.372 244.622 140.188C245.07 140.004 245.486 139.72 245.87 139.336L247.094 140.704C246.638 141.16 246.07 141.54 245.39 141.844C244.718 142.14 243.966 142.288 243.134 142.288ZM239.798 134.896H246.086C246.086 134.2 245.97 133.58 245.738 133.036C245.514 132.484 245.182 132.052 244.742 131.74C244.302 131.428 243.766 131.272 243.134 131.272C242.246 131.272 241.482 131.56 240.842 132.136C240.21 132.712 239.862 133.632 239.798 134.896Z" fill="#242424"/>
<rect x="90.75" y="159" width="370" height="58" fill="#242424" fill-opacity="0.04"/>
<path d="M110.025 194.656V193.054C109.197 192.85 108.504 192.469 107.946 191.911C107.394 191.353 106.98 190.675 106.704 189.877L108.828 189.103C109.074 189.655 109.413 190.111 109.845 190.471C110.283 190.831 110.772 191.011 111.312 191.011C111.858 191.011 112.29 190.876 112.608 190.606C112.932 190.33 113.094 189.94 113.094 189.436C113.094 189.07 112.989 188.764 112.779 188.518C112.575 188.266 112.293 188.05 111.933 187.87C111.579 187.684 111.186 187.507 110.754 187.339C110.328 187.171 109.905 186.988 109.485 186.79C109.065 186.592 108.681 186.355 108.333 186.079C107.991 185.797 107.715 185.449 107.505 185.035C107.295 184.621 107.19 184.114 107.19 183.514C107.19 182.758 107.433 182.077 107.919 181.471C108.411 180.865 109.113 180.475 110.025 180.301V178.87H112.302V180.319C113.028 180.499 113.613 180.829 114.057 181.309C114.507 181.789 114.828 182.35 115.02 182.992L112.932 183.685C112.782 183.331 112.551 183.025 112.239 182.767C111.927 182.509 111.522 182.38 111.024 182.38C110.568 182.38 110.214 182.479 109.962 182.677C109.71 182.869 109.584 183.148 109.584 183.514C109.584 183.802 109.683 184.048 109.881 184.252C110.085 184.45 110.352 184.627 110.682 184.783C111.012 184.939 111.375 185.092 111.771 185.242C112.185 185.398 112.608 185.578 113.04 185.782C113.472 185.986 113.874 186.244 114.246 186.556C114.618 186.862 114.918 187.246 115.146 187.708C115.374 188.17 115.488 188.737 115.488 189.409C115.488 190.099 115.347 190.702 115.065 191.218C114.789 191.734 114.408 192.154 113.922 192.478C113.442 192.796 112.902 193.009 112.302 193.117V194.656H110.025ZM119.169 193V183.595H117.234V181.768C117.636 181.768 117.999 181.726 118.323 181.642C118.647 181.558 118.92 181.417 119.142 181.219C119.37 181.021 119.541 180.748 119.655 180.4H121.5V193H119.169ZM125.67 195.538L124.743 194.854C124.851 194.758 124.98 194.617 125.13 194.431C125.286 194.245 125.433 194.038 125.571 193.81C125.715 193.588 125.817 193.375 125.877 193.171C125.577 193.069 125.328 192.904 125.13 192.676C124.932 192.442 124.833 192.142 124.833 191.776C124.833 191.332 124.98 190.978 125.274 190.714C125.574 190.45 125.919 190.318 126.309 190.318C126.723 190.318 127.077 190.465 127.371 190.759C127.671 191.047 127.821 191.467 127.821 192.019C127.821 192.487 127.719 192.946 127.515 193.396C127.317 193.846 127.053 194.257 126.723 194.629C126.399 195.001 126.048 195.304 125.67 195.538ZM134.131 193.216C133.219 193.216 132.427 193.048 131.755 192.712C131.083 192.376 130.561 191.908 130.189 191.308C129.823 190.708 129.64 190.012 129.64 189.22C129.64 188.488 129.829 187.855 130.207 187.321C130.591 186.781 131.104 186.37 131.746 186.088C131.476 185.95 131.218 185.761 130.972 185.521C130.726 185.281 130.525 184.993 130.369 184.657C130.219 184.315 130.144 183.931 130.144 183.505C130.144 182.857 130.303 182.284 130.621 181.786C130.945 181.288 131.404 180.898 131.998 180.616C132.598 180.328 133.309 180.184 134.131 180.184C134.959 180.184 135.67 180.328 136.264 180.616C136.864 180.898 137.326 181.288 137.65 181.786C137.974 182.284 138.136 182.857 138.136 183.505C138.136 183.919 138.058 184.297 137.902 184.639C137.746 184.975 137.545 185.266 137.299 185.512C137.053 185.752 136.792 185.938 136.516 186.07C137.146 186.346 137.659 186.76 138.055 187.312C138.451 187.864 138.649 188.5 138.649 189.22C138.649 190.012 138.466 190.708 138.1 191.308C137.734 191.908 137.212 192.376 136.534 192.712C135.856 193.048 135.055 193.216 134.131 193.216ZM134.131 191.128C134.551 191.128 134.926 191.047 135.256 190.885C135.586 190.717 135.844 190.486 136.03 190.192C136.222 189.892 136.318 189.547 136.318 189.157C136.318 188.779 136.225 188.443 136.039 188.149C135.853 187.849 135.595 187.615 135.265 187.447C134.935 187.279 134.557 187.195 134.131 187.195C133.699 187.195 133.318 187.279 132.988 187.447C132.664 187.615 132.412 187.849 132.232 188.149C132.052 188.443 131.962 188.779 131.962 189.157C131.962 189.547 132.052 189.892 132.232 190.192C132.418 190.486 132.673 190.717 132.997 190.885C133.327 191.047 133.705 191.128 134.131 191.128ZM134.131 185.134C134.641 185.134 135.049 184.996 135.355 184.72C135.667 184.444 135.823 184.099 135.823 183.685C135.823 183.253 135.664 182.902 135.346 182.632C135.034 182.362 134.629 182.227 134.131 182.227C133.615 182.227 133.207 182.362 132.907 182.632C132.607 182.902 132.457 183.253 132.457 183.685C132.457 184.099 132.604 184.444 132.898 184.72C133.192 184.996 133.603 185.134 134.131 185.134ZM144.866 193.216C144.23 193.216 143.657 193.15 143.147 193.018C142.637 192.892 142.193 192.73 141.815 192.532C141.437 192.328 141.128 192.124 140.888 191.92L142.139 190.093C142.355 190.255 142.595 190.408 142.859 190.552C143.129 190.69 143.426 190.804 143.75 190.894C144.08 190.984 144.449 191.029 144.857 191.029C145.343 191.029 145.769 190.939 146.135 190.759C146.507 190.579 146.798 190.324 147.008 189.994C147.218 189.664 147.323 189.274 147.323 188.824C147.323 188.434 147.248 188.092 147.098 187.798C146.954 187.498 146.744 187.264 146.468 187.096C146.198 186.922 145.865 186.835 145.469 186.835C144.971 186.835 144.554 186.925 144.218 187.105C143.882 187.279 143.591 187.507 143.345 187.789L141.275 186.79L141.707 180.4H148.853V182.623H143.831L143.606 185.107C143.894 184.963 144.197 184.849 144.515 184.765C144.833 184.675 145.172 184.63 145.532 184.63C146.414 184.63 147.161 184.816 147.773 185.188C148.391 185.56 148.859 186.061 149.177 186.691C149.501 187.321 149.663 188.023 149.663 188.797C149.663 189.673 149.456 190.444 149.042 191.11C148.634 191.77 148.07 192.286 147.35 192.658C146.63 193.03 145.802 193.216 144.866 193.216ZM156.69 193.216C155.79 193.216 155.043 193.027 154.449 192.649C153.855 192.265 153.384 191.755 153.036 191.119C152.688 190.483 152.439 189.781 152.289 189.013C152.145 188.245 152.073 187.474 152.073 186.7C152.073 186.088 152.118 185.473 152.208 184.855C152.298 184.231 152.445 183.64 152.649 183.082C152.859 182.524 153.141 182.029 153.495 181.597C153.849 181.159 154.287 180.814 154.809 180.562C155.337 180.31 155.964 180.184 156.69 180.184C157.584 180.184 158.328 180.373 158.922 180.751C159.522 181.129 159.993 181.633 160.335 182.263C160.683 182.893 160.929 183.595 161.073 184.369C161.223 185.137 161.298 185.914 161.298 186.7C161.298 187.312 161.253 187.927 161.163 188.545C161.073 189.163 160.923 189.751 160.713 190.309C160.503 190.867 160.221 191.365 159.867 191.803C159.513 192.241 159.075 192.586 158.553 192.838C158.031 193.09 157.41 193.216 156.69 193.216ZM156.69 191.02C157.134 191.02 157.5 190.897 157.788 190.651C158.082 190.399 158.313 190.066 158.481 189.652C158.655 189.238 158.778 188.776 158.85 188.266C158.922 187.756 158.958 187.234 158.958 186.7C158.958 186.16 158.919 185.635 158.841 185.125C158.769 184.615 158.649 184.153 158.481 183.739C158.313 183.319 158.082 182.989 157.788 182.749C157.5 182.503 157.134 182.38 156.69 182.38C156.24 182.38 155.868 182.503 155.574 182.749C155.28 182.995 155.046 183.328 154.872 183.748C154.698 184.162 154.575 184.624 154.503 185.134C154.431 185.644 154.395 186.166 154.395 186.7C154.395 187.234 154.431 187.759 154.503 188.275C154.575 188.785 154.698 189.247 154.872 189.661C155.046 190.075 155.28 190.405 155.574 190.651C155.874 190.897 156.246 191.02 156.69 191.02ZM164.776 193.225C164.356 193.225 164.005 193.087 163.723 192.811C163.441 192.529 163.3 192.184 163.3 191.776C163.3 191.374 163.441 191.029 163.723 190.741C164.005 190.447 164.356 190.3 164.776 190.3C165.196 190.3 165.55 190.447 165.838 190.741C166.126 191.029 166.27 191.374 166.27 191.776C166.27 192.184 166.126 192.529 165.838 192.811C165.55 193.087 165.196 193.225 164.776 193.225ZM173.707 193V190.39H167.272V188.932L173.752 180.4H175.984V188.239H177.577V190.39H175.984V193H173.707ZM170.296 188.239H173.707V183.631L170.296 188.239ZM183.869 193.216C182.807 193.216 181.889 192.961 181.115 192.451C180.347 191.935 179.777 191.2 179.405 190.246L181.493 189.4C182.027 190.474 182.819 191.011 183.869 191.011C184.481 191.011 184.961 190.861 185.309 190.561C185.663 190.261 185.84 189.85 185.84 189.328C185.84 188.836 185.66 188.446 185.3 188.158C184.94 187.864 184.457 187.717 183.851 187.717H182.636V185.494H183.815C184.307 185.494 184.694 185.353 184.976 185.071C185.264 184.783 185.408 184.399 185.408 183.919C185.408 183.463 185.261 183.094 184.967 182.812C184.673 182.524 184.289 182.38 183.815 182.38C183.407 182.38 183.038 182.488 182.708 182.704C182.384 182.914 182.111 183.223 181.889 183.631L179.783 182.812C180.173 181.978 180.719 181.333 181.421 180.877C182.129 180.415 182.933 180.184 183.833 180.184C184.601 180.184 185.279 180.334 185.867 180.634C186.455 180.928 186.914 181.342 187.244 181.876C187.574 182.404 187.739 183.013 187.739 183.703C187.739 184.285 187.604 184.819 187.334 185.305C187.07 185.785 186.698 186.175 186.218 186.475C186.824 186.715 187.301 187.111 187.649 187.663C187.997 188.215 188.171 188.851 188.171 189.571C188.171 190.279 187.988 190.909 187.622 191.461C187.256 192.007 186.746 192.436 186.092 192.748C185.444 193.06 184.703 193.216 183.869 193.216Z" fill="#242424"/>
<rect x="91.25" y="159.5" width="369" height="57" stroke="#242424" stroke-opacity="0.1"/>
<g clip-path="url(#clip0_3424_19507)">
<rect x="470.75" y="159" width="120" height="58" fill="#60034C"/>
<path d="M518.462 193.36V182.86H522.992C523.847 182.86 524.522 182.998 525.017 183.273C525.512 183.543 525.864 183.895 526.074 184.33C526.284 184.76 526.389 185.21 526.389 185.68C526.389 186.15 526.287 186.58 526.082 186.97C525.877 187.355 525.542 187.653 525.077 187.863C525.457 187.998 525.769 188.193 526.014 188.448C526.264 188.698 526.447 188.983 526.562 189.303C526.682 189.618 526.742 189.938 526.742 190.263C526.742 190.633 526.679 191.003 526.554 191.373C526.434 191.738 526.237 192.07 525.962 192.37C525.687 192.67 525.322 192.91 524.867 193.09C524.417 193.27 523.862 193.36 523.202 193.36H518.462ZM520.404 191.538H523.329C523.704 191.538 523.997 191.473 524.207 191.343C524.422 191.213 524.572 191.05 524.657 190.855C524.747 190.655 524.792 190.458 524.792 190.263C524.792 190.023 524.739 189.795 524.634 189.58C524.534 189.36 524.347 189.18 524.072 189.04C523.802 188.9 523.409 188.83 522.894 188.83H520.404V191.538ZM520.404 187.083H522.752C523.322 187.083 523.742 186.973 524.012 186.753C524.287 186.528 524.424 186.23 524.424 185.86C524.424 185.67 524.389 185.485 524.319 185.305C524.249 185.12 524.114 184.968 523.914 184.848C523.714 184.728 523.419 184.668 523.029 184.668H520.404V187.083ZM531.361 193.54C530.506 193.54 529.843 193.275 529.373 192.745C528.903 192.21 528.668 191.455 528.668 190.48V185.695H530.543V189.895C530.543 190.54 530.653 191.01 530.873 191.305C531.093 191.6 531.441 191.748 531.916 191.748C532.426 191.748 532.801 191.6 533.041 191.305C533.286 191.005 533.408 190.545 533.408 189.925V185.695H535.276V193.36H533.408V192.64C533.173 192.94 532.883 193.165 532.538 193.315C532.198 193.465 531.806 193.54 531.361 193.54ZM538.624 196.27L539.787 193.225L536.914 185.695H538.842L540.514 190.18C540.559 190.285 540.602 190.4 540.642 190.525C540.682 190.65 540.719 190.775 540.754 190.9C540.784 190.775 540.819 190.653 540.859 190.533C540.904 190.408 540.949 190.29 540.994 190.18L542.667 185.695H544.594L540.559 196.27H538.624Z" fill="white"/>
</g>
<g clip-path="url(#clip1_3424_19507)">
<rect x="90.75" y="257" width="476" height="16" rx="5" fill="#FBECE6"/>
<rect x="90.75" y="257" width="37.8996" height="16" rx="5" fill="#38BB55"/>
</g>
<rect x="574.75" y="257" width="16" height="16" rx="8" fill="#333333"/>
<rect x="582.148" y="261.913" width="1.20466" height="1.47851" rx="0.602328" fill="white"/>
<rect x="582.148" y="264.392" width="1.20466" height="3.69627" rx="0.602328" fill="white"/>
<g clip-path="url(#clip2_3424_19507)">
<rect x="90.75" y="297" width="476" height="16" rx="5" fill="#FBECE6"/>
<rect x="90.75" y="297" width="175.65" height="16" rx="5" fill="#800000"/>
</g>
<rect x="574.75" y="297" width="16" height="16" rx="8" fill="#333333"/>
<rect x="582.148" y="301.913" width="1.20466" height="1.47851" rx="0.602328" fill="white"/>
<rect x="582.148" y="304.392" width="1.20466" height="3.69627" rx="0.602328" fill="white"/>
<g clip-path="url(#clip3_3424_19507)">
<rect x="90.75" y="337" width="476" height="16" rx="5" fill="#FBECE6"/>
<rect x="90.75" y="337" width="105.682" height="16" rx="5" fill="#FFA654"/>
</g>
<rect x="574.75" y="337" width="16" height="16" rx="8" fill="#333333"/>
<rect x="582.148" y="341.913" width="1.20466" height="1.47851" rx="0.602328" fill="white"/>
<rect x="582.148" y="344.392" width="1.20466" height="3.69627" rx="0.602328" fill="white"/>
<rect x="61.25" y="68.5" width="559" height="334" stroke="#242424" stroke-opacity="0.12" shape-rendering="crispEdges"/>
</g>
<path d="M45.75 68H60.75V83L45.75 68Z" fill="#480139"/>
<path d="M635.75 68H620.75V83L635.75 68Z" fill="#480139"/>
<defs>
<filter id="filter0_d_3424_19507" x="0.75" y="18" width="680" height="455" filterUnits="userSpaceOnUse" color-interpolation-filters="sRGB">
<feFlood flood-opacity="0" result="BackgroundImageFix"/>
<feColorMatrix in="SourceAlpha" type="matrix" values="0 0 0 0 0 0 0 0 0 0 0 0 0 0 0 0 0 0 127 0" result="hardAlpha"/>
<feOffset dy="10"/>
<feGaussianBlur stdDeviation="30"/>
<feComposite in2="hardAlpha" operator="out"/>
<feColorMatrix type="matrix" values="0 0 0 0 0 0 0 0 0 0 0 0 0 0 0 0 0 0 0.04 0"/>
<feBlend mode="normal" in2="BackgroundImageFix" result="effect1_dropShadow_3424_19507"/>
<feBlend mode="normal" in="SourceGraphic" in2="effect1_dropShadow_3424_19507" result="shape"/>
</filter>
<clipPath id="clip0_3424_19507">
<rect width="120" height="69.6" fill="white" transform="translate(470.75 154.36)"/>
</clipPath>
<clipPath id="clip1_3424_19507">
<rect x="90.75" y="257" width="476" height="16" rx="5" fill="white"/>
</clipPath>
<clipPath id="clip2_3424_19507">
<rect x="90.75" y="297" width="476" height="16" rx="5" fill="white"/>
</clipPath>
<clipPath id="clip3_3424_19507">
<rect x="90.75" y="337" width="476" height="16" rx="5" fill="white"/>
</clipPath>
</defs>
</svg>
