<svg width="64" height="65" viewBox="0 0 64 65" fill="none" xmlns="http://www.w3.org/2000/svg">
<path fill-rule="evenodd" clip-rule="evenodd" d="M50.6667 56.0264H13.3333C10.3867 56.0264 8 53.6397 8 50.693V13.3597C8 10.413 10.3867 8.02637 13.3333 8.02637H50.6667C53.6133 8.02637 56 10.413 56 13.3597V50.693C56 53.6397 53.6133 56.0264 50.6667 56.0264Z" stroke="#60034C" stroke-width="3" stroke-linecap="round" stroke-linejoin="round"/>
<path d="M23.9993 18.6929V24.0262" stroke="#60034C" stroke-width="3" stroke-linecap="round" stroke-linejoin="round"/>
<path d="M23.9993 32.0264V45.3597" stroke="#60034C" stroke-width="3" stroke-linecap="round" stroke-linejoin="round"/>
<path d="M39.9993 18.6929V32.0262" stroke="#60034C" stroke-width="3" stroke-linecap="round" stroke-linejoin="round"/>
<path d="M39.9993 40.0264V45.3597" stroke="#60034C" stroke-width="3" stroke-linecap="round" stroke-linejoin="round"/>
<path fill-rule="evenodd" clip-rule="evenodd" d="M26.666 32.0264H21.3327C19.8607 32.0264 18.666 30.8317 18.666 29.3597V26.693C18.666 25.221 19.8607 24.0264 21.3327 24.0264H26.666C28.138 24.0264 29.3327 25.221 29.3327 26.693V29.3597C29.3327 30.8317 28.138 32.0264 26.666 32.0264Z" stroke="#60034C" stroke-width="3" stroke-linecap="round" stroke-linejoin="round"/>
<path fill-rule="evenodd" clip-rule="evenodd" d="M42.666 40.0264H37.3327C35.8607 40.0264 34.666 38.8317 34.666 37.3597V34.693C34.666 33.221 35.8607 32.0264 37.3327 32.0264H42.666C44.138 32.0264 45.3327 33.221 45.3327 34.693V37.3597C45.3327 38.8317 44.138 40.0264 42.666 40.0264Z" stroke="#60034C" stroke-width="3" stroke-linecap="round" stroke-linejoin="round"/>
</svg>
