<svg width="24" height="25" viewBox="0 0 24 25" fill="none" xmlns="http://www.w3.org/2000/svg">
<path d="M20.8844 7.48591C20.8991 7.68326 20.8991 7.87948 20.8991 8.07569C20.8991 14.0805 16.3286 21 7.97583 21C5.40247 21 3.01178 20.2546 1 18.96C1.36537 19.0017 1.71721 19.0164 2.09723 19.0164C4.14171 19.0214 6.1283 18.3378 7.73677 17.0757C6.78886 17.0585 5.86998 16.7458 5.10841 16.1812C4.34684 15.6166 3.78061 14.8281 3.48879 13.9261C3.76958 13.9678 4.0515 13.996 4.34696 13.996C4.75405 13.996 5.1634 13.9396 5.54343 13.8415C4.51471 13.6339 3.58969 13.0762 2.92565 12.2635C2.2616 11.4509 1.89954 10.4333 1.90102 9.3838V9.32742C2.50658 9.66459 3.20913 9.87543 3.9534 9.90362C3.32989 9.48934 2.81863 8.92712 2.46524 8.26716C2.11185 7.60721 1.9273 6.87004 1.92808 6.12142C1.92808 5.27792 2.15249 4.50433 2.54605 3.82997C3.68742 5.23396 5.11096 6.38255 6.72449 7.20136C8.33801 8.02016 10.1056 8.49093 11.9126 8.58315C11.8427 8.24484 11.7998 7.89414 11.7998 7.5423C11.7995 6.94571 11.9167 6.35492 12.145 5.80369C12.3731 5.25246 12.7077 4.7516 13.1296 4.32975C13.5514 3.9079 14.0522 3.57332 14.6034 3.34516C15.1548 3.117 15.7456 2.99971 16.3421 3C17.6502 3 18.8309 3.54805 19.6609 4.43441C20.6778 4.23777 21.6529 3.86654 22.5432 3.33718C22.2042 4.38684 21.4942 5.27691 20.5461 5.84063C21.448 5.73776 22.3294 5.50059 23.1612 5.13696C22.5399 6.0426 21.7702 6.83677 20.8844 7.48591Z" fill="white"/>
</svg>
