<svg width="48" height="48" viewBox="0 0 48 48" fill="none" xmlns="http://www.w3.org/2000/svg">
<rect width="48" height="48" rx="24" fill="#60034C" fill-opacity="0.1"/>
<path fill-rule="evenodd" clip-rule="evenodd" d="M24 13.7503C21.1005 13.7503 18.75 16.1008 18.75 19.0003C18.75 21.8998 21.1005 24.2503 24 24.2503C26.8995 24.2503 29.25 21.8998 29.25 19.0003C29.25 16.1008 26.8995 13.7503 24 13.7503ZM15.75 19.0003C15.75 14.444 19.4437 10.7503 24 10.7503C28.5563 10.7503 32.25 14.444 32.25 19.0003C32.25 23.5567 28.5563 27.2503 24 27.2503C19.4437 27.2503 15.75 23.5567 15.75 19.0003Z" fill="#60034C"/>
<path d="M27.863 30.2503C28.885 30.2509 29.8882 30.4515 30.8179 30.8312C31.6839 31.1849 32.487 31.6942 33.1844 32.342C34.0423 33.1348 34.7115 34.1098 35.1429 35.1954C35.4489 35.9652 35.0728 36.8373 34.3029 37.1433C33.533 37.4492 32.6609 37.0731 32.355 36.3033C32.089 35.634 31.6763 35.0329 31.1472 34.5442L31.1437 34.541C30.7135 34.141 30.218 33.8268 29.6835 33.6085C29.1105 33.3744 28.4928 33.2508 27.863 33.2503H20.1371C19.5073 33.2508 18.8896 33.3744 18.3166 33.6085C17.7821 33.8268 17.2866 34.141 16.8564 34.541L16.8529 34.5442C16.3238 35.0329 15.9111 35.634 15.6451 36.3033C15.3392 37.0731 14.4671 37.4492 13.6972 37.1433C12.9273 36.8373 12.5512 35.9652 12.8572 35.1954C13.2885 34.1098 13.9578 33.1348 14.8157 32.342C15.513 31.6942 16.3162 31.1849 17.1822 30.8312C18.1119 30.4515 19.1151 30.2509 20.1371 30.2503H27.863Z" fill="#60034C"/>
</svg>
