<svg width="17" height="14" viewBox="0 0 17 14" fill="none" xmlns="http://www.w3.org/2000/svg">
<path d="M15.8289 12.0312C16.0789 12.5 16.0789 12.9375 15.8289 13.3438C15.5789 13.7812 15.2039 14 14.6726 14H1.36011C0.797606 14 0.422606 13.7812 0.203856 13.3438C-0.0461445 12.9375 -0.0773945 12.5 0.172606 12.0312L6.82886 0.65625C7.14136 0.21875 7.51636 0 8.01636 0C8.48511 0 8.86011 0.21875 9.17261 0.65625L15.8289 12.0312ZM1.67261 12.5H14.3601L7.98511 1.65625L1.67261 12.5ZM8.01636 9.53125C8.26636 9.53125 8.51636 9.625 8.70386 9.8125C8.89136 10 8.98511 10.25 8.98511 10.5312C8.98511 10.8125 8.89136 11.0312 8.70386 11.2188C8.51636 11.4062 8.26636 11.5 8.01636 11.5C7.73511 11.5 7.51636 11.4062 7.32886 11.2188C7.14136 11.0312 7.04761 10.8125 7.04761 10.5312C7.04761 10.25 7.14136 10 7.32886 9.8125C7.51636 9.625 7.73511 9.53125 8.01636 9.53125ZM7.26636 4.75C7.29761 4.3125 7.54761 4.0625 8.01636 4C8.45386 4.0625 8.70386 4.3125 8.76636 4.75V7.75C8.70386 8.21875 8.45386 8.46875 8.01636 8.5C7.54761 8.46875 7.29761 8.21875 7.26636 7.75V4.75Z" fill="#ED6663"/>
</svg>
