<svg width="127" height="51" viewBox="0 0 127 51" fill="none" xmlns="http://www.w3.org/2000/svg">
<g clip-path="url(#clip0_12319_13841)">
<g clip-path="url(#clip1_12319_13841)">
<path d="M5.9091 12.4313V20.4488H13.0555V12.4313H18.9724V34.955H13.0555V26.3659H5.9091V34.955H-0.0078125V12.4313H5.9091Z" fill="#081A66"/>
<path d="M44.227 27.0259H48.8218L46.5394 22.0716L44.227 27.0259ZM34.6474 34.955L45.1572 12.4313H47.8312L58.4318 34.955H52.515L51.1349 32.0105H41.9141L40.562 34.955H34.6474Z" fill="#081A66"/>
<path d="M74.0903 12.4313H80.0055V29.0077H88.1136V34.955H74.0903V12.4313Z" fill="#081A66"/>
<path d="M114.738 20.5763C113.03 20.5763 111.638 21.969 111.638 23.6919C111.638 25.3977 113.03 26.8093 114.738 26.8093C116.46 26.8093 117.853 25.3977 117.853 23.6919C117.853 21.969 116.46 20.5763 114.738 20.5763ZM114.729 12.4313C120.947 12.4313 125.992 17.5067 125.992 23.722C125.992 29.9384 120.947 34.955 114.729 34.955C108.514 34.955 103.499 29.9384 103.499 23.722C103.499 17.5067 108.514 12.4313 114.729 12.4313Z" fill="#081A66"/>
<path d="M114.738 0.0742188C113.03 0.0742188 111.638 1.46857 111.638 3.19162C111.638 4.89751 113.03 6.30698 114.738 6.30698C116.46 6.30698 117.853 4.89751 117.853 3.19162C117.853 1.46856 116.46 0.0742188 114.738 0.0742188Z" fill="#081A66"/>
</g>
</g>
<defs>
<clipPath id="clip0_12319_13841">
<rect width="126.031" height="35" fill="white"/>
</clipPath>
<clipPath id="clip1_12319_13841">
<rect width="126.031" height="35" fill="white"/>
</clipPath>
</defs>
</svg>
