<svg width="18" height="18" viewBox="0 0 18 18" fill="none" xmlns="http://www.w3.org/2000/svg">
<path d="M8.35234 12.632L2.89609 7.17578C2.76484 7.04453 2.69922 6.88516 2.69922 6.69766C2.69922 6.51016 2.76484 6.35078 2.89609 6.21953L3.51484 5.60078C3.64609 5.46953 3.80547 5.40391 3.99297 5.40391C4.18047 5.38516 4.33984 5.44141 4.47109 5.57266L8.83047 9.93203L13.1898 5.57266C13.3211 5.44141 13.4805 5.38516 13.668 5.40391C13.8555 5.40391 14.0148 5.46953 14.1461 5.60078L14.7648 6.21953C14.8961 6.35078 14.9617 6.51016 14.9617 6.69766C14.9617 6.88516 14.8961 7.04453 14.7648 7.17578L9.30859 12.632C9.17734 12.782 9.01797 12.857 8.83047 12.857C8.64297 12.857 8.48359 12.782 8.35234 12.632Z" fill="#60034C"/>
</svg>
