<svg width="18" height="18" viewBox="0 0 18 18" fill="none" xmlns="http://www.w3.org/2000/svg">
<path d="M10.4289 8.54258L13.2414 5.73008C13.607 5.39258 13.607 4.83008 13.2414 4.49258L12.6227 3.87383C12.2852 3.5082 11.7227 3.5082 11.3852 3.87383L8.57266 6.68633L5.73203 3.87383C5.39453 3.5082 4.83203 3.5082 4.49453 3.87383L3.87578 4.49258C3.51016 4.83008 3.51016 5.39258 3.87578 5.73008L6.68828 8.54258L3.87578 11.3832C3.51016 11.7207 3.51016 12.2832 3.87578 12.6207L4.49453 13.2395C4.83203 13.6051 5.39453 13.6051 5.73203 13.2395L8.57266 10.427L11.3852 13.2395C11.7227 13.6051 12.2852 13.6051 12.6227 13.2395L13.2414 12.6207C13.607 12.2832 13.607 11.7207 13.2414 11.3832L10.4289 8.54258Z" fill="#ED6663"/>
</svg>
