<svg width="13" height="15" viewBox="0 0 13 15" fill="none" xmlns="http://www.w3.org/2000/svg">
<path d="M1.25 13.4375V4.25H11.75V13.4375C11.7227 13.8203 11.5859 14.1211 11.3672 14.3672C11.0938 14.6133 10.793 14.75 10.4375 14.75H2.5625C2.17969 14.75 1.87891 14.6133 1.63281 14.3672C1.38672 14.1211 1.25 13.8203 1.25 13.4375ZM8.6875 6.4375V12.5625C8.6875 12.8359 8.85156 13 9.125 13C9.39844 13 9.53516 12.8359 9.5625 12.5625V6.4375C9.53516 6.16406 9.39844 6.02734 9.125 6C8.85156 6.02734 8.6875 6.16406 8.6875 6.4375ZM6.0625 6.4375V12.5625C6.0625 12.8359 6.22656 13 6.5 13C6.77344 13 6.91016 12.8359 6.9375 12.5625V6.4375C6.91016 6.16406 6.77344 6.02734 6.5 6C6.22656 6.02734 6.0625 6.16406 6.0625 6.4375ZM3.4375 6.4375V12.5625C3.4375 12.8359 3.60156 13 3.875 13C4.14844 13 4.28516 12.8359 4.3125 12.5625V6.4375C4.28516 6.16406 4.14844 6.02734 3.875 6C3.60156 6.02734 3.4375 6.16406 3.4375 6.4375ZM12.1875 1.625C12.4609 1.65234 12.5977 1.78906 12.625 2.0625V2.9375C12.5977 3.21094 12.4609 3.375 12.1875 3.375H0.8125C0.539062 3.375 0.375 3.21094 0.375 2.9375V2.0625C0.375 1.78906 0.539062 1.65234 0.8125 1.625H3.875L4.20312 0.996094C4.25781 0.832031 4.39453 0.75 4.58594 0.75H8.41406C8.57812 0.75 8.71484 0.832031 8.79688 0.996094L9.125 1.625H12.1875Z" fill="#ED6663"/>
</svg>
