<svg width="18" height="18" viewBox="0 0 18 18" fill="none" xmlns="http://www.w3.org/2000/svg">
<path d="M10.375 14H11.125C11.3125 14 11.5 13.8438 11.5 13.625V6.875C11.5 6.6875 11.3125 6.5 11.125 6.5H10.375C10.1562 6.5 10 6.6875 10 6.875V13.625C10 13.8438 10.1562 14 10.375 14ZM15.5 3.5H12.9062L11.8438 1.75C11.5938 1.34375 11.0312 1 10.5625 1H7.40625C6.9375 1 6.375 1.34375 6.125 1.75L5.0625 3.5H2.5C2.21875 3.5 2 3.75 2 4V4.5C2 4.78125 2.21875 5 2.5 5H3V15.5C3 16.3438 3.65625 17 4.5 17H13.5C14.3125 17 15 16.3438 15 15.5V5H15.5C15.75 5 16 4.78125 16 4.5V4C16 3.75 15.75 3.5 15.5 3.5ZM7.34375 2.59375C7.375 2.5625 7.46875 2.5 7.5 2.5H7.53125H10.4688C10.5 2.5 10.5938 2.5625 10.625 2.59375L11.1562 3.5H6.8125L7.34375 2.59375ZM13.5 15.5H4.5V5H13.5V15.5ZM6.875 14H7.625C7.8125 14 8 13.8438 8 13.625V6.875C8 6.6875 7.8125 6.5 7.625 6.5H6.875C6.65625 6.5 6.5 6.6875 6.5 6.875V13.625C6.5 13.8438 6.65625 14 6.875 14Z" fill="#ED6663"/>
</svg>
