<svg width="18" height="18" viewBox="0 0 18 18" fill="none" xmlns="http://www.w3.org/2000/svg">
<path d="M15.8072 3.88002C16.0602 4.16113 16.2008 4.49846 16.2008 4.83579C16.2008 5.20124 16.0602 5.51046 15.7791 5.79157L14.1768 7.3939L10.6067 3.79569L12.209 2.19336C12.4901 1.94036 12.7993 1.7998 13.1648 1.7998C13.5021 1.7998 13.8395 1.94036 14.1206 2.19336L15.8072 3.88002ZM9.98825 4.41413L13.5865 8.01234L6.2776 15.3212C6.22137 15.3774 6.13704 15.4336 6.05271 15.4336L2.34205 16.1926C2.17339 16.2208 2.03283 16.1645 1.9485 16.0521C1.83606 15.9678 1.77983 15.8272 1.80794 15.6585L2.56694 11.9479C2.56694 11.8635 2.62316 11.7792 2.67939 11.723L9.98825 4.41413Z" fill="#60034C"/>
</svg>
