<svg width="14" height="14" viewBox="0 0 14 14" fill="none" xmlns="http://www.w3.org/2000/svg">
<path d="M13.8359 11.4026C14.0547 11.8127 14.0547 12.1956 13.8359 12.551C13.6172 12.9338 13.2891 13.1252 12.8242 13.1252H1.17578C0.683594 13.1252 0.355469 12.9338 0.164062 12.551C-0.0546875 12.1956 -0.0546875 11.8127 0.164062 11.4026L5.98828 1.44946C6.23438 1.06665 6.5625 0.875244 7 0.875244C7.41016 0.875244 7.73828 1.06665 8.01172 1.44946L13.8359 11.4026ZM6.34375 4.59399V8.09399C6.34375 8.2854 6.39844 8.44946 6.5625 8.55884C6.67188 8.69556 6.83594 8.75024 7.02734 8.75024C7.41016 8.7229 7.60156 8.50415 7.65625 8.09399V4.59399C7.60156 4.21118 7.38281 3.99243 7 3.93774C6.58984 3.99243 6.37109 4.21118 6.34375 4.59399ZM7 11.3752C7.21875 11.3752 7.4375 11.2932 7.60156 11.1292C7.76562 10.9651 7.84766 10.7737 7.84766 10.5276C7.84766 10.2815 7.76562 10.0627 7.60156 9.89868C7.4375 9.73462 7.21875 9.65259 7 9.65259C6.75391 9.65259 6.5625 9.73462 6.39844 9.89868C6.23438 10.0627 6.15234 10.2815 6.15234 10.5276C6.15234 10.7737 6.23438 10.9651 6.39844 11.1292C6.5625 11.2932 6.75391 11.3752 7 11.3752Z" fill="#FFA654"/>
</svg>
