<svg width="18" height="18" viewBox="0 0 18 18" fill="none" xmlns="http://www.w3.org/2000/svg">
<path d="M15.5 4C15.9062 4.03125 16.25 4.1875 16.5625 4.4375C16.8125 4.75 16.9688 5.09375 17 5.5V14.5C16.9688 14.9375 16.8125 15.2812 16.5625 15.5625C16.25 15.8438 15.9062 16 15.5 16H2.5C2.0625 16 1.71875 15.8438 1.4375 15.5625C1.15625 15.2812 1 14.9375 1 14.5V3.5C1 3.09375 1.15625 2.75 1.4375 2.4375C1.71875 2.1875 2.0625 2.03125 2.5 2H7.5L9.5 4H15.5ZM15 11.4688V6H10V11.4688C10 11.7188 10.0938 11.875 10.2812 11.9375C10.4375 12.0312 10.625 12.0312 10.8125 11.9062L12.5 10.5312L14.2188 11.875C14.375 12 14.5312 12.0312 14.7188 11.9375C14.875 11.8438 14.9688 11.6875 15 11.4688Z" fill="#60034C"/>
</svg>
