<svg width="18" height="18" viewBox="0 0 18 18" fill="none" xmlns="http://www.w3.org/2000/svg">
<path d="M16.5199 9.45136H9.54296L14.1943 14.1321C14.3709 14.3087 14.6653 14.3087 14.8419 14.1321C15.99 13.0723 16.7848 11.6298 16.9909 9.98125C17.0498 9.71631 16.8143 9.45136 16.5199 9.45136ZM16.0489 7.56729C15.8134 4.03467 13.0167 1.238 9.48409 1.0025C9.21914 0.973057 9.01307 1.20857 9.01307 1.47351V8.03831H15.5779C15.8428 8.03831 16.0783 7.83224 16.0489 7.56729ZM7.60002 9.45136V2.47442C7.60002 2.20948 7.33507 1.97397 7.07013 2.00341C3.5375 2.50386 0.858592 5.56547 1.00579 9.24529C1.12354 13.0134 4.36178 16.1045 8.15935 16.0456C9.63128 16.0456 11.0149 15.5746 12.1336 14.7503C12.3691 14.6031 12.3691 14.2498 12.163 14.0438L7.60002 9.45136Z" fill="#60034C"/>
</svg>
