<svg width="36" height="36" viewBox="0 0 36 36" fill="none" xmlns="http://www.w3.org/2000/svg">
<rect width="36" height="36" rx="4" fill="#ED6663"/>
<path d="M13 25C12.125 25 11.4375 24.6875 10.875 24.125C10.3125 23.5625 10 22.875 10 22V14C10 13.1562 10.3125 12.4375 10.875 11.875C11.4375 11.3125 12.125 11.0312 13 11H15C15.2812 11 15.5312 11.0938 15.7188 11.2812C15.9062 11.4688 16 11.7188 16 12C16 12.3125 15.9062 12.5312 15.7188 12.7188C15.5312 12.9062 15.2812 13 15 13H13C12.6875 13 12.4688 13.0938 12.2812 13.2812C12.0938 13.4688 12 13.7188 12 14V22C12 22.3125 12.0938 22.5312 12.2812 22.7188C12.4688 22.9062 12.6875 23 13 23H15C15.2812 23 15.5312 23.0938 15.7188 23.2812C15.9062 23.4688 16 23.7188 16 24C16 24.3125 15.9062 24.5312 15.7188 24.7188C15.5312 24.9062 15.2812 25 15 25H13ZM25.7812 17.4688C25.9062 17.625 26 17.8125 26 18C26 18.2188 25.9062 18.4062 25.7812 18.5312L21.2812 22.7812C21.0312 23 20.75 23.0312 20.4688 22.9062C20.1562 22.7812 20 22.5312 20 22.2188V20H16C15.6875 20 15.4688 19.9062 15.2812 19.7188C15.0938 19.5312 15 19.3125 15 19V17C15 16.7188 15.0938 16.4688 15.2812 16.2812C15.4688 16.0938 15.6875 16 16 16H20V13.75C20 13.4375 20.1562 13.2188 20.4688 13.0625C20.75 12.9375 21.0312 13 21.2812 13.2188L25.7812 17.4688Z" fill="white"/>
</svg>
