<svg width="18" height="18" viewBox="0 0 18 18" fill="none" xmlns="http://www.w3.org/2000/svg">
<path d="M5.53338 9.06662C5.50005 8.53328 5.33338 8.09995 5.00005 7.73328C4.63338 7.39995 4.20005 7.23328 3.66672 7.19995C3.13338 7.23328 2.66672 7.39995 2.33338 7.73328C2.00005 8.09995 1.80005 8.53328 1.80005 9.06662C1.80005 9.59995 2.00005 10.0666 2.33338 10.4C2.66672 10.7333 3.13338 10.9333 3.66672 10.9333C4.20005 10.9333 4.63338 10.7333 5.00005 10.4C5.33338 10.0666 5.50005 9.59995 5.53338 9.06662ZM10.8667 9.06662C10.8334 8.53328 10.6667 8.09995 10.3334 7.73328C9.96672 7.39995 9.53338 7.23328 9.00005 7.19995C8.46672 7.23328 8.00005 7.39995 7.66672 7.73328C7.33338 8.09995 7.13338 8.53328 7.13338 9.06662C7.13338 9.59995 7.33338 10.0666 7.66672 10.4C8.00005 10.7333 8.46672 10.9333 9.00005 10.9333C9.53338 10.9333 9.96672 10.7333 10.3334 10.4C10.6667 10.0666 10.8334 9.59995 10.8667 9.06662ZM12.4667 9.06662C12.4667 9.59995 12.6667 10.0666 13 10.4C13.3334 10.7333 13.8 10.9333 14.3334 10.9333C14.8667 10.9333 15.3 10.7333 15.6667 10.4C16 10.0666 16.1667 9.59995 16.2 9.06662C16.1667 8.53328 16 8.09995 15.6667 7.73328C15.3 7.39995 14.8667 7.23328 14.3334 7.19995C13.8 7.23328 13.3334 7.39995 13 7.73328C12.6667 8.09995 12.4667 8.53328 12.4667 9.06662Z" fill="#60034C"/>
</svg>
