<svg width="18" height="18" viewBox="0 0 18 18" fill="none" xmlns="http://www.w3.org/2000/svg">
<path d="M15.5312 5.0625L12.9375 2.46875C12.6875 2.21875 12.2188 2 11.875 2H3.5C2.65625 2 2 2.6875 2 3.5V14.5C2 15.3438 2.65625 16 3.5 16H14.5C15.3125 16 16 15.3438 16 14.5V6.125C16 5.78125 15.7812 5.3125 15.5312 5.0625ZM9 14C7.875 14 7 13.125 7 12C7 10.9062 7.875 10 9 10C10.0938 10 11 10.9062 11 12C11 13.125 10.0938 14 9 14ZM12 4.5V7.625C12 7.84375 11.8125 8 11.625 8H4.375C4.15625 8 4 7.84375 4 7.625V4.375C4 4.1875 4.15625 4 4.375 4H11.5C11.5938 4 11.6875 4.0625 11.7812 4.125L11.875 4.21875C11.9375 4.28125 12 4.40625 12 4.5Z" fill="#60034C"/>
</svg>
