<svg width="20" height="20" viewBox="0 0 20 20" fill="none" xmlns="http://www.w3.org/2000/svg">
<path d="M17.75 16.7188C18.0625 17.0938 18.0625 17.4375 17.7812 17.7812C17.625 17.9375 17.4375 18 17.25 18C17.0625 18 16.875 17.9375 16.6875 17.7812L12.5 13.5938C11.375 14.5312 10.0312 15 8.46875 15C6.625 14.9688 5.09375 14.3438 3.90625 13.0938C2.65625 11.875 2.03125 10.3438 2 8.5C2.03125 6.6875 2.65625 5.15625 3.875 3.90625C5.09375 2.6875 6.625 2.0625 8.46875 2C10.2812 2.0625 11.8125 2.6875 13.0625 3.90625C14.2812 5.15625 14.9062 6.6875 14.9688 8.5C14.9375 10.0625 14.4688 11.4062 13.5625 12.5312L17.75 16.7188ZM3.5 8.5C3.53125 9.9375 4.03125 11.0938 4.96875 12.0312C5.90625 12.9688 7.0625 13.4688 8.5 13.5C9.90625 13.4688 11.0938 12.9688 12.0312 12.0312C12.9688 11.0938 13.4375 9.9375 13.5 8.5C13.4375 7.09375 12.9688 5.90625 12.0312 4.96875C11.0938 4.03125 9.90625 3.5625 8.5 3.5C7.0625 3.5625 5.90625 4.03125 4.96875 4.96875C4.03125 5.90625 3.53125 7.09375 3.5 8.5Z" fill="#E58B76"/>
</svg>
