<svg width="18" height="22" viewBox="0 0 18 22" fill="none" xmlns="http://www.w3.org/2000/svg">
<path d="M6.01259 20.4339C2.39108 18.5336 0.140945 14.8048 0.140945 10.7017V4.3822C0.140945 3.84072 0.572602 3.40134 1.11159 3.34944C3.73052 3.09726 6.2307 2.12409 8.33439 0.534837C8.72683 0.23837 9.27318 0.238367 9.6656 0.534859C11.7692 2.12422 14.2691 3.09839 16.8879 3.34979C17.4271 3.40156 17.8591 3.84102 17.8591 4.3827V10.7017C17.8591 14.8048 15.6089 18.5353 11.9874 20.4339L9.46429 21.7566C9.17353 21.909 8.82648 21.909 8.53571 21.7566L6.01259 20.4339Z" fill="#ED6663"/>
<path d="M7.8574 13.4796C7.99582 13.6188 8.23114 13.6188 8.36956 13.4796L12.4392 9.38869C12.5776 9.24955 12.5776 9.01299 12.4392 8.87385L11.9409 8.37292C11.8024 8.23377 11.581 8.23377 11.4426 8.37292L8.1204 11.7125L6.55623 10.154C6.4178 10.0149 6.19633 10.0149 6.0579 10.154L5.55958 10.6549C5.42116 10.7941 5.42116 11.0306 5.55958 11.1698L7.8574 13.4796Z" fill="white"/>
</svg>
