<svg width="15" height="6" viewBox="0 0 15 6" fill="none" xmlns="http://www.w3.org/2000/svg">
<path d="M2.48303 3.20724L5.01698 5.13235C6.53972 6.28922 8.46029 6.28922 9.98302 5.13235L12.517 3.20724C13.2637 2.63995 14.1232 2 15 2V0H0V2C0.87676 2 1.73633 2.63995 2.48303 3.20724Z" fill="white"/>
<path d="M3.08797 2.41097L5.62193 4.33609C6.78711 5.2213 8.21289 5.2213 9.37807 4.33609L11.912 2.41097C12.2786 2.13246 12.7353 1.78685 13.226 1.51564C13.4592 1.38678 13.7189 1.26378 14 1.17025L14.5 1H15V2C14.1232 2 13.2637 2.63995 12.517 3.20724L9.98302 5.13235C8.46029 6.28922 6.53972 6.28922 5.01698 5.13235L2.48303 3.20724C1.73633 2.63995 0.87676 2 0 2V1H0.5L1 1.17025C1.28112 1.26378 1.54078 1.38678 1.77396 1.51564C2.26474 1.78685 2.72138 2.13246 3.08797 2.41097Z" fill="#E58B76"/>
</svg>
