<svg width="36" height="36" viewBox="0 0 36 36" fill="none" xmlns="http://www.w3.org/2000/svg">
<rect width="36" height="36" rx="4" fill="#60034C"/>
<path d="M10 15V13C10 12.7188 10.0938 12.4688 10.2812 12.2812C10.4688 12.0938 10.6875 12 11 12H25C25.2812 12 25.5312 12.0938 25.7188 12.2812C25.9062 12.4688 26 12.7188 26 13V15C26 15.3125 26.0938 15.5312 26.2812 15.7188C26.4688 15.9062 26.6875 16 27 16C27.2812 16 27.5312 15.9062 27.7188 15.7188C27.9062 15.5312 28 15.3125 28 15V13C27.9688 12.1562 27.6875 11.4375 27.125 10.875C26.5625 10.3125 25.8438 10.0312 25 10H11C10.125 10.0312 9.4375 10.3125 8.875 10.875C8.3125 11.4375 8 12.1562 8 13V15C8 15.3125 8.09375 15.5312 8.28125 15.7188C8.46875 15.9062 8.6875 16 9 16C9.28125 16 9.53125 15.9062 9.71875 15.7188C9.90625 15.5312 10 15.3125 10 15ZM12 13V24C12 24.5625 12.2188 25.0312 12.5938 25.4062C12.9688 25.7812 13.4375 26 14 26H22C22.5625 26 23.0312 25.7812 23.4062 25.4062C23.7812 25.0312 23.9688 24.5625 24 24V13H12ZM16 24H14V22C14.5625 22.0312 15.0312 22.2188 15.4062 22.5938C15.7812 22.9688 15.9688 23.4375 16 24ZM22 22V24H20C20 23.4375 20.2188 22.9688 20.5938 22.5938C20.9688 22.2188 21.4375 22.0312 22 22ZM21 18.5C20.9688 19.2188 20.6875 19.8125 20.125 20.2812C19.5625 20.75 18.8438 21 18 21C17.125 21 16.4375 20.75 15.875 20.2812C15.3125 19.8125 15 19.2188 15 18.5C15 17.8125 15.3125 17.2188 15.875 16.7188C16.4375 16.2812 17.125 16.0312 18 16C18.8438 16.0312 19.5625 16.2812 20.125 16.7188C20.6875 17.2188 20.9688 17.8125 21 18.5Z" fill="white"/>
</svg>
