<svg width="668" height="382" viewBox="0 0 668 382" fill="none" xmlns="http://www.w3.org/2000/svg">
<g clip-path="url(#clip0_3370_6063)">
<rect width="668" height="382" rx="8" fill="white"/>
<rect width="668" height="86" fill="#60034C" fill-opacity="0.1"/>
<path d="M17.5781 21H21.125L25.875 32.5937H26.0625L30.8125 21H34.3594V37H31.5781V26.0078H31.4297L27.0078 36.9531H24.9297L20.5078 25.9844H20.3594V37H17.5781V21ZM39.8595 37H36.7658L42.3986 21H45.9767L51.6174 37H48.5236L44.2502 24.2812H44.1252L39.8595 37ZM39.9611 30.7266H48.3986V33.0547H39.9611V30.7266ZM54.014 37V21H60.014C61.2432 21 62.2744 21.2135 63.1078 21.6406C63.9463 22.0677 64.5791 22.6667 65.0062 23.4375C65.4385 24.2031 65.6546 25.0964 65.6546 26.1172C65.6546 27.1432 65.4359 28.0339 64.9984 28.7891C64.5661 29.5391 63.9281 30.1198 63.0843 30.5312C62.2406 30.9375 61.2041 31.1406 59.9749 31.1406H55.7015V28.7344H59.5843C60.3031 28.7344 60.8916 28.6354 61.3499 28.4375C61.8083 28.2344 62.1468 27.9401 62.3656 27.5547C62.5895 27.1641 62.7015 26.6849 62.7015 26.1172C62.7015 25.5495 62.5895 25.0651 62.3656 24.6641C62.1416 24.2578 61.8005 23.9505 61.3421 23.7422C60.8838 23.5286 60.2927 23.4219 59.5687 23.4219H56.9124V37H54.014ZM62.2796 29.75L66.2406 37H63.0062L59.1156 29.75H62.2796ZM68.6118 37V21H71.5103V28.3516H71.7056L77.9478 21H81.4868L75.2993 28.1797L81.5415 37H78.0571L73.2837 30.1406L71.5103 32.2344V37H68.6118ZM83.7897 37V21H94.196V23.4297H86.6882V27.7734H93.6569V30.2031H86.6882V34.5703H94.2585V37H83.7897ZM96.7391 23.4297V21H109.505V23.4297H104.559V37H101.684V23.4297H96.7391ZM118.001 37V21H124.001C125.23 21 126.262 21.2292 127.095 21.6875C127.933 22.1458 128.566 22.776 128.993 23.5781C129.426 24.375 129.642 25.2812 129.642 26.2969C129.642 27.3229 129.426 28.2344 128.993 29.0313C128.561 29.8281 127.923 30.4557 127.079 30.9141C126.236 31.3672 125.196 31.5937 123.962 31.5937H119.986V29.2109H123.571C124.29 29.2109 124.879 29.0859 125.337 28.8359C125.795 28.5859 126.134 28.2422 126.353 27.8047C126.577 27.3672 126.689 26.8646 126.689 26.2969C126.689 25.7292 126.577 25.2292 126.353 24.7969C126.134 24.3646 125.793 24.0286 125.329 23.7891C124.871 23.5443 124.28 23.4219 123.556 23.4219H120.9V37H118.001ZM132.449 37V21H138.449C139.678 21 140.709 21.2135 141.542 21.6406C142.381 22.0677 143.014 22.6667 143.441 23.4375C143.873 24.2031 144.089 25.0964 144.089 26.1172C144.089 27.1432 143.87 28.0339 143.433 28.7891C143.001 29.5391 142.363 30.1198 141.519 30.5312C140.675 30.9375 139.639 31.1406 138.41 31.1406H134.136V28.7344H138.019C138.738 28.7344 139.326 28.6354 139.785 28.4375C140.243 28.2344 140.581 27.9401 140.8 27.5547C141.024 27.1641 141.136 26.6849 141.136 26.1172C141.136 25.5495 141.024 25.0651 140.8 24.6641C140.576 24.2578 140.235 23.9505 139.777 23.7422C139.318 23.5286 138.727 23.4219 138.003 23.4219H135.347V37H132.449ZM140.714 29.75L144.675 37H141.441L137.55 29.75H140.714ZM161.343 29C161.343 30.724 161.02 32.2005 160.375 33.4297C159.734 34.6536 158.859 35.5911 157.75 36.2422C156.645 36.8932 155.393 37.2187 153.992 37.2187C152.591 37.2187 151.335 36.8932 150.226 36.2422C149.122 35.5859 148.247 34.6458 147.601 33.4219C146.96 32.1927 146.64 30.7187 146.64 29C146.64 27.276 146.96 25.8021 147.601 24.5781C148.247 23.349 149.122 22.4089 150.226 21.7578C151.335 21.1068 152.591 20.7812 153.992 20.7812C155.393 20.7812 156.645 21.1068 157.75 21.7578C158.859 22.4089 159.734 23.349 160.375 24.5781C161.02 25.8021 161.343 27.276 161.343 29ZM158.429 29C158.429 27.7865 158.239 26.763 157.859 25.9297C157.484 25.0911 156.963 24.4583 156.296 24.0313C155.63 23.599 154.862 23.3828 153.992 23.3828C153.122 23.3828 152.354 23.599 151.687 24.0313C151.02 24.4583 150.497 25.0911 150.117 25.9297C149.742 26.763 149.554 27.7865 149.554 29C149.554 30.2135 149.742 31.2396 150.117 32.0781C150.497 32.9115 151.02 33.5443 151.687 33.9766C152.354 34.4036 153.122 34.6172 153.992 34.6172C154.862 34.6172 155.63 34.4036 156.296 33.9766C156.963 33.5443 157.484 32.9115 157.859 32.0781C158.239 31.2396 158.429 30.2135 158.429 29ZM162.961 23.4297V21H175.726V23.4297H170.781V37H167.906V23.4297H162.961ZM178.476 37V21H188.883V23.4297H181.375V27.7734H188.344V30.2031H181.375V34.5703H188.945V37H178.476ZM205.824 26.3984H202.902C202.819 25.9193 202.665 25.4948 202.441 25.125C202.218 24.75 201.939 24.4323 201.606 24.1719C201.272 23.9115 200.892 23.7161 200.465 23.5859C200.043 23.4505 199.587 23.3828 199.098 23.3828C198.228 23.3828 197.457 23.6016 196.785 24.0391C196.113 24.4714 195.587 25.1068 195.207 25.9453C194.827 26.7786 194.637 27.7969 194.637 29C194.637 30.224 194.827 31.2552 195.207 32.0937C195.593 32.9271 196.119 33.5573 196.785 33.9844C197.457 34.4062 198.225 34.6172 199.09 34.6172C199.569 34.6172 200.017 34.5547 200.434 34.4297C200.856 34.2995 201.233 34.1094 201.566 33.8594C201.905 33.6094 202.189 33.3021 202.418 32.9375C202.652 32.5729 202.814 32.1562 202.902 31.6875L205.824 31.7031C205.715 32.4635 205.478 33.1771 205.113 33.8438C204.754 34.5104 204.283 35.099 203.699 35.6094C203.116 36.1146 202.434 36.5104 201.652 36.7969C200.871 37.0781 200.004 37.2187 199.051 37.2187C197.645 37.2187 196.389 36.8932 195.285 36.2422C194.181 35.5911 193.311 34.651 192.676 33.4219C192.04 32.1927 191.723 30.7187 191.723 29C191.723 27.276 192.043 25.8021 192.684 24.5781C193.324 23.349 194.197 22.4089 195.301 21.7578C196.405 21.1068 197.655 20.7812 199.051 20.7812C199.941 20.7812 200.77 20.9062 201.535 21.1562C202.301 21.4062 202.983 21.7734 203.582 22.2578C204.181 22.737 204.673 23.3255 205.059 24.0234C205.449 24.7161 205.704 25.5078 205.824 26.3984ZM208.065 23.4297V21H220.83V23.4297H215.885V37H213.01V23.4297H208.065ZM226.479 21V37H223.58V21H226.479ZM244.204 29C244.204 30.724 243.881 32.2005 243.235 33.4297C242.594 34.6536 241.719 35.5911 240.61 36.2422C239.506 36.8932 238.253 37.2187 236.852 37.2187C235.451 37.2187 234.196 36.8932 233.087 36.2422C231.982 35.5859 231.107 34.6458 230.462 33.4219C229.821 32.1927 229.501 30.7187 229.501 29C229.501 27.276 229.821 25.8021 230.462 24.5781C231.107 23.349 231.982 22.4089 233.087 21.7578C234.196 21.1068 235.451 20.7812 236.852 20.7812C238.253 20.7812 239.506 21.1068 240.61 21.7578C241.719 22.4089 242.594 23.349 243.235 24.5781C243.881 25.8021 244.204 27.276 244.204 29ZM241.29 29C241.29 27.7865 241.1 26.763 240.719 25.9297C240.344 25.0911 239.823 24.4583 239.157 24.0313C238.49 23.599 237.722 23.3828 236.852 23.3828C235.982 23.3828 235.214 23.599 234.547 24.0313C233.881 24.4583 233.357 25.0911 232.977 25.9297C232.602 26.763 232.415 27.7865 232.415 29C232.415 30.2135 232.602 31.2396 232.977 32.0781C233.357 32.9115 233.881 33.5443 234.547 33.9766C235.214 34.4036 235.982 34.6172 236.852 34.6172C237.722 34.6172 238.49 34.4036 239.157 33.9766C239.823 33.5443 240.344 32.9115 240.719 32.0781C241.1 31.2396 241.29 30.2135 241.29 29ZM260.382 21V37H257.803L250.264 26.1016H250.132V37H247.233V21H249.827L257.358 31.9062H257.499V21H260.382Z" fill="#60034C"/>
<line opacity="0.5" x1="16" y1="45.5" x2="262" y2="45.5" stroke="#60034C"/>
<path d="M16.9246 64L18.615 53.8182H22.3437C23.0662 53.8182 23.6446 53.9375 24.0787 54.1761C24.5162 54.4115 24.8179 54.7313 24.9836 55.1357C25.1493 55.5367 25.1891 55.9891 25.1029 56.4929C25.0333 56.9171 24.8957 57.2734 24.6903 57.5618C24.4881 57.8501 24.2428 58.0821 23.9545 58.2578C23.6661 58.4335 23.3628 58.5611 23.0447 58.6406L23.0248 58.7401C23.3562 58.7566 23.6661 58.866 23.9545 59.0682C24.2461 59.267 24.4682 59.5504 24.6206 59.9183C24.7731 60.2862 24.8079 60.7337 24.7251 61.2607C24.6356 61.781 24.4334 62.2483 24.1185 62.6626C23.807 63.0736 23.3778 63.4001 22.8309 63.642C22.284 63.8807 21.6162 64 20.8273 64H16.9246ZM18.6796 62.6825H20.8969C21.6327 62.6825 22.1829 62.54 22.5475 62.255C22.9154 61.9699 23.1375 61.6136 23.2137 61.1861C23.2634 60.8646 23.2286 60.5696 23.1093 60.3011C22.9933 60.0327 22.7977 59.8189 22.5226 59.6598C22.2509 59.5007 21.9095 59.4212 21.4985 59.4212H19.2265L18.6796 62.6825ZM19.4303 58.223H21.4836C21.8283 58.223 22.1498 58.1567 22.4481 58.0241C22.7497 57.8916 22.9999 57.7043 23.1988 57.4624C23.401 57.2204 23.5269 56.937 23.5766 56.6122C23.6495 56.188 23.5617 55.835 23.3131 55.5533C23.0679 55.2682 22.642 55.1257 22.0354 55.1257H19.9374L19.4303 58.223ZM28.1679 64.169C27.684 64.169 27.2614 64.0795 26.9001 63.9006C26.5389 63.7183 26.272 63.4548 26.0997 63.1101C25.9273 62.7654 25.8826 62.3428 25.9655 61.8423C26.0384 61.4115 26.1809 61.0568 26.393 60.7784C26.6085 60.5 26.8703 60.2796 27.1785 60.1172C27.4868 59.9515 27.8215 59.8272 28.1828 59.7443C28.5441 59.6615 28.9086 59.6001 29.2765 59.5604C29.7406 59.5073 30.1167 59.4626 30.4051 59.4261C30.6968 59.3897 30.9155 59.3333 31.0613 59.2571C31.2072 59.1776 31.295 59.0483 31.3248 58.8693V58.8345C31.3944 58.4036 31.3315 58.0689 31.1359 57.8303C30.9437 57.5883 30.6089 57.4673 30.1317 57.4673C29.6345 57.4673 29.2169 57.5767 28.8788 57.7955C28.5441 58.0142 28.2971 58.2595 28.1381 58.5312L26.8057 58.2131C27.0443 57.7491 27.3476 57.3745 27.7155 57.0895C28.0867 56.8011 28.4927 56.5923 28.9335 56.4631C29.3743 56.3305 29.8251 56.2642 30.2858 56.2642C30.5907 56.2642 30.9072 56.3007 31.2354 56.3736C31.5635 56.4432 31.8618 56.5724 32.1302 56.7614C32.402 56.9503 32.6042 57.2204 32.7368 57.5717C32.8693 57.9197 32.8892 58.3722 32.7964 58.929L31.9562 64H30.5045L30.6835 62.956H30.6238C30.4979 63.1482 30.3222 63.3371 30.0969 63.5227C29.8748 63.7083 29.603 63.8625 29.2815 63.9851C28.96 64.1077 28.5888 64.169 28.1679 64.169ZM28.675 62.9759C29.0893 62.9759 29.4555 62.8946 29.7737 62.7322C30.0952 62.5698 30.3554 62.3577 30.5542 62.0959C30.7531 61.8307 30.8774 61.5473 30.9271 61.2457L31.0912 60.2614C31.0282 60.3144 30.9172 60.3625 30.7581 60.4055C30.6023 60.4486 30.4266 60.4867 30.2311 60.5199C30.0355 60.553 29.8433 60.5812 29.6544 60.6044C29.4688 60.6276 29.3147 60.6491 29.192 60.669C28.9004 60.7055 28.6269 60.7668 28.3717 60.853C28.1198 60.9392 27.9094 61.0634 27.7403 61.2259C27.5713 61.3849 27.4652 61.5971 27.4221 61.8622C27.3625 62.2301 27.4503 62.5085 27.6856 62.6974C27.9243 62.883 28.2541 62.9759 28.675 62.9759ZM40.623 58.228L39.2359 58.4666C39.2061 58.291 39.1447 58.1252 39.0519 57.9695C38.9624 57.8137 38.8249 57.6877 38.6393 57.5916C38.4537 57.4922 38.2068 57.4425 37.8985 57.4425C37.471 57.4425 37.0964 57.5402 36.7749 57.7358C36.4568 57.9313 36.2745 58.1799 36.2281 58.4815C36.185 58.7268 36.243 58.9257 36.4021 59.0781C36.5612 59.2273 36.8412 59.3516 37.2423 59.451L38.4156 59.7294C39.0917 59.8918 39.5756 60.1454 39.8673 60.4901C40.1623 60.8314 40.265 61.2756 40.1755 61.8224C40.0993 62.2765 39.9004 62.6792 39.5789 63.0305C39.2607 63.3819 38.8531 63.657 38.3559 63.8558C37.8588 64.0547 37.3052 64.1541 36.6954 64.1541C35.827 64.1541 35.1509 63.9702 34.667 63.6023C34.1831 63.2344 33.9345 62.714 33.9213 62.0412L35.3928 61.8224C35.4194 62.197 35.5536 62.4804 35.7955 62.6726C36.0408 62.8615 36.3805 62.956 36.8147 62.956C37.3119 62.9593 37.7278 62.8549 38.0626 62.6428C38.3973 62.4306 38.5879 62.1738 38.6343 61.8722C38.6741 61.6368 38.6211 61.4413 38.4752 61.2855C38.3327 61.1297 38.0808 61.0104 37.7195 60.9276L36.4866 60.6442C35.7972 60.4818 35.31 60.2199 35.0249 59.8587C34.7399 59.4974 34.6438 59.0433 34.7366 58.4964C34.8095 58.049 34.9984 57.6596 35.3034 57.3281C35.6116 56.9934 36.001 56.7332 36.4717 56.5476C36.9423 56.3587 37.4627 56.2642 38.0328 56.2642C38.8647 56.2642 39.4894 56.4432 39.907 56.8011C40.3247 57.1558 40.5633 57.6314 40.623 58.228ZM43.2368 61.4098L43.5202 59.5952H43.7836L47.3731 56.3636H49.153L45.0763 60.0426H44.8426L43.2368 61.4098ZM41.442 64L43.1324 53.8182H44.6189L42.9285 64H41.442ZM46.2645 64L44.1366 60.3707L45.3248 59.3317L48.089 64H46.2645ZM52.1919 64.1541C51.4428 64.1541 50.823 63.9934 50.3325 63.6719C49.8453 63.3471 49.5039 62.8913 49.3083 62.3047C49.1128 61.7147 49.0813 61.0237 49.2139 60.2315C49.3431 59.4493 49.6033 58.7599 49.9944 58.1634C50.3855 57.5668 50.8727 57.1011 51.4561 56.7663C52.0427 56.4316 52.6907 56.2642 53.3999 56.2642C53.8308 56.2642 54.2368 56.3355 54.618 56.478C55.0025 56.6205 55.3289 56.8442 55.5974 57.1491C55.8659 57.4541 56.0515 57.8501 56.1542 58.3374C56.2603 58.8213 56.257 59.4096 56.1443 60.1023L56.0597 60.6293H49.9845L50.1585 59.5156H54.7721C54.8417 59.1245 54.8235 58.7782 54.7174 58.4766C54.6114 58.1716 54.4291 57.9313 54.1705 57.7557C53.9153 57.58 53.5938 57.4922 53.2061 57.4922C52.8083 57.4922 52.4371 57.5966 52.0924 57.8054C51.7477 58.0142 51.4594 58.281 51.2274 58.6058C50.9987 58.9273 50.8545 59.2588 50.7948 59.6001L50.6208 60.6193C50.5347 61.1761 50.5496 61.6236 50.6656 61.9616C50.7849 62.2997 50.9937 62.545 51.292 62.6974C51.5903 62.8499 51.9632 62.9261 52.4106 62.9261C52.699 62.9261 52.9658 62.8864 53.211 62.8068C53.4596 62.724 53.68 62.603 53.8722 62.4439C54.0645 62.2815 54.2252 62.0793 54.3545 61.8374L55.7167 62.0909C55.5344 62.5052 55.2726 62.8681 54.9312 63.1797C54.5898 63.4879 54.1871 63.7282 53.7231 63.9006C53.2624 64.0696 52.752 64.1541 52.1919 64.1541ZM62.002 56.3636L61.8081 57.5568H57.637L57.8309 56.3636H62.002ZM59.2478 54.5341H60.7343L59.5312 61.7578C59.4848 62.0462 59.493 62.2633 59.556 62.4091C59.619 62.5516 59.7151 62.6494 59.8444 62.7024C59.9769 62.7521 60.1244 62.777 60.2868 62.777C60.4062 62.777 60.5106 62.7687 60.6001 62.7521C60.6895 62.7356 60.7608 62.7223 60.8138 62.7124L60.8934 63.9403C60.7939 63.9735 60.6597 64.0066 60.4907 64.0398C60.325 64.0762 60.1228 64.0961 59.8841 64.0994C59.493 64.1061 59.1401 64.0365 58.8252 63.8906C58.5103 63.7415 58.275 63.5161 58.1192 63.2145C57.9635 62.9096 57.9253 62.5268 58.0049 62.0661L59.2478 54.5341ZM69.3302 64.1541C68.6043 64.1541 67.9978 63.9884 67.5106 63.657C67.0233 63.3222 66.6803 62.8549 66.4814 62.255C66.2859 61.6518 66.2528 60.9508 66.382 60.152C66.508 59.3698 66.7615 58.687 67.1427 58.1037C67.5271 57.5204 68.0077 57.0679 68.5844 56.7464C69.1644 56.425 69.8091 56.2642 70.5184 56.2642C71.2442 56.2642 71.8491 56.4316 72.333 56.7663C72.8202 57.1011 73.1633 57.5701 73.3621 58.1733C73.561 58.7765 73.5958 59.4792 73.4665 60.2812C73.3406 61.0568 73.0837 61.7363 72.6959 62.3196C72.3115 62.8996 71.8309 63.3504 71.2542 63.6719C70.6775 63.9934 70.0361 64.1541 69.3302 64.1541ZM69.4147 62.9062C69.892 62.9062 70.3079 62.7803 70.6626 62.5284C71.0205 62.2765 71.3122 61.9418 71.5376 61.5241C71.7629 61.1065 71.9171 60.6491 71.9999 60.152C72.0761 59.6714 72.0745 59.2322 71.9949 58.8345C71.9187 58.4335 71.753 58.112 71.4978 57.87C71.2426 57.6281 70.8879 57.5071 70.4339 57.5071C69.9566 57.5071 69.5373 57.6347 69.176 57.8899C68.8181 58.1418 68.5264 58.4782 68.301 58.8991C68.079 59.3201 67.9282 59.7791 67.8486 60.2763C67.7724 60.7536 67.7724 61.1927 67.8486 61.5938C67.9249 61.9915 68.0906 62.3097 68.3458 62.5483C68.601 62.7869 68.9573 62.9062 69.4147 62.9062ZM79.4213 56.3636L79.2274 57.5568H74.912L75.1059 56.3636H79.4213ZM75.0164 64L76.4383 55.4787C76.5112 55.0014 76.6786 54.6053 76.9404 54.2905C77.2023 53.9723 77.5188 53.7353 77.89 53.5795C78.2612 53.4205 78.649 53.3409 79.0534 53.3409C79.3517 53.3409 79.6019 53.3658 79.8041 53.4155C80.0096 53.4619 80.1587 53.505 80.2515 53.5447L79.7096 54.7479C79.6433 54.728 79.5588 54.7048 79.4561 54.6783C79.3533 54.6484 79.224 54.6335 79.0683 54.6335C78.707 54.6335 78.4336 54.723 78.248 54.902C78.0657 55.081 77.943 55.3395 77.8801 55.6776L76.5029 64H75.0164ZM86.5841 64.1541C85.8416 64.1541 85.2335 63.9867 84.7595 63.652C84.2855 63.3139 83.9558 62.8482 83.7702 62.255C83.5845 61.6617 83.5547 60.9822 83.6807 60.2166C83.8066 59.4411 84.0635 58.7566 84.4513 58.1634C84.8424 57.5668 85.3312 57.1011 85.9179 56.7663C86.5078 56.4316 87.1624 56.2642 87.8817 56.2642C88.4617 56.2642 88.9605 56.3719 89.3781 56.5874C89.7957 56.7995 90.1122 57.0978 90.3277 57.4822C90.5431 57.8667 90.6359 58.3158 90.6061 58.8295H89.1594C89.1362 58.4716 89.0036 58.1634 88.7616 57.9048C88.5197 57.6463 88.1634 57.517 87.6927 57.517C87.2784 57.517 86.8973 57.6264 86.5493 57.8452C86.2013 58.0606 85.9079 58.3688 85.6693 58.7699C85.4307 59.1676 85.2683 59.6383 85.1821 60.1818C85.0893 60.7386 85.0943 61.2192 85.197 61.6236C85.2997 62.0279 85.4887 62.3411 85.7638 62.5632C86.0389 62.7853 86.3852 62.8963 86.8028 62.8963C87.0879 62.8963 87.353 62.8449 87.5983 62.7422C87.8469 62.6361 88.0656 62.4853 88.2545 62.2898C88.4468 62.0942 88.5959 61.8589 88.702 61.5838H90.1537C90.0112 62.0777 89.7725 62.5185 89.4378 62.9062C89.1063 63.294 88.6987 63.599 88.2148 63.821C87.7309 64.0431 87.1873 64.1541 86.5841 64.1541ZM94.5821 64.1541C93.8563 64.1541 93.2497 63.9884 92.7625 63.657C92.2753 63.3222 91.9323 62.8549 91.7334 62.255C91.5378 61.6518 91.5047 60.9508 91.634 60.152C91.7599 59.3698 92.0135 58.687 92.3946 58.1037C92.7791 57.5204 93.2597 57.0679 93.8364 56.7464C94.4164 56.425 95.0611 56.2642 95.7703 56.2642C96.4962 56.2642 97.1011 56.4316 97.585 56.7663C98.0722 57.1011 98.4152 57.5701 98.6141 58.1733C98.8129 58.7765 98.8477 59.4792 98.7185 60.2812C98.5925 61.0568 98.3357 61.7363 97.9479 62.3196C97.5634 62.8996 97.0828 63.3504 96.5061 63.6719C95.9294 63.9934 95.2881 64.1541 94.5821 64.1541ZM94.6666 62.9062C95.1439 62.9062 95.5599 62.7803 95.9145 62.5284C96.2725 62.2765 96.5641 61.9418 96.7895 61.5241C97.0149 61.1065 97.169 60.6491 97.2519 60.152C97.3281 59.6714 97.3264 59.2322 97.2469 58.8345C97.1707 58.4335 97.0049 58.112 96.7497 57.87C96.4945 57.6281 96.1399 57.5071 95.6858 57.5071C95.2085 57.5071 94.7893 57.6347 94.428 57.8899C94.07 58.1418 93.7784 58.4782 93.553 58.8991C93.3309 59.3201 93.1801 59.7791 93.1006 60.2763C93.0244 60.7536 93.0244 61.1927 93.1006 61.5938C93.1768 61.9915 93.3425 62.3097 93.5977 62.5483C93.853 62.7869 94.2093 62.9062 94.6666 62.9062ZM106.453 58.228L105.066 58.4666C105.036 58.291 104.975 58.1252 104.882 57.9695C104.793 57.8137 104.655 57.6877 104.469 57.5916C104.284 57.4922 104.037 57.4425 103.729 57.4425C103.301 57.4425 102.927 57.5402 102.605 57.7358C102.287 57.9313 102.105 58.1799 102.058 58.4815C102.015 58.7268 102.073 58.9257 102.232 59.0781C102.391 59.2273 102.671 59.3516 103.072 59.451L104.246 59.7294C104.922 59.8918 105.406 60.1454 105.697 60.4901C105.992 60.8314 106.095 61.2756 106.006 61.8224C105.929 62.2765 105.73 62.6792 105.409 63.0305C105.091 63.3819 104.683 63.657 104.186 63.8558C103.689 64.0547 103.135 64.1541 102.525 64.1541C101.657 64.1541 100.981 63.9702 100.497 63.6023C100.013 63.2344 99.7646 62.714 99.7513 62.0412L101.223 61.8224C101.249 62.197 101.384 62.4804 101.626 62.6726C101.871 62.8615 102.211 62.956 102.645 62.956C103.142 62.9593 103.558 62.8549 103.893 62.6428C104.227 62.4306 104.418 62.1738 104.464 61.8722C104.504 61.6368 104.451 61.4413 104.305 61.2855C104.163 61.1297 103.911 61.0104 103.55 60.9276L102.317 60.6442C101.627 60.4818 101.14 60.2199 100.855 59.8587C100.57 59.4974 100.474 59.0433 100.567 58.4964C100.64 58.049 100.829 57.6596 101.133 57.3281C101.442 56.9934 101.831 56.7332 102.302 56.5476C102.772 56.3587 103.293 56.2642 103.863 56.2642C104.695 56.2642 105.32 56.4432 105.737 56.8011C106.155 57.1558 106.393 57.6314 106.453 58.228ZM112.109 56.3636L111.916 57.5568H107.744L107.938 56.3636H112.109ZM109.355 54.5341H110.842L109.639 61.7578C109.592 62.0462 109.6 62.2633 109.663 62.4091C109.726 62.5516 109.823 62.6494 109.952 62.7024C110.084 62.7521 110.232 62.777 110.394 62.777C110.514 62.777 110.618 62.7687 110.707 62.7521C110.797 62.7356 110.868 62.7223 110.921 62.7124L111.001 63.9403C110.901 63.9735 110.767 64.0066 110.598 64.0398C110.432 64.0762 110.23 64.0961 109.992 64.0994C109.6 64.1061 109.247 64.0365 108.933 63.8906C108.618 63.7415 108.382 63.5161 108.227 63.2145C108.071 62.9096 108.033 62.5268 108.112 62.0661L109.355 54.5341ZM117.546 59.0533L117.332 60.3409H112.813L113.027 59.0533H117.546ZM121.973 64.1541C121.224 64.1541 120.604 63.9934 120.114 63.6719C119.627 63.3471 119.285 62.8913 119.09 62.3047C118.894 61.7147 118.863 61.0237 118.995 60.2315C119.124 59.4493 119.385 58.7599 119.776 58.1634C120.167 57.5668 120.654 57.1011 121.237 56.7663C121.824 56.4316 122.472 56.2642 123.181 56.2642C123.612 56.2642 124.018 56.3355 124.399 56.478C124.784 56.6205 125.11 56.8442 125.379 57.1491C125.647 57.4541 125.833 57.8501 125.935 58.3374C126.042 58.8213 126.038 59.4096 125.926 60.1023L125.841 60.6293H119.766L119.94 59.5156H124.553C124.623 59.1245 124.605 58.7782 124.499 58.4766C124.393 58.1716 124.21 57.9313 123.952 57.7557C123.697 57.58 123.375 57.4922 122.987 57.4922C122.59 57.4922 122.218 57.5966 121.874 57.8054C121.529 58.0142 121.241 58.281 121.009 58.6058C120.78 58.9273 120.636 59.2588 120.576 59.6001L120.402 60.6193C120.316 61.1761 120.331 61.6236 120.447 61.9616C120.566 62.2997 120.775 62.545 121.073 62.6974C121.372 62.8499 121.744 62.9261 122.192 62.9261C122.48 62.9261 122.747 62.8864 122.992 62.8068C123.241 62.724 123.461 62.603 123.653 62.4439C123.846 62.2815 124.006 62.0793 124.136 61.8374L125.498 62.0909C125.316 62.5052 125.054 62.8681 124.712 63.1797C124.371 63.4879 123.968 63.7282 123.504 63.9006C123.044 64.0696 122.533 64.1541 121.973 64.1541ZM131.853 56.3636L131.659 57.5568H127.344L127.538 56.3636H131.853ZM127.448 64L128.87 55.4787C128.943 55.0014 129.11 54.6053 129.372 54.2905C129.634 53.9723 129.95 53.7353 130.322 53.5795C130.693 53.4205 131.081 53.3409 131.485 53.3409C131.783 53.3409 132.034 53.3658 132.236 53.4155C132.441 53.4619 132.59 53.505 132.683 53.5447L132.141 54.7479C132.075 54.728 131.99 54.7048 131.888 54.6783C131.785 54.6484 131.656 54.6335 131.5 54.6335C131.139 54.6335 130.865 54.723 130.68 54.902C130.497 55.081 130.375 55.3395 130.312 55.6776L128.935 64H127.448ZM137.021 56.3636L136.827 57.5568H132.512L132.706 56.3636H137.021ZM132.616 64L134.038 55.4787C134.111 55.0014 134.278 54.6053 134.54 54.2905C134.802 53.9723 135.118 53.7353 135.49 53.5795C135.861 53.4205 136.249 53.3409 136.653 53.3409C136.951 53.3409 137.201 53.3658 137.404 53.4155C137.609 53.4619 137.758 53.505 137.851 53.5447L137.309 54.7479C137.243 54.728 137.158 54.7048 137.056 54.6783C136.953 54.6484 136.824 54.6335 136.668 54.6335C136.307 54.6335 136.033 54.723 135.848 54.902C135.665 55.081 135.543 55.3395 135.48 55.6776L134.103 64H132.616ZM137.282 64L138.555 56.3636H140.041L138.768 64H137.282ZM139.609 55.1705C139.35 55.1705 139.131 55.0843 138.952 54.9119C138.777 54.7363 138.695 54.5275 138.709 54.2855C138.722 54.0402 138.825 53.8314 139.017 53.6591C139.209 53.4834 139.433 53.3956 139.688 53.3956C139.947 53.3956 140.164 53.4834 140.339 53.6591C140.515 53.8314 140.598 54.0402 140.588 54.2855C140.575 54.5275 140.472 54.7363 140.28 54.9119C140.091 55.0843 139.867 55.1705 139.609 55.1705ZM143.965 64.1541C143.223 64.1541 142.614 63.9867 142.14 63.652C141.666 63.3139 141.337 62.8482 141.151 62.255C140.965 61.6617 140.936 60.9822 141.062 60.2166C141.187 59.4411 141.444 58.7566 141.832 58.1634C142.223 57.5668 142.712 57.1011 143.299 56.7663C143.889 56.4316 144.543 56.2642 145.263 56.2642C145.843 56.2642 146.341 56.3719 146.759 56.5874C147.177 56.7995 147.493 57.0978 147.709 57.4822C147.924 57.8667 148.017 58.3158 147.987 58.8295H146.54C146.517 58.4716 146.384 58.1634 146.142 57.9048C145.901 57.6463 145.544 57.517 145.074 57.517C144.659 57.517 144.278 57.6264 143.93 57.8452C143.582 58.0606 143.289 58.3688 143.05 58.7699C142.812 59.1676 142.649 59.6383 142.563 60.1818C142.47 60.7386 142.475 61.2192 142.578 61.6236C142.681 62.0279 142.87 62.3411 143.145 62.5632C143.42 62.7853 143.766 62.8963 144.184 62.8963C144.469 62.8963 144.734 62.8449 144.979 62.7422C145.228 62.6361 145.446 62.4853 145.635 62.2898C145.828 62.0942 145.977 61.8589 146.083 61.5838H147.535C147.392 62.0777 147.153 62.5185 146.819 62.9062C146.487 63.294 146.08 63.599 145.596 63.821C145.112 64.0431 144.568 64.1541 143.965 64.1541ZM148.712 64L149.984 56.3636H151.471L150.198 64H148.712ZM151.038 55.1705C150.78 55.1705 150.561 55.0843 150.382 54.9119C150.206 54.7363 150.125 54.5275 150.138 54.2855C150.152 54.0402 150.254 53.8314 150.447 53.6591C150.639 53.4834 150.863 53.3956 151.118 53.3956C151.376 53.3956 151.593 53.4834 151.769 53.6591C151.945 53.8314 152.028 54.0402 152.018 54.2855C152.004 54.5275 151.902 54.7363 151.709 54.9119C151.521 55.0843 151.297 55.1705 151.038 55.1705ZM155.469 64.1541C154.72 64.1541 154.1 63.9934 153.61 63.6719C153.123 63.3471 152.781 62.8913 152.586 62.3047C152.39 61.7147 152.359 61.0237 152.491 60.2315C152.62 59.4493 152.881 58.7599 153.272 58.1634C153.663 57.5668 154.15 57.1011 154.733 56.7663C155.32 56.4316 155.968 56.2642 156.677 56.2642C157.108 56.2642 157.514 56.3355 157.895 56.478C158.28 56.6205 158.606 56.8442 158.875 57.1491C159.143 57.4541 159.329 57.8501 159.432 58.3374C159.538 58.8213 159.534 59.4096 159.422 60.1023L159.337 60.6293H153.262L153.436 59.5156H158.049C158.119 59.1245 158.101 58.7782 157.995 58.4766C157.889 58.1716 157.706 57.9313 157.448 57.7557C157.193 57.58 156.871 57.4922 156.483 57.4922C156.086 57.4922 155.714 57.5966 155.37 57.8054C155.025 58.0142 154.737 58.281 154.505 58.6058C154.276 58.9273 154.132 59.2588 154.072 59.6001L153.898 60.6193C153.812 61.1761 153.827 61.6236 153.943 61.9616C154.062 62.2997 154.271 62.545 154.569 62.6974C154.868 62.8499 155.241 62.9261 155.688 62.9261C155.976 62.9261 156.243 62.8864 156.488 62.8068C156.737 62.724 156.957 62.603 157.15 62.4439C157.342 62.2815 157.503 62.0793 157.632 61.8374L158.994 62.0909C158.812 62.5052 158.55 62.8681 158.209 63.1797C157.867 63.4879 157.464 63.7282 157 63.9006C156.54 64.0696 156.029 64.1541 155.469 64.1541ZM162.679 59.4659L161.934 64H160.447L161.72 56.3636H163.147L162.938 57.6065H163.032C163.274 57.1989 163.604 56.8741 164.022 56.6321C164.443 56.3868 164.94 56.2642 165.513 56.2642C166.03 56.2642 166.464 56.3736 166.816 56.5923C167.17 56.8078 167.42 57.1293 167.566 57.5568C167.715 57.9844 167.739 58.513 167.636 59.1428L166.821 64H165.334L166.115 59.3217C166.204 58.7682 166.131 58.3357 165.896 58.0241C165.664 57.7093 165.294 57.5518 164.787 57.5518C164.443 57.5518 164.123 57.6264 163.828 57.7756C163.536 57.9247 163.289 58.1435 163.087 58.4318C162.888 58.7169 162.752 59.0616 162.679 59.4659ZM173.647 56.3636L173.453 57.5568H169.282L169.475 56.3636H173.647ZM170.892 54.5341H172.379L171.176 61.7578C171.129 62.0462 171.138 62.2633 171.201 62.4091C171.264 62.5516 171.36 62.6494 171.489 62.7024C171.621 62.7521 171.769 62.777 171.931 62.777C172.051 62.777 172.155 62.7687 172.245 62.7521C172.334 62.7356 172.405 62.7223 172.458 62.7124L172.538 63.9403C172.438 63.9735 172.304 64.0066 172.135 64.0398C171.969 64.0762 171.767 64.0961 171.529 64.0994C171.138 64.1061 170.785 64.0365 170.47 63.8906C170.155 63.7415 169.92 63.5161 169.764 63.2145C169.608 62.9096 169.57 62.5268 169.649 62.0661L170.892 54.5341ZM176.191 62.608L176.017 63.1499C175.901 63.5476 175.748 63.9619 175.559 64.3928C175.374 64.8236 175.188 65.2247 175.003 65.5959C174.817 65.9704 174.669 66.267 174.56 66.4858H173.506C173.579 66.2803 173.68 66.0036 173.809 65.6555C173.942 65.3075 174.081 64.9181 174.227 64.4872C174.373 64.0563 174.5 63.6155 174.61 63.1648L174.759 62.608H176.191ZM184.769 53.8182L183.079 64H181.592L183.283 53.8182H184.769ZM185.079 64L186.351 56.3636H187.838L186.565 64H185.079ZM187.405 55.1705C187.147 55.1705 186.928 55.0843 186.749 54.9119C186.574 54.7363 186.492 54.5275 186.506 54.2855C186.519 54.0402 186.622 53.8314 186.814 53.6591C187.006 53.4834 187.23 53.3956 187.485 53.3956C187.744 53.3956 187.961 53.4834 188.136 53.6591C188.312 53.8314 188.395 54.0402 188.385 54.2855C188.372 54.5275 188.269 54.7363 188.077 54.9119C187.888 55.0843 187.664 55.1705 187.405 55.1705ZM193.243 66.8636L193.91 62.8118H193.825C193.709 62.9742 193.55 63.1598 193.348 63.3686C193.146 63.5774 192.885 63.7597 192.567 63.9155C192.252 64.0713 191.863 64.1491 191.399 64.1491C190.779 64.1491 190.255 63.9917 189.828 63.6768C189.4 63.3587 189.097 62.9062 188.918 62.3196C188.742 61.7296 188.723 61.022 188.858 60.1967C188.994 59.3714 189.249 58.6655 189.624 58.0788C189.999 57.4922 190.453 57.0431 190.986 56.7315C191.52 56.42 192.095 56.2642 192.711 56.2642C193.185 56.2642 193.553 56.3438 193.815 56.5028C194.08 56.6586 194.276 56.8409 194.402 57.0497C194.528 57.2585 194.622 57.4425 194.685 57.6016H194.804L195.018 56.3636H196.47L194.73 66.8636H193.243ZM191.931 62.8814C192.362 62.8814 192.745 62.7687 193.079 62.5433C193.414 62.3146 193.691 61.9981 193.91 61.5938C194.132 61.1894 194.287 60.7187 194.377 60.1818C194.466 59.6515 194.466 59.1875 194.377 58.7898C194.291 58.392 194.118 58.0821 193.86 57.8601C193.601 57.638 193.257 57.527 192.826 57.527C192.375 57.527 191.981 57.643 191.642 57.875C191.304 58.107 191.028 58.4235 190.812 58.8246C190.597 59.2256 190.446 59.678 190.36 60.1818C190.277 60.6922 190.279 61.1513 190.365 61.5589C190.451 61.9666 190.623 62.2898 190.882 62.5284C191.144 62.7637 191.493 62.8814 191.931 62.8814ZM202.57 60.8331L203.316 56.3636H204.807L203.535 64H202.073L202.297 62.6776H202.217C201.978 63.0852 201.64 63.425 201.203 63.6967C200.769 63.9652 200.265 64.0994 199.691 64.0994C199.201 64.0994 198.785 63.9917 198.444 63.7763C198.106 63.5575 197.865 63.2344 197.723 62.8068C197.58 62.3793 197.56 61.8506 197.663 61.2209L198.478 56.3636H199.965L199.184 61.0419C199.102 61.5623 199.179 61.9766 199.418 62.2848C199.657 62.593 200.005 62.7472 200.462 62.7472C200.741 62.7472 201.029 62.6776 201.327 62.5384C201.625 62.3991 201.889 62.1887 202.118 61.907C202.35 61.6252 202.5 61.2673 202.57 60.8331ZM205.532 64L206.805 56.3636H208.291L207.018 64H205.532ZM207.859 55.1705C207.6 55.1705 207.381 55.0843 207.202 54.9119C207.027 54.7363 206.945 54.5275 206.959 54.2855C206.972 54.0402 207.075 53.8314 207.267 53.6591C207.459 53.4834 207.683 53.3956 207.938 53.3956C208.197 53.3956 208.414 53.4834 208.589 53.6591C208.765 53.8314 208.848 54.0402 208.838 54.2855C208.825 54.5275 208.722 54.7363 208.53 54.9119C208.341 55.0843 208.117 55.1705 207.859 55.1705ZM211.867 64.1491C211.247 64.1491 210.722 63.9917 210.291 63.6768C209.863 63.3587 209.56 62.9062 209.381 62.3196C209.205 61.7296 209.186 61.022 209.321 60.1967C209.461 59.3714 209.718 58.6655 210.092 58.0788C210.467 57.4922 210.921 57.0431 211.454 56.7315C211.988 56.42 212.563 56.2642 213.179 56.2642C213.653 56.2642 214.021 56.3438 214.283 56.5028C214.548 56.6586 214.744 56.8409 214.87 57.0497C214.996 57.2585 215.09 57.4425 215.153 57.6016H215.238L215.869 53.8182H217.356L215.665 64H214.214L214.417 62.8118H214.293C214.177 62.9742 214.016 63.1598 213.811 63.3686C213.609 63.5774 213.35 63.7597 213.035 63.9155C212.72 64.0713 212.331 64.1491 211.867 64.1491ZM212.369 62.8814C212.797 62.8814 213.179 62.7687 213.517 62.5433C213.859 62.3146 214.142 61.9981 214.368 61.5938C214.596 61.1894 214.755 60.7187 214.845 60.1818C214.934 59.6515 214.933 59.1875 214.84 58.7898C214.747 58.392 214.568 58.0821 214.303 57.8601C214.038 57.638 213.688 57.527 213.254 57.527C212.807 57.527 212.417 57.643 212.086 57.875C211.754 58.107 211.482 58.4235 211.27 58.8246C211.062 59.2256 210.916 59.678 210.833 60.1818C210.747 60.6922 210.743 61.1513 210.823 61.5589C210.902 61.9666 211.07 62.2898 211.325 62.5284C211.58 62.7637 211.928 62.8814 212.369 62.8814ZM221.492 64L222.765 56.3636H224.191L223.983 57.6065H224.077C224.309 57.1856 224.624 56.8575 225.022 56.6222C225.423 56.3835 225.877 56.2642 226.384 56.2642C226.888 56.2642 227.294 56.3835 227.602 56.6222C227.914 56.8608 228.117 57.1889 228.214 57.6065H228.293C228.538 57.1955 228.881 56.8691 229.322 56.6271C229.763 56.3852 230.258 56.2642 230.809 56.2642C231.495 56.2642 232.022 56.483 232.39 56.9205C232.761 57.3546 232.874 58.0076 232.728 58.8793L231.873 64H230.381L231.216 59.0185C231.299 58.4981 231.22 58.1236 230.978 57.8949C230.736 57.6629 230.419 57.5469 230.028 57.5469C229.544 57.5469 229.143 57.696 228.825 57.9943C228.507 58.2893 228.311 58.6688 228.238 59.1328L227.418 64H225.941L226.792 58.924C226.858 58.5064 226.782 58.1733 226.563 57.9247C226.348 57.6728 226.033 57.5469 225.618 57.5469C225.337 57.5469 225.063 57.6214 224.798 57.7706C224.536 57.9197 224.312 58.1252 224.127 58.3871C223.941 58.6489 223.82 58.9505 223.764 59.2919L222.978 64H221.492ZM236.062 64.169C235.579 64.169 235.156 64.0795 234.795 63.9006C234.433 63.7183 234.167 63.4548 233.994 63.1101C233.822 62.7654 233.777 62.3428 233.86 61.8423C233.933 61.4115 234.075 61.0568 234.288 60.7784C234.503 60.5 234.765 60.2796 235.073 60.1172C235.381 59.9515 235.716 59.8272 236.077 59.7443C236.439 59.6615 236.803 59.6001 237.171 59.5604C237.635 59.5073 238.011 59.4626 238.3 59.4261C238.591 59.3897 238.81 59.3333 238.956 59.2571C239.102 59.1776 239.19 59.0483 239.219 58.8693V58.8345C239.289 58.4036 239.226 58.0689 239.03 57.8303C238.838 57.5883 238.503 57.4673 238.026 57.4673C237.529 57.4673 237.111 57.5767 236.773 57.7955C236.439 58.0142 236.192 58.2595 236.033 58.5312L234.7 58.2131C234.939 57.7491 235.242 57.3745 235.61 57.0895C235.981 56.8011 236.387 56.5923 236.828 56.4631C237.269 56.3305 237.72 56.2642 238.18 56.2642C238.485 56.2642 238.802 56.3007 239.13 56.3736C239.458 56.4432 239.756 56.5724 240.025 56.7614C240.297 56.9503 240.499 57.2204 240.631 57.5717C240.764 57.9197 240.784 58.3722 240.691 58.929L239.851 64H238.399L238.578 62.956H238.518C238.392 63.1482 238.217 63.3371 237.991 63.5227C237.769 63.7083 237.498 63.8625 237.176 63.9851C236.855 64.1077 236.483 64.169 236.062 64.169ZM236.57 62.9759C236.984 62.9759 237.35 62.8946 237.668 62.7322C237.99 62.5698 238.25 62.3577 238.449 62.0959C238.648 61.8307 238.772 61.5473 238.822 61.2457L238.986 60.2614C238.923 60.3144 238.812 60.3625 238.653 60.4055C238.497 60.4486 238.321 60.4867 238.126 60.5199C237.93 60.553 237.738 60.5812 237.549 60.6044C237.363 60.6276 237.209 60.6491 237.087 60.669C236.795 60.7055 236.521 60.7668 236.266 60.853C236.014 60.9392 235.804 61.0634 235.635 61.2259C235.466 61.3849 235.36 61.5971 235.317 61.8622C235.257 62.2301 235.345 62.5085 235.58 62.6974C235.819 62.883 236.149 62.9759 236.57 62.9759ZM241.831 64L243.103 56.3636H244.54L244.336 57.5767H244.416C244.621 57.1657 244.921 56.8426 245.316 56.6072C245.71 56.3686 246.131 56.2493 246.579 56.2493C246.675 56.2493 246.784 56.2526 246.907 56.2592C247.029 56.2625 247.129 56.2708 247.205 56.2841L246.966 57.706C246.91 57.6894 246.807 57.6712 246.658 57.6513C246.509 57.6281 246.355 57.6165 246.196 57.6165C245.848 57.6165 245.525 57.6911 245.226 57.8402C244.928 57.986 244.678 58.1899 244.476 58.4517C244.273 58.7102 244.142 59.0052 244.083 59.3366L243.317 64H241.831ZM249.026 61.4098L249.309 59.5952H249.573L253.162 56.3636H254.942L250.865 60.0426H250.632L249.026 61.4098ZM247.231 64L248.921 53.8182H250.408L248.718 64H247.231ZM252.054 64L249.926 60.3707L251.114 59.3317L253.878 64H252.054ZM257.981 64.1541C257.232 64.1541 256.612 63.9934 256.122 63.6719C255.634 63.3471 255.293 62.8913 255.097 62.3047C254.902 61.7147 254.87 61.0237 255.003 60.2315C255.132 59.4493 255.392 58.7599 255.783 58.1634C256.175 57.5668 256.662 57.1011 257.245 56.7663C257.832 56.4316 258.48 56.2642 259.189 56.2642C259.62 56.2642 260.026 56.3355 260.407 56.478C260.792 56.6205 261.118 56.8442 261.386 57.1491C261.655 57.4541 261.841 57.8501 261.943 58.3374C262.049 58.8213 262.046 59.4096 261.933 60.1023L261.849 60.6293H255.774L255.948 59.5156H260.561C260.631 59.1245 260.613 58.7782 260.506 58.4766C260.4 58.1716 260.218 57.9313 259.96 57.7557C259.704 57.58 259.383 57.4922 258.995 57.4922C258.597 57.4922 258.226 57.5966 257.881 57.8054C257.537 58.0142 257.248 58.281 257.016 58.6058C256.788 58.9273 256.644 59.2588 256.584 59.6001L256.41 60.6193C256.324 61.1761 256.339 61.6236 256.455 61.9616C256.574 62.2997 256.783 62.545 257.081 62.6974C257.379 62.8499 257.752 62.9261 258.2 62.9261C258.488 62.9261 258.755 62.8864 259 62.8068C259.249 62.724 259.469 62.603 259.661 62.4439C259.854 62.2815 260.014 62.0793 260.144 61.8374L261.506 62.0909C261.323 62.5052 261.062 62.8681 260.72 63.1797C260.379 63.4879 259.976 63.7282 259.512 63.9006C259.051 64.0696 258.541 64.1541 257.981 64.1541ZM267.791 56.3636L267.597 57.5568H263.426L263.62 56.3636H267.791ZM265.037 54.5341H266.523L265.32 61.7578C265.274 62.0462 265.282 62.2633 265.345 62.4091C265.408 62.5516 265.504 62.6494 265.633 62.7024C265.766 62.7521 265.914 62.777 266.076 62.777C266.195 62.777 266.3 62.7687 266.389 62.7521C266.479 62.7356 266.55 62.7223 266.603 62.7124L266.682 63.9403C266.583 63.9735 266.449 64.0066 266.28 64.0398C266.114 64.0762 265.912 64.0961 265.673 64.0994C265.282 64.1061 264.929 64.0365 264.614 63.8906C264.299 63.7415 264.064 63.5161 263.908 63.2145C263.753 62.9096 263.714 62.5268 263.794 62.0661L265.037 54.5341ZM271.868 64L273.141 56.3636H274.627L273.354 64H271.868ZM274.195 55.1705C273.936 55.1705 273.717 55.0843 273.538 54.9119C273.363 54.7363 273.281 54.5275 273.295 54.2855C273.308 54.0402 273.411 53.8314 273.603 53.6591C273.795 53.4834 274.019 53.3956 274.274 53.3956C274.533 53.3956 274.75 53.4834 274.925 53.6591C275.101 53.8314 275.184 54.0402 275.174 54.2855C275.161 54.5275 275.058 54.7363 274.866 54.9119C274.677 55.0843 274.453 55.1705 274.195 55.1705ZM277.591 59.4659L276.846 64H275.359L276.632 56.3636H278.059L277.85 57.6065H277.944C278.186 57.1989 278.516 56.8741 278.934 56.6321C279.355 56.3868 279.852 56.2642 280.425 56.2642C280.942 56.2642 281.376 56.3736 281.728 56.5923C282.082 56.8078 282.333 57.1293 282.478 57.5568C282.628 57.9844 282.651 58.513 282.548 59.1428L281.733 64H280.246L281.027 59.3217C281.116 58.7682 281.043 58.3357 280.808 58.0241C280.576 57.7093 280.206 57.5518 279.699 57.5518C279.355 57.5518 279.035 57.6264 278.74 57.7756C278.448 57.9247 278.201 58.1435 277.999 58.4318C277.8 58.7169 277.664 59.0616 277.591 59.4659ZM286.57 64.1491C285.95 64.1491 285.425 63.9917 284.994 63.6768C284.566 63.3587 284.263 62.9062 284.084 62.3196C283.909 61.7296 283.889 61.022 284.025 60.1967C284.164 59.3714 284.421 58.6655 284.795 58.0788C285.17 57.4922 285.624 57.0431 286.157 56.7315C286.691 56.42 287.266 56.2642 287.883 56.2642C288.357 56.2642 288.724 56.3438 288.986 56.5028C289.251 56.6586 289.447 56.8409 289.573 57.0497C289.699 57.2585 289.793 57.4425 289.856 57.6016H289.941L290.572 53.8182H292.059L290.368 64H288.917L289.12 62.8118H288.996C288.88 62.9742 288.719 63.1598 288.514 63.3686C288.312 63.5774 288.053 63.7597 287.738 63.9155C287.424 64.0713 287.034 64.1491 286.57 64.1491ZM287.072 62.8814C287.5 62.8814 287.883 62.7687 288.221 62.5433C288.562 62.3146 288.845 61.9981 289.071 61.5938C289.299 61.1894 289.459 60.7187 289.548 60.1818C289.638 59.6515 289.636 59.1875 289.543 58.7898C289.45 58.392 289.271 58.0821 289.006 57.8601C288.741 57.638 288.391 57.527 287.957 57.527C287.51 57.527 287.12 57.643 286.789 57.875C286.457 58.107 286.186 58.4235 285.973 58.8246C285.765 59.2256 285.619 59.678 285.536 60.1818C285.45 60.6922 285.446 61.1513 285.526 61.5589C285.606 61.9666 285.773 62.2898 286.028 62.5284C286.283 62.7637 286.631 62.8814 287.072 62.8814ZM295.756 64.1541C295.007 64.1541 294.387 63.9934 293.897 63.6719C293.41 63.3471 293.068 62.8913 292.873 62.3047C292.677 61.7147 292.646 61.0237 292.778 60.2315C292.908 59.4493 293.168 58.7599 293.559 58.1634C293.95 57.5668 294.437 57.1011 295.021 56.7663C295.607 56.4316 296.255 56.2642 296.964 56.2642C297.395 56.2642 297.801 56.3355 298.182 56.478C298.567 56.6205 298.893 56.8442 299.162 57.1491C299.43 57.4541 299.616 57.8501 299.719 58.3374C299.825 58.8213 299.821 59.4096 299.709 60.1023L299.624 60.6293H293.549L293.723 59.5156H298.337C298.406 59.1245 298.388 58.7782 298.282 58.4766C298.176 58.1716 297.994 57.9313 297.735 57.7557C297.48 57.58 297.158 57.4922 296.771 57.4922C296.373 57.4922 296.002 57.5966 295.657 57.8054C295.312 58.0142 295.024 58.281 294.792 58.6058C294.563 58.9273 294.419 59.2588 294.359 59.6001L294.185 60.6193C294.099 61.1761 294.114 61.6236 294.23 61.9616C294.349 62.2997 294.558 62.545 294.856 62.6974C295.155 62.8499 295.528 62.9261 295.975 62.9261C296.263 62.9261 296.53 62.8864 296.775 62.8068C297.024 62.724 297.244 62.603 297.437 62.4439C297.629 62.2815 297.79 62.0793 297.919 61.8374L299.281 62.0909C299.099 62.5052 298.837 62.8681 298.496 63.1797C298.154 63.4879 297.752 63.7282 297.288 63.9006C296.827 64.0696 296.316 64.1541 295.756 64.1541ZM302.997 56.3636L304.191 59.3366L306.383 56.3636H308.009L304.991 60.1818L306.756 64H305.13L303.887 61.1463L301.695 64H300.064L303.077 60.1818L301.367 56.3636H302.997ZM311.495 66.8636L313.255 56.3636H314.707L314.503 57.6016H314.627C314.74 57.4425 314.892 57.2585 315.085 57.0497C315.28 56.8409 315.537 56.6586 315.855 56.5028C316.173 56.3438 316.569 56.2642 317.043 56.2642C317.66 56.2642 318.182 56.42 318.609 56.7315C319.037 57.0431 319.342 57.4922 319.524 58.0788C319.707 58.6655 319.73 59.3714 319.594 60.1967C319.458 61.022 319.203 61.7296 318.828 62.3196C318.454 62.9062 318 63.3587 317.466 63.6768C316.936 63.9917 316.361 64.1491 315.741 64.1491C315.277 64.1491 314.911 64.0713 314.642 63.9155C314.377 63.7597 314.18 63.5774 314.051 63.3686C313.921 63.1598 313.823 62.9742 313.757 62.8118H313.668L312.992 66.8636H311.495ZM314.075 60.1818C313.989 60.7187 313.989 61.1894 314.075 61.5938C314.162 61.9981 314.334 62.3146 314.592 62.5433C314.854 62.7687 315.199 62.8814 315.627 62.8814C316.071 62.8814 316.46 62.7637 316.795 62.5284C317.13 62.2898 317.406 61.9666 317.625 61.5589C317.847 61.1513 318.001 60.6922 318.087 60.1818C318.17 59.678 318.169 59.2256 318.082 58.8246C318 58.4235 317.829 58.107 317.57 57.875C317.312 57.643 316.959 57.527 316.511 57.527C316.077 57.527 315.693 57.638 315.358 57.8601C315.027 58.0821 314.752 58.392 314.533 58.7898C314.314 59.1875 314.162 59.6515 314.075 60.1818ZM325.986 60.8331L326.732 56.3636H328.223L326.951 64H325.489L325.713 62.6776H325.633C325.394 63.0852 325.056 63.425 324.619 63.6967C324.185 63.9652 323.681 64.0994 323.108 64.0994C322.617 64.0994 322.201 63.9917 321.86 63.7763C321.522 63.5575 321.281 63.2344 321.139 62.8068C320.996 62.3793 320.976 61.8506 321.079 61.2209L321.894 56.3636H323.381L322.6 61.0419C322.518 61.5623 322.595 61.9766 322.834 62.2848C323.073 62.593 323.421 62.7472 323.878 62.7472C324.157 62.7472 324.445 62.6776 324.743 62.5384C325.041 62.3991 325.305 62.1887 325.534 61.907C325.766 61.6252 325.916 61.2673 325.986 60.8331ZM333.785 56.3636L333.591 57.5568H329.42L329.614 56.3636H333.785ZM331.031 54.5341H332.517L331.314 61.7578C331.268 62.0462 331.276 62.2633 331.339 62.4091C331.402 62.5516 331.498 62.6494 331.628 62.7024C331.76 62.7521 331.908 62.777 332.07 62.777C332.189 62.777 332.294 62.7687 332.383 62.7521C332.473 62.7356 332.544 62.7223 332.597 62.7124L332.677 63.9403C332.577 63.9735 332.443 64.0066 332.274 64.0398C332.108 64.0762 331.906 64.0961 331.667 64.0994C331.276 64.1061 330.923 64.0365 330.608 63.8906C330.294 63.7415 330.058 63.5161 329.902 63.2145C329.747 62.9096 329.709 62.5268 329.788 62.0661L331.031 54.5341ZM341.113 64.1541C340.388 64.1541 339.781 63.9884 339.294 63.657C338.807 63.3222 338.464 62.8549 338.265 62.255C338.069 61.6518 338.036 60.9508 338.165 60.152C338.291 59.3698 338.545 58.687 338.926 58.1037C339.31 57.5204 339.791 57.0679 340.368 56.7464C340.948 56.425 341.592 56.2642 342.302 56.2642C343.027 56.2642 343.632 56.4316 344.116 56.7663C344.603 57.1011 344.946 57.5701 345.145 58.1733C345.344 58.7765 345.379 59.4792 345.25 60.2812C345.124 61.0568 344.867 61.7363 344.479 62.3196C344.095 62.8996 343.614 63.3504 343.037 63.6719C342.461 63.9934 341.819 64.1541 341.113 64.1541ZM341.198 62.9062C341.675 62.9062 342.091 62.7803 342.446 62.5284C342.804 62.2765 343.095 61.9418 343.321 61.5241C343.546 61.1065 343.7 60.6491 343.783 60.152C343.859 59.6714 343.858 59.2322 343.778 58.8345C343.702 58.4335 343.536 58.112 343.281 57.87C343.026 57.6281 342.671 57.5071 342.217 57.5071C341.74 57.5071 341.321 57.6347 340.959 57.8899C340.601 58.1418 340.31 58.4782 340.084 58.8991C339.862 59.3201 339.711 59.7791 339.632 60.2763C339.556 60.7536 339.556 61.1927 339.632 61.5938C339.708 61.9915 339.874 62.3097 340.129 62.5483C340.384 62.7869 340.741 62.9062 341.198 62.9062ZM345.825 66.8636L347.585 56.3636H349.037L348.833 57.6016H348.957C349.07 57.4425 349.222 57.2585 349.415 57.0497C349.61 56.8409 349.867 56.6586 350.185 56.5028C350.503 56.3438 350.9 56.2642 351.373 56.2642C351.99 56.2642 352.512 56.42 352.94 56.7315C353.367 57.0431 353.672 57.4922 353.854 58.0788C354.037 58.6655 354.06 59.3714 353.924 60.1967C353.788 61.022 353.533 61.7296 353.158 62.3196C352.784 62.9062 352.33 63.3587 351.796 63.6768C351.266 63.9917 350.691 64.1491 350.071 64.1491C349.607 64.1491 349.241 64.0713 348.972 63.9155C348.707 63.7597 348.51 63.5774 348.381 63.3686C348.251 63.1598 348.154 62.9742 348.087 62.8118H347.998L347.322 66.8636H345.825ZM348.405 60.1818C348.319 60.7187 348.319 61.1894 348.405 61.5938C348.492 61.9981 348.664 62.3146 348.922 62.5433C349.184 62.7687 349.529 62.8814 349.957 62.8814C350.401 62.8814 350.79 62.7637 351.125 62.5284C351.46 62.2898 351.736 61.9666 351.955 61.5589C352.177 61.1513 352.331 60.6922 352.418 60.1818C352.5 59.678 352.499 59.2256 352.413 58.8246C352.33 58.4235 352.159 58.107 351.9 57.875C351.642 57.643 351.289 57.527 350.842 57.527C350.407 57.527 350.023 57.638 349.688 57.8601C349.357 58.0821 349.082 58.392 348.863 58.7898C348.644 59.1875 348.492 59.6515 348.405 60.1818ZM359.789 56.3636L359.595 57.5568H355.424L355.618 56.3636H359.789ZM357.035 54.5341H358.521L357.318 61.7578C357.272 62.0462 357.28 62.2633 357.343 62.4091C357.406 62.5516 357.502 62.6494 357.631 62.7024C357.764 62.7521 357.912 62.777 358.074 62.777C358.193 62.777 358.298 62.7687 358.387 62.7521C358.477 62.7356 358.548 62.7223 358.601 62.7124L358.68 63.9403C358.581 63.9735 358.447 64.0066 358.278 64.0398C358.112 64.0762 357.91 64.0961 357.671 64.0994C357.28 64.1061 356.927 64.0365 356.612 63.8906C356.297 63.7415 356.062 63.5161 355.906 63.2145C355.751 62.9096 355.712 62.5268 355.792 62.0661L357.035 54.5341ZM360.161 64L361.434 56.3636H362.92L361.647 64H360.161ZM362.487 55.1705C362.229 55.1705 362.01 55.0843 361.831 54.9119C361.656 54.7363 361.574 54.5275 361.588 54.2855C361.601 54.0402 361.704 53.8314 361.896 53.6591C362.088 53.4834 362.312 53.3956 362.567 53.3956C362.826 53.3956 363.043 53.4834 363.218 53.6591C363.394 53.8314 363.477 54.0402 363.467 54.2855C363.454 54.5275 363.351 54.7363 363.159 54.9119C362.97 55.0843 362.746 55.1705 362.487 55.1705ZM366.899 64.1541C366.173 64.1541 365.566 63.9884 365.079 63.657C364.592 63.3222 364.249 62.8549 364.05 62.255C363.854 61.6518 363.821 60.9508 363.95 60.152C364.076 59.3698 364.33 58.687 364.711 58.1037C365.095 57.5204 365.576 57.0679 366.153 56.7464C366.733 56.425 367.377 56.2642 368.087 56.2642C368.813 56.2642 369.417 56.4316 369.901 56.7663C370.389 57.1011 370.732 57.5701 370.93 58.1733C371.129 58.7765 371.164 59.4792 371.035 60.2812C370.909 61.0568 370.652 61.7363 370.264 62.3196C369.88 62.8996 369.399 63.3504 368.823 63.6719C368.246 63.9934 367.604 64.1541 366.899 64.1541ZM366.983 62.9062C367.46 62.9062 367.876 62.7803 368.231 62.5284C368.589 62.2765 368.881 61.9418 369.106 61.5241C369.331 61.1065 369.485 60.6491 369.568 60.152C369.645 59.6714 369.643 59.2322 369.563 58.8345C369.487 58.4335 369.321 58.112 369.066 57.87C368.811 57.6281 368.456 57.5071 368.002 57.5071C367.525 57.5071 367.106 57.6347 366.744 57.8899C366.386 58.1418 366.095 58.4782 365.869 58.8991C365.647 59.3201 365.497 59.7791 365.417 60.2763C365.341 60.7536 365.341 61.1927 365.417 61.5938C365.493 61.9915 365.659 62.3097 365.914 62.5483C366.169 62.7869 366.526 62.9062 366.983 62.9062ZM374.32 59.4659L373.574 64H372.088L373.36 56.3636H374.787L374.578 57.6065H374.673C374.915 57.1989 375.245 56.8741 375.662 56.6321C376.083 56.3868 376.58 56.2642 377.154 56.2642C377.671 56.2642 378.105 56.3736 378.456 56.5923C378.811 56.8078 379.061 57.1293 379.207 57.5568C379.356 57.9844 379.379 58.513 379.277 59.1428L378.461 64H376.975L377.755 59.3217C377.845 58.7682 377.772 58.3357 377.536 58.0241C377.304 57.7093 376.935 57.5518 376.428 57.5518C376.083 57.5518 375.763 57.6264 375.468 57.7756C375.177 57.9247 374.93 58.1435 374.728 58.4318C374.529 58.7169 374.393 59.0616 374.32 59.4659ZM387.137 58.228L385.75 58.4666C385.72 58.291 385.658 58.1252 385.566 57.9695C385.476 57.8137 385.339 57.6877 385.153 57.5916C384.967 57.4922 384.72 57.4425 384.412 57.4425C383.985 57.4425 383.61 57.5402 383.289 57.7358C382.97 57.9313 382.788 58.1799 382.742 58.4815C382.699 58.7268 382.757 58.9257 382.916 59.0781C383.075 59.2273 383.355 59.3516 383.756 59.451L384.929 59.7294C385.605 59.8918 386.089 60.1454 386.381 60.4901C386.676 60.8314 386.779 61.2756 386.689 61.8224C386.613 62.2765 386.414 62.6792 386.093 63.0305C385.774 63.3819 385.367 63.657 384.87 63.8558C384.372 64.0547 383.819 64.1541 383.209 64.1541C382.341 64.1541 381.665 63.9702 381.181 63.6023C380.697 63.2344 380.448 62.714 380.435 62.0412L381.907 61.8224C381.933 62.197 382.067 62.4804 382.309 62.6726C382.554 62.8615 382.894 62.956 383.328 62.956C383.826 62.9593 384.242 62.8549 384.576 62.6428C384.911 62.4306 385.102 62.1738 385.148 61.8722C385.188 61.6368 385.135 61.4413 384.989 61.2855C384.846 61.1297 384.594 61.0104 384.233 60.9276L383 60.6442C382.311 60.4818 381.824 60.2199 381.539 59.8587C381.254 59.4974 381.157 59.0433 381.25 58.4964C381.323 58.049 381.512 57.6596 381.817 57.3281C382.125 56.9934 382.515 56.7332 382.985 56.5476C383.456 56.3587 383.976 56.2642 384.546 56.2642C385.378 56.2642 386.003 56.4432 386.421 56.8011C386.838 57.1558 387.077 57.6314 387.137 58.228ZM389.059 64.0945C388.781 64.0945 388.549 63.9983 388.363 63.8061C388.181 63.6139 388.092 63.3786 388.095 63.1001C388.098 62.825 388.201 62.5947 388.403 62.4091C388.609 62.2202 388.847 62.1257 389.119 62.1257C389.391 62.1257 389.623 62.2218 389.815 62.4141C390.007 62.6063 390.097 62.835 390.084 63.1001C390.074 63.2857 390.021 63.4548 389.924 63.6072C389.832 63.7564 389.709 63.8757 389.557 63.9652C389.404 64.0514 389.238 64.0945 389.059 64.0945Z" fill="#3E4968"/>
<g clip-path="url(#clip1_3370_6063)">
<rect width="652" height="30" transform="translate(0 86)" fill="#FBFBFB"/>
<path d="M24.5636 99.5409H22.5284C22.4912 99.2715 22.4153 99.0323 22.3007 98.8232C22.1861 98.6109 22.039 98.4303 21.8593 98.2814C21.6796 98.1324 21.4721 98.0184 21.2366 97.9392C21.0043 97.8599 20.7519 97.8203 20.4793 97.8203C19.9867 97.8203 19.5577 97.9455 19.1922 98.1958C18.8266 98.443 18.5432 98.8042 18.3419 99.2795C18.1405 99.7516 18.0398 100.325 18.0398 101C18.0398 101.694 18.1405 102.277 18.3419 102.749C18.5463 103.221 18.8313 103.578 19.1968 103.818C19.5623 104.059 19.9852 104.18 20.4653 104.18C20.7348 104.18 20.9842 104.143 21.2134 104.07C21.4457 103.997 21.6517 103.891 21.8314 103.752C22.0111 103.609 22.1598 103.437 22.2775 103.234C22.3983 103.031 22.4819 102.8 22.5284 102.54L24.5636 102.549C24.5109 102.996 24.3793 103.427 24.1686 103.842C23.9611 104.254 23.6807 104.623 23.3276 104.95C22.9776 105.273 22.5594 105.529 22.073 105.72C21.5898 105.907 21.043 106 20.4328 106C19.584 106 18.8251 105.804 18.156 105.411C17.49 105.018 16.9634 104.449 16.5762 103.704C16.1921 102.96 16 102.058 16 101C16 99.9385 16.1952 99.0355 16.5855 98.2909C16.9758 97.5463 17.5055 96.9791 18.1746 96.5894C18.8437 96.1965 19.5964 96 20.4328 96C20.9842 96 21.4953 96.0792 21.9662 96.2376C22.4401 96.3961 22.8598 96.6274 23.2254 96.9316C23.5909 97.2326 23.8883 97.6017 24.1175 98.039C24.3498 98.4762 24.4985 98.9769 24.5636 99.5409Z" fill="#60034C"/>
<path d="M36.205 101C36.205 102.061 36.0083 102.965 35.6148 103.709C35.2245 104.454 34.6917 105.022 34.0164 105.415C33.3442 105.805 32.5884 106 31.7489 106C30.9033 106 30.1443 105.804 29.4721 105.411C28.7999 105.018 28.2687 104.449 27.8784 103.704C27.4881 102.96 27.2929 102.058 27.2929 101C27.2929 99.9385 27.4881 99.0355 27.8784 98.2909C28.2687 97.5463 28.7999 96.9791 29.4721 96.5894C30.1443 96.1965 30.9033 96 31.7489 96C32.5884 96 33.3442 96.1965 34.0164 96.5894C34.6917 96.9791 35.2245 97.5463 35.6148 98.2909C36.0083 99.0355 36.205 99.9385 36.205 101ZM34.1651 101C34.1651 100.312 34.0645 99.7326 33.8631 99.2605C33.6648 98.7883 33.3845 98.4303 33.0221 98.1863C32.6596 97.9423 32.2353 97.8203 31.7489 97.8203C31.2626 97.8203 30.8382 97.9423 30.4758 98.1863C30.1133 98.4303 29.8315 98.7883 29.6301 99.2605C29.4319 99.7326 29.3327 100.312 29.3327 101C29.3327 101.688 29.4319 102.267 29.6301 102.74C29.8315 103.212 30.1133 103.57 30.4758 103.814C30.8382 104.058 31.2626 104.18 31.7489 104.18C32.2353 104.18 32.6596 104.058 33.0221 103.814C33.3845 103.57 33.6648 103.212 33.8631 102.74C34.0645 102.267 34.1651 101.688 34.1651 101Z" fill="#60034C"/>
<path d="M47.1087 96.1331V105.867H45.3709L41.2308 99.7405H41.1611V105.867H39.1492V96.1331H40.9149L45.0224 102.255H45.106V96.1331H47.1087Z" fill="#60034C"/>
<path d="M49.8624 97.8298V96.1331H57.6779V97.8298H54.7645V105.867H52.7758V97.8298H49.8624Z" fill="#60034C"/>
<path d="M60.4188 105.867V96.1331H64.1733C64.8919 96.1331 65.5053 96.2646 66.0133 96.5276C66.5244 96.7874 66.9132 97.1565 67.1796 97.635C67.4491 98.1103 67.5838 98.6695 67.5838 99.3127C67.5838 99.9591 67.4475 100.515 67.1749 100.981C66.9023 101.444 66.5074 101.798 65.99 102.046C65.4758 102.293 64.8532 102.416 64.1221 102.416H61.6084V100.762H63.7969C64.181 100.762 64.5001 100.708 64.7541 100.601C65.0081 100.493 65.197 100.331 65.3209 100.116C65.448 99.9005 65.5115 99.6328 65.5115 99.3127C65.5115 98.9895 65.448 98.717 65.3209 98.4952C65.197 98.2734 65.0065 98.1055 64.7494 97.9914C64.4954 97.8742 64.1748 97.8156 63.7876 97.8156H62.4308V105.867H60.4188ZM65.5579 101.437L67.923 105.867H65.702L63.388 101.437H65.5579Z" fill="#60034C"/>
<path d="M72.0997 105.867H69.9437L73.2288 96.1331H75.8216L79.1021 105.867H76.9461L74.5624 98.3574H74.4881L72.0997 105.867ZM71.965 102.041H77.0576V103.647H71.965V102.041Z" fill="#60034C"/>
<path d="M89.6504 99.5409H87.6152C87.578 99.2715 87.5021 99.0323 87.3875 98.8232C87.2729 98.6109 87.1257 98.4303 86.9461 98.2814C86.7664 98.1324 86.5589 98.0184 86.3234 97.9392C86.0911 97.8599 85.8386 97.8203 85.566 97.8203C85.0735 97.8203 84.6445 97.9455 84.279 98.1958C83.9134 98.443 83.63 98.8042 83.4286 99.2795C83.2273 99.7516 83.1266 100.325 83.1266 101C83.1266 101.694 83.2273 102.277 83.4286 102.749C83.6331 103.221 83.9181 103.578 84.2836 103.818C84.6491 104.059 85.072 104.18 85.5521 104.18C85.8216 104.18 86.071 104.143 86.3002 104.07C86.5325 103.997 86.7385 103.891 86.9182 103.752C87.0979 103.609 87.2465 103.437 87.3643 103.234C87.4851 103.031 87.5687 102.8 87.6152 102.54L89.6504 102.549C89.5977 102.996 89.466 103.427 89.2554 103.842C89.0479 104.254 88.7675 104.623 88.4144 104.95C88.0643 105.273 87.6461 105.529 87.1598 105.72C86.6766 105.907 86.1298 106 85.5196 106C84.6708 106 83.9119 105.804 83.2428 105.411C82.5768 105.018 82.0502 104.449 81.663 103.704C81.2788 102.96 81.0868 102.058 81.0868 101C81.0868 99.9385 81.2819 99.0355 81.6722 98.2909C82.0626 97.5463 82.5923 96.9791 83.2614 96.5894C83.9305 96.1965 84.6832 96 85.5196 96C86.071 96 86.5821 96.0792 87.0529 96.2376C87.5269 96.3961 87.9466 96.6274 88.3122 96.9316C88.6777 97.2326 88.9751 97.6017 89.2043 98.039C89.4366 98.4762 89.5853 98.9769 89.6504 99.5409Z" fill="#60034C"/>
<path d="M92.1845 97.8298V96.1331H100V97.8298H97.0866V105.867H95.0979V97.8298H92.1845Z" fill="#60034C"/>
<path d="M204.804 102.078H206.534L207.403 103.139L208.259 104.084L209.872 106H207.972L206.863 104.708L206.294 103.941L204.804 102.078ZM210.018 100.688C210.018 101.683 209.819 102.53 209.42 103.228C209.026 103.926 208.486 104.46 207.803 104.828C207.123 105.193 206.358 105.376 205.509 105.376C204.653 105.376 203.885 105.192 203.205 104.824C202.525 104.455 201.987 103.922 201.592 103.224C201.197 102.526 201 101.68 201 100.688C201 99.6928 201.197 98.8461 201.592 98.1479C201.987 97.4498 202.525 96.918 203.205 96.5526C203.885 96.1842 204.653 96 205.509 96C206.358 96 207.123 96.1842 207.803 96.5526C208.486 96.918 209.026 97.4498 209.42 98.1479C209.819 98.8461 210.018 99.6928 210.018 100.688ZM207.954 100.688C207.954 100.043 207.852 99.4997 207.648 99.057C207.447 98.6144 207.164 98.2787 206.797 98.0499C206.43 97.8212 206.001 97.7068 205.509 97.7068C205.017 97.7068 204.587 97.8212 204.221 98.0499C203.854 98.2787 203.569 98.6144 203.365 99.057C203.164 99.4997 203.064 100.043 203.064 100.688C203.064 101.333 203.164 101.876 203.365 102.319C203.569 102.762 203.854 103.097 204.221 103.326C204.587 103.555 205.017 103.669 205.509 103.669C206.001 103.669 206.43 103.555 206.797 103.326C207.164 103.097 207.447 102.762 207.648 102.319C207.852 101.876 207.954 101.333 207.954 100.688Z" fill="#60034C"/>
<path d="M218.944 96.1248H220.98V102.052C220.98 102.717 220.812 103.299 220.477 103.799C220.145 104.298 219.679 104.687 219.08 104.966C218.482 105.242 217.784 105.381 216.988 105.381C216.189 105.381 215.49 105.242 214.891 104.966C214.293 104.687 213.827 104.298 213.495 103.799C213.163 103.299 212.997 102.717 212.997 102.052V96.1248H215.032V101.887C215.032 102.234 215.112 102.543 215.272 102.814C215.435 103.084 215.664 103.296 215.959 103.451C216.253 103.605 216.596 103.683 216.988 103.683C217.383 103.683 217.726 103.605 218.018 103.451C218.312 103.296 218.54 103.084 218.7 102.814C218.863 102.543 218.944 102.234 218.944 101.887V96.1248Z" fill="#60034C"/>
<path d="M225.785 105.251H223.604L226.928 96.1248H229.551L232.871 105.251H230.689L228.277 98.2103H228.202L225.785 105.251ZM225.649 101.664H230.802V103.17H225.649V101.664Z" fill="#60034C"/>
<path d="M243.554 96.1248V105.251H241.796L237.607 99.5071H237.536V105.251H235.501V96.1248H237.287L241.443 101.865H241.528V96.1248H243.554Z" fill="#60034C"/>
<path d="M246.341 97.7157V96.1248H254.249V97.7157H251.301V105.251H249.289V97.7157H246.341Z" fill="#60034C"/>
<path d="M259.058 96.1248V105.251H257.022V96.1248H259.058Z" fill="#60034C"/>
<path d="M261.837 97.7157V96.1248H269.745V97.7157H266.797V105.251H264.785V97.7157H261.837Z" fill="#60034C"/>
<path d="M271.954 96.1248H274.234L276.43 100.055H276.524L278.72 96.1248H281L277.488 102.025V105.251H275.466V102.025L271.954 96.1248Z" fill="#60034C"/>
<path d="M377 105.867V96.1331H380.771C381.496 96.1331 382.114 96.2741 382.624 96.5561C383.134 96.8349 383.523 97.2231 383.791 97.7205C384.061 98.2148 384.197 98.7852 384.197 99.4316C384.197 100.078 384.06 100.648 383.786 101.143C383.512 101.637 383.115 102.022 382.596 102.298C382.079 102.573 381.454 102.711 380.72 102.711H378.316V101.062H380.393C380.782 101.062 381.102 100.994 381.354 100.857C381.609 100.718 381.799 100.526 381.924 100.282C382.051 100.035 382.115 99.7516 382.115 99.4316C382.115 99.1084 382.051 98.8264 381.924 98.5856C381.799 98.3416 381.609 98.153 381.354 98.02C381.099 97.8837 380.776 97.8156 380.384 97.8156H379.021V105.867H377Z" fill="#60034C"/>
<path d="M386.969 105.867V96.1331H390.74C391.462 96.1331 392.078 96.2646 392.589 96.5276C393.102 96.7874 393.492 97.1565 393.76 97.635C394.031 98.1103 394.166 98.6695 394.166 99.3127C394.166 99.9591 394.029 100.515 393.755 100.981C393.482 101.444 393.085 101.798 392.565 102.046C392.049 102.293 391.423 102.416 390.689 102.416H388.164V100.762H390.362C390.748 100.762 391.069 100.708 391.324 100.601C391.579 100.493 391.769 100.331 391.893 100.116C392.021 99.9005 392.085 99.6328 392.085 99.3127C392.085 98.9895 392.021 98.717 391.893 98.4952C391.769 98.2734 391.577 98.1055 391.319 97.9914C391.064 97.8742 390.742 97.8156 390.353 97.8156H388.99V105.867H386.969ZM392.131 101.437L394.507 105.867H392.276L389.952 101.437H392.131Z" fill="#60034C"/>
<path d="M399.075 96.1331V105.867H397.054V96.1331H399.075Z" fill="#60034C"/>
<path d="M410.631 99.5409H408.587C408.55 99.2715 408.474 99.0323 408.359 98.8232C408.243 98.6109 408.096 98.4303 407.915 98.2814C407.735 98.1324 407.526 98.0184 407.29 97.9392C407.056 97.8599 406.803 97.8203 406.529 97.8203C406.034 97.8203 405.603 97.9455 405.236 98.1958C404.869 98.443 404.585 98.8042 404.382 99.2795C404.18 99.7516 404.079 100.325 404.079 101C404.079 101.694 404.18 102.277 404.382 102.749C404.588 103.221 404.874 103.578 405.241 103.818C405.608 104.059 406.033 104.18 406.515 104.18C406.786 104.18 407.036 104.143 407.267 104.07C407.5 103.997 407.707 103.891 407.887 103.752C408.068 103.609 408.217 103.437 408.335 103.234C408.457 103.031 408.541 102.8 408.587 102.54L410.631 102.549C410.579 102.996 410.446 103.427 410.235 103.842C410.026 104.254 409.745 104.623 409.39 104.95C409.038 105.273 408.618 105.529 408.13 105.72C407.645 105.907 407.095 106 406.482 106C405.63 106 404.868 105.804 404.196 105.411C403.527 105.018 402.998 104.449 402.609 103.704C402.223 102.96 402.03 102.058 402.03 101C402.03 99.9385 402.226 99.0355 402.618 98.2909C403.01 97.5463 403.542 96.9791 404.214 96.5894C404.886 96.1965 405.642 96 406.482 96C407.036 96 407.55 96.0792 408.023 96.2376C408.499 96.3961 408.92 96.6274 409.287 96.9316C409.654 97.2326 409.953 97.6017 410.183 98.039C410.417 98.4762 410.566 98.9769 410.631 99.5409Z" fill="#60034C"/>
<path d="M413.541 105.867V96.1331H419.981V97.8298H415.562V100.149H419.65V101.846H415.562V104.17H420V105.867H413.541Z" fill="#60034C"/>
<path d="M557 97.8298V96.1331H564.694V97.8298H561.826V105.867H559.868V97.8298H557Z" fill="#60034C"/>
<path d="M575.574 101C575.574 102.061 575.38 102.965 574.993 103.709C574.609 104.454 574.084 105.022 573.419 105.415C572.758 105.805 572.013 106 571.187 106C570.354 106 569.607 105.804 568.946 105.411C568.284 105.018 567.761 104.449 567.377 103.704C566.992 102.96 566.8 102.058 566.8 101C566.8 99.9385 566.992 99.0355 567.377 98.2909C567.761 97.5463 568.284 96.9791 568.946 96.5894C569.607 96.1965 570.354 96 571.187 96C572.013 96 572.758 96.1965 573.419 96.5894C574.084 96.9791 574.609 97.5463 574.993 98.2909C575.38 99.0355 575.574 99.9385 575.574 101ZM573.566 101C573.566 100.312 573.467 99.7326 573.268 99.2605C573.073 98.7883 572.797 98.4303 572.44 98.1863C572.084 97.9423 571.666 97.8203 571.187 97.8203C570.708 97.8203 570.29 97.9423 569.934 98.1863C569.577 98.4303 569.299 98.7883 569.101 99.2605C568.906 99.7326 568.808 100.312 568.808 101C568.808 101.688 568.906 102.267 569.101 102.74C569.299 103.212 569.577 103.57 569.934 103.814C570.29 104.058 570.708 104.18 571.187 104.18C571.666 104.18 572.084 104.058 572.44 103.814C572.797 103.57 573.073 103.212 573.268 102.74C573.467 102.267 573.566 101.688 573.566 101Z" fill="#60034C"/>
<path d="M577.688 97.8298V96.1331H585.382V97.8298H582.514V105.867H580.556V97.8298H577.688Z" fill="#60034C"/>
<path d="M588.55 105.867H586.428L589.662 96.1331H592.215L595.444 105.867H593.322L590.975 98.3574H590.902L588.55 105.867ZM588.418 102.041H593.431V103.647H588.418V102.041Z" fill="#60034C"/>
<path d="M598.003 105.867V96.1331H599.984V104.17H604V105.867H598.003Z" fill="#60034C"/>
<rect opacity="0.1" x="16" y="126" width="90" height="22" rx="2" fill="#60034C"/>
<rect opacity="0.1" x="196" y="126" width="90" height="22" rx="2" fill="#60034C"/>
<rect opacity="0.1" x="376" y="126" width="90" height="22" rx="2" fill="#60034C"/>
<rect opacity="0.1" x="556" y="126" width="90" height="22" rx="2" fill="#60034C"/>
<rect width="652" height="42" transform="translate(0 158)" fill="#FBFBFB"/>
<rect opacity="0.1" x="16" y="168" width="90" height="22" rx="2" fill="#E58B76"/>
<rect opacity="0.1" x="196" y="168" width="90" height="22" rx="2" fill="#E58B76"/>
<rect opacity="0.1" x="376" y="168" width="90" height="22" rx="2" fill="#E58B76"/>
<rect opacity="0.1" x="556" y="168" width="90" height="22" rx="2" fill="#E58B76"/>
<rect opacity="0.1" x="16" y="210" width="90" height="22" rx="2" fill="#E58B76"/>
<rect opacity="0.1" x="196" y="210" width="90" height="22" rx="2" fill="#E58B76"/>
<rect opacity="0.1" x="376" y="210" width="90" height="22" rx="2" fill="#E58B76"/>
<rect opacity="0.1" x="556" y="210" width="90" height="22" rx="2" fill="#E58B76"/>
<rect width="652" height="42" transform="translate(0 242)" fill="#FBFBFB"/>
<rect opacity="0.1" x="16" y="252" width="90" height="22" rx="2" fill="#E58B76"/>
<rect opacity="0.1" x="196" y="252" width="90" height="22" rx="2" fill="#E58B76"/>
<rect opacity="0.1" x="376" y="252" width="90" height="22" rx="2" fill="#E58B76"/>
<rect opacity="0.1" x="556" y="252" width="90" height="22" rx="2" fill="#E58B76"/>
</g>
<rect x="658" y="86" width="10" height="210" rx="5" fill="#FCD3CF"/>
<rect x="658" y="86" width="10" height="70" rx="5" fill="#60034C"/>
<rect width="668" height="86" transform="translate(0 296)" fill="#60034C" fill-opacity="0.1"/>
<rect opacity="0.1" x="16" y="328" width="187" height="22" rx="2" fill="#60034C"/>
<path d="M213.48 346.102C214.113 346.102 214.631 345.585 214.631 344.952C214.631 344.319 214.113 343.801 213.48 343.801C212.847 343.801 212.33 344.319 212.33 344.952C212.33 345.585 212.847 346.102 213.48 346.102ZM213.48 338.815C214.113 338.815 214.631 338.298 214.631 337.665C214.631 337.032 214.113 336.514 213.48 336.514C212.847 336.514 212.33 337.032 212.33 337.665C212.33 338.298 212.847 338.815 213.48 338.815Z" fill="#3E4968"/>
<rect opacity="0.1" x="224" y="328" width="92" height="22" rx="2" fill="#60034C"/>
<rect x="504" y="312" width="152" height="54" rx="27" fill="#60034C" fill-opacity="0.1"/>
<rect opacity="0.1" x="534" y="328" width="92" height="22" rx="2" fill="#7A0F63"/>
</g>
<defs>
<clipPath id="clip0_3370_6063">
<rect width="668" height="382" rx="8" fill="white"/>
</clipPath>
<clipPath id="clip1_3370_6063">
<rect width="652" height="198" fill="white" transform="translate(0 86)"/>
</clipPath>
</defs>
</svg>
