<svg width="64" height="64" viewBox="0 0 64 64" fill="none" xmlns="http://www.w3.org/2000/svg">
<path fill-rule="evenodd" clip-rule="evenodd" d="M50.9327 15.7895C44.3754 15.2721 38.4074 12.6615 33.698 8.62146C32.7327 7.7948 31.2633 7.7948 30.3007 8.62146C25.5913 12.6588 19.6233 15.2721 13.066 15.7895C11.7007 15.8961 10.666 17.0641 10.666 18.4321V29.9788C10.666 41.6241 19.082 52.5441 30.6073 55.8055C31.5113 56.0615 32.49 56.0615 33.394 55.8055C44.9167 52.5415 53.3327 41.6268 53.3327 29.9815V18.4348C53.3327 17.0641 52.298 15.8961 50.9327 15.7895Z" stroke="#60034C" stroke-width="3" stroke-linecap="round" stroke-linejoin="round"/>
<path d="M51.9727 31.9727H11.9727" stroke="#60034C" stroke-width="3" stroke-linecap="round" stroke-linejoin="round"/>
<path d="M31.9727 9.97266L31.9727 53.9727" stroke="#60034C" stroke-width="3" stroke-linecap="round" stroke-linejoin="round"/>
</svg>
