<svg width="65" height="64" viewBox="0 0 65 64" fill="none" xmlns="http://www.w3.org/2000/svg">
<path d="M49.4705 15.0294C58.8431 24.402 58.8431 39.598 49.4705 48.9705C40.0979 58.3431 24.902 58.3431 15.5294 48.9705C6.15685 39.5979 6.15685 24.402 15.5294 15.0294C24.902 5.65685 40.098 5.65685 49.4705 15.0294" stroke="#60034C" stroke-width="3" stroke-linecap="round" stroke-linejoin="round"/>
<path d="M46.9345 50.7495C46.4625 49.5602 45.7292 48.4935 44.7905 47.6242C43.2038 46.1522 41.1292 45.3335 38.9638 45.3335C35.3532 45.3335 29.6465 45.3335 26.0358 45.3335C23.8705 45.3335 21.7958 46.1522 20.2065 47.6242C19.2678 48.4935 18.5372 49.5602 18.0625 50.7495" stroke="#60034C" stroke-width="3" stroke-linecap="round" stroke-linejoin="round"/>
<path d="M36.2706 28.2286C38.3534 30.3114 38.3534 33.6883 36.2706 35.7711C34.1878 37.8539 30.8109 37.8539 28.7281 35.7711C26.6453 33.6883 26.6453 30.3114 28.7281 28.2286C30.8109 26.1458 34.1878 26.1458 36.2706 28.2286" stroke="#60034C" stroke-width="3" stroke-linecap="round" stroke-linejoin="round"/>
<path d="M32.4993 8V13.3333" stroke="#60034C" stroke-width="3" stroke-linecap="round" stroke-linejoin="round"/>
<path d="M44.4992 11.2266L42.1792 15.2266" stroke="#60034C" stroke-width="3" stroke-linecap="round" stroke-linejoin="round"/>
<path d="M20.4995 11.2266L22.8195 15.2266" stroke="#60034C" stroke-width="3" stroke-linecap="round" stroke-linejoin="round"/>
<path d="M11.7266 20L15.7266 22.32" stroke="#60034C" stroke-width="3" stroke-linecap="round" stroke-linejoin="round"/>
<path d="M56.5 31.9998H52.5" stroke="#60034C" stroke-width="3" stroke-linecap="round" stroke-linejoin="round"/>
<path d="M12.5 31.9998H8.5" stroke="#60034C" stroke-width="3" stroke-linecap="round" stroke-linejoin="round"/>
<path d="M37.2734 29.68L53.2734 20" stroke="#60034C" stroke-width="3" stroke-linecap="round" stroke-linejoin="round"/>
</svg>
