<svg width="65" height="64" viewBox="0 0 65 64" fill="none" xmlns="http://www.w3.org/2000/svg">
<path fill-rule="evenodd" clip-rule="evenodd" d="M57.6133 35.1424C57.979 35.7352 58.1526 36.4267 58.1101 37.1221C57.7978 42.8403 53.1717 47.3742 47.4484 47.5712C41.7215 47.3793 37.0903 42.8437 36.779 37.1221C36.7324 36.4205 36.9041 35.7218 37.2707 35.1219L47.4381 17.9141C47.4381 17.9141 55.4466 31.4877 57.6133 35.1424Z" stroke="#60034C" stroke-width="3" stroke-linecap="round" stroke-linejoin="round"/>
<path d="M58.0095 36.054H36.873" stroke="#60034C" stroke-width="3" stroke-linecap="round" stroke-linejoin="round"/>
<path fill-rule="evenodd" clip-rule="evenodd" d="M27.7333 43.8933C28.0967 44.4897 28.2667 45.1839 28.2199 45.8807C27.9113 51.5996 23.2846 56.1351 17.5607 56.3299C11.8347 56.1394 7.20276 51.6064 6.88874 45.8858C6.84704 45.1812 7.02608 44.4812 7.40096 43.8831L17.5684 26.665L27.7333 43.8933Z" stroke="#60034C" stroke-width="3" stroke-linecap="round" stroke-linejoin="round"/>
<path d="M28.1287 44.8054H6.99219" stroke="#60034C" stroke-width="3" stroke-linecap="round" stroke-linejoin="round"/>
<path d="M47.4399 17.9141L17.5625 26.6652" stroke="#60034C" stroke-width="3" stroke-linecap="round" stroke-linejoin="round"/>
<path d="M30.3665 12.792V22.9159" stroke="#60034C" stroke-width="3" stroke-linecap="round" stroke-linejoin="round"/>
</svg>
