<svg width="81" height="81" viewBox="0 0 81 81" fill="none" xmlns="http://www.w3.org/2000/svg">
<rect x="0.666016" width="80.0267" height="80.0267" rx="16" fill="#60034C"/>
<path d="M16.6699 35.8305V29.8147C16.6694 27.8762 17.7203 26.0899 19.4151 25.1488L24.6733 22.2275" stroke="white" stroke-width="3" stroke-linecap="round" stroke-linejoin="round"/>
<path d="M64.6889 44.1963V50.2121C64.6884 52.1497 63.6376 53.9347 61.9437 54.8754L56.6855 57.7993" stroke="white" stroke-width="3" stroke-linecap="round" stroke-linejoin="round"/>
<path d="M33.6797 36.1348L40.6799 40.0137L47.6802 36.1348" stroke="white" stroke-width="3" stroke-linecap="round" stroke-linejoin="round"/>
<path d="M40.6796 40.0137V48.017" stroke="white" stroke-width="3" stroke-linecap="round" stroke-linejoin="round"/>
<path d="M64.6889 35.8305V29.8147C64.6884 27.8771 63.6376 26.0921 61.9437 25.1514L56.6855 22.2275" stroke="white" stroke-width="3" stroke-linecap="round" stroke-linejoin="round"/>
<path d="M16.6699 44.1963V50.2121C16.6704 52.1497 17.7212 53.9347 19.4151 54.8754L24.6733 57.7993" stroke="white" stroke-width="3" stroke-linecap="round" stroke-linejoin="round"/>
<path d="M48.6824 62.2441L43.2695 65.2507C41.6578 66.1464 39.6978 66.1464 38.086 65.2507L32.6758 62.2441" stroke="white" stroke-width="3" stroke-linecap="round" stroke-linejoin="round"/>
<path d="M32.6758 17.7828L38.0887 14.7763C39.7005 13.8806 41.6604 13.8806 43.2722 14.7763L48.6824 17.7828" stroke="white" stroke-width="3" stroke-linecap="round" stroke-linejoin="round"/>
</svg>
