<svg width="80" height="80" viewBox="0 0 80 80" fill="none" xmlns="http://www.w3.org/2000/svg">
<rect width="80" height="80" rx="16" fill="#60034C"/>
<path d="M63.4475 33.3955C65.5543 35.5022 65.5543 38.9179 63.4475 41.0247C61.3408 43.1314 57.9251 43.1314 55.8183 41.0247C53.7116 38.9179 53.7116 35.5022 55.8183 33.3955C57.9251 31.2887 61.3408 31.2887 63.4475 33.3955" stroke="white" stroke-width="3" stroke-linecap="round" stroke-linejoin="round"/>
<path d="M45.8757 23.766C49.1196 27.0099 49.1196 32.2694 45.8757 35.5134C42.6317 38.7573 37.3722 38.7573 34.1283 35.5134C30.8843 32.2694 30.8843 27.0099 34.1283 23.766C37.3722 20.522 42.6317 20.522 45.8757 23.766" stroke="white" stroke-width="3" stroke-linecap="round" stroke-linejoin="round"/>
<path d="M24.1858 33.3955C26.2926 35.5022 26.2926 38.9179 24.1858 41.0247C22.0791 43.1314 18.6634 43.1314 16.5566 41.0247C14.4499 38.9179 14.4499 35.5022 16.5566 33.3955C18.6634 31.2887 22.0791 31.2887 24.1858 33.3955" stroke="white" stroke-width="3" stroke-linecap="round" stroke-linejoin="round"/>
<path d="M69.3339 58.6665V55.7438C69.3339 52.0611 66.3499 49.0771 62.6672 49.0771H60.5312" stroke="white" stroke-width="3" stroke-linecap="round" stroke-linejoin="round"/>
<path d="M10.668 58.6665V55.7438C10.668 52.0611 13.652 49.0771 17.3346 49.0771H19.4706" stroke="white" stroke-width="3" stroke-linecap="round" stroke-linejoin="round"/>
<path d="M54.2391 58.6661V54.3968C54.2391 49.2421 50.0604 45.0635 44.9057 45.0635H35.0951C29.9404 45.0635 25.7617 49.2421 25.7617 54.3968V58.6661" stroke="white" stroke-width="3" stroke-linecap="round" stroke-linejoin="round"/>
</svg>
