<svg width="80" height="80" viewBox="0 0 80 80" fill="none" xmlns="http://www.w3.org/2000/svg">
<rect width="80" height="80" rx="16" fill="#60034C"/>
<path d="M38.5603 19.3896C35.9843 19.507 33.3897 20.0643 30.8803 21.1523C21.5017 25.2216 16.443 35.0723 18.0163 44.723" stroke="white" stroke-width="3" stroke-linecap="round" stroke-linejoin="round"/>
<path d="M58.9994 51.2431C60.1834 48.9524 60.9994 46.4271 61.3114 43.7124C62.4794 33.5551 56.4741 24.2511 47.3301 20.7871" stroke="white" stroke-width="3" stroke-linecap="round" stroke-linejoin="round"/>
<path d="M31.6934 15.584L39.2694 18.1627L35.584 24.552" stroke="white" stroke-width="3" stroke-linecap="round" stroke-linejoin="round"/>
<path d="M65.7335 47.2055L59.7122 52.4775L56.0215 46.0908" stroke="white" stroke-width="3" stroke-linecap="round" stroke-linejoin="round"/>
<path d="M21.3281 60.8719L19.7734 53.0212L27.1494 53.0186" stroke="white" stroke-width="3" stroke-linecap="round" stroke-linejoin="round"/>
<path d="M21.1914 53.0244C22.5834 55.1977 24.3621 57.1657 26.5567 58.7924C34.7701 64.8804 45.8314 64.3364 53.4021 58.1471" stroke="white" stroke-width="3" stroke-linecap="round" stroke-linejoin="round"/>
</svg>
