<svg width="81" height="80" viewBox="0 0 81 80" fill="none" xmlns="http://www.w3.org/2000/svg">
<rect x="0.666016" width="80" height="80" rx="16" fill="#60034C"/>
<path d="M35.6104 45.0556C37.0257 46.4708 37.0257 48.7654 35.6104 50.1807C34.1951 51.596 31.9006 51.596 30.4853 50.1807C29.07 48.7654 29.07 46.4709 30.4853 45.0556C31.9005 43.6403 34.1951 43.6403 35.6104 45.0556" stroke="white" stroke-width="3" stroke-linecap="round" stroke-linejoin="round"/>
<path fill-rule="evenodd" clip-rule="evenodd" d="M37.7638 32.6652L40.2091 33.4812C40.7691 33.6679 41.1478 34.1932 41.1478 34.7825V37.1265C41.1478 38.4572 42.2118 39.5452 43.5424 39.5745L45.7611 39.6225C46.2704 39.6332 46.7291 39.9239 46.9584 40.3799L48.1104 42.6839C48.3744 43.2119 48.2704 43.8492 47.8544 44.2679L46.1958 45.9239C45.2544 46.8652 45.2384 48.3879 46.1584 49.3479L47.6918 50.9505C48.0438 51.3185 48.1638 51.8492 48.0011 52.3319L47.1851 54.7772C46.9984 55.3372 46.4731 55.7159 45.8838 55.7159H43.5398C42.2091 55.7159 41.1211 56.7799 41.0918 58.1105L41.0438 60.3292C41.0331 60.8385 40.7424 61.2972 40.2864 61.5265L37.9824 62.6785C37.4544 62.9425 36.8171 62.8385 36.3984 62.4225L34.7424 60.7639C33.8011 59.8225 32.2784 59.8065 31.3184 60.7265L29.7158 62.2599C29.3478 62.6119 28.8171 62.7319 28.3344 62.5692L25.8891 61.7532C25.3291 61.5665 24.9504 61.0412 24.9504 60.4519V58.1079C24.9504 56.7772 23.8864 55.6892 22.5558 55.6599L20.3398 55.6119C19.8304 55.6012 19.3718 55.3105 19.1424 54.8545L17.9904 52.5505C17.7264 52.0225 17.8304 51.3852 18.2464 50.9665L19.9051 49.3105C20.8464 48.3692 20.8624 46.8465 19.9424 45.8865L18.4091 44.2839C18.0571 43.9159 17.9371 43.3852 18.0998 42.9025L18.9158 40.4572C19.1024 39.8972 19.6278 39.5185 20.2171 39.5185H22.5611C23.8918 39.5185 24.9798 38.4545 25.0091 37.1239L25.0571 34.9052C25.0678 34.3959 25.3584 33.9372 25.8144 33.7079L28.1184 32.5559C28.6464 32.2919 29.2838 32.3959 29.7024 32.8119L31.3584 34.4705C32.2998 35.4119 33.8224 35.4279 34.7824 34.5079L36.3851 32.9745C36.7478 32.6252 37.2811 32.5052 37.7638 32.6652Z" stroke="white" stroke-width="3" stroke-linecap="round" stroke-linejoin="round"/>
<path fill-rule="evenodd" clip-rule="evenodd" d="M57.0977 35.5238L59.2204 34.9531C59.6497 34.8385 59.9724 34.4811 60.0444 34.0411L60.447 31.5638C60.5644 30.8465 61.127 30.2838 61.8444 30.1665L64.319 29.7638C64.759 29.6918 65.1164 29.3691 65.231 28.9398L65.8017 26.8171C65.9164 26.3851 65.7697 25.9291 65.423 25.6465L63.479 24.0571C62.9164 23.5958 62.711 22.8278 62.967 22.1478L63.8604 19.7958C64.0177 19.3798 63.919 18.9078 63.6017 18.5931L62.047 17.0411C61.7324 16.7265 61.2604 16.6251 60.8444 16.7825L57.3564 18.1051L54.999 15.2198C54.7164 14.8731 54.2577 14.7265 53.8284 14.8411L51.7057 15.4118C51.2764 15.5265 50.9537 15.8838 50.8817 16.3238L50.479 18.8011C50.3617 19.5185 49.799 20.0811 49.0817 20.1985L46.607 20.6011C46.167 20.6731 45.8097 20.9958 45.695 21.4251L45.1244 23.5478C45.0097 23.9771 45.1564 24.4358 45.5004 24.7185L47.4417 26.3051C48.0044 26.7665 48.2097 27.5345 47.951 28.2145L47.0577 30.5665C46.9004 30.9825 46.999 31.4545 47.3164 31.7691L48.871 33.3238C49.1857 33.6385 49.6577 33.7398 50.0737 33.5825L52.4284 32.6891C53.1084 32.4305 53.8764 32.6385 54.335 33.2011L55.9244 35.1451C56.2097 35.4918 56.6684 35.6385 57.0977 35.5238V35.5238Z" stroke="white" stroke-width="3" stroke-linecap="round" stroke-linejoin="round"/>
</svg>
