<svg width="80" height="80" viewBox="0 0 80 80" fill="none" xmlns="http://www.w3.org/2000/svg">
<rect width="80" height="80" rx="16" fill="#60034C"/>
<path fill-rule="evenodd" clip-rule="evenodd" d="M61.3333 64H18.6667C17.1947 64 16 62.8053 16 61.3333V18.6667C16 17.1947 17.1947 16 18.6667 16H61.3333C62.8053 16 64 17.1947 64 18.6667V61.3333C64 62.8053 62.8053 64 61.3333 64Z" stroke="white" stroke-width="3" stroke-linecap="round" stroke-linejoin="round"/>
<path d="M24.2351 23.7646C24.3652 23.8948 24.3652 24.1059 24.2351 24.236C24.1049 24.3662 23.8938 24.3662 23.7636 24.236C23.6335 24.1059 23.6335 23.8948 23.7636 23.7646C23.8938 23.6344 24.1049 23.6344 24.2351 23.7646" stroke="white" stroke-width="3" stroke-linecap="round" stroke-linejoin="round"/>
<path d="M56.2351 55.7646C56.3652 55.8948 56.3652 56.1059 56.2351 56.236C56.1049 56.3662 55.8938 56.3662 55.7636 56.236C55.6335 56.1059 55.6335 55.8948 55.7636 55.7646C55.8938 55.6344 56.1049 55.6344 56.2351 55.7646" stroke="white" stroke-width="3" stroke-linecap="round" stroke-linejoin="round"/>
<path d="M56.2351 23.7646C56.3652 23.8948 56.3652 24.1059 56.2351 24.236C56.1049 24.3662 55.8938 24.3662 55.7636 24.236C55.6335 24.1059 55.6335 23.8948 55.7636 23.7646C55.8938 23.6344 56.1049 23.6344 56.2351 23.7646" stroke="white" stroke-width="3" stroke-linecap="round" stroke-linejoin="round"/>
<path d="M24.2351 55.7646C24.3652 55.8948 24.3652 56.1059 24.2351 56.236C24.1049 56.3662 23.8938 56.3662 23.7636 56.236C23.6335 56.1059 23.6335 55.8948 23.7636 55.7646C23.8938 55.6344 24.1049 55.6344 24.2351 55.7646" stroke="white" stroke-width="3" stroke-linecap="round" stroke-linejoin="round"/>
<path d="M49.4274 30.5722C54.6344 35.7792 54.6344 44.2214 49.4274 49.4284C44.2205 54.6354 35.7782 54.6354 30.5713 49.4284C25.3643 44.2214 25.3643 35.7792 30.5713 30.5722C35.7782 25.3652 44.2205 25.3652 49.4274 30.5722" stroke="white" stroke-width="3" stroke-linecap="round" stroke-linejoin="round"/>
<path d="M40.9422 39.0575C41.4629 39.5782 41.4629 40.4224 40.9422 40.9431C40.4215 41.4638 39.5772 41.4638 39.0565 40.9431C38.5358 40.4224 38.5358 39.5782 39.0565 39.0575C39.5772 38.5368 40.4215 38.5368 40.9422 39.0575" stroke="white" stroke-width="3" stroke-linecap="round" stroke-linejoin="round"/>
</svg>
