<svg width="81" height="80" viewBox="0 0 81 80" fill="none" xmlns="http://www.w3.org/2000/svg">
<rect x="0.333984" width="80" height="80" rx="16" fill="#60034C"/>
<path d="M16.334 49.3332L21.6673 49.3335" stroke="white" stroke-width="3" stroke-linecap="round" stroke-linejoin="round"/>
<path d="M16.334 39.9989L21.6668 39.9998" stroke="white" stroke-width="3" stroke-linecap="round" stroke-linejoin="round"/>
<path d="M16.334 30.6663L21.6664 30.6664" stroke="white" stroke-width="3" stroke-linecap="round" stroke-linejoin="round"/>
<path d="M64.3333 30.6664L59 30.6663" stroke="white" stroke-width="3" stroke-linecap="round" stroke-linejoin="round"/>
<path d="M64.3329 40.0008L59 39.9999" stroke="white" stroke-width="3" stroke-linecap="round" stroke-linejoin="round"/>
<path d="M64.3324 49.3334L59 49.3333" stroke="white" stroke-width="3" stroke-linecap="round" stroke-linejoin="round"/>
<path d="M31.0014 16L31.0012 21.3333" stroke="white" stroke-width="3" stroke-linecap="round" stroke-linejoin="round"/>
<path d="M40.3357 16L40.3348 21.3329" stroke="white" stroke-width="3" stroke-linecap="round" stroke-linejoin="round"/>
<path d="M49.6674 16.001L49.6673 21.3333" stroke="white" stroke-width="3" stroke-linecap="round" stroke-linejoin="round"/>
<path d="M49.6672 64.0003L49.6675 58.667" stroke="white" stroke-width="3" stroke-linecap="round" stroke-linejoin="round"/>
<path d="M40.3329 63.9998L40.3338 58.667" stroke="white" stroke-width="3" stroke-linecap="round" stroke-linejoin="round"/>
<path d="M31.0012 63.9994L31.0014 58.667" stroke="white" stroke-width="3" stroke-linecap="round" stroke-linejoin="round"/>
<path fill-rule="evenodd" clip-rule="evenodd" d="M48.3346 58.6663H32.3346C26.4436 58.6663 21.668 53.8907 21.668 47.9997V31.9997C21.668 26.1086 26.4436 21.333 32.3346 21.333H48.3346C54.2257 21.333 59.0013 26.1086 59.0013 31.9997V47.9997C59.0013 53.8907 54.2257 58.6663 48.3346 58.6663Z" stroke="white" stroke-width="3" stroke-linecap="round" stroke-linejoin="round"/>
<path d="M31.6191 43.68H41.0706" stroke="white" stroke-width="3" stroke-linecap="round" stroke-linejoin="round"/>
<path d="M41.8798 46.1329L37.9065 33.8662H34.8132L30.8398 46.1329" stroke="white" stroke-width="3" stroke-linecap="round" stroke-linejoin="round"/>
<path d="M48.6283 46.1329V33.8662" stroke="white" stroke-width="3" stroke-linecap="round" stroke-linejoin="round"/>
</svg>
