<svg width="80" height="80" viewBox="0 0 80 80" fill="none" xmlns="http://www.w3.org/2000/svg">
<rect width="80" height="80" rx="16" fill="#60034C"/>
<path d="M18.668 61.333C18.668 54.6663 24.0013 49.333 30.668 49.333H37.6013" stroke="white" stroke-width="3" stroke-linecap="round" stroke-linejoin="round"/>
<path fill-rule="evenodd" clip-rule="evenodd" d="M52.8 48.8004C53.8667 48.2671 55.2 48.2671 56.5333 48.8004L61.3333 50.6671V56.2671C61.3333 61.0671 54.6667 64.2671 54.6667 64.2671C54.6667 64.2671 48 61.0671 48 56.2671V50.6671L52.8 48.8004Z" stroke="white" stroke-width="3" stroke-linecap="round" stroke-linejoin="round"/>
<path d="M48 21.867C52.5333 26.4003 52.5333 33.6003 48 37.867C43.4666 42.1337 36.2666 42.4003 32 37.867C27.7333 33.3337 27.4666 26.1337 32 21.867C36.5333 17.6003 43.4666 17.6003 48 21.867" stroke="white" stroke-width="3" stroke-linecap="round" stroke-linejoin="round"/>
</svg>
