<svg width="464" height="493" viewBox="0 0 464 493" fill="none" xmlns="http://www.w3.org/2000/svg">
<g clip-path="url(#clip0_3396_9085)">
<rect y="0.0263672" width="464" height="350" rx="8" fill="white"/>
<rect width="464" height="64" transform="translate(0 0.0263672)" fill="#60034C" fill-opacity="0.1"/>
<path d="M17.7 39.0264V25.0264H20.1V36.7264H26.9V39.0264H17.7ZM29.1086 39.0264V25.0264H31.5086V39.0264H29.1086ZM45.8847 39.0264H43.7047L37.9047 30.1864C37.718 29.9064 37.5247 29.5597 37.3247 29.1464C37.3647 29.4664 37.3847 29.813 37.3847 30.1864V39.0264H35.0047V25.0264H37.3247L42.9847 33.7264C43.118 33.9264 43.3114 34.2797 43.5647 34.7864C43.5247 34.4264 43.5047 34.073 43.5047 33.7264V25.0264H45.8847V39.0264ZM57.982 39.0264L54.222 32.0064L51.682 35.1064V39.0264H49.282V25.0264H51.682V31.7464L57.022 25.0264H59.822L55.822 29.9864L60.782 39.0264H57.982ZM76.6098 39.0264L75.5098 35.9664H69.9698L68.8698 39.0264H66.3298L71.5498 25.0264H73.9298L79.1298 39.0264H76.6098ZM74.7498 33.8064L73.2098 29.6064C73.0098 29.0997 72.8565 28.6264 72.7498 28.1864C72.6432 28.573 72.4898 29.0464 72.2898 29.6064L70.7298 33.8064H74.7498ZM86.0678 39.2664C85.2278 39.2664 84.4678 39.1264 83.7878 38.8464C83.1078 38.5664 82.5478 38.193 82.1078 37.7264C81.6811 37.2597 81.3211 36.7064 81.0278 36.0664C80.7345 35.4264 80.5211 34.773 80.3878 34.1064C80.2678 33.4397 80.2078 32.7464 80.2078 32.0264C80.2078 31.173 80.3145 30.3397 80.5278 29.5264C80.7411 28.713 81.0678 27.9464 81.5078 27.2264C81.9478 26.493 82.5611 25.9064 83.3478 25.4664C84.1345 25.013 85.0411 24.7864 86.0678 24.7864C87.3078 24.7864 88.3478 25.0797 89.1878 25.6664C90.0278 26.2397 90.6145 26.9397 90.9478 27.7664L88.7878 28.7464C88.4145 28.173 88.0211 27.753 87.6078 27.4864C87.2078 27.2197 86.6945 27.0864 86.0678 27.0864C85.4545 27.0864 84.9145 27.2397 84.4478 27.5464C83.9945 27.8397 83.6411 28.2397 83.3878 28.7464C83.1478 29.2397 82.9678 29.7664 82.8478 30.3264C82.7411 30.873 82.6878 31.4397 82.6878 32.0264C82.6878 33.333 82.9745 34.4797 83.5478 35.4664C84.1345 36.453 84.9745 36.9464 86.0678 36.9464C87.1345 36.9464 88.0278 36.3464 88.7478 35.1464L90.9678 35.9864C89.9945 38.173 88.3611 39.2664 86.0678 39.2664ZM98.7631 39.2664C97.9231 39.2664 97.1631 39.1264 96.4831 38.8464C95.8031 38.5664 95.2431 38.193 94.8031 37.7264C94.3765 37.2597 94.0165 36.7064 93.7231 36.0664C93.4298 35.4264 93.2165 34.773 93.0831 34.1064C92.9631 33.4397 92.9031 32.7464 92.9031 32.0264C92.9031 31.173 93.0098 30.3397 93.2231 29.5264C93.4365 28.713 93.7631 27.9464 94.2031 27.2264C94.6431 26.493 95.2565 25.9064 96.0431 25.4664C96.8298 25.013 97.7365 24.7864 98.7631 24.7864C100.003 24.7864 101.043 25.0797 101.883 25.6664C102.723 26.2397 103.31 26.9397 103.643 27.7664L101.483 28.7464C101.11 28.173 100.716 27.753 100.303 27.4864C99.9031 27.2197 99.3898 27.0864 98.7631 27.0864C98.1498 27.0864 97.6098 27.2397 97.1431 27.5464C96.6898 27.8397 96.3365 28.2397 96.0831 28.7464C95.8431 29.2397 95.6631 29.7664 95.5431 30.3264C95.4365 30.873 95.3831 31.4397 95.3831 32.0264C95.3831 33.333 95.6698 34.4797 96.2431 35.4664C96.8298 36.453 97.6698 36.9464 98.7631 36.9464C99.8298 36.9464 100.723 36.3464 101.443 35.1464L103.663 35.9864C102.69 38.173 101.056 39.2664 98.7631 39.2664ZM111.738 39.2664C110.872 39.2664 110.085 39.1264 109.378 38.8464C108.672 38.5664 108.085 38.193 107.618 37.7264C107.165 37.2464 106.778 36.693 106.458 36.0664C106.152 35.4397 105.932 34.793 105.798 34.1264C105.665 33.4464 105.598 32.7464 105.598 32.0264C105.598 31.3064 105.665 30.613 105.798 29.9464C105.932 29.2664 106.152 28.613 106.458 27.9864C106.778 27.3597 107.165 26.813 107.618 26.3464C108.085 25.8664 108.672 25.4864 109.378 25.2064C110.085 24.9264 110.872 24.7864 111.738 24.7864C112.818 24.7864 113.765 24.9997 114.578 25.4264C115.405 25.8397 116.045 26.4064 116.498 27.1264C116.965 27.833 117.312 28.5997 117.538 29.4264C117.765 30.253 117.878 31.1197 117.878 32.0264C117.878 32.933 117.765 33.7997 117.538 34.6264C117.312 35.453 116.965 36.2264 116.498 36.9464C116.045 37.653 115.405 38.2197 114.578 38.6464C113.765 39.0597 112.818 39.2664 111.738 39.2664ZM111.738 36.9664C112.378 36.9664 112.945 36.813 113.438 36.5064C113.932 36.1997 114.312 35.7997 114.578 35.3064C114.858 34.7997 115.065 34.273 115.198 33.7264C115.332 33.1664 115.398 32.5997 115.398 32.0264C115.398 31.413 115.332 30.833 115.198 30.2864C115.065 29.7264 114.858 29.1997 114.578 28.7064C114.312 28.213 113.932 27.8197 113.438 27.5264C112.958 27.233 112.392 27.0864 111.738 27.0864C110.885 27.0864 110.172 27.3597 109.598 27.9064C109.025 28.4397 108.625 29.0597 108.398 29.7664C108.185 30.473 108.078 31.2264 108.078 32.0264C108.078 32.6264 108.145 33.2064 108.278 33.7664C108.412 34.3264 108.612 34.853 108.878 35.3464C109.158 35.8397 109.538 36.233 110.018 36.5264C110.512 36.8197 111.085 36.9664 111.738 36.9664ZM126.146 39.2664C125.386 39.2664 124.693 39.173 124.066 38.9864C123.439 38.7864 122.866 38.4797 122.346 38.0664C121.826 37.6397 121.419 37.0597 121.126 36.3264C120.833 35.5797 120.686 34.6997 120.686 33.6864V25.0264H123.086V33.6864C123.086 34.8997 123.346 35.753 123.866 36.2464C124.399 36.7264 125.159 36.9664 126.146 36.9664C127.133 36.9664 127.886 36.7197 128.406 36.2264C128.939 35.733 129.206 34.8864 129.206 33.6864V25.0264H131.606V33.6864C131.606 34.6864 131.459 35.5597 131.166 36.3064C130.886 37.0397 130.486 37.6197 129.966 38.0464C129.459 38.4597 128.886 38.7664 128.246 38.9664C127.619 39.1664 126.919 39.2664 126.146 39.2664ZM145.787 39.0264H143.607L137.807 30.1864C137.62 29.9064 137.427 29.5597 137.227 29.1464C137.267 29.4664 137.287 29.813 137.287 30.1864V39.0264H134.907V25.0264H137.227L142.887 33.7264C143.02 33.9264 143.214 34.2797 143.467 34.7864C143.427 34.4264 143.407 34.073 143.407 33.7264V25.0264H145.787V39.0264ZM154.664 27.3264V39.0264H152.264V27.3264H148.284V25.0264H158.644V27.3264H154.664Z" fill="#60034C"/>
<rect x="24" y="88.0264" width="360" height="40" rx="4" fill="#EFEFEF"/>
<path d="M41.36 114.026V102.826H46.016C47.3067 102.826 48.256 103.162 48.864 103.834C49.472 104.506 49.776 105.328 49.776 106.298C49.776 107.216 49.456 108.026 48.816 108.73C48.1867 109.434 47.2533 109.786 46.016 109.786H43.28V114.026H41.36ZM46.112 107.962C46.6773 107.962 47.0987 107.797 47.376 107.466C47.6533 107.136 47.792 106.746 47.792 106.298C47.792 105.872 47.6587 105.493 47.392 105.162C47.136 104.821 46.7093 104.65 46.112 104.65H43.28V107.962H46.112ZM51.4519 114.026V103.354L53.3239 102.474V114.026H51.4519ZM60.4654 114.026V113.37C59.9214 113.936 59.196 114.218 58.2894 114.218C57.4147 114.218 56.7 113.984 56.1454 113.514C55.6014 113.034 55.3294 112.362 55.3294 111.498C55.3294 110.613 55.6387 109.941 56.2574 109.482C56.8867 109.024 57.644 108.794 58.5294 108.794C59.308 108.794 59.9534 108.938 60.4654 109.226V108.794C60.4654 108.272 60.332 107.893 60.0654 107.658C59.8094 107.424 59.4094 107.306 58.8654 107.306C57.98 107.306 57.1694 107.562 56.4334 108.074L55.8574 106.554C56.7427 105.957 57.8094 105.658 59.0574 105.658C59.484 105.658 59.8574 105.696 60.1774 105.77C60.508 105.834 60.844 105.968 61.1854 106.17C61.5374 106.373 61.8094 106.693 62.0014 107.13C62.1934 107.568 62.2894 108.112 62.2894 108.762V114.026H60.4654ZM58.6414 112.57C59.356 112.57 59.964 112.309 60.4654 111.786V110.73C59.996 110.506 59.452 110.394 58.8334 110.394C58.332 110.394 57.9267 110.485 57.6174 110.666C57.308 110.848 57.1534 111.125 57.1534 111.498C57.1534 111.829 57.2814 112.09 57.5374 112.282C57.7934 112.474 58.1614 112.57 58.6414 112.57ZM66.2721 104.41C66.0588 104.624 65.7975 104.73 65.4881 104.73C65.1788 104.73 64.9121 104.624 64.6881 104.41C64.4748 104.186 64.3681 103.92 64.3681 103.61C64.3681 103.301 64.4748 103.04 64.6881 102.826C64.9121 102.613 65.1788 102.506 65.4881 102.506C65.7975 102.506 66.0588 102.613 66.2721 102.826C66.4855 103.04 66.5921 103.301 66.5921 103.61C66.5921 103.92 66.4855 104.186 66.2721 104.41ZM64.5441 114.026V105.85H66.4161V114.026H64.5441ZM71.817 114.218C70.7717 114.218 69.945 113.84 69.337 113.082C68.729 112.325 68.425 111.274 68.425 109.93C68.425 108.618 68.7397 107.578 69.369 106.81C69.9983 106.042 70.8143 105.658 71.817 105.658C72.6063 105.658 73.2197 105.914 73.657 106.426V103.322L75.529 102.474V114.026H73.657V113.434C73.2517 113.957 72.6383 114.218 71.817 114.218ZM72.105 112.426C72.7983 112.426 73.3157 112.165 73.657 111.642V108.218C73.305 107.696 72.7877 107.434 72.105 107.434C71.529 107.434 71.081 107.653 70.761 108.09C70.4517 108.517 70.297 109.13 70.297 109.93C70.297 110.688 70.457 111.296 70.777 111.754C71.097 112.202 71.5397 112.426 72.105 112.426ZM82.0963 114.026V102.826H84.0163V114.026H82.0963ZM96.2531 114.026V109.338C96.2531 108.069 95.7891 107.434 94.8611 107.434C94.3811 107.434 94.0025 107.6 93.7251 107.93C93.4585 108.25 93.3251 108.73 93.3251 109.37V114.026H91.4531V109.338C91.4531 108.069 90.9891 107.434 90.0611 107.434C89.5811 107.434 89.2025 107.6 88.9251 107.93C88.6585 108.25 88.5251 108.73 88.5251 109.37V114.026H86.6531V105.85H88.5251V106.602C88.9945 105.973 89.6611 105.658 90.5251 105.658C91.5278 105.658 92.2425 106.042 92.6691 106.81C93.1918 106.042 94.0131 105.658 95.1331 105.658C96.0505 105.658 96.7758 105.914 97.3091 106.426C97.8531 106.928 98.1251 107.722 98.1251 108.81V114.026H96.2531ZM104.178 114.218C103.389 114.218 102.77 113.936 102.322 113.37V116.378L100.45 117.242V105.85H102.322V106.474C102.77 105.93 103.394 105.658 104.194 105.658C105.229 105.658 106.045 106.037 106.642 106.794C107.25 107.541 107.554 108.592 107.554 109.946C107.554 111.269 107.245 112.314 106.626 113.082C106.007 113.84 105.191 114.218 104.178 114.218ZM103.906 112.426C104.471 112.426 104.909 112.213 105.218 111.786C105.527 111.36 105.682 110.746 105.682 109.946C105.682 109.189 105.527 108.581 105.218 108.122C104.909 107.664 104.471 107.434 103.906 107.434C103.213 107.434 102.685 107.701 102.322 108.234V111.626C102.695 112.16 103.223 112.426 103.906 112.426ZM112.903 114.218C111.751 114.218 110.839 113.84 110.167 113.082C109.495 112.325 109.159 111.28 109.159 109.946C109.159 108.613 109.495 107.568 110.167 106.81C110.839 106.042 111.751 105.658 112.903 105.658C114.055 105.658 114.967 106.042 115.639 106.81C116.322 107.568 116.663 108.613 116.663 109.946C116.663 111.28 116.327 112.325 115.655 113.082C114.983 113.84 114.066 114.218 112.903 114.218ZM112.903 112.426C113.49 112.426 113.949 112.208 114.279 111.77C114.621 111.333 114.791 110.725 114.791 109.946C114.791 109.168 114.621 108.554 114.279 108.106C113.949 107.658 113.49 107.434 112.903 107.434C112.338 107.434 111.885 107.664 111.543 108.122C111.202 108.57 111.031 109.178 111.031 109.946C111.031 110.714 111.197 111.322 111.527 111.77C111.869 112.208 112.327 112.426 112.903 112.426ZM118.669 114.026V105.85H120.541V106.698C120.871 106.005 121.431 105.658 122.221 105.658C122.797 105.658 123.303 105.845 123.741 106.218L123.469 107.93C123.063 107.642 122.599 107.498 122.077 107.498C121.65 107.498 121.287 107.648 120.989 107.946C120.69 108.245 120.541 108.746 120.541 109.45V114.026H118.669ZM127.756 114.218C126.487 114.218 125.852 113.52 125.852 112.122V107.482H124.636V105.85H125.852V103.37L127.724 102.474V105.85H129.612V107.482H127.724V111.754C127.724 112.277 127.954 112.538 128.412 112.538C128.828 112.538 129.255 112.416 129.692 112.17L129.468 113.85C128.999 114.096 128.428 114.218 127.756 114.218Z" fill="#242424"/>
<rect x="400" y="88.0264" width="40" height="40" rx="4" fill="#60034C"/>
<path d="M415.293 100.995C414.856 100.559 414.856 99.851 415.293 99.4146C415.73 98.9782 416.439 98.9782 416.876 99.4146L424.713 107.237C425.15 107.673 425.15 108.381 424.713 108.817L416.876 116.639C416.439 117.076 415.73 117.076 415.293 116.639C414.856 116.203 414.856 115.496 415.293 115.059L422.338 108.027L415.293 100.995Z" fill="white"/>
<rect x="24" y="144.026" width="360" height="40" rx="4" fill="#EFEFEF"/>
<path d="M45.648 170.218C44.976 170.218 44.368 170.106 43.824 169.882C43.28 169.658 42.832 169.36 42.48 168.986C42.1387 168.613 41.8507 168.17 41.616 167.658C41.3813 167.146 41.2107 166.624 41.104 166.09C41.008 165.557 40.96 165.002 40.96 164.426C40.96 163.744 41.0453 163.077 41.216 162.426C41.3867 161.776 41.648 161.162 42 160.586C42.352 160 42.8427 159.53 43.472 159.178C44.1013 158.816 44.8267 158.634 45.648 158.634C46.64 158.634 47.472 158.869 48.144 159.338C48.816 159.797 49.2853 160.357 49.552 161.018L47.824 161.802C47.5253 161.344 47.2107 161.008 46.88 160.794C46.56 160.581 46.1493 160.474 45.648 160.474C45.1573 160.474 44.7253 160.597 44.352 160.842C43.9893 161.077 43.7067 161.397 43.504 161.802C43.312 162.197 43.168 162.618 43.072 163.066C42.9867 163.504 42.944 163.957 42.944 164.426C42.944 165.472 43.1733 166.389 43.632 167.178C44.1013 167.968 44.7733 168.362 45.648 168.362C46.5013 168.362 47.216 167.882 47.792 166.922L49.568 167.594C48.7893 169.344 47.4827 170.218 45.648 170.218ZM55.2565 170.218C54.2325 170.218 53.3472 169.962 52.6005 169.45C51.8645 168.928 51.3418 168.218 51.0325 167.322L52.8085 166.666C53.0432 167.189 53.3792 167.61 53.8165 167.93C54.2538 168.24 54.7552 168.394 55.3205 168.394C55.9072 168.394 56.3712 168.261 56.7125 167.994C57.0645 167.728 57.2405 167.344 57.2405 166.842C57.2405 166.64 57.1925 166.453 57.0965 166.282C57.0005 166.101 56.8885 165.952 56.7605 165.834C56.6432 165.717 56.4618 165.6 56.2165 165.482C55.9712 165.365 55.7632 165.274 55.5925 165.21C55.4218 165.136 55.1712 165.045 54.8405 164.938C54.4138 164.789 54.0832 164.672 53.8485 164.586C53.6245 164.501 53.3312 164.362 52.9685 164.17C52.6165 163.968 52.3445 163.765 52.1525 163.562C51.9712 163.36 51.8058 163.093 51.6565 162.762C51.5178 162.421 51.4485 162.048 51.4485 161.642C51.4485 160.789 51.7792 160.074 52.4405 159.498C53.1018 158.922 53.9978 158.634 55.1285 158.634C56.0672 158.634 56.8458 158.858 57.4645 159.306C58.0832 159.744 58.4992 160.32 58.7125 161.034L56.9845 161.61C56.6432 160.842 55.9818 160.458 55.0005 160.458C54.4992 160.458 54.1045 160.565 53.8165 160.778C53.5392 160.981 53.4005 161.274 53.4005 161.658C53.4005 161.914 53.5072 162.144 53.7205 162.346C53.9445 162.549 54.1792 162.704 54.4245 162.81C54.6805 162.906 55.0538 163.034 55.5445 163.194C55.8645 163.312 56.1045 163.402 56.2645 163.466C56.4352 163.52 56.6698 163.616 56.9685 163.754C57.2672 163.893 57.5018 164.021 57.6725 164.138C57.8432 164.245 58.0352 164.394 58.2485 164.586C58.4725 164.778 58.6432 164.981 58.7605 165.194C58.8778 165.397 58.9792 165.642 59.0645 165.93C59.1498 166.208 59.1925 166.512 59.1925 166.842C59.1925 167.888 58.8192 168.714 58.0725 169.322C57.3365 169.92 56.3978 170.218 55.2565 170.218ZM64.0109 170.026L60.1069 158.826H62.1709L64.6829 166.394C64.8215 166.874 64.9175 167.216 64.9709 167.418C65.0135 167.194 65.1042 166.853 65.2429 166.394L67.7389 158.826H69.7709L65.8829 170.026H64.0109ZM79.2574 170.218C78.6494 170.218 78.0947 170.144 77.5934 169.994C77.092 169.834 76.6334 169.589 76.2174 169.258C75.8014 168.917 75.476 168.453 75.2414 167.866C75.0067 167.269 74.8894 166.565 74.8894 165.754V158.826H76.8094V165.754C76.8094 166.725 77.0174 167.408 77.4334 167.802C77.86 168.186 78.468 168.378 79.2574 168.378C80.0467 168.378 80.6494 168.181 81.0654 167.786C81.492 167.392 81.7054 166.714 81.7054 165.754V158.826H83.6254V165.754C83.6254 166.554 83.508 167.253 83.2734 167.85C83.0494 168.437 82.7294 168.901 82.3134 169.242C81.908 169.573 81.4494 169.818 80.9374 169.978C80.436 170.138 79.876 170.218 79.2574 170.218ZM89.8343 170.218C89.0449 170.218 88.4263 169.936 87.9783 169.37V172.378L86.1063 173.242V161.85H87.9783V162.474C88.4263 161.93 89.0503 161.658 89.8503 161.658C90.8849 161.658 91.7009 162.037 92.2983 162.794C92.9063 163.541 93.2103 164.592 93.2103 165.946C93.2103 167.269 92.9009 168.314 92.2823 169.082C91.6636 169.84 90.8476 170.218 89.8343 170.218ZM89.5623 168.426C90.1276 168.426 90.5649 168.213 90.8743 167.786C91.1836 167.36 91.3383 166.746 91.3383 165.946C91.3383 165.189 91.1836 164.581 90.8743 164.122C90.5649 163.664 90.1276 163.434 89.5623 163.434C88.8689 163.434 88.3409 163.701 87.9783 164.234V167.626C88.3516 168.16 88.8796 168.426 89.5623 168.426ZM95.2956 170.026V159.354L97.1676 158.474V170.026H95.2956ZM102.997 170.218C101.845 170.218 100.933 169.84 100.261 169.082C99.5891 168.325 99.2531 167.28 99.2531 165.946C99.2531 164.613 99.5891 163.568 100.261 162.81C100.933 162.042 101.845 161.658 102.997 161.658C104.149 161.658 105.061 162.042 105.733 162.81C106.416 163.568 106.757 164.613 106.757 165.946C106.757 167.28 106.421 168.325 105.749 169.082C105.077 169.84 104.16 170.218 102.997 170.218ZM102.997 168.426C103.584 168.426 104.042 168.208 104.373 167.77C104.714 167.333 104.885 166.725 104.885 165.946C104.885 165.168 104.714 164.554 104.373 164.106C104.042 163.658 103.584 163.434 102.997 163.434C102.432 163.434 101.978 163.664 101.637 164.122C101.296 164.57 101.125 165.178 101.125 165.946C101.125 166.714 101.29 167.322 101.621 167.77C101.962 168.208 102.421 168.426 102.997 168.426ZM113.419 170.026V169.37C112.875 169.936 112.149 170.218 111.243 170.218C110.368 170.218 109.653 169.984 109.099 169.514C108.555 169.034 108.283 168.362 108.283 167.498C108.283 166.613 108.592 165.941 109.211 165.482C109.84 165.024 110.597 164.794 111.483 164.794C112.261 164.794 112.907 164.938 113.419 165.226V164.794C113.419 164.272 113.285 163.893 113.019 163.658C112.763 163.424 112.363 163.306 111.819 163.306C110.933 163.306 110.123 163.562 109.387 164.074L108.811 162.554C109.696 161.957 110.763 161.658 112.011 161.658C112.437 161.658 112.811 161.696 113.131 161.77C113.461 161.834 113.797 161.968 114.139 162.17C114.491 162.373 114.763 162.693 114.955 163.13C115.147 163.568 115.243 164.112 115.243 164.762V170.026H113.419ZM111.595 168.57C112.309 168.57 112.917 168.309 113.419 167.786V166.73C112.949 166.506 112.405 166.394 111.786 166.394C111.285 166.394 110.88 166.485 110.571 166.666C110.261 166.848 110.107 167.125 110.107 167.498C110.107 167.829 110.235 168.09 110.491 168.282C110.747 168.474 111.115 168.57 111.595 168.57ZM120.473 170.218C119.428 170.218 118.601 169.84 117.993 169.082C117.385 168.325 117.081 167.274 117.081 165.93C117.081 164.618 117.396 163.578 118.025 162.81C118.655 162.042 119.471 161.658 120.473 161.658C121.263 161.658 121.876 161.914 122.313 162.426V159.322L124.185 158.474V170.026H122.313V169.434C121.908 169.957 121.295 170.218 120.473 170.218ZM120.761 168.426C121.455 168.426 121.972 168.165 122.313 167.642V164.218C121.961 163.696 121.444 163.434 120.761 163.434C120.185 163.434 119.737 163.653 119.417 164.09C119.108 164.517 118.953 165.13 118.953 165.93C118.953 166.688 119.113 167.296 119.433 167.754C119.753 168.202 120.196 168.426 120.761 168.426Z" fill="#242424"/>
<rect x="400" y="144.026" width="40" height="40" rx="4" fill="#60034C"/>
<path d="M415.293 156.995C414.856 156.559 414.856 155.851 415.293 155.415C415.73 154.978 416.439 154.978 416.876 155.415L424.713 163.237C425.15 163.673 425.15 164.381 424.713 164.817L416.876 172.639C416.439 173.076 415.73 173.076 415.293 172.639C414.856 172.203 414.856 171.496 415.293 171.059L422.338 164.027L415.293 156.995Z" fill="white"/>
<rect x="24" y="200.026" width="360" height="40" rx="4" fill="#EFEFEF"/>
<path d="M51.552 226.026H49.632V220.074C49.632 219.584 49.6533 219.136 49.696 218.73C49.568 219.114 49.3973 219.573 49.184 220.106L46.464 226.218L43.744 220.074C43.552 219.648 43.376 219.2 43.216 218.73C43.2587 219.136 43.28 219.584 43.28 220.074V226.026H41.36V214.826H43.296L46.176 221.402C46.2933 221.701 46.3947 221.978 46.48 222.234C46.5653 221.978 46.6667 221.701 46.784 221.402L49.68 214.826H51.552V226.026ZM58.7623 226.026V225.37C58.2183 225.936 57.4929 226.218 56.5863 226.218C55.7116 226.218 54.9969 225.984 54.4423 225.514C53.8983 225.034 53.6263 224.362 53.6263 223.498C53.6263 222.613 53.9356 221.941 54.5543 221.482C55.1836 221.024 55.9409 220.794 56.8263 220.794C57.6049 220.794 58.2503 220.938 58.7623 221.226V220.794C58.7623 220.272 58.6289 219.893 58.3623 219.658C58.1063 219.424 57.7063 219.306 57.1623 219.306C56.2769 219.306 55.4663 219.562 54.7303 220.074L54.1543 218.554C55.0396 217.957 56.1063 217.658 57.3543 217.658C57.7809 217.658 58.1543 217.696 58.4743 217.77C58.8049 217.834 59.1409 217.968 59.4823 218.17C59.8343 218.373 60.1063 218.693 60.2983 219.13C60.4903 219.568 60.5863 220.112 60.5863 220.762V226.026H58.7623ZM56.9383 224.57C57.6529 224.57 58.2609 224.309 58.7623 223.786V222.73C58.2929 222.506 57.7489 222.394 57.1302 222.394C56.6289 222.394 56.2236 222.485 55.9143 222.666C55.6049 222.848 55.4503 223.125 55.4503 223.498C55.4503 223.829 55.5783 224.09 55.8343 224.282C56.0903 224.474 56.4583 224.57 56.9383 224.57ZM67.881 226.026V221.338C67.881 220.069 67.3743 219.434 66.361 219.434C65.2517 219.434 64.697 220.058 64.697 221.306V226.026H62.825V217.85H64.697V218.618C65.2303 217.978 65.9503 217.658 66.857 217.658C67.7103 217.658 68.4037 217.925 68.937 218.458C69.481 218.992 69.753 219.84 69.753 221.002V226.026H67.881ZM77.051 226.026V225.242C76.539 225.893 75.8243 226.218 74.907 226.218C74.0537 226.218 73.355 225.952 72.811 225.418C72.267 224.874 71.995 224.021 71.995 222.858V217.85H73.867V222.522C73.867 223.792 74.379 224.426 75.403 224.426C76.5017 224.426 77.051 223.802 77.051 222.554V217.85H78.923V226.026H77.051ZM85.981 226.026V225.37C85.437 225.936 84.7117 226.218 83.805 226.218C82.9303 226.218 82.2157 225.984 81.661 225.514C81.117 225.034 80.845 224.362 80.845 223.498C80.845 222.613 81.1543 221.941 81.773 221.482C82.4023 221.024 83.1597 220.794 84.045 220.794C84.8237 220.794 85.469 220.938 85.981 221.226V220.794C85.981 220.272 85.8477 219.893 85.581 219.658C85.325 219.424 84.925 219.306 84.381 219.306C83.4957 219.306 82.685 219.562 81.949 220.074L81.373 218.554C82.2583 217.957 83.325 217.658 84.573 217.658C84.9997 217.658 85.373 217.696 85.693 217.77C86.0237 217.834 86.3597 217.968 86.701 218.17C87.053 218.373 87.325 218.693 87.517 219.13C87.709 219.568 87.805 220.112 87.805 220.762V226.026H85.981ZM84.157 224.57C84.8717 224.57 85.4797 224.309 85.981 223.786V222.73C85.5117 222.506 84.9677 222.394 84.349 222.394C83.8477 222.394 83.4423 222.485 83.133 222.666C82.8237 222.848 82.669 223.125 82.669 223.498C82.669 223.829 82.797 224.09 83.053 224.282C83.309 224.474 83.677 224.57 84.157 224.57ZM90.1238 226.026V215.354L91.9958 214.474V226.026H90.1238ZM98.5631 226.026V214.826H105.859V216.634H100.483V219.338H103.795V221.146H100.483V224.218H106.211V226.026H98.5631ZM113.272 226.026V221.338C113.272 220.069 112.765 219.434 111.752 219.434C110.642 219.434 110.088 220.058 110.088 221.306V226.026H108.216V217.85H110.088V218.618C110.621 217.978 111.341 217.658 112.248 217.658C113.101 217.658 113.794 217.925 114.328 218.458C114.872 218.992 115.144 219.84 115.144 221.002V226.026H113.272ZM119.866 226.218C118.596 226.218 117.962 225.52 117.962 224.122V219.482H116.746V217.85H117.962V215.37L119.834 214.474V217.85H121.722V219.482H119.834V223.754C119.834 224.277 120.063 224.538 120.522 224.538C120.938 224.538 121.364 224.416 121.802 224.17L121.578 225.85C121.108 226.096 120.538 226.218 119.866 226.218ZM123.638 226.026V217.85H125.51V218.698C125.84 218.005 126.4 217.658 127.19 217.658C127.766 217.658 128.272 217.845 128.71 218.218L128.438 219.93C128.032 219.642 127.568 219.498 127.046 219.498C126.619 219.498 126.256 219.648 125.958 219.946C125.659 220.245 125.51 220.746 125.51 221.45V226.026H123.638ZM131.224 229.13L132.488 225.898L129.416 217.85H131.304L133.208 222.874C133.304 223.109 133.384 223.354 133.448 223.61C133.501 223.376 133.576 223.13 133.672 222.874L135.592 217.85H137.48L133.16 229.13H131.224Z" fill="#242424"/>
<rect x="400" y="200.026" width="40" height="40" rx="4" fill="#60034C"/>
<path d="M415.293 212.995C414.856 212.559 414.856 211.851 415.293 211.415C415.73 210.978 416.439 210.978 416.876 211.415L424.713 219.237C425.15 219.673 425.15 220.381 424.713 220.817L416.876 228.639C416.439 229.076 415.73 229.076 415.293 228.639C414.856 228.203 414.856 227.496 415.293 227.059L422.338 220.027L415.293 212.995Z" fill="white"/>
<rect width="464" height="54" transform="translate(0 280.026)" fill="#60034C" fill-opacity="0.1"/>
<rect opacity="0.1" x="16" y="296.026" width="187" height="22" rx="2" fill="#60034C"/>
<path d="M213.48 314.129C213.165 314.129 212.894 314.016 212.668 313.79C212.442 313.564 212.33 313.293 212.33 312.978C212.33 312.663 212.442 312.392 212.668 312.166C212.894 311.94 213.165 311.828 213.48 311.828C213.795 311.828 214.066 311.94 214.292 312.166C214.518 312.392 214.631 312.663 214.631 312.978C214.631 313.187 214.577 313.379 214.471 313.553C214.369 313.728 214.23 313.869 214.055 313.975C213.885 314.078 213.693 314.129 213.48 314.129ZM213.48 306.842C213.165 306.842 212.894 306.729 212.668 306.503C212.442 306.277 212.33 306.006 212.33 305.691C212.33 305.376 212.442 305.105 212.668 304.879C212.894 304.653 213.165 304.541 213.48 304.541C213.795 304.541 214.066 304.653 214.292 304.879C214.518 305.105 214.631 305.376 214.631 305.691C214.631 305.9 214.577 306.092 214.471 306.266C214.369 306.441 214.23 306.582 214.055 306.688C213.885 306.791 213.693 306.842 213.48 306.842Z" fill="#3E4968"/>
<rect opacity="0.1" x="224" y="296.026" width="92" height="22" rx="2" fill="#60034C"/>
</g>
<path d="M0 334.026H464V484.026C464 488.445 460.418 492.026 456 492.026H7.99999C3.58171 492.026 0 488.445 0 484.026V334.026Z" fill="#60034C"/>
<path d="M30.7564 362.935V376.026H27.9886V365.563H27.9119L24.9141 367.442V364.987L28.1548 362.935H30.7564ZM34.7818 376.193C34.3599 376.193 33.9977 376.043 33.6951 375.745C33.3968 375.443 33.2477 375.08 33.2477 374.658C33.2477 374.241 33.3968 373.883 33.6951 373.585C33.9977 373.286 34.3599 373.137 34.7818 373.137C35.1909 373.137 35.5488 373.286 35.8556 373.585C36.1625 373.883 36.3159 374.241 36.3159 374.658C36.3159 374.94 36.2434 375.198 36.0985 375.432C35.9579 375.662 35.7725 375.847 35.5424 375.988C35.3123 376.124 35.0588 376.193 34.7818 376.193ZM42.1534 376.026V362.935H44.9212V373.744H50.5334V376.026H42.1534ZM55.1341 362.935V376.026H52.3663V362.935H55.1341ZM68.3608 362.935V376.026H65.9702L60.2749 367.787H60.179V376.026H57.4112V362.935H59.8402L65.4908 371.168H65.6058V362.935H68.3608ZM70.6475 376.026V362.935H73.4153V368.707H73.5879L78.2988 362.935H81.6163L76.7583 368.797L81.6738 376.026H78.3627L74.7768 370.644L73.4153 372.306V376.026H70.6475ZM89.4801 376.026H86.5142L91.0334 362.935H94.6001L99.1129 376.026H96.147L92.8679 365.927H92.7656L89.4801 376.026ZM89.2947 370.881H96.3004V373.041H89.2947V370.881ZM111.624 367.519H108.824C108.773 367.156 108.669 366.835 108.511 366.553C108.353 366.268 108.151 366.025 107.904 365.825C107.656 365.624 107.371 365.471 107.047 365.364C106.727 365.258 106.38 365.205 106.005 365.205C105.328 365.205 104.737 365.373 104.235 365.71C103.732 366.042 103.342 366.528 103.065 367.167C102.788 367.802 102.649 368.573 102.649 369.481C102.649 370.414 102.788 371.198 103.065 371.833C103.346 372.468 103.738 372.948 104.241 373.271C104.744 373.595 105.325 373.757 105.986 373.757C106.357 373.757 106.7 373.708 107.015 373.61C107.335 373.512 107.618 373.369 107.865 373.182C108.112 372.99 108.317 372.758 108.479 372.485C108.645 372.212 108.76 371.901 108.824 371.552L111.624 371.565C111.551 372.166 111.37 372.745 111.08 373.303C110.795 373.857 110.409 374.354 109.923 374.793C109.442 375.227 108.867 375.573 108.198 375.828C107.533 376.08 106.781 376.205 105.941 376.205C104.774 376.205 103.73 375.941 102.809 375.413C101.893 374.884 101.169 374.119 100.636 373.118C100.107 372.117 99.8432 370.904 99.8432 369.481C99.8432 368.053 100.112 366.839 100.649 365.837C101.186 364.836 101.914 364.073 102.835 363.549C103.755 363.021 104.791 362.756 105.941 362.756C106.7 362.756 107.403 362.863 108.051 363.076C108.703 363.289 109.28 363.6 109.783 364.009C110.286 364.414 110.695 364.911 111.01 365.499C111.33 366.087 111.534 366.76 111.624 367.519ZM125.159 367.519H122.359C122.308 367.156 122.204 366.835 122.046 366.553C121.888 366.268 121.686 366.025 121.439 365.825C121.192 365.624 120.906 365.471 120.582 365.364C120.263 365.258 119.915 365.205 119.54 365.205C118.863 365.205 118.273 365.373 117.77 365.71C117.267 366.042 116.877 366.528 116.6 367.167C116.323 367.802 116.184 368.573 116.184 369.481C116.184 370.414 116.323 371.198 116.6 371.833C116.881 372.468 117.273 372.948 117.776 373.271C118.279 373.595 118.861 373.757 119.521 373.757C119.892 373.757 120.235 373.708 120.55 373.61C120.87 373.512 121.153 373.369 121.4 373.182C121.648 372.99 121.852 372.758 122.014 372.485C122.18 372.212 122.295 371.901 122.359 371.552L125.159 371.565C125.086 372.166 124.905 372.745 124.616 373.303C124.33 373.857 123.944 374.354 123.459 374.793C122.977 375.227 122.402 375.573 121.733 375.828C121.068 376.08 120.316 376.205 119.476 376.205C118.309 376.205 117.265 375.941 116.344 375.413C115.428 374.884 114.704 374.119 114.171 373.118C113.643 372.117 113.378 370.904 113.378 369.481C113.378 368.053 113.647 366.839 114.184 365.837C114.721 364.836 115.449 364.073 116.37 363.549C117.29 363.021 118.326 362.756 119.476 362.756C120.235 362.756 120.938 362.863 121.586 363.076C122.238 363.289 122.815 363.6 123.318 364.009C123.821 364.414 124.23 364.911 124.545 365.499C124.865 366.087 125.069 366.76 125.159 367.519ZM139.173 369.481C139.173 370.908 138.903 372.123 138.362 373.124C137.825 374.126 137.092 374.891 136.163 375.419C135.238 375.943 134.198 376.205 133.044 376.205C131.88 376.205 130.836 375.941 129.911 375.413C128.987 374.884 128.256 374.119 127.719 373.118C127.182 372.117 126.914 370.904 126.914 369.481C126.914 368.053 127.182 366.839 127.719 365.837C128.256 364.836 128.987 364.073 129.911 363.549C130.836 363.021 131.88 362.756 133.044 362.756C134.198 362.756 135.238 363.021 136.163 363.549C137.092 364.073 137.825 364.836 138.362 365.837C138.903 366.839 139.173 368.053 139.173 369.481ZM136.367 369.481C136.367 368.556 136.229 367.776 135.952 367.141C135.679 366.506 135.294 366.025 134.795 365.697C134.296 365.369 133.713 365.205 133.044 365.205C132.374 365.205 131.791 365.369 131.292 365.697C130.794 366.025 130.406 366.506 130.129 367.141C129.856 367.776 129.72 368.556 129.72 369.481C129.72 370.406 129.856 371.185 130.129 371.82C130.406 372.455 130.794 372.937 131.292 373.265C131.791 373.593 132.374 373.757 133.044 373.757C133.713 373.757 134.296 373.593 134.795 373.265C135.294 372.937 135.679 372.455 135.952 371.82C136.229 371.185 136.367 370.406 136.367 369.481ZM149.31 362.935H152.077V371.437C152.077 372.391 151.849 373.227 151.393 373.943C150.942 374.658 150.309 375.217 149.495 375.617C148.681 376.014 147.733 376.212 146.651 376.212C145.564 376.212 144.614 376.014 143.8 375.617C142.986 375.217 142.353 374.658 141.901 373.943C141.45 373.227 141.224 372.391 141.224 371.437V362.935H143.991V371.2C143.991 371.699 144.1 372.142 144.317 372.53C144.539 372.918 144.85 373.222 145.251 373.444C145.651 373.666 146.118 373.776 146.651 373.776C147.188 373.776 147.654 373.666 148.05 373.444C148.451 373.222 148.76 372.918 148.977 372.53C149.199 372.142 149.31 371.699 149.31 371.2V362.935ZM165.304 362.935V376.026H162.914L157.218 367.787H157.122V376.026H154.355V362.935H156.784L162.434 371.168H162.549V362.935H165.304ZM167.092 365.217V362.935H177.844V365.217H173.836V376.026H171.1V365.217H167.092Z" fill="white"/>
<path d="M29.012 413.194C28.3027 413.194 27.6773 413.05 27.136 412.76C26.5947 412.471 26.17 412.079 25.862 411.584C25.554 411.09 25.3253 410.553 25.176 409.974C25.0267 409.396 24.952 408.78 24.952 408.126C24.952 407.482 25.0267 406.871 25.176 406.292C25.3347 405.704 25.568 405.168 25.876 404.682C26.1933 404.188 26.618 403.796 27.15 403.506C27.6913 403.208 28.312 403.058 29.012 403.058C30.5427 403.058 31.5973 403.646 32.176 404.822L31.084 405.382C30.8227 404.99 30.5333 404.696 30.216 404.5C29.908 404.295 29.5067 404.192 29.012 404.192C28.3493 404.192 27.7987 404.402 27.36 404.822C26.9213 405.242 26.618 405.737 26.45 406.306C26.2913 406.866 26.212 407.473 26.212 408.126C26.212 409.2 26.45 410.124 26.926 410.898C27.402 411.664 28.0973 412.046 29.012 412.046C29.9267 412.046 30.636 411.631 31.14 410.8L32.26 411.22C31.9893 411.818 31.5833 412.298 31.042 412.662C30.5007 413.017 29.824 413.194 29.012 413.194ZM38.0377 413.194C37.3004 413.194 36.6517 413.05 36.0917 412.76C35.5411 412.462 35.1071 412.065 34.7897 411.57C34.4817 411.066 34.2531 410.53 34.1037 409.96C33.9544 409.382 33.8797 408.77 33.8797 408.126C33.8797 407.482 33.9544 406.876 34.1037 406.306C34.2531 405.728 34.4817 405.191 34.7897 404.696C35.1071 404.192 35.5411 403.796 36.0917 403.506C36.6517 403.208 37.3004 403.058 38.0377 403.058C38.6351 403.058 39.1717 403.156 39.6477 403.352C40.1331 403.548 40.5297 403.81 40.8377 404.136C41.1551 404.463 41.4164 404.85 41.6217 405.298C41.8364 405.746 41.9857 406.204 42.0697 406.67C42.1631 407.137 42.2097 407.622 42.2097 408.126C42.2097 408.63 42.1631 409.116 42.0697 409.582C41.9857 410.049 41.8364 410.506 41.6217 410.954C41.4164 411.402 41.1551 411.79 40.8377 412.116C40.5297 412.443 40.1331 412.704 39.6477 412.9C39.1717 413.096 38.6351 413.194 38.0377 413.194ZM36.6797 411.71C37.0717 411.934 37.5244 412.046 38.0377 412.046C38.5511 412.046 39.0037 411.93 39.3957 411.696C39.7877 411.454 40.0911 411.136 40.3057 410.744C40.5204 410.352 40.6791 409.937 40.7817 409.498C40.8844 409.05 40.9357 408.593 40.9357 408.126C40.9357 407.436 40.8471 406.81 40.6697 406.25C40.5017 405.681 40.1891 405.196 39.7317 404.794C39.2837 404.393 38.7191 404.192 38.0377 404.192C37.5244 404.192 37.0717 404.314 36.6797 404.556C36.2971 404.79 35.9984 405.107 35.7837 405.508C35.5691 405.9 35.4057 406.316 35.2937 406.754C35.1911 407.193 35.1397 407.65 35.1397 408.126C35.1397 408.63 35.1911 409.106 35.2937 409.554C35.3964 410.002 35.5551 410.418 35.7697 410.8C35.9937 411.183 36.2971 411.486 36.6797 411.71ZM51.6943 413.026H50.5183L46.1083 406.026C45.9403 405.756 45.8096 405.527 45.7163 405.34C45.735 405.62 45.7443 405.849 45.7443 406.026V413.026H44.5263V403.226H45.7583L50.0983 410.198C50.2476 410.441 50.383 410.684 50.5043 410.926C50.4856 410.59 50.4763 410.352 50.4763 410.212V403.226H51.6943V413.026ZM61.6064 413.026H60.4304L56.0204 406.026C55.8524 405.756 55.7217 405.527 55.6284 405.34C55.6471 405.62 55.6564 405.849 55.6564 406.026V413.026H54.4384V403.226H55.6704L60.0104 410.198C60.1597 410.441 60.2951 410.684 60.4164 410.926C60.3977 410.59 60.3884 410.352 60.3884 410.212V403.226H61.6064V413.026ZM64.3505 413.026V403.226H70.1745V404.374H65.5685V407.384H68.6065V408.532H65.5685V411.864H70.4825V413.026H64.3505ZM75.9475 413.194C75.2382 413.194 74.6129 413.05 74.0715 412.76C73.5302 412.471 73.1055 412.079 72.7975 411.584C72.4895 411.09 72.2609 410.553 72.1115 409.974C71.9622 409.396 71.8875 408.78 71.8875 408.126C71.8875 407.482 71.9622 406.871 72.1115 406.292C72.2702 405.704 72.5035 405.168 72.8115 404.682C73.1289 404.188 73.5535 403.796 74.0855 403.506C74.6269 403.208 75.2475 403.058 75.9475 403.058C77.4782 403.058 78.5329 403.646 79.1115 404.822L78.0195 405.382C77.7582 404.99 77.4689 404.696 77.1515 404.5C76.8435 404.295 76.4422 404.192 75.9475 404.192C75.2849 404.192 74.7342 404.402 74.2955 404.822C73.8569 405.242 73.5535 405.737 73.3855 406.306C73.2269 406.866 73.1475 407.473 73.1475 408.126C73.1475 409.2 73.3855 410.124 73.8615 410.898C74.3375 411.664 75.0329 412.046 75.9475 412.046C76.8622 412.046 77.5715 411.631 78.0755 410.8L79.1955 411.22C78.9249 411.818 78.5189 412.298 77.9775 412.662C77.4362 413.017 76.7595 413.194 75.9475 413.194ZM84.5533 404.388V413.026H83.3353V404.388H80.6053V403.226H87.2833V404.388H84.5533ZM94.8892 404.388V413.026H93.6712V404.388H90.9412V403.226H97.6192V404.388H94.8892ZM105.571 413.026V408.518H100.951V413.026H99.7333V403.226H100.951V407.37H105.571V403.226H106.789V413.026H105.571ZM109.536 413.026V403.226H113.4C114.483 403.226 115.267 403.492 115.752 404.024C116.247 404.556 116.494 405.219 116.494 406.012C116.494 406.656 116.303 407.235 115.92 407.748C115.547 408.252 114.977 408.584 114.212 408.742L116.312 413.026H114.94L112.924 408.826H110.754V413.026H109.536ZM110.754 407.692H113.428C114.063 407.692 114.525 407.534 114.814 407.216C115.113 406.899 115.262 406.507 115.262 406.04C115.262 405.592 115.117 405.2 114.828 404.864C114.548 404.528 114.081 404.36 113.428 404.36H110.754V407.692ZM122.585 413.194C121.847 413.194 121.199 413.05 120.639 412.76C120.088 412.462 119.654 412.065 119.337 411.57C119.029 411.066 118.8 410.53 118.651 409.96C118.501 409.382 118.427 408.77 118.427 408.126C118.427 407.482 118.501 406.876 118.651 406.306C118.8 405.728 119.029 405.191 119.337 404.696C119.654 404.192 120.088 403.796 120.639 403.506C121.199 403.208 121.847 403.058 122.585 403.058C123.182 403.058 123.719 403.156 124.195 403.352C124.68 403.548 125.077 403.81 125.385 404.136C125.702 404.463 125.963 404.85 126.169 405.298C126.383 405.746 126.533 406.204 126.617 406.67C126.71 407.137 126.757 407.622 126.757 408.126C126.757 408.63 126.71 409.116 126.617 409.582C126.533 410.049 126.383 410.506 126.169 410.954C125.963 411.402 125.702 411.79 125.385 412.116C125.077 412.443 124.68 412.704 124.195 412.9C123.719 413.096 123.182 413.194 122.585 413.194ZM121.227 411.71C121.619 411.934 122.071 412.046 122.585 412.046C123.098 412.046 123.551 411.93 123.943 411.696C124.335 411.454 124.638 411.136 124.853 410.744C125.067 410.352 125.226 409.937 125.329 409.498C125.431 409.05 125.483 408.593 125.483 408.126C125.483 407.436 125.394 406.81 125.217 406.25C125.049 405.681 124.736 405.196 124.279 404.794C123.831 404.393 123.266 404.192 122.585 404.192C122.071 404.192 121.619 404.314 121.227 404.556C120.844 404.79 120.545 405.107 120.331 405.508C120.116 405.9 119.953 406.316 119.841 406.754C119.738 407.193 119.687 407.65 119.687 408.126C119.687 408.63 119.738 409.106 119.841 409.554C119.943 410.002 120.102 410.418 120.317 410.8C120.541 411.183 120.844 411.486 121.227 411.71ZM132.517 413.194C130.175 413.194 129.003 411.911 129.003 409.344V403.226H130.221V409.344C130.221 410.343 130.427 411.043 130.837 411.444C131.248 411.846 131.808 412.046 132.517 412.046C133.227 412.046 133.787 411.846 134.197 411.444C134.617 411.043 134.827 410.343 134.827 409.344V403.226H136.045V409.344C136.045 411.911 134.869 413.194 132.517 413.194ZM142.464 413.194C141.745 413.194 141.11 413.054 140.56 412.774C140.018 412.485 139.584 412.098 139.258 411.612C138.94 411.127 138.702 410.59 138.544 410.002C138.385 409.414 138.306 408.789 138.306 408.126C138.306 407.473 138.39 406.852 138.558 406.264C138.726 405.667 138.973 405.13 139.3 404.654C139.626 404.169 140.06 403.782 140.602 403.492C141.152 403.203 141.773 403.058 142.464 403.058C143.294 403.058 143.948 403.212 144.424 403.52C144.909 403.828 145.315 404.248 145.642 404.78L144.55 405.41C144.288 405.028 143.999 404.734 143.682 404.528C143.364 404.314 142.958 404.206 142.464 404.206C142.044 404.206 141.666 404.286 141.33 404.444C140.994 404.603 140.718 404.813 140.504 405.074C140.289 405.326 140.107 405.625 139.958 405.97C139.818 406.316 139.715 406.67 139.65 407.034C139.594 407.389 139.566 407.753 139.566 408.126C139.566 409.228 139.808 410.156 140.294 410.912C140.779 411.659 141.502 412.032 142.464 412.032C143.126 412.032 143.658 411.827 144.06 411.416C144.461 410.996 144.662 410.45 144.662 409.778V409.386H142.884V408.266H145.936V409.442C145.936 410.628 145.609 411.552 144.956 412.214C144.312 412.868 143.481 413.194 142.464 413.194ZM154.202 413.026V408.518H149.582V413.026H148.364V403.226H149.582V407.37H154.202V403.226H155.42V413.026H154.202ZM164.318 413.194C163.487 413.194 162.764 412.994 162.148 412.592C161.541 412.182 161.126 411.654 160.902 411.01L162.05 410.59C162.255 411.038 162.559 411.393 162.96 411.654C163.361 411.916 163.823 412.046 164.346 412.046C164.943 412.046 165.415 411.906 165.76 411.626C166.105 411.337 166.278 410.926 166.278 410.394C166.278 409.881 166.082 409.47 165.69 409.162C165.307 408.854 164.766 408.574 164.066 408.322C163.73 408.201 163.45 408.094 163.226 408C163.011 407.907 162.759 407.776 162.47 407.608C162.19 407.431 161.966 407.254 161.798 407.076C161.63 406.89 161.485 406.661 161.364 406.39C161.252 406.11 161.196 405.807 161.196 405.48C161.196 404.799 161.467 404.225 162.008 403.758C162.549 403.292 163.282 403.058 164.206 403.058C164.962 403.058 165.592 403.222 166.096 403.548C166.6 403.866 166.927 404.286 167.076 404.808L165.956 405.186C165.825 404.897 165.601 404.659 165.284 404.472C164.967 404.286 164.579 404.192 164.122 404.192C163.609 404.192 163.203 404.309 162.904 404.542C162.605 404.766 162.456 405.079 162.456 405.48C162.456 405.695 162.507 405.891 162.61 406.068C162.722 406.246 162.89 406.404 163.114 406.544C163.347 406.684 163.562 406.796 163.758 406.88C163.954 406.964 164.225 407.072 164.57 407.202C164.999 407.361 165.354 407.515 165.634 407.664C165.914 407.804 166.217 407.996 166.544 408.238C166.871 408.481 167.118 408.784 167.286 409.148C167.454 409.503 167.538 409.909 167.538 410.366C167.538 411.244 167.239 411.934 166.642 412.438C166.045 412.942 165.27 413.194 164.318 413.194ZM169.843 413.026V403.226H175.667V404.374H171.061V407.384H174.099V408.532H171.061V411.864H175.975V413.026H169.843ZM181.44 413.194C180.73 413.194 180.105 413.05 179.564 412.76C179.022 412.471 178.598 412.079 178.29 411.584C177.982 411.09 177.753 410.553 177.604 409.974C177.454 409.396 177.38 408.78 177.38 408.126C177.38 407.482 177.454 406.871 177.604 406.292C177.762 405.704 177.996 405.168 178.304 404.682C178.621 404.188 179.046 403.796 179.578 403.506C180.119 403.208 180.74 403.058 181.44 403.058C182.97 403.058 184.025 403.646 184.604 404.822L183.512 405.382C183.25 404.99 182.961 404.696 182.644 404.5C182.336 404.295 181.934 404.192 181.44 404.192C180.777 404.192 180.226 404.402 179.788 404.822C179.349 405.242 179.046 405.737 178.878 406.306C178.719 406.866 178.64 407.473 178.64 408.126C178.64 409.2 178.878 410.124 179.354 410.898C179.83 411.664 180.525 412.046 181.44 412.046C182.354 412.046 183.064 411.631 183.568 410.8L184.688 411.22C184.417 411.818 184.011 412.298 183.47 412.662C182.928 413.017 182.252 413.194 181.44 413.194ZM190.308 413.194C187.966 413.194 186.794 411.911 186.794 409.344V403.226H188.012V409.344C188.012 410.343 188.218 411.043 188.628 411.444C189.039 411.846 189.599 412.046 190.308 412.046C191.018 412.046 191.578 411.846 191.988 411.444C192.408 411.043 192.618 410.343 192.618 409.344V403.226H193.836V409.344C193.836 411.911 192.66 413.194 190.308 413.194ZM196.517 413.026V403.226H200.381C201.463 403.226 202.247 403.492 202.733 404.024C203.227 404.556 203.475 405.219 203.475 406.012C203.475 406.656 203.283 407.235 202.901 407.748C202.527 408.252 201.958 408.584 201.193 408.742L203.293 413.026H201.921L199.905 408.826H197.735V413.026H196.517ZM197.735 407.692H200.409C201.043 407.692 201.505 407.534 201.795 407.216C202.093 406.899 202.243 406.507 202.243 406.04C202.243 405.592 202.098 405.2 201.809 404.864C201.529 404.528 201.062 404.36 200.409 404.36H197.735V407.692ZM205.827 413.026V403.226H211.651V404.374H207.045V407.384H210.083V408.532H207.045V411.864H211.959V413.026H205.827ZM217.503 413.026V403.226H221.255C221.824 403.226 222.319 403.31 222.739 403.478C223.168 403.646 223.5 403.875 223.733 404.164C223.966 404.444 224.139 404.752 224.251 405.088C224.363 405.424 224.419 405.784 224.419 406.166C224.419 406.941 224.153 407.622 223.621 408.21C223.098 408.798 222.31 409.092 221.255 409.092H218.721V413.026H217.503ZM221.339 407.958C221.974 407.958 222.44 407.781 222.739 407.426C223.047 407.072 223.201 406.652 223.201 406.166C223.201 405.69 223.056 405.27 222.767 404.906C222.478 404.542 222.002 404.36 221.339 404.36H218.721V407.958H221.339ZM226.321 413.026V403.226H227.539V411.85H232.355V413.026H226.321ZM240.316 413.026L239.476 410.632H235.584L234.758 413.026H233.484L236.956 403.226H238.09L241.562 413.026H240.316ZM239.098 409.554L237.838 405.928C237.679 405.471 237.576 405.14 237.53 404.934C237.427 405.298 237.324 405.63 237.222 405.928L235.948 409.554H239.098ZM243.398 413.026V403.226H244.616V413.026H243.398ZM247.39 403.226H250.064C250.866 403.226 251.571 403.366 252.178 403.646C252.784 403.926 253.26 404.304 253.606 404.78C253.951 405.256 254.203 405.774 254.362 406.334C254.53 406.894 254.614 407.492 254.614 408.126C254.614 408.733 254.534 409.312 254.376 409.862C254.226 410.404 253.984 410.922 253.648 411.416C253.321 411.902 252.845 412.294 252.22 412.592C251.594 412.882 250.857 413.026 250.008 413.026H247.39V403.226ZM250.162 411.892C250.74 411.892 251.244 411.785 251.674 411.57C252.112 411.346 252.448 411.048 252.682 410.674C252.915 410.292 253.083 409.89 253.186 409.47C253.298 409.05 253.354 408.602 253.354 408.126C253.354 407.454 253.256 406.843 253.06 406.292C252.864 405.742 252.528 405.28 252.052 404.906C251.576 404.533 250.997 404.346 250.316 404.346H248.608V411.892H250.162ZM260.255 413.026V403.226H261.473V413.026H260.255ZM271.415 413.026H270.239L265.829 406.026C265.661 405.756 265.53 405.527 265.437 405.34C265.456 405.62 265.465 405.849 265.465 406.026V413.026H264.247V403.226H265.479L269.819 410.198C269.968 410.441 270.104 410.684 270.225 410.926C270.206 410.59 270.197 410.352 270.197 410.212V403.226H271.415V413.026ZM277.477 404.388V413.026H276.259V404.388H273.529V403.226H280.207V404.388H277.477ZM282.321 413.026V403.226H288.145V404.374H283.539V407.384H286.577V408.532H283.539V411.864H288.453V413.026H282.321ZM294.016 413.194C293.298 413.194 292.663 413.054 292.112 412.774C291.571 412.485 291.137 412.098 290.81 411.612C290.493 411.127 290.255 410.59 290.096 410.002C289.938 409.414 289.858 408.789 289.858 408.126C289.858 407.473 289.942 406.852 290.11 406.264C290.278 405.667 290.526 405.13 290.852 404.654C291.179 404.169 291.613 403.782 292.154 403.492C292.705 403.203 293.326 403.058 294.016 403.058C294.847 403.058 295.5 403.212 295.976 403.52C296.462 403.828 296.868 404.248 297.194 404.78L296.102 405.41C295.841 405.028 295.552 404.734 295.234 404.528C294.917 404.314 294.511 404.206 294.016 404.206C293.596 404.206 293.218 404.286 292.882 404.444C292.546 404.603 292.271 404.813 292.056 405.074C291.842 405.326 291.66 405.625 291.51 405.97C291.37 406.316 291.268 406.67 291.202 407.034C291.146 407.389 291.118 407.753 291.118 408.126C291.118 409.228 291.361 410.156 291.846 410.912C292.332 411.659 293.055 412.032 294.016 412.032C294.679 412.032 295.211 411.827 295.612 411.416C296.014 410.996 296.214 410.45 296.214 409.778V409.386H294.436V408.266H297.488V409.442C297.488 410.628 297.162 411.552 296.508 412.214C295.864 412.868 295.034 413.194 294.016 413.194ZM299.917 413.026V403.226H303.781C304.864 403.226 305.648 403.492 306.133 404.024C306.628 404.556 306.875 405.219 306.875 406.012C306.875 406.656 306.684 407.235 306.301 407.748C305.928 408.252 305.358 408.584 304.593 408.742L306.693 413.026H305.321L303.305 408.826H301.135V413.026H299.917ZM301.135 407.692H303.809C304.444 407.692 304.906 407.534 305.195 407.216C305.494 406.899 305.643 406.507 305.643 406.04C305.643 405.592 305.498 405.2 305.209 404.864C304.929 404.528 304.462 404.36 303.809 404.36H301.135V407.692ZM315.046 413.026L314.206 410.632H310.314L309.488 413.026H308.214L311.686 403.226H312.82L316.292 413.026H315.046ZM313.828 409.554L312.568 405.928C312.409 405.471 312.307 405.14 312.26 404.934C312.157 405.298 312.055 405.63 311.952 405.928L310.678 409.554H313.828ZM320.366 404.388V413.026H319.148V404.388H316.418V403.226H323.096V404.388H320.366ZM325.238 413.026V403.226H326.456V413.026H325.238ZM332.967 413.194C332.23 413.194 331.581 413.05 331.021 412.76C330.471 412.462 330.037 412.065 329.719 411.57C329.411 411.066 329.183 410.53 329.033 409.96C328.884 409.382 328.809 408.77 328.809 408.126C328.809 407.482 328.884 406.876 329.033 406.306C329.183 405.728 329.411 405.191 329.719 404.696C330.037 404.192 330.471 403.796 331.021 403.506C331.581 403.208 332.23 403.058 332.967 403.058C333.565 403.058 334.101 403.156 334.577 403.352C335.063 403.548 335.459 403.81 335.767 404.136C336.085 404.463 336.346 404.85 336.551 405.298C336.766 405.746 336.915 406.204 336.999 406.67C337.093 407.137 337.139 407.622 337.139 408.126C337.139 408.63 337.093 409.116 336.999 409.582C336.915 410.049 336.766 410.506 336.551 410.954C336.346 411.402 336.085 411.79 335.767 412.116C335.459 412.443 335.063 412.704 334.577 412.9C334.101 413.096 333.565 413.194 332.967 413.194ZM331.609 411.71C332.001 411.934 332.454 412.046 332.967 412.046C333.481 412.046 333.933 411.93 334.325 411.696C334.717 411.454 335.021 411.136 335.235 410.744C335.45 410.352 335.609 409.937 335.711 409.498C335.814 409.05 335.865 408.593 335.865 408.126C335.865 407.436 335.777 406.81 335.599 406.25C335.431 405.681 335.119 405.196 334.661 404.794C334.213 404.393 333.649 404.192 332.967 404.192C332.454 404.192 332.001 404.314 331.609 404.556C331.227 404.79 330.928 405.107 330.713 405.508C330.499 405.9 330.335 406.316 330.223 406.754C330.121 407.193 330.069 407.65 330.069 408.126C330.069 408.63 330.121 409.106 330.223 409.554C330.326 410.002 330.485 410.418 330.699 410.8C330.923 411.183 331.227 411.486 331.609 411.71ZM346.624 413.026H345.448L341.038 406.026C340.87 405.756 340.739 405.527 340.646 405.34C340.665 405.62 340.674 405.849 340.674 406.026V413.026H339.456V403.226H340.688L345.028 410.198C345.177 410.441 345.313 410.684 345.434 410.926C345.415 410.59 345.406 410.352 345.406 410.212V403.226H346.624V413.026ZM348.794 414.79C348.962 414.641 349.13 414.426 349.298 414.146C349.466 413.866 349.559 413.568 349.578 413.25C349.298 413.232 349.065 413.138 348.878 412.97C348.691 412.793 348.598 412.574 348.598 412.312C348.598 412.023 348.687 411.785 348.864 411.598C349.051 411.412 349.275 411.318 349.536 411.318C349.835 411.318 350.087 411.426 350.292 411.64C350.497 411.846 350.6 412.149 350.6 412.55C350.6 413.064 350.469 413.535 350.208 413.964C349.947 414.403 349.611 414.748 349.2 415L348.794 414.79ZM29.012 437.194C28.3027 437.194 27.6773 437.05 27.136 436.76C26.5947 436.471 26.17 436.079 25.862 435.584C25.554 435.09 25.3253 434.553 25.176 433.974C25.0267 433.396 24.952 432.78 24.952 432.126C24.952 431.482 25.0267 430.871 25.176 430.292C25.3347 429.704 25.568 429.168 25.876 428.682C26.1933 428.188 26.618 427.796 27.15 427.506C27.6913 427.208 28.312 427.058 29.012 427.058C30.5427 427.058 31.5973 427.646 32.176 428.822L31.084 429.382C30.8227 428.99 30.5333 428.696 30.216 428.5C29.908 428.295 29.5067 428.192 29.012 428.192C28.3493 428.192 27.7987 428.402 27.36 428.822C26.9213 429.242 26.618 429.737 26.45 430.306C26.2913 430.866 26.212 431.473 26.212 432.126C26.212 433.2 26.45 434.124 26.926 434.898C27.402 435.664 28.0973 436.046 29.012 436.046C29.9267 436.046 30.636 435.631 31.14 434.8L32.26 435.22C31.9893 435.818 31.5833 436.298 31.042 436.662C30.5007 437.017 29.824 437.194 29.012 437.194ZM37.2925 437.194C36.4618 437.194 35.7385 436.994 35.1225 436.592C34.5158 436.182 34.1005 435.654 33.8765 435.01L35.0245 434.59C35.2298 435.038 35.5331 435.393 35.9345 435.654C36.3358 435.916 36.7978 436.046 37.3205 436.046C37.9178 436.046 38.3891 435.906 38.7345 435.626C39.0798 435.337 39.2525 434.926 39.2525 434.394C39.2525 433.881 39.0565 433.47 38.6645 433.162C38.2818 432.854 37.7405 432.574 37.0405 432.322C36.7045 432.201 36.4245 432.094 36.2005 432C35.9858 431.907 35.7338 431.776 35.4445 431.608C35.1645 431.431 34.9405 431.254 34.7725 431.076C34.6045 430.89 34.4598 430.661 34.3385 430.39C34.2265 430.11 34.1705 429.807 34.1705 429.48C34.1705 428.799 34.4411 428.225 34.9825 427.758C35.5238 427.292 36.2565 427.058 37.1805 427.058C37.9365 427.058 38.5665 427.222 39.0705 427.548C39.5745 427.866 39.9011 428.286 40.0505 428.808L38.9305 429.186C38.7998 428.897 38.5758 428.659 38.2585 428.472C37.9411 428.286 37.5538 428.192 37.0965 428.192C36.5831 428.192 36.1771 428.309 35.8785 428.542C35.5798 428.766 35.4305 429.079 35.4305 429.48C35.4305 429.695 35.4818 429.891 35.5845 430.068C35.6965 430.246 35.8645 430.404 36.0885 430.544C36.3218 430.684 36.5365 430.796 36.7325 430.88C36.9285 430.964 37.1991 431.072 37.5445 431.202C37.9738 431.361 38.3285 431.515 38.6085 431.664C38.8885 431.804 39.1918 431.996 39.5185 432.238C39.8451 432.481 40.0925 432.784 40.2605 433.148C40.4285 433.503 40.5125 433.909 40.5125 434.366C40.5125 435.244 40.2138 435.934 39.6165 436.438C39.0191 436.942 38.2445 437.194 37.2925 437.194ZM44.9441 437.026L41.5841 427.226H42.8861L45.2241 434.31C45.3921 434.88 45.4901 435.211 45.5181 435.304C45.5554 435.127 45.6488 434.796 45.7981 434.31L48.0661 427.226H49.3681L46.0221 437.026H44.9441ZM54.1793 437.026V427.226H55.3973V437.026H54.1793ZM66.6828 437.026H65.4648V431.006C65.4648 430.624 65.4742 430.264 65.4928 429.928C65.3995 430.19 65.2548 430.558 65.0588 431.034L62.3708 437.194L59.7668 431.006C59.5428 430.465 59.4028 430.11 59.3468 429.942C59.3748 430.194 59.3888 430.549 59.3888 431.006V437.026H58.1708V427.226H59.3188L62.1608 433.82L62.4128 434.478C62.4502 434.366 62.5342 434.147 62.6648 433.82L65.5208 427.226H66.6828V437.026ZM69.4091 437.026V427.226H73.1611C73.7304 427.226 74.2251 427.31 74.6451 427.478C75.0744 427.646 75.4058 427.875 75.6391 428.164C75.8724 428.444 76.0451 428.752 76.1571 429.088C76.2691 429.424 76.3251 429.784 76.3251 430.166C76.3251 430.941 76.0591 431.622 75.5271 432.21C75.0044 432.798 74.2158 433.092 73.1611 433.092H70.6271V437.026H69.4091ZM73.2451 431.958C73.8798 431.958 74.3464 431.781 74.6451 431.426C74.9531 431.072 75.1071 430.652 75.1071 430.166C75.1071 429.69 74.9624 429.27 74.6731 428.906C74.3838 428.542 73.9078 428.36 73.2451 428.36H70.6271V431.958H73.2451ZM81.8288 437.194C81.0914 437.194 80.4428 437.05 79.8828 436.76C79.3321 436.462 78.8981 436.065 78.5808 435.57C78.2728 435.066 78.0441 434.53 77.8948 433.96C77.7454 433.382 77.6708 432.77 77.6708 432.126C77.6708 431.482 77.7454 430.876 77.8948 430.306C78.0441 429.728 78.2728 429.191 78.5808 428.696C78.8981 428.192 79.3321 427.796 79.8828 427.506C80.4428 427.208 81.0914 427.058 81.8288 427.058C82.4261 427.058 82.9628 427.156 83.4388 427.352C83.9241 427.548 84.3208 427.81 84.6287 428.136C84.9461 428.463 85.2074 428.85 85.4128 429.298C85.6274 429.746 85.7768 430.204 85.8608 430.67C85.9541 431.137 86.0008 431.622 86.0008 432.126C86.0008 432.63 85.9541 433.116 85.8608 433.582C85.7768 434.049 85.6274 434.506 85.4128 434.954C85.2074 435.402 84.9461 435.79 84.6287 436.116C84.3208 436.443 83.9241 436.704 83.4388 436.9C82.9628 437.096 82.4261 437.194 81.8288 437.194ZM80.4708 435.71C80.8628 435.934 81.3154 436.046 81.8288 436.046C82.3421 436.046 82.7948 435.93 83.1868 435.696C83.5788 435.454 83.8821 435.136 84.0968 434.744C84.3114 434.352 84.4701 433.937 84.5728 433.498C84.6754 433.05 84.7268 432.593 84.7268 432.126C84.7268 431.436 84.6381 430.81 84.4608 430.25C84.2928 429.681 83.9801 429.196 83.5228 428.794C83.0748 428.393 82.5101 428.192 81.8288 428.192C81.3154 428.192 80.8628 428.314 80.4708 428.556C80.0881 428.79 79.7894 429.107 79.5748 429.508C79.3601 429.9 79.1968 430.316 79.0848 430.754C78.9821 431.193 78.9308 431.65 78.9308 432.126C78.9308 432.63 78.9821 433.106 79.0848 433.554C79.1874 434.002 79.3461 434.418 79.5608 434.8C79.7848 435.183 80.0881 435.486 80.4708 435.71ZM88.3173 437.026V427.226H92.1813C93.264 427.226 94.048 427.492 94.5333 428.024C95.028 428.556 95.2753 429.219 95.2753 430.012C95.2753 430.656 95.084 431.235 94.7013 431.748C94.328 432.252 93.7586 432.584 92.9933 432.742L95.0933 437.026H93.7213L91.7053 432.826H89.5353V437.026H88.3173ZM89.5353 431.692H92.2093C92.844 431.692 93.306 431.534 93.5953 431.216C93.894 430.899 94.0433 430.507 94.0433 430.04C94.0433 429.592 93.8986 429.2 93.6093 428.864C93.3293 428.528 92.8626 428.36 92.2093 428.36H89.5353V431.692ZM100.672 428.388V437.026H99.4544V428.388H96.7244V427.226H103.402V428.388H100.672ZM103.89 438.79C104.058 438.641 104.226 438.426 104.394 438.146C104.562 437.866 104.655 437.568 104.674 437.25C104.394 437.232 104.16 437.138 103.974 436.97C103.787 436.793 103.694 436.574 103.694 436.312C103.694 436.023 103.782 435.785 103.96 435.598C104.146 435.412 104.37 435.318 104.632 435.318C104.93 435.318 105.182 435.426 105.388 435.64C105.593 435.846 105.696 436.149 105.696 436.55C105.696 437.064 105.565 437.535 105.304 437.964C105.042 438.403 104.706 438.748 104.296 439L103.89 438.79ZM114.641 437.194C113.904 437.194 113.255 437.05 112.695 436.76C112.145 436.462 111.711 436.065 111.393 435.57C111.085 435.066 110.857 434.53 110.707 433.96C110.558 433.382 110.483 432.77 110.483 432.126C110.483 431.482 110.558 430.876 110.707 430.306C110.857 429.728 111.085 429.191 111.393 428.696C111.711 428.192 112.145 427.796 112.695 427.506C113.255 427.208 113.904 427.058 114.641 427.058C115.239 427.058 115.775 427.156 116.251 427.352C116.737 427.548 117.133 427.81 117.441 428.136C117.759 428.463 118.02 428.85 118.225 429.298C118.44 429.746 118.589 430.204 118.673 430.67C118.767 431.137 118.813 431.622 118.813 432.126C118.813 432.63 118.767 433.116 118.673 433.582C118.589 434.049 118.44 434.506 118.225 434.954C118.02 435.402 117.759 435.79 117.441 436.116C117.133 436.443 116.737 436.704 116.251 436.9C115.775 437.096 115.239 437.194 114.641 437.194ZM113.283 435.71C113.675 435.934 114.128 436.046 114.641 436.046C115.155 436.046 115.607 435.93 115.999 435.696C116.391 435.454 116.695 435.136 116.909 434.744C117.124 434.352 117.283 433.937 117.385 433.498C117.488 433.05 117.539 432.593 117.539 432.126C117.539 431.436 117.451 430.81 117.273 430.25C117.105 429.681 116.793 429.196 116.335 428.794C115.887 428.393 115.323 428.192 114.641 428.192C114.128 428.192 113.675 428.314 113.283 428.556C112.901 428.79 112.602 429.107 112.387 429.508C112.173 429.9 112.009 430.316 111.897 430.754C111.795 431.193 111.743 431.65 111.743 432.126C111.743 432.63 111.795 433.106 111.897 433.554C112 434.002 112.159 434.418 112.373 434.8C112.597 435.183 112.901 435.486 113.283 435.71ZM121.13 437.026V427.226H124.994C126.076 427.226 126.86 427.492 127.346 428.024C127.84 428.556 128.088 429.219 128.088 430.012C128.088 430.656 127.896 431.235 127.514 431.748C127.14 432.252 126.571 432.584 125.806 432.742L127.906 437.026H126.534L124.518 432.826H122.348V437.026H121.13ZM122.348 431.692H125.022C125.656 431.692 126.118 431.534 126.408 431.216C126.706 430.899 126.856 430.507 126.856 430.04C126.856 429.592 126.711 429.2 126.422 428.864C126.142 428.528 125.675 428.36 125.022 428.36H122.348V431.692ZM133.735 437.026V427.226H139.559V428.374H134.953V431.384H137.991V432.532H134.953V435.864H139.867V437.026H133.735ZM149.284 437.026H148.108L143.698 430.026C143.53 429.756 143.399 429.527 143.306 429.34C143.325 429.62 143.334 429.849 143.334 430.026V437.026H142.116V427.226H143.348L147.688 434.198C147.837 434.441 147.973 434.684 148.094 434.926C148.075 434.59 148.066 434.352 148.066 434.212V427.226H149.284V437.026ZM155.346 428.388V437.026H154.128V428.388H151.398V427.226H158.076V428.388H155.346ZM160.19 437.026V427.226H166.014V428.374H161.408V431.384H164.446V432.532H161.408V435.864H166.322V437.026H160.19ZM168.571 437.026V427.226H172.435C173.518 427.226 174.302 427.492 174.787 428.024C175.282 428.556 175.529 429.219 175.529 430.012C175.529 430.656 175.338 431.235 174.955 431.748C174.582 432.252 174.013 432.584 173.247 432.742L175.347 437.026H173.975L171.959 432.826H169.789V437.026H168.571ZM169.789 431.692H172.463C173.098 431.692 173.56 431.534 173.849 431.216C174.148 430.899 174.297 430.507 174.297 430.04C174.297 429.592 174.153 429.2 173.863 428.864C173.583 428.528 173.117 428.36 172.463 428.36H169.789V431.692ZM189.689 437.026H188.471V431.006C188.471 430.624 188.48 430.264 188.499 429.928C188.405 430.19 188.261 430.558 188.065 431.034L185.377 437.194L182.773 431.006C182.549 430.465 182.409 430.11 182.353 429.942C182.381 430.194 182.395 430.549 182.395 431.006V437.026H181.177V427.226H182.325L185.167 433.82L185.419 434.478C185.456 434.366 185.54 434.147 185.671 433.82L188.527 427.226H189.689V437.026ZM198.316 437.026L197.476 434.632H193.584L192.758 437.026H191.484L194.956 427.226H196.09L199.562 437.026H198.316ZM197.098 433.554L195.838 429.928C195.679 429.471 195.576 429.14 195.53 428.934C195.427 429.298 195.324 429.63 195.222 429.928L193.948 433.554H197.098ZM208.538 437.026H207.362L202.952 430.026C202.784 429.756 202.653 429.527 202.56 429.34C202.579 429.62 202.588 429.849 202.588 430.026V437.026H201.37V427.226H202.602L206.942 434.198C207.091 434.441 207.227 434.684 207.348 434.926C207.329 434.59 207.32 434.352 207.32 434.212V427.226H208.538V437.026ZM214.726 437.194C212.383 437.194 211.212 435.911 211.212 433.344V427.226H212.43V433.344C212.43 434.343 212.635 435.043 213.046 435.444C213.457 435.846 214.017 436.046 214.726 436.046C215.435 436.046 215.995 435.846 216.406 435.444C216.826 435.043 217.036 434.343 217.036 433.344V427.226H218.254V433.344C218.254 435.911 217.078 437.194 214.726 437.194ZM226.644 437.026L225.804 434.632H221.912L221.086 437.026H219.812L223.284 427.226H224.418L227.89 437.026H226.644ZM225.426 433.554L224.166 429.928C224.007 429.471 223.904 429.14 223.858 428.934C223.755 429.298 223.652 429.63 223.55 429.928L222.276 433.554H225.426ZM229.698 437.026V427.226H230.916V435.85H235.732V437.026H229.698ZM237.518 437.026V427.226H238.736V435.85H243.552V437.026H237.518ZM246.601 437.026V433.176L243.269 427.226H244.641L247.203 431.986L249.793 427.226H251.123L247.819 433.148V437.026H246.601ZM252.633 436.928C252.446 437.115 252.218 437.208 251.947 437.208C251.676 437.208 251.448 437.115 251.261 436.928C251.074 436.732 250.981 436.508 250.981 436.256C250.981 435.995 251.074 435.771 251.261 435.584C251.448 435.388 251.676 435.29 251.947 435.29C252.218 435.29 252.446 435.388 252.633 435.584C252.829 435.78 252.927 436.004 252.927 436.256C252.927 436.508 252.829 436.732 252.633 436.928Z" fill="white"/>
<defs>
<clipPath id="clip0_3396_9085">
<rect y="0.0263672" width="464" height="350" rx="8" fill="white"/>
</clipPath>
</defs>
</svg>
