<svg width="464" height="493" viewBox="0 0 464 493" fill="none" xmlns="http://www.w3.org/2000/svg">
<g clip-path="url(#clip0_3396_9008)">
<rect y="0.0263672" width="464" height="350" rx="8" fill="white"/>
<rect width="464" height="64" transform="translate(0 0.0263672)" fill="#60034C" fill-opacity="0.1"/>
<path d="M17.7 39.0264V25.0264H23.52C25.1333 25.0264 26.32 25.4464 27.08 26.2864C27.84 27.1264 28.22 28.153 28.22 29.3664C28.22 30.513 27.82 31.5264 27.02 32.4064C26.2333 33.2864 25.0667 33.7264 23.52 33.7264H20.1V39.0264H17.7ZM23.64 31.4464C24.3467 31.4464 24.8733 31.2397 25.22 30.8264C25.5667 30.413 25.74 29.9264 25.74 29.3664C25.74 28.833 25.5733 28.3597 25.24 27.9464C24.92 27.5197 24.3867 27.3064 23.64 27.3064H20.1V31.4464H23.64ZM30.4148 39.0264V25.0264H36.6148C38.2282 25.0264 39.3948 25.4264 40.1148 26.2264C40.8482 27.0264 41.2148 28.0464 41.2148 29.2864C41.2148 30.153 40.9682 30.9664 40.4748 31.7264C39.9815 32.4864 39.2682 33.0064 38.3348 33.2864L41.1348 39.0264H38.4348L35.7348 33.5464H32.8148V39.0264H30.4148ZM32.8148 31.2664H36.6548C37.3748 31.2664 37.9015 31.0797 38.2348 30.7064C38.5682 30.333 38.7348 29.8597 38.7348 29.2864C38.7348 28.7264 38.5748 28.2597 38.2548 27.8864C37.9348 27.4997 37.4015 27.3064 36.6548 27.3064H32.8148V31.2664ZM49.6486 39.2664C48.7819 39.2664 47.9953 39.1264 47.2886 38.8464C46.5819 38.5664 45.9953 38.193 45.5286 37.7264C45.0753 37.2464 44.6886 36.693 44.3686 36.0664C44.0619 35.4397 43.8419 34.793 43.7086 34.1264C43.5753 33.4464 43.5086 32.7464 43.5086 32.0264C43.5086 31.3064 43.5753 30.613 43.7086 29.9464C43.8419 29.2664 44.0619 28.613 44.3686 27.9864C44.6886 27.3597 45.0753 26.813 45.5286 26.3464C45.9953 25.8664 46.5819 25.4864 47.2886 25.2064C47.9953 24.9264 48.7819 24.7864 49.6486 24.7864C50.7286 24.7864 51.6753 24.9997 52.4886 25.4264C53.3153 25.8397 53.9553 26.4064 54.4086 27.1264C54.8753 27.833 55.2219 28.5997 55.4486 29.4264C55.6753 30.253 55.7886 31.1197 55.7886 32.0264C55.7886 32.933 55.6753 33.7997 55.4486 34.6264C55.2219 35.453 54.8753 36.2264 54.4086 36.9464C53.9553 37.653 53.3153 38.2197 52.4886 38.6464C51.6753 39.0597 50.7286 39.2664 49.6486 39.2664ZM49.6486 36.9664C50.2886 36.9664 50.8553 36.813 51.3486 36.5064C51.8419 36.1997 52.2219 35.7997 52.4886 35.3064C52.7686 34.7997 52.9753 34.273 53.1086 33.7264C53.2419 33.1664 53.3086 32.5997 53.3086 32.0264C53.3086 31.413 53.2419 30.833 53.1086 30.2864C52.9753 29.7264 52.7686 29.1997 52.4886 28.7064C52.2219 28.213 51.8419 27.8197 51.3486 27.5264C50.8686 27.233 50.3019 27.0864 49.6486 27.0864C48.7953 27.0864 48.0819 27.3597 47.5086 27.9064C46.9353 28.4397 46.5353 29.0597 46.3086 29.7664C46.0953 30.473 45.9886 31.2264 45.9886 32.0264C45.9886 32.6264 46.0553 33.2064 46.1886 33.7664C46.3219 34.3264 46.5219 34.853 46.7886 35.3464C47.0686 35.8397 47.4486 36.233 47.9286 36.5264C48.4219 36.8197 48.9953 36.9664 49.6486 36.9664ZM63.512 27.3264V39.0264H61.112V27.3264H57.132V25.0264H67.492V27.3264H63.512ZM69.9852 39.0264V25.0264H79.1052V27.2864H72.3852V30.6664H76.5252V32.9264H72.3852V36.7664H79.5452V39.0264H69.9852ZM87.103 39.2664C86.263 39.2664 85.503 39.1264 84.823 38.8464C84.143 38.5664 83.583 38.193 83.143 37.7264C82.7163 37.2597 82.3563 36.7064 82.063 36.0664C81.7696 35.4264 81.5563 34.773 81.423 34.1064C81.303 33.4397 81.243 32.7464 81.243 32.0264C81.243 31.173 81.3496 30.3397 81.563 29.5264C81.7763 28.713 82.103 27.9464 82.543 27.2264C82.983 26.493 83.5963 25.9064 84.383 25.4664C85.1696 25.013 86.0763 24.7864 87.103 24.7864C88.343 24.7864 89.383 25.0797 90.223 25.6664C91.063 26.2397 91.6496 26.9397 91.983 27.7664L89.823 28.7464C89.4496 28.173 89.0563 27.753 88.643 27.4864C88.243 27.2197 87.7296 27.0864 87.103 27.0864C86.4896 27.0864 85.9496 27.2397 85.483 27.5464C85.0296 27.8397 84.6763 28.2397 84.423 28.7464C84.183 29.2397 84.003 29.7664 83.883 30.3264C83.7763 30.873 83.723 31.4397 83.723 32.0264C83.723 33.333 84.0096 34.4797 84.583 35.4664C85.1696 36.453 86.0096 36.9464 87.103 36.9464C88.1696 36.9464 89.063 36.3464 89.783 35.1464L92.003 35.9864C91.0296 38.173 89.3963 39.2664 87.103 39.2664ZM99.9183 27.3264V39.0264H97.5183V27.3264H93.5383V25.0264H103.898V27.3264H99.9183ZM106.491 39.0264V25.0264H108.891V39.0264H106.491ZM118.028 39.2664C117.161 39.2664 116.374 39.1264 115.668 38.8464C114.961 38.5664 114.374 38.193 113.908 37.7264C113.454 37.2464 113.068 36.693 112.748 36.0664C112.441 35.4397 112.221 34.793 112.088 34.1264C111.954 33.4464 111.888 32.7464 111.888 32.0264C111.888 31.3064 111.954 30.613 112.088 29.9464C112.221 29.2664 112.441 28.613 112.748 27.9864C113.068 27.3597 113.454 26.813 113.908 26.3464C114.374 25.8664 114.961 25.4864 115.668 25.2064C116.374 24.9264 117.161 24.7864 118.028 24.7864C119.108 24.7864 120.054 24.9997 120.868 25.4264C121.694 25.8397 122.334 26.4064 122.788 27.1264C123.254 27.833 123.601 28.5997 123.828 29.4264C124.054 30.253 124.168 31.1197 124.168 32.0264C124.168 32.933 124.054 33.7997 123.828 34.6264C123.601 35.453 123.254 36.2264 122.788 36.9464C122.334 37.653 121.694 38.2197 120.868 38.6464C120.054 39.0597 119.108 39.2664 118.028 39.2664ZM118.028 36.9664C118.668 36.9664 119.234 36.813 119.728 36.5064C120.221 36.1997 120.601 35.7997 120.868 35.3064C121.148 34.7997 121.354 34.273 121.488 33.7264C121.621 33.1664 121.688 32.5997 121.688 32.0264C121.688 31.413 121.621 30.833 121.488 30.2864C121.354 29.7264 121.148 29.1997 120.868 28.7064C120.601 28.213 120.221 27.8197 119.728 27.5264C119.248 27.233 118.681 27.0864 118.028 27.0864C117.174 27.0864 116.461 27.3597 115.888 27.9064C115.314 28.4397 114.914 29.0597 114.688 29.7664C114.474 30.473 114.368 31.2264 114.368 32.0264C114.368 32.6264 114.434 33.2064 114.568 33.7664C114.701 34.3264 114.901 34.853 115.168 35.3464C115.448 35.8397 115.828 36.233 116.308 36.5264C116.801 36.8197 117.374 36.9664 118.028 36.9664ZM137.955 39.0264H135.775L129.975 30.1864C129.788 29.9064 129.595 29.5597 129.395 29.1464C129.435 29.4664 129.455 29.813 129.455 30.1864V39.0264H127.075V25.0264H129.395L135.055 33.7264C135.188 33.9264 135.382 34.2797 135.635 34.7864C135.595 34.4264 135.575 34.073 135.575 33.7264V25.0264H137.955V39.0264ZM146.255 39.0264V25.0264H152.075C153.688 25.0264 154.875 25.4464 155.635 26.2864C156.395 27.1264 156.775 28.153 156.775 29.3664C156.775 30.513 156.375 31.5264 155.575 32.4064C154.788 33.2864 153.621 33.7264 152.075 33.7264H148.655V39.0264H146.255ZM152.195 31.4464C152.901 31.4464 153.428 31.2397 153.775 30.8264C154.121 30.413 154.295 29.9264 154.295 29.3664C154.295 28.833 154.128 28.3597 153.795 27.9464C153.475 27.5197 152.941 27.3064 152.195 27.3064H148.655V31.4464H152.195ZM158.97 39.0264V25.0264H165.17C166.783 25.0264 167.95 25.4264 168.67 26.2264C169.403 27.0264 169.77 28.0464 169.77 29.2864C169.77 30.153 169.523 30.9664 169.03 31.7264C168.536 32.4864 167.823 33.0064 166.89 33.2864L169.69 39.0264H166.99L164.29 33.5464H161.37V39.0264H158.97ZM161.37 31.2664H165.21C165.93 31.2664 166.456 31.0797 166.79 30.7064C167.123 30.333 167.29 29.8597 167.29 29.2864C167.29 28.7264 167.13 28.2597 166.81 27.8864C166.49 27.4997 165.956 27.3064 165.21 27.3064H161.37V31.2664ZM172.761 39.0264V25.0264H175.161V39.0264H172.761ZM184.017 39.2664C183.177 39.2664 182.417 39.1264 181.737 38.8464C181.057 38.5664 180.497 38.193 180.057 37.7264C179.63 37.2597 179.27 36.7064 178.977 36.0664C178.684 35.4264 178.47 34.773 178.337 34.1064C178.217 33.4397 178.157 32.7464 178.157 32.0264C178.157 31.173 178.264 30.3397 178.477 29.5264C178.69 28.713 179.017 27.9464 179.457 27.2264C179.897 26.493 180.51 25.9064 181.297 25.4664C182.084 25.013 182.99 24.7864 184.017 24.7864C185.257 24.7864 186.297 25.0797 187.137 25.6664C187.977 26.2397 188.564 26.9397 188.897 27.7664L186.737 28.7464C186.364 28.173 185.97 27.753 185.557 27.4864C185.157 27.2197 184.644 27.0864 184.017 27.0864C183.404 27.0864 182.864 27.2397 182.397 27.5464C181.944 27.8397 181.59 28.2397 181.337 28.7464C181.097 29.2397 180.917 29.7664 180.797 30.3264C180.69 30.873 180.637 31.4397 180.637 32.0264C180.637 33.333 180.924 34.4797 181.497 35.4664C182.084 36.453 182.924 36.9464 184.017 36.9464C185.084 36.9464 185.977 36.3464 186.697 35.1464L188.917 35.9864C187.944 38.173 186.31 39.2664 184.017 39.2664ZM191.548 39.0264V25.0264H200.668V27.2864H193.948V30.6664H198.088V32.9264H193.948V36.7664H201.108V39.0264H191.548ZM208.716 39.0264V25.0264H217.836V27.2864H211.116V30.6664H215.256V32.9264H211.116V36.7664H218.276V39.0264H208.716ZM225.461 39.2664C224.181 39.2664 223.075 38.9464 222.141 38.3064C221.221 37.653 220.568 36.7664 220.181 35.6464L222.401 34.8264C222.695 35.4797 223.115 36.0064 223.661 36.4064C224.208 36.793 224.835 36.9864 225.541 36.9864C226.275 36.9864 226.855 36.8197 227.281 36.4864C227.721 36.153 227.941 35.673 227.941 35.0464C227.941 34.793 227.881 34.5597 227.761 34.3464C227.641 34.1197 227.501 33.933 227.341 33.7864C227.195 33.6397 226.968 33.493 226.661 33.3464C226.355 33.1997 226.095 33.0864 225.881 33.0064C225.668 32.913 225.355 32.7997 224.941 32.6664C224.408 32.4797 223.995 32.333 223.701 32.2264C223.421 32.1197 223.055 31.9464 222.601 31.7064C222.161 31.453 221.821 31.1997 221.581 30.9464C221.355 30.693 221.148 30.3597 220.961 29.9464C220.788 29.5197 220.701 29.053 220.701 28.5464C220.701 27.4797 221.115 26.5864 221.941 25.8664C222.768 25.1464 223.888 24.7864 225.301 24.7864C226.475 24.7864 227.448 25.0664 228.221 25.6264C228.995 26.173 229.515 26.893 229.781 27.7864L227.621 28.5064C227.195 27.5464 226.368 27.0664 225.141 27.0664C224.515 27.0664 224.021 27.1997 223.661 27.4664C223.315 27.7197 223.141 28.0864 223.141 28.5664C223.141 28.8864 223.275 29.173 223.541 29.4264C223.821 29.6797 224.115 29.873 224.421 30.0064C224.741 30.1264 225.208 30.2864 225.821 30.4864C226.221 30.633 226.521 30.7464 226.721 30.8264C226.935 30.893 227.228 31.013 227.601 31.1864C227.975 31.3597 228.268 31.5197 228.481 31.6664C228.695 31.7997 228.935 31.9864 229.201 32.2264C229.481 32.4664 229.695 32.7197 229.841 32.9864C229.988 33.2397 230.115 33.5464 230.221 33.9064C230.328 34.253 230.381 34.633 230.381 35.0464C230.381 36.353 229.915 37.3864 228.981 38.1464C228.061 38.893 226.888 39.2664 225.461 39.2664ZM238.668 27.3264V39.0264H236.268V27.3264H232.288V25.0264H242.648V27.3264H238.668ZM245.241 39.0264V25.0264H247.641V39.0264H245.241ZM263.878 39.0264H261.478V31.5864C261.478 30.973 261.504 30.413 261.558 29.9064C261.398 30.3864 261.184 30.9597 260.918 31.6264L257.518 39.2664L254.118 31.5864C253.878 31.053 253.658 30.493 253.458 29.9064C253.511 30.413 253.538 30.973 253.538 31.5864V39.0264H251.138V25.0264H253.558L257.158 33.2464C257.304 33.6197 257.431 33.9664 257.538 34.2864C257.644 33.9664 257.771 33.6197 257.918 33.2464L261.538 25.0264H263.878V39.0264ZM276.297 39.0264L275.197 35.9664H269.657L268.557 39.0264H266.017L271.237 25.0264H273.617L278.817 39.0264H276.297ZM274.437 33.8064L272.897 29.6064C272.697 29.0997 272.544 28.6264 272.437 28.1864C272.331 28.573 272.177 29.0464 271.977 29.6064L270.417 33.8064H274.437ZM284.84 27.3264V39.0264H282.44V27.3264H278.46V25.0264H288.82V27.3264H284.84ZM291.313 39.0264V25.0264H300.433V27.2864H293.713V30.6664H297.853V32.9264H293.713V36.7664H300.873V39.0264H291.313Z" fill="#60034C"/>
<path d="M25.36 114.026V102.826H30.016C31.3067 102.826 32.256 103.162 32.864 103.834C33.472 104.506 33.776 105.328 33.776 106.298C33.776 107.216 33.456 108.026 32.816 108.73C32.1867 109.434 31.2533 109.786 30.016 109.786H27.28V114.026H25.36ZM30.112 107.962C30.6773 107.962 31.0987 107.797 31.376 107.466C31.6533 107.136 31.792 106.746 31.792 106.298C31.792 105.872 31.6587 105.493 31.392 105.162C31.136 104.821 30.7093 104.65 30.112 104.65H27.28V107.962H30.112ZM35.3719 114.026V105.85H37.2439V106.698C37.5745 106.005 38.1345 105.658 38.9239 105.658C39.4999 105.658 40.0065 105.845 40.4439 106.218L40.1719 107.93C39.7665 107.642 39.3025 107.498 38.7799 107.498C38.3532 107.498 37.9905 107.648 37.6919 107.946C37.3932 108.245 37.2439 108.746 37.2439 109.45V114.026H35.3719ZM45.1221 114.218C43.9701 114.218 43.0581 113.84 42.3861 113.082C41.7141 112.325 41.3781 111.28 41.3781 109.946C41.3781 108.613 41.7141 107.568 42.3861 106.81C43.0581 106.042 43.9701 105.658 45.1221 105.658C46.2741 105.658 47.1861 106.042 47.8581 106.81C48.5408 107.568 48.8821 108.613 48.8821 109.946C48.8821 111.28 48.5461 112.325 47.8741 113.082C47.2021 113.84 46.2848 114.218 45.1221 114.218ZM45.1221 112.426C45.7088 112.426 46.1675 112.208 46.4981 111.77C46.8395 111.333 47.0101 110.725 47.0101 109.946C47.0101 109.168 46.8395 108.554 46.4981 108.106C46.1675 107.658 45.7088 107.434 45.1221 107.434C44.5568 107.434 44.1035 107.664 43.7621 108.122C43.4208 108.57 43.2501 109.178 43.2501 109.946C43.2501 110.714 43.4155 111.322 43.7461 111.77C44.0875 112.208 44.5461 112.426 45.1221 112.426ZM53.2406 114.218C51.9713 114.218 51.3366 113.52 51.3366 112.122V107.482H50.1206V105.85H51.3366V103.37L53.2086 102.474V105.85H55.0966V107.482H53.2086V111.754C53.2086 112.277 53.438 112.538 53.8966 112.538C54.3126 112.538 54.7393 112.416 55.1766 112.17L54.9526 113.85C54.4833 114.096 53.9126 114.218 53.2406 114.218ZM60.2635 114.218C59.1008 114.218 58.1782 113.84 57.4955 113.082C56.8235 112.314 56.4875 111.264 56.4875 109.93C56.4875 108.608 56.8288 107.568 57.5115 106.81C58.1942 106.042 59.1115 105.658 60.2635 105.658C61.3088 105.658 62.1622 105.984 62.8235 106.634C63.4955 107.285 63.8315 108.24 63.8315 109.498C63.8315 109.936 63.8102 110.32 63.7675 110.65H58.3435C58.3755 111.226 58.5728 111.69 58.9355 112.042C59.3088 112.394 59.7515 112.57 60.2635 112.57C60.9888 112.57 61.5648 112.288 61.9915 111.722L63.1755 112.938C62.4608 113.792 61.4902 114.218 60.2635 114.218ZM58.3595 109.098H61.9755C61.9328 108.512 61.7515 108.069 61.4315 107.77C61.1115 107.461 60.7222 107.306 60.2635 107.306C59.7302 107.306 59.2875 107.456 58.9355 107.754C58.5942 108.042 58.4022 108.49 58.3595 109.098ZM68.9949 114.218C67.8749 114.218 66.9842 113.84 66.3229 113.082C65.6722 112.325 65.3469 111.28 65.3469 109.946C65.3469 108.613 65.6722 107.568 66.3229 106.81C66.9842 106.042 67.8749 105.658 68.9949 105.658C70.6802 105.658 71.7629 106.41 72.2429 107.914L70.4669 108.506C70.2002 107.802 69.7309 107.45 69.0589 107.45C68.4935 107.45 68.0509 107.674 67.7309 108.122C67.4109 108.57 67.2509 109.178 67.2509 109.946C67.2509 110.704 67.4055 111.306 67.7149 111.754C68.0349 112.192 68.4615 112.41 68.9949 112.41C69.7522 112.41 70.2482 112.016 70.4829 111.226L72.2749 111.77C71.8055 113.402 70.7122 114.218 68.9949 114.218ZM76.5531 114.218C75.2838 114.218 74.6491 113.52 74.6491 112.122V107.482H73.4331V105.85H74.6491V103.37L76.5211 102.474V105.85H78.4091V107.482H76.5211V111.754C76.5211 112.277 76.7505 112.538 77.2091 112.538C77.6251 112.538 78.0518 112.416 78.4891 112.17L78.2651 113.85C77.7958 114.096 77.2251 114.218 76.5531 114.218ZM82.069 104.41C81.8557 104.624 81.5943 104.73 81.285 104.73C80.9757 104.73 80.709 104.624 80.485 104.41C80.2717 104.186 80.165 103.92 80.165 103.61C80.165 103.301 80.2717 103.04 80.485 102.826C80.709 102.613 80.9757 102.506 81.285 102.506C81.5943 102.506 81.8557 102.613 82.069 102.826C82.2823 103.04 82.389 103.301 82.389 103.61C82.389 103.92 82.2823 104.186 82.069 104.41ZM80.341 114.026V105.85H82.213V114.026H80.341ZM87.9659 114.218C86.8139 114.218 85.9019 113.84 85.2299 113.082C84.5579 112.325 84.2219 111.28 84.2219 109.946C84.2219 108.613 84.5579 107.568 85.2299 106.81C85.9019 106.042 86.8139 105.658 87.9659 105.658C89.1179 105.658 90.0299 106.042 90.7019 106.81C91.3845 107.568 91.7259 108.613 91.7259 109.946C91.7259 111.28 91.3899 112.325 90.7179 113.082C90.0459 113.84 89.1285 114.218 87.9659 114.218ZM87.9659 112.426C88.5525 112.426 89.0112 112.208 89.3419 111.77C89.6832 111.333 89.8539 110.725 89.8539 109.946C89.8539 109.168 89.6832 108.554 89.3419 108.106C89.0112 107.658 88.5525 107.434 87.9659 107.434C87.4005 107.434 86.9472 107.664 86.6059 108.122C86.2645 108.57 86.0939 109.178 86.0939 109.946C86.0939 110.714 86.2592 111.322 86.5899 111.77C86.9312 112.208 87.3899 112.426 87.9659 112.426ZM98.7873 114.026V109.338C98.7873 108.069 98.2806 107.434 97.2673 107.434C96.1579 107.434 95.6033 108.058 95.6033 109.306V114.026H93.7313V105.85H95.6033V106.618C96.1366 105.978 96.8566 105.658 97.7633 105.658C98.6166 105.658 99.3099 105.925 99.8433 106.458C100.387 106.992 100.659 107.84 100.659 109.002V114.026H98.7873ZM107.063 114.026V102.826H111.719C113.01 102.826 113.959 103.162 114.567 103.834C115.175 104.506 115.479 105.328 115.479 106.298C115.479 107.216 115.159 108.026 114.519 108.73C113.89 109.434 112.956 109.786 111.719 109.786H108.983V114.026H107.063ZM111.815 107.962C112.38 107.962 112.802 107.797 113.079 107.466C113.356 107.136 113.495 106.746 113.495 106.298C113.495 105.872 113.362 105.493 113.095 105.162C112.839 104.821 112.412 104.65 111.815 104.65H108.983V107.962H111.815ZM119.998 114.218C118.835 114.218 117.913 113.84 117.23 113.082C116.558 112.314 116.222 111.264 116.222 109.93C116.222 108.608 116.563 107.568 117.246 106.81C117.929 106.042 118.846 105.658 119.998 105.658C121.043 105.658 121.897 105.984 122.558 106.634C123.23 107.285 123.566 108.24 123.566 109.498C123.566 109.936 123.545 110.32 123.502 110.65H118.078C118.11 111.226 118.307 111.69 118.67 112.042C119.043 112.394 119.486 112.57 119.998 112.57C120.723 112.57 121.299 112.288 121.726 111.722L122.91 112.938C122.195 113.792 121.225 114.218 119.998 114.218ZM118.094 109.098H121.71C121.667 108.512 121.486 108.069 121.166 107.77C120.846 107.461 120.457 107.306 119.998 107.306C119.465 107.306 119.022 107.456 118.67 107.754C118.329 108.042 118.137 108.49 118.094 109.098ZM125.481 114.026V105.85H127.353V106.698C127.684 106.005 128.244 105.658 129.033 105.658C129.609 105.658 130.116 105.845 130.553 106.218L130.281 107.93C129.876 107.642 129.412 107.498 128.889 107.498C128.463 107.498 128.1 107.648 127.801 107.946C127.503 108.245 127.353 108.746 127.353 109.45V114.026H125.481ZM133.678 104.41C133.465 104.624 133.204 104.73 132.894 104.73C132.585 104.73 132.318 104.624 132.094 104.41C131.881 104.186 131.774 103.92 131.774 103.61C131.774 103.301 131.881 103.04 132.094 102.826C132.318 102.613 132.585 102.506 132.894 102.506C133.204 102.506 133.465 102.613 133.678 102.826C133.892 103.04 133.998 103.301 133.998 103.61C133.998 103.92 133.892 104.186 133.678 104.41ZM131.95 114.026V105.85H133.822V114.026H131.95ZM139.575 114.218C138.423 114.218 137.511 113.84 136.839 113.082C136.167 112.325 135.831 111.28 135.831 109.946C135.831 108.613 136.167 107.568 136.839 106.81C137.511 106.042 138.423 105.658 139.575 105.658C140.727 105.658 141.639 106.042 142.311 106.81C142.994 107.568 143.335 108.613 143.335 109.946C143.335 111.28 142.999 112.325 142.327 113.082C141.655 113.84 140.738 114.218 139.575 114.218ZM139.575 112.426C140.162 112.426 140.621 112.208 140.951 111.77C141.293 111.333 141.463 110.725 141.463 109.946C141.463 109.168 141.293 108.554 140.951 108.106C140.621 107.658 140.162 107.434 139.575 107.434C139.01 107.434 138.557 107.664 138.215 108.122C137.874 108.57 137.703 109.178 137.703 109.946C137.703 110.714 137.869 111.322 138.199 111.77C138.541 112.208 138.999 112.426 139.575 112.426ZM148.333 114.218C147.287 114.218 146.461 113.84 145.853 113.082C145.245 112.325 144.941 111.274 144.941 109.93C144.941 108.618 145.255 107.578 145.885 106.81C146.514 106.042 147.33 105.658 148.333 105.658C149.122 105.658 149.735 105.914 150.173 106.426V103.322L152.045 102.474V114.026H150.173V113.434C149.767 113.957 149.154 114.218 148.333 114.218ZM148.621 112.426C149.314 112.426 149.831 112.165 150.173 111.642V108.218C149.821 107.696 149.303 107.434 148.621 107.434C148.045 107.434 147.597 107.653 147.277 108.09C146.967 108.517 146.813 109.13 146.813 109.93C146.813 110.688 146.973 111.296 147.293 111.754C147.613 112.202 148.055 112.426 148.621 112.426Z" fill="#242424"/>
<rect x="240" y="88.0264" width="200" height="40" rx="4" fill="#EFEFEF"/>
<path d="M260.704 114.218C259.755 114.218 258.939 113.989 258.256 113.53C257.584 113.061 257.083 112.421 256.752 111.61L258.512 110.906C258.981 111.898 259.723 112.394 260.736 112.394C261.301 112.394 261.765 112.256 262.128 111.978C262.491 111.69 262.672 111.285 262.672 110.762C262.672 110.282 262.512 109.888 262.192 109.578C261.872 109.269 261.387 109.114 260.736 109.114H259.76V107.29H260.736C261.195 107.29 261.563 107.162 261.84 106.906C262.128 106.65 262.272 106.314 262.272 105.898C262.272 105.461 262.133 105.114 261.856 104.858C261.589 104.592 261.205 104.458 260.704 104.458C259.904 104.458 259.301 104.837 258.896 105.594L257.136 104.922C257.445 104.218 257.909 103.664 258.528 103.258C259.147 102.842 259.883 102.634 260.736 102.634C261.749 102.634 262.581 102.933 263.232 103.53C263.893 104.117 264.224 104.848 264.224 105.722C264.224 106.821 263.755 107.626 262.816 108.138C263.36 108.352 263.797 108.682 264.128 109.13C264.459 109.578 264.624 110.112 264.624 110.73C264.624 111.829 264.261 112.688 263.536 113.306C262.821 113.914 261.877 114.218 260.704 114.218ZM281.099 114.026H279.179V108.074C279.179 107.584 279.2 107.136 279.243 106.73C279.115 107.114 278.944 107.573 278.731 108.106L276.011 114.218L273.291 108.074C273.099 107.648 272.923 107.2 272.763 106.73C272.806 107.136 272.827 107.584 272.827 108.074V114.026H270.907V102.826H272.843L275.723 109.402C275.84 109.701 275.942 109.978 276.027 110.234C276.112 109.978 276.214 109.701 276.331 109.402L279.227 102.826H281.099V114.026ZM286.997 114.218C285.845 114.218 284.933 113.84 284.261 113.082C283.589 112.325 283.253 111.28 283.253 109.946C283.253 108.613 283.589 107.568 284.261 106.81C284.933 106.042 285.845 105.658 286.997 105.658C288.149 105.658 289.061 106.042 289.733 106.81C290.416 107.568 290.757 108.613 290.757 109.946C290.757 111.28 290.421 112.325 289.749 113.082C289.077 113.84 288.16 114.218 286.997 114.218ZM286.997 112.426C287.584 112.426 288.042 112.208 288.373 111.77C288.714 111.333 288.885 110.725 288.885 109.946C288.885 109.168 288.714 108.554 288.373 108.106C288.042 107.658 287.584 107.434 286.997 107.434C286.432 107.434 285.978 107.664 285.637 108.122C285.296 108.57 285.125 109.178 285.125 109.946C285.125 110.714 285.29 111.322 285.621 111.77C285.962 112.208 286.421 112.426 286.997 112.426ZM297.819 114.026V109.338C297.819 108.069 297.312 107.434 296.299 107.434C295.189 107.434 294.635 108.058 294.635 109.306V114.026H292.763V105.85H294.635V106.618C295.168 105.978 295.888 105.658 296.795 105.658C297.648 105.658 298.341 105.925 298.875 106.458C299.419 106.992 299.691 107.84 299.691 109.002V114.026H297.819ZM304.413 114.218C303.143 114.218 302.509 113.52 302.509 112.122V107.482H301.293V105.85H302.509V103.37L304.381 102.474V105.85H306.269V107.482H304.381V111.754C304.381 112.277 304.61 112.538 305.069 112.538C305.485 112.538 305.911 112.416 306.349 112.17L306.125 113.85C305.655 114.096 305.085 114.218 304.413 114.218ZM308.184 114.026V103.338L310.056 102.474V106.618C310.59 105.978 311.31 105.658 312.216 105.658C313.07 105.658 313.763 105.925 314.296 106.458C314.84 106.992 315.112 107.84 315.112 109.002V114.026H313.24V109.306C313.24 108.058 312.734 107.434 311.72 107.434C310.611 107.434 310.056 108.048 310.056 109.274V114.026H308.184ZM320.058 114.218C319.397 114.218 318.773 114.09 318.186 113.834C317.61 113.578 317.173 113.237 316.874 112.81L318.154 111.722C318.73 112.298 319.365 112.586 320.058 112.586C320.944 112.586 321.386 112.32 321.386 111.786C321.386 111.605 321.306 111.44 321.146 111.29C320.997 111.141 320.832 111.029 320.65 110.954C320.48 110.869 320.197 110.746 319.802 110.586C318.864 110.277 318.176 109.925 317.738 109.53C317.312 109.125 317.098 108.592 317.098 107.93C317.098 107.216 317.37 106.661 317.914 106.266C318.469 105.861 319.168 105.658 320.01 105.658C321.248 105.658 322.224 106.08 322.938 106.922L321.642 107.978C321.162 107.52 320.618 107.29 320.01 107.29C319.274 107.29 318.906 107.514 318.906 107.962C318.906 108.186 319.04 108.378 319.306 108.538C319.584 108.698 319.984 108.864 320.506 109.034C321.392 109.333 322.058 109.685 322.506 110.09C322.965 110.496 323.194 111.061 323.194 111.786C323.194 112.565 322.912 113.168 322.346 113.594C321.781 114.01 321.018 114.218 320.058 114.218Z" fill="#242424"/>
<path d="M422.933 105.391C423.177 105.147 423.573 105.147 423.817 105.391C424.061 105.636 424.061 106.032 423.817 106.277L419.442 110.66C419.198 110.905 418.802 110.905 418.558 110.66L414.183 106.277C413.939 106.032 413.939 105.636 414.183 105.391C414.427 105.147 414.823 105.147 415.067 105.391L419 109.332L422.933 105.391Z" fill="#60034C"/>
<path d="M25.36 170.026V158.826H30.016C31.3067 158.826 32.256 159.162 32.864 159.834C33.472 160.506 33.776 161.328 33.776 162.298C33.776 163.216 33.456 164.026 32.816 164.73C32.1867 165.434 31.2533 165.786 30.016 165.786H27.28V170.026H25.36ZM30.112 163.962C30.6773 163.962 31.0987 163.797 31.376 163.466C31.6533 163.136 31.792 162.746 31.792 162.298C31.792 161.872 31.6587 161.493 31.392 161.162C31.136 160.821 30.7093 160.65 30.112 160.65H27.28V163.962H30.112ZM35.3719 170.026V161.85H37.2439V162.698C37.5745 162.005 38.1345 161.658 38.9239 161.658C39.4999 161.658 40.0065 161.845 40.4439 162.218L40.1719 163.93C39.7665 163.642 39.3025 163.498 38.7799 163.498C38.3532 163.498 37.9905 163.648 37.6919 163.946C37.3932 164.245 37.2439 164.746 37.2439 165.45V170.026H35.3719ZM45.1221 170.218C43.9701 170.218 43.0581 169.84 42.3861 169.082C41.7141 168.325 41.3781 167.28 41.3781 165.946C41.3781 164.613 41.7141 163.568 42.3861 162.81C43.0581 162.042 43.9701 161.658 45.1221 161.658C46.2741 161.658 47.1861 162.042 47.8581 162.81C48.5408 163.568 48.8821 164.613 48.8821 165.946C48.8821 167.28 48.5461 168.325 47.8741 169.082C47.2021 169.84 46.2848 170.218 45.1221 170.218ZM45.1221 168.426C45.7088 168.426 46.1675 168.208 46.4981 167.77C46.8395 167.333 47.0101 166.725 47.0101 165.946C47.0101 165.168 46.8395 164.554 46.4981 164.106C46.1675 163.658 45.7088 163.434 45.1221 163.434C44.5568 163.434 44.1035 163.664 43.7621 164.122C43.4208 164.57 43.2501 165.178 43.2501 165.946C43.2501 166.714 43.4155 167.322 43.7461 167.77C44.0875 168.208 44.5461 168.426 45.1221 168.426ZM53.2406 170.218C51.9713 170.218 51.3366 169.52 51.3366 168.122V163.482H50.1206V161.85H51.3366V159.37L53.2086 158.474V161.85H55.0966V163.482H53.2086V167.754C53.2086 168.277 53.438 168.538 53.8966 168.538C54.3126 168.538 54.7393 168.416 55.1766 168.17L54.9526 169.85C54.4833 170.096 53.9126 170.218 53.2406 170.218ZM60.2635 170.218C59.1008 170.218 58.1782 169.84 57.4955 169.082C56.8235 168.314 56.4875 167.264 56.4875 165.93C56.4875 164.608 56.8288 163.568 57.5115 162.81C58.1942 162.042 59.1115 161.658 60.2635 161.658C61.3088 161.658 62.1622 161.984 62.8235 162.634C63.4955 163.285 63.8315 164.24 63.8315 165.498C63.8315 165.936 63.8102 166.32 63.7675 166.65H58.3435C58.3755 167.226 58.5728 167.69 58.9355 168.042C59.3088 168.394 59.7515 168.57 60.2635 168.57C60.9888 168.57 61.5648 168.288 61.9915 167.722L63.1755 168.938C62.4608 169.792 61.4902 170.218 60.2635 170.218ZM58.3595 165.098H61.9755C61.9328 164.512 61.7515 164.069 61.4315 163.77C61.1115 163.461 60.7222 163.306 60.2635 163.306C59.7302 163.306 59.2875 163.456 58.9355 163.754C58.5942 164.042 58.4022 164.49 58.3595 165.098ZM68.9949 170.218C67.8749 170.218 66.9842 169.84 66.3229 169.082C65.6722 168.325 65.3469 167.28 65.3469 165.946C65.3469 164.613 65.6722 163.568 66.3229 162.81C66.9842 162.042 67.8749 161.658 68.9949 161.658C70.6802 161.658 71.7629 162.41 72.2429 163.914L70.4669 164.506C70.2002 163.802 69.7309 163.45 69.0589 163.45C68.4935 163.45 68.0509 163.674 67.7309 164.122C67.4109 164.57 67.2509 165.178 67.2509 165.946C67.2509 166.704 67.4055 167.306 67.7149 167.754C68.0349 168.192 68.4615 168.41 68.9949 168.41C69.7522 168.41 70.2482 168.016 70.4829 167.226L72.2749 167.77C71.8055 169.402 70.7122 170.218 68.9949 170.218ZM76.5531 170.218C75.2838 170.218 74.6491 169.52 74.6491 168.122V163.482H73.4331V161.85H74.6491V159.37L76.5211 158.474V161.85H78.4091V163.482H76.5211V167.754C76.5211 168.277 76.7505 168.538 77.2091 168.538C77.6251 168.538 78.0518 168.416 78.4891 168.17L78.2651 169.85C77.7958 170.096 77.2251 170.218 76.5531 170.218ZM82.069 160.41C81.8557 160.624 81.5943 160.73 81.285 160.73C80.9757 160.73 80.709 160.624 80.485 160.41C80.2717 160.186 80.165 159.92 80.165 159.61C80.165 159.301 80.2717 159.04 80.485 158.826C80.709 158.613 80.9757 158.506 81.285 158.506C81.5943 158.506 81.8557 158.613 82.069 158.826C82.2823 159.04 82.389 159.301 82.389 159.61C82.389 159.92 82.2823 160.186 82.069 160.41ZM80.341 170.026V161.85H82.213V170.026H80.341ZM87.9659 170.218C86.8139 170.218 85.9019 169.84 85.2299 169.082C84.5579 168.325 84.2219 167.28 84.2219 165.946C84.2219 164.613 84.5579 163.568 85.2299 162.81C85.9019 162.042 86.8139 161.658 87.9659 161.658C89.1179 161.658 90.0299 162.042 90.7019 162.81C91.3845 163.568 91.7259 164.613 91.7259 165.946C91.7259 167.28 91.3899 168.325 90.7179 169.082C90.0459 169.84 89.1285 170.218 87.9659 170.218ZM87.9659 168.426C88.5525 168.426 89.0112 168.208 89.3419 167.77C89.6832 167.333 89.8539 166.725 89.8539 165.946C89.8539 165.168 89.6832 164.554 89.3419 164.106C89.0112 163.658 88.5525 163.434 87.9659 163.434C87.4005 163.434 86.9472 163.664 86.6059 164.122C86.2645 164.57 86.0939 165.178 86.0939 165.946C86.0939 166.714 86.2592 167.322 86.5899 167.77C86.9312 168.208 87.3899 168.426 87.9659 168.426ZM98.7873 170.026V165.338C98.7873 164.069 98.2806 163.434 97.2673 163.434C96.1579 163.434 95.6033 164.058 95.6033 165.306V170.026H93.7313V161.85H95.6033V162.618C96.1366 161.978 96.8566 161.658 97.7633 161.658C98.6166 161.658 99.3099 161.925 99.8433 162.458C100.387 162.992 100.659 163.84 100.659 165.002V170.026H98.7873ZM107.063 170.026V158.826H108.983V168.186H114.423V170.026H107.063ZM119.326 170.218C118.163 170.218 117.241 169.84 116.558 169.082C115.886 168.314 115.55 167.264 115.55 165.93C115.55 164.608 115.891 163.568 116.574 162.81C117.257 162.042 118.174 161.658 119.326 161.658C120.371 161.658 121.225 161.984 121.886 162.634C122.558 163.285 122.894 164.24 122.894 165.498C122.894 165.936 122.873 166.32 122.83 166.65H117.406C117.438 167.226 117.635 167.69 117.998 168.042C118.371 168.394 118.814 168.57 119.326 168.57C120.051 168.57 120.627 168.288 121.054 167.722L122.238 168.938C121.523 169.792 120.553 170.218 119.326 170.218ZM117.422 165.098H121.038C120.995 164.512 120.814 164.069 120.494 163.77C120.174 163.461 119.785 163.306 119.326 163.306C118.793 163.306 118.35 163.456 117.998 163.754C117.657 164.042 117.465 164.49 117.422 165.098ZM126.923 170.026L123.931 161.85H125.835L127.643 166.954C127.771 167.381 127.846 167.626 127.867 167.69C127.931 167.413 128.006 167.168 128.091 166.954L129.867 161.85H131.771L128.779 170.026H126.923ZM136.67 170.218C135.507 170.218 134.584 169.84 133.902 169.082C133.23 168.314 132.894 167.264 132.894 165.93C132.894 164.608 133.235 163.568 133.918 162.81C134.6 162.042 135.518 161.658 136.67 161.658C137.715 161.658 138.568 161.984 139.23 162.634C139.902 163.285 140.238 164.24 140.238 165.498C140.238 165.936 140.216 166.32 140.174 166.65H134.75C134.782 167.226 134.979 167.69 135.342 168.042C135.715 168.394 136.158 168.57 136.67 168.57C137.395 168.57 137.971 168.288 138.398 167.722L139.582 168.938C138.867 169.792 137.896 170.218 136.67 170.218ZM134.766 165.098H138.382C138.339 164.512 138.158 164.069 137.838 163.77C137.518 163.461 137.128 163.306 136.67 163.306C136.136 163.306 135.694 163.456 135.342 163.754C135 164.042 134.808 164.49 134.766 165.098ZM142.233 170.026V159.354L144.105 158.474V170.026H142.233Z" fill="#242424"/>
<rect x="240" y="144.026" width="200" height="40" rx="4" fill="#EFEFEF"/>
<path d="M258.656 170.218V168.346C260.789 168.24 262.08 167.173 262.528 165.146C262.048 165.626 261.36 165.866 260.464 165.866C259.376 165.866 258.485 165.541 257.792 164.89C257.109 164.229 256.768 163.344 256.768 162.234C256.768 161.157 257.136 160.288 257.872 159.626C258.608 158.965 259.563 158.634 260.736 158.634C262.059 158.634 263.045 159.029 263.696 159.818C264.357 160.608 264.688 161.658 264.688 162.97C264.688 165.168 264.181 166.906 263.168 168.186C262.165 169.466 260.661 170.144 258.656 170.218ZM259.264 163.53C259.616 163.84 260.101 163.994 260.72 163.994C261.339 163.994 261.829 163.84 262.192 163.53C262.555 163.21 262.736 162.773 262.736 162.218C262.736 161.696 262.549 161.28 262.176 160.97C261.813 160.65 261.333 160.49 260.736 160.49C260.139 160.49 259.653 160.65 259.28 160.97C258.917 161.28 258.736 161.696 258.736 162.218C258.736 162.784 258.912 163.221 259.264 163.53ZM270.935 170.218C270.327 170.218 269.783 170.106 269.303 169.882C268.823 169.648 268.434 169.349 268.135 168.986C267.836 168.613 267.591 168.17 267.399 167.658C267.207 167.136 267.068 166.613 266.983 166.09C266.908 165.568 266.871 165.013 266.871 164.426C266.871 163.861 266.908 163.317 266.983 162.794C267.058 162.272 267.191 161.754 267.383 161.242C267.586 160.72 267.831 160.272 268.119 159.898C268.418 159.525 268.807 159.221 269.287 158.986C269.778 158.752 270.327 158.634 270.935 158.634C271.692 158.634 272.343 158.805 272.887 159.146C273.442 159.477 273.863 159.93 274.151 160.506C274.45 161.082 274.663 161.696 274.791 162.346C274.93 162.986 274.999 163.68 274.999 164.426C274.999 165.152 274.935 165.834 274.807 166.474C274.679 167.104 274.466 167.712 274.167 168.298C273.879 168.885 273.458 169.354 272.903 169.706C272.348 170.048 271.692 170.218 270.935 170.218ZM270.935 168.394C271.34 168.394 271.687 168.282 271.975 168.058C272.263 167.824 272.482 167.509 272.631 167.114C272.78 166.72 272.887 166.304 272.951 165.866C273.026 165.418 273.063 164.938 273.063 164.426C273.063 163.893 273.026 163.408 272.951 162.97C272.887 162.522 272.775 162.106 272.615 161.722C272.466 161.328 272.247 161.018 271.959 160.794C271.671 160.57 271.33 160.458 270.935 160.458C270.53 160.458 270.183 160.57 269.895 160.794C269.607 161.018 269.388 161.333 269.239 161.738C269.09 162.133 268.983 162.549 268.919 162.986C268.855 163.424 268.823 163.904 268.823 164.426C268.823 164.949 268.855 165.434 268.919 165.882C268.994 166.33 269.106 166.752 269.255 167.146C269.404 167.53 269.623 167.834 269.911 168.058C270.199 168.282 270.54 168.394 270.935 168.394ZM279.564 164.41C278.668 164.41 277.996 164.122 277.548 163.546C277.111 162.97 276.892 162.293 276.892 161.514C276.892 160.778 277.111 160.117 277.548 159.53C277.996 158.933 278.668 158.634 279.564 158.634C280.46 158.634 281.127 158.922 281.564 159.498C282.012 160.074 282.236 160.746 282.236 161.514C282.236 162.261 282.017 162.933 281.58 163.53C281.143 164.117 280.471 164.41 279.564 164.41ZM280.028 170.218H278.236L285.884 158.634H287.676L280.028 170.218ZM278.732 162.538C278.924 162.784 279.201 162.906 279.564 162.906C279.927 162.906 280.199 162.778 280.38 162.522C280.572 162.256 280.668 161.92 280.668 161.514C280.668 161.098 280.572 160.768 280.38 160.522C280.199 160.266 279.927 160.138 279.564 160.138C279.201 160.138 278.924 160.272 278.732 160.538C278.551 160.794 278.46 161.12 278.46 161.514C278.46 161.941 278.551 162.282 278.732 162.538ZM288.364 169.338C287.927 169.925 287.255 170.218 286.348 170.218C285.441 170.218 284.769 169.93 284.332 169.354C283.895 168.778 283.676 168.101 283.676 167.322C283.676 166.586 283.895 165.925 284.332 165.338C284.78 164.741 285.452 164.442 286.348 164.442C287.244 164.442 287.911 164.73 288.348 165.306C288.796 165.872 289.02 166.544 289.02 167.322C289.02 168.08 288.801 168.752 288.364 169.338ZM285.516 168.346C285.708 168.592 285.985 168.714 286.348 168.714C286.711 168.714 286.983 168.586 287.164 168.33C287.356 168.064 287.452 167.728 287.452 167.322C287.452 166.906 287.356 166.576 287.164 166.33C286.972 166.074 286.7 165.946 286.348 165.946C285.985 165.946 285.708 166.074 285.516 166.33C285.335 166.586 285.244 166.917 285.244 167.322C285.244 167.749 285.335 168.09 285.516 168.346Z" fill="#242424"/>
<path d="M422.933 161.391C423.177 161.147 423.573 161.147 423.817 161.391C424.061 161.636 424.061 162.032 423.817 162.277L419.442 166.66C419.198 166.905 418.802 166.905 418.558 166.66L414.183 162.277C413.939 162.032 413.939 161.636 414.183 161.391C414.427 161.147 414.823 161.147 415.067 161.391L419 165.332L422.933 161.391Z" fill="#60034C"/>
<rect width="464" height="54" transform="translate(0 280.026)" fill="#60034C" fill-opacity="0.1"/>
<rect opacity="0.1" x="16" y="296.026" width="187" height="22" rx="2" fill="#60034C"/>
<path d="M213.48 314.129C213.165 314.129 212.894 314.016 212.668 313.79C212.442 313.564 212.33 313.293 212.33 312.978C212.33 312.663 212.442 312.392 212.668 312.166C212.894 311.94 213.165 311.828 213.48 311.828C213.795 311.828 214.066 311.94 214.292 312.166C214.518 312.392 214.631 312.663 214.631 312.978C214.631 313.187 214.577 313.379 214.471 313.553C214.369 313.728 214.23 313.869 214.055 313.975C213.885 314.078 213.693 314.129 213.48 314.129ZM213.48 306.842C213.165 306.842 212.894 306.729 212.668 306.503C212.442 306.277 212.33 306.006 212.33 305.691C212.33 305.376 212.442 305.105 212.668 304.879C212.894 304.653 213.165 304.541 213.48 304.541C213.795 304.541 214.066 304.653 214.292 304.879C214.518 305.105 214.631 305.376 214.631 305.691C214.631 305.9 214.577 306.092 214.471 306.266C214.369 306.441 214.23 306.582 214.055 306.688C213.885 306.791 213.693 306.842 213.48 306.842Z" fill="#3E4968"/>
<rect opacity="0.1" x="224" y="296.026" width="92" height="22" rx="2" fill="#60034C"/>
</g>
<path d="M0 334.026H464V484.026C464 488.445 460.418 492.026 456 492.026H7.99999C3.58171 492.026 0 488.445 0 484.026V334.026Z" fill="#60034C"/>
<path d="M25.0611 376.026V374.032L29.7209 369.717C30.1172 369.334 30.4496 368.989 30.718 368.682C30.9908 368.375 31.1974 368.075 31.3381 367.781C31.4787 367.482 31.549 367.161 31.549 366.815C31.549 366.432 31.4616 366.102 31.2869 365.825C31.1122 365.543 30.8736 365.328 30.571 365.179C30.2685 365.026 29.9254 364.949 29.5419 364.949C29.1413 364.949 28.7919 365.03 28.4936 365.192C28.1953 365.354 27.9652 365.586 27.8033 365.889C27.6413 366.191 27.5604 366.551 27.5604 366.969H24.9332C24.9332 366.112 25.1271 365.369 25.5149 364.738C25.9027 364.107 26.446 363.619 27.1449 363.274C27.8438 362.929 28.6491 362.756 29.5611 362.756C30.4986 362.756 31.3146 362.923 32.0092 363.255C32.7081 363.583 33.2514 364.039 33.6392 364.623C34.027 365.207 34.2209 365.876 34.2209 366.63C34.2209 367.124 34.1229 367.612 33.9268 368.094C33.7351 368.575 33.392 369.11 32.8977 369.698C32.4034 370.282 31.7067 370.983 30.8075 371.801L28.8963 373.674V373.764H34.3935V376.026H25.0611ZM38.0162 376.193C37.5943 376.193 37.2321 376.043 36.9295 375.745C36.6312 375.443 36.4821 375.08 36.4821 374.658C36.4821 374.241 36.6312 373.883 36.9295 373.585C37.2321 373.286 37.5943 373.137 38.0162 373.137C38.4252 373.137 38.7832 373.286 39.09 373.585C39.3968 373.883 39.5502 374.241 39.5502 374.658C39.5502 374.94 39.4778 375.198 39.3329 375.432C39.1923 375.662 39.0069 375.847 38.7768 375.988C38.5467 376.124 38.2931 376.193 38.0162 376.193ZM56.9382 367.519H54.1385C54.0874 367.156 53.983 366.835 53.8253 366.553C53.6676 366.268 53.4652 366.025 53.218 365.825C52.9709 365.624 52.6854 365.471 52.3615 365.364C52.0419 365.258 51.6946 365.205 51.3196 365.205C50.642 365.205 50.0518 365.373 49.549 365.71C49.0462 366.042 48.6563 366.528 48.3793 367.167C48.1023 367.802 47.9638 368.573 47.9638 369.481C47.9638 370.414 48.1023 371.198 48.3793 371.833C48.6605 372.468 49.0526 372.948 49.5554 373.271C50.0582 373.595 50.6399 373.757 51.3004 373.757C51.6712 373.757 52.0142 373.708 52.3295 373.61C52.6491 373.512 52.9325 373.369 53.1797 373.182C53.4268 372.99 53.6314 372.758 53.7933 372.485C53.9595 372.212 54.0746 371.901 54.1385 371.552L56.9382 371.565C56.8658 372.166 56.6847 372.745 56.3949 373.303C56.1094 373.857 55.7237 374.354 55.2379 374.793C54.7564 375.227 54.1811 375.573 53.5121 375.828C52.8473 376.08 52.0952 376.205 51.2557 376.205C50.0881 376.205 49.044 375.941 48.1236 375.413C47.2074 374.884 46.483 374.119 45.9503 373.118C45.4219 372.117 45.1577 370.904 45.1577 369.481C45.1577 368.053 45.4261 366.839 45.9631 365.837C46.5 364.836 47.2287 364.073 48.1491 363.549C49.0696 363.021 50.1051 362.756 51.2557 362.756C52.0142 362.756 52.7173 362.863 53.3651 363.076C54.017 363.289 54.5945 363.6 55.0973 364.009C55.6001 364.414 56.0092 364.911 56.3246 365.499C56.6442 366.087 56.8487 366.76 56.9382 367.519ZM58.9229 376.026V362.935H61.6907V368.337H67.3093V362.935H70.0707V376.026H67.3093V370.619H61.6907V376.026H58.9229ZM84.3825 369.481C84.3825 370.908 84.1119 372.123 83.5707 373.124C83.0337 374.126 82.3008 374.891 81.3718 375.419C80.4471 375.943 79.4073 376.205 78.2525 376.205C77.0891 376.205 76.0451 375.941 75.1204 375.413C74.1957 374.884 73.4648 374.119 72.9279 373.118C72.391 372.117 72.1225 370.904 72.1225 369.481C72.1225 368.053 72.391 366.839 72.9279 365.837C73.4648 364.836 74.1957 364.073 75.1204 363.549C76.0451 363.021 77.0891 362.756 78.2525 362.756C79.4073 362.756 80.4471 363.021 81.3718 363.549C82.3008 364.073 83.0337 364.836 83.5707 365.837C84.1119 366.839 84.3825 368.053 84.3825 369.481ZM81.5764 369.481C81.5764 368.556 81.4379 367.776 81.1609 367.141C80.8881 366.506 80.5025 366.025 80.0039 365.697C79.5053 365.369 78.9215 365.205 78.2525 365.205C77.5835 365.205 76.9996 365.369 76.5011 365.697C76.0025 366.025 75.6147 366.506 75.3377 367.141C75.065 367.776 74.9286 368.556 74.9286 369.481C74.9286 370.406 75.065 371.185 75.3377 371.82C75.6147 372.455 76.0025 372.937 76.5011 373.265C76.9996 373.593 77.5835 373.757 78.2525 373.757C78.9215 373.757 79.5053 373.593 80.0039 373.265C80.5025 372.937 80.8881 372.455 81.1609 371.82C81.4379 371.185 81.5764 370.406 81.5764 369.481ZM98.4625 369.481C98.4625 370.908 98.1919 372.123 97.6507 373.124C97.1138 374.126 96.3809 374.891 95.4519 375.419C94.5272 375.943 93.4874 376.205 92.3326 376.205C91.1692 376.205 90.1252 375.941 89.2005 375.413C88.2757 374.884 87.5449 374.119 87.008 373.118C86.4711 372.117 86.2026 370.904 86.2026 369.481C86.2026 368.053 86.4711 366.839 87.008 365.837C87.5449 364.836 88.2757 364.073 89.2005 363.549C90.1252 363.021 91.1692 362.756 92.3326 362.756C93.4874 362.756 94.5272 363.021 95.4519 363.549C96.3809 364.073 97.1138 364.836 97.6507 365.837C98.1919 366.839 98.4625 368.053 98.4625 369.481ZM95.6564 369.481C95.6564 368.556 95.5179 367.776 95.2409 367.141C94.9682 366.506 94.5826 366.025 94.084 365.697C93.5854 365.369 93.0016 365.205 92.3326 365.205C91.6635 365.205 91.0797 365.369 90.5811 365.697C90.0826 366.025 89.6948 366.506 89.4178 367.141C89.1451 367.776 89.0087 368.556 89.0087 369.481C89.0087 370.406 89.1451 371.185 89.4178 371.82C89.6948 372.455 90.0826 372.937 90.5811 373.265C91.0797 373.593 91.6635 373.757 92.3326 373.757C93.0016 373.757 93.5854 373.593 94.084 373.265C94.5826 372.937 94.9682 372.455 95.2409 371.82C95.5179 371.185 95.6564 370.406 95.6564 369.481ZM107.614 366.7C107.563 366.185 107.344 365.784 106.956 365.499C106.568 365.213 106.042 365.07 105.377 365.07C104.925 365.07 104.544 365.134 104.233 365.262C103.922 365.386 103.683 365.558 103.517 365.78C103.355 366.002 103.274 366.253 103.274 366.534C103.266 366.769 103.315 366.973 103.421 367.148C103.532 367.323 103.683 367.474 103.875 367.602C104.067 367.725 104.288 367.834 104.54 367.928C104.791 368.017 105.06 368.094 105.345 368.158L106.521 368.439C107.092 368.567 107.616 368.737 108.094 368.95C108.571 369.163 108.984 369.426 109.334 369.737C109.683 370.048 109.954 370.414 110.146 370.836C110.342 371.258 110.442 371.742 110.446 372.287C110.442 373.088 110.237 373.783 109.832 374.371C109.432 374.955 108.852 375.408 108.094 375.732C107.339 376.052 106.43 376.212 105.364 376.212C104.308 376.212 103.387 376.05 102.603 375.726C101.823 375.402 101.214 374.923 100.775 374.288C100.34 373.649 100.112 372.858 100.091 371.916H102.769C102.799 372.355 102.925 372.722 103.146 373.016C103.372 373.305 103.673 373.525 104.048 373.674C104.427 373.819 104.855 373.891 105.332 373.891C105.801 373.891 106.208 373.823 106.553 373.687C106.903 373.551 107.173 373.361 107.365 373.118C107.557 372.875 107.653 372.596 107.653 372.281C107.653 371.987 107.565 371.739 107.391 371.539C107.22 371.339 106.969 371.168 106.636 371.028C106.308 370.887 105.906 370.759 105.428 370.644L104.003 370.286C102.899 370.018 102.028 369.598 101.388 369.027C100.749 368.456 100.432 367.687 100.436 366.72C100.432 365.927 100.643 365.234 101.069 364.642C101.499 364.05 102.089 363.587 102.839 363.255C103.589 362.923 104.442 362.756 105.396 362.756C106.368 362.756 107.216 362.923 107.94 363.255C108.669 363.587 109.236 364.05 109.641 364.642C110.045 365.234 110.254 365.921 110.267 366.7H107.614ZM112.308 376.026V362.935H121.129V365.217H115.075V368.337H120.675V370.619H115.075V373.744H121.154V376.026H112.308ZM127.495 376.026V362.935H132.66C133.653 362.935 134.499 363.125 135.198 363.504C135.896 363.879 136.429 364.401 136.796 365.07C137.166 365.735 137.352 366.502 137.352 367.372C137.352 368.241 137.164 369.008 136.789 369.673C136.414 370.337 135.871 370.855 135.159 371.226C134.452 371.597 133.595 371.782 132.59 371.782H129.298V369.564H132.142C132.675 369.564 133.114 369.472 133.459 369.289C133.808 369.102 134.068 368.844 134.239 368.516C134.414 368.183 134.501 367.802 134.501 367.372C134.501 366.937 134.414 366.558 134.239 366.234C134.068 365.906 133.808 365.652 133.459 365.473C133.11 365.29 132.666 365.198 132.129 365.198H130.263V376.026H127.495ZM139.15 376.026V362.935H144.314C145.303 362.935 146.147 363.112 146.846 363.466C147.549 363.815 148.083 364.312 148.45 364.955C148.821 365.595 149.006 366.347 149.006 367.212C149.006 368.081 148.819 368.829 148.444 369.455C148.069 370.078 147.525 370.555 146.814 370.887C146.106 371.22 145.25 371.386 144.244 371.386H140.786V369.161H143.797C144.325 369.161 144.764 369.089 145.113 368.944C145.463 368.799 145.723 368.582 145.893 368.292C146.068 368.002 146.155 367.642 146.155 367.212C146.155 366.777 146.068 366.411 145.893 366.112C145.723 365.814 145.461 365.588 145.107 365.435C144.757 365.277 144.316 365.198 143.784 365.198H141.917V376.026H139.15ZM146.219 370.069L149.473 376.026H146.417L143.234 370.069H146.219ZM162.992 369.481C162.992 370.908 162.721 372.123 162.18 373.124C161.643 374.126 160.91 374.891 159.981 375.419C159.056 375.943 158.017 376.205 156.862 376.205C155.699 376.205 154.654 375.941 153.73 375.413C152.805 374.884 152.074 374.119 151.537 373.118C151 372.117 150.732 370.904 150.732 369.481C150.732 368.053 151 366.839 151.537 365.837C152.074 364.836 152.805 364.073 153.73 363.549C154.654 363.021 155.699 362.756 156.862 362.756C158.017 362.756 159.056 363.021 159.981 363.549C160.91 364.073 161.643 364.836 162.18 365.837C162.721 366.839 162.992 368.053 162.992 369.481ZM160.186 369.481C160.186 368.556 160.047 367.776 159.77 367.141C159.498 366.506 159.112 366.025 158.613 365.697C158.115 365.369 157.531 365.205 156.862 365.205C156.193 365.205 155.609 365.369 155.11 365.697C154.612 366.025 154.224 366.506 153.947 367.141C153.674 367.776 153.538 368.556 153.538 369.481C153.538 370.406 153.674 371.185 153.947 371.82C154.224 372.455 154.612 372.937 155.11 373.265C155.609 373.593 156.193 373.757 156.862 373.757C157.531 373.757 158.115 373.593 158.613 373.265C159.112 372.937 159.498 372.455 159.77 371.82C160.047 371.185 160.186 370.406 160.186 369.481ZM163.946 365.217V362.935H174.697V365.217H170.689V376.026H167.954V365.217H163.946ZM176.468 376.026V362.935H185.289V365.217H179.236V368.337H184.835V370.619H179.236V373.744H185.314V376.026H176.468ZM199.04 367.519H196.24C196.189 367.156 196.085 366.835 195.927 366.553C195.769 366.268 195.567 366.025 195.32 365.825C195.072 365.624 194.787 365.471 194.463 365.364C194.143 365.258 193.796 365.205 193.421 365.205C192.744 365.205 192.153 365.373 191.651 365.71C191.148 366.042 190.758 366.528 190.481 367.167C190.204 367.802 190.065 368.573 190.065 369.481C190.065 370.414 190.204 371.198 190.481 371.833C190.762 372.468 191.154 372.948 191.657 373.271C192.16 373.595 192.741 373.757 193.402 373.757C193.773 373.757 194.116 373.708 194.431 373.61C194.751 373.512 195.034 373.369 195.281 373.182C195.528 372.99 195.733 372.758 195.895 372.485C196.061 372.212 196.176 371.901 196.24 371.552L199.04 371.565C198.967 372.166 198.786 372.745 198.496 373.303C198.211 373.857 197.825 374.354 197.339 374.793C196.858 375.227 196.283 375.573 195.614 375.828C194.949 376.08 194.197 376.205 193.357 376.205C192.19 376.205 191.146 375.941 190.225 375.413C189.309 374.884 188.585 374.119 188.052 373.118C187.523 372.117 187.259 370.904 187.259 369.481C187.259 368.053 187.528 366.839 188.065 365.837C188.602 364.836 189.33 364.073 190.251 363.549C191.171 363.021 192.207 362.756 193.357 362.756C194.116 362.756 194.819 362.863 195.467 363.076C196.119 363.289 196.696 363.6 197.199 364.009C197.702 364.414 198.111 364.911 198.426 365.499C198.746 366.087 198.95 366.76 199.04 367.519ZM200.526 365.217V362.935H211.277V365.217H207.27V376.026H204.534V365.217H200.526ZM215.816 362.935V376.026H213.048V362.935H215.816ZM230.123 369.481C230.123 370.908 229.852 372.123 229.311 373.124C228.774 374.126 228.041 374.891 227.112 375.419C226.187 375.943 225.148 376.205 223.993 376.205C222.829 376.205 221.785 375.941 220.861 375.413C219.936 374.884 219.205 374.119 218.668 373.118C218.131 372.117 217.863 370.904 217.863 369.481C217.863 368.053 218.131 366.839 218.668 365.837C219.205 364.836 219.936 364.073 220.861 363.549C221.785 363.021 222.829 362.756 223.993 362.756C225.148 362.756 226.187 363.021 227.112 363.549C228.041 364.073 228.774 364.836 229.311 365.837C229.852 366.839 230.123 368.053 230.123 369.481ZM227.317 369.481C227.317 368.556 227.178 367.776 226.901 367.141C226.628 366.506 226.243 366.025 225.744 365.697C225.246 365.369 224.662 365.205 223.993 365.205C223.324 365.205 222.74 365.369 222.241 365.697C221.743 366.025 221.355 366.506 221.078 367.141C220.805 367.776 220.669 368.556 220.669 369.481C220.669 370.406 220.805 371.185 221.078 371.82C221.355 372.455 221.743 372.937 222.241 373.265C222.74 373.593 223.324 373.757 223.993 373.757C224.662 373.757 225.246 373.593 225.744 373.265C226.243 372.937 226.628 372.455 226.901 371.82C227.178 371.185 227.317 370.406 227.317 369.481ZM243.123 362.935V376.026H240.732L235.037 367.787H234.941V376.026H232.173V362.935H234.602L240.252 371.168H240.368V362.935H243.123ZM249.575 376.026V362.935H254.74C255.733 362.935 256.579 363.125 257.278 363.504C257.977 363.879 258.509 364.401 258.876 365.07C259.246 365.735 259.432 366.502 259.432 367.372C259.432 368.241 259.244 369.008 258.869 369.673C258.494 370.337 257.951 370.855 257.239 371.226C256.532 371.597 255.675 371.782 254.67 371.782H251.378V369.564H254.222C254.755 369.564 255.194 369.472 255.539 369.289C255.888 369.102 256.148 368.844 256.319 368.516C256.494 368.183 256.581 367.802 256.581 367.372C256.581 366.937 256.494 366.558 256.319 366.234C256.148 365.906 255.888 365.652 255.539 365.473C255.19 365.29 254.746 365.198 254.21 365.198H252.343V376.026H249.575ZM261.23 376.026V362.935H270.051V365.217H263.997V368.337H269.597V370.619H263.997V373.744H270.076V376.026H261.23ZM272.251 376.026V362.935H277.416C278.404 362.935 279.248 363.112 279.947 363.466C280.65 363.815 281.185 364.312 281.551 364.955C281.922 365.595 282.108 366.347 282.108 367.212C282.108 368.081 281.92 368.829 281.545 369.455C281.17 370.078 280.627 370.555 279.915 370.887C279.208 371.22 278.351 371.386 277.346 371.386H273.887V369.161H276.898C277.426 369.161 277.865 369.089 278.215 368.944C278.564 368.799 278.824 368.582 278.995 368.292C279.169 368.002 279.257 367.642 279.257 367.212C279.257 366.777 279.169 366.411 278.995 366.112C278.824 365.814 278.562 365.588 278.208 365.435C277.859 365.277 277.418 365.198 276.885 365.198H275.019V376.026H272.251ZM279.321 370.069L282.574 376.026H279.519L276.336 370.069H279.321ZM286.831 362.935V376.026H284.064V362.935H286.831ZM301.138 369.481C301.138 370.908 300.868 372.123 300.327 373.124C299.79 374.126 299.057 374.891 298.128 375.419C297.203 375.943 296.163 376.205 295.008 376.205C293.845 376.205 292.801 375.941 291.876 375.413C290.952 374.884 290.221 374.119 289.684 373.118C289.147 372.117 288.878 370.904 288.878 369.481C288.878 368.053 289.147 366.839 289.684 365.837C290.221 364.836 290.952 364.073 291.876 363.549C292.801 363.021 293.845 362.756 295.008 362.756C296.163 362.756 297.203 363.021 298.128 363.549C299.057 364.073 299.79 364.836 300.327 365.837C300.868 366.839 301.138 368.053 301.138 369.481ZM298.332 369.481C298.332 368.556 298.194 367.776 297.917 367.141C297.644 366.506 297.258 366.025 296.76 365.697C296.261 365.369 295.677 365.205 295.008 365.205C294.339 365.205 293.756 365.369 293.257 365.697C292.758 366.025 292.371 366.506 292.094 367.141C291.821 367.776 291.684 368.556 291.684 369.481C291.684 370.406 291.821 371.185 292.094 371.82C292.371 372.455 292.758 372.937 293.257 373.265C293.756 373.593 294.339 373.757 295.008 373.757C295.677 373.757 296.261 373.593 296.76 373.265C297.258 372.937 297.644 372.455 297.917 371.82C298.194 371.185 298.332 370.406 298.332 369.481ZM307.829 376.026H303.189V362.935H307.868C309.184 362.935 310.318 363.198 311.268 363.722C312.218 364.242 312.949 364.989 313.461 365.965C313.976 366.941 314.234 368.109 314.234 369.468C314.234 370.832 313.976 372.004 313.461 372.984C312.949 373.964 312.214 374.716 311.255 375.24C310.301 375.764 309.159 376.026 307.829 376.026ZM305.956 373.655H307.714C308.532 373.655 309.221 373.51 309.779 373.22C310.341 372.926 310.763 372.472 311.044 371.859C311.33 371.241 311.473 370.444 311.473 369.468C311.473 368.501 311.33 367.71 311.044 367.097C310.763 366.483 310.343 366.031 309.785 365.742C309.227 365.452 308.539 365.307 307.721 365.307H305.956V373.655ZM324.413 376.218C323.51 376.218 322.73 376.056 322.074 375.732C321.418 375.408 320.913 374.97 320.559 374.416C320.21 373.857 320.035 373.235 320.035 372.549C320.035 372.038 320.137 371.584 320.342 371.188C320.546 370.791 320.832 370.427 321.198 370.095C321.565 369.758 321.991 369.423 322.477 369.091L325.014 367.423C325.342 367.214 325.583 366.994 325.737 366.764C325.89 366.53 325.967 366.276 325.967 366.004C325.967 365.744 325.862 365.503 325.653 365.281C325.445 365.06 325.148 364.951 324.765 364.955C324.509 364.955 324.288 365.013 324.1 365.128C323.913 365.239 323.766 365.386 323.659 365.569C323.557 365.748 323.506 365.948 323.506 366.17C323.506 366.443 323.582 366.72 323.736 367.001C323.889 367.282 324.094 367.58 324.349 367.896C324.605 368.207 324.884 368.543 325.187 368.906L331.393 376.026H328.555L323.378 370.261C323.037 369.873 322.696 369.468 322.355 369.046C322.018 368.62 321.737 368.168 321.511 367.691C321.286 367.21 321.173 366.688 321.173 366.125C321.173 365.49 321.32 364.919 321.614 364.412C321.912 363.905 322.33 363.504 322.866 363.21C323.403 362.912 324.03 362.763 324.746 362.763C325.445 362.763 326.048 362.906 326.555 363.191C327.066 363.472 327.458 363.847 327.731 364.316C328.008 364.781 328.146 365.292 328.146 365.85C328.146 366.468 327.993 367.028 327.686 367.531C327.384 368.03 326.957 368.477 326.408 368.874L323.736 370.798C323.374 371.062 323.105 371.332 322.93 371.609C322.76 371.882 322.675 372.144 322.675 372.396C322.675 372.707 322.751 372.986 322.905 373.233C323.058 373.48 323.276 373.676 323.557 373.821C323.838 373.962 324.168 374.032 324.548 374.032C325.008 374.032 325.462 373.928 325.909 373.719C326.361 373.506 326.77 373.205 327.136 372.818C327.507 372.426 327.803 371.961 328.025 371.424C328.246 370.887 328.357 370.293 328.357 369.641H330.614C330.614 370.442 330.526 371.164 330.352 371.808C330.177 372.447 329.934 373.005 329.623 373.482C329.312 373.955 328.956 374.343 328.555 374.646C328.428 374.727 328.304 374.803 328.185 374.876C328.065 374.948 327.942 375.025 327.814 375.106C327.328 375.498 326.785 375.781 326.184 375.956C325.587 376.131 324.997 376.218 324.413 376.218ZM336.745 376.026V362.935H339.513V373.744H345.125V376.026H336.745ZM346.958 376.026V362.935H355.779V365.217H349.726V368.337H355.325V370.619H349.726V373.744H355.805V376.026H346.958ZM360.345 362.935L363.509 372.881H363.63L366.801 362.935H369.869L365.356 376.026H361.789L357.27 362.935H360.345ZM371.444 376.026V362.935H380.265V365.217H374.212V368.337H379.812V370.619H374.212V373.744H380.291V376.026H371.444ZM382.466 376.026V362.935H385.234V373.744H390.846V376.026H382.466Z" fill="white"/>
<path d="M29.012 413.194C28.3027 413.194 27.6773 413.05 27.136 412.76C26.5947 412.471 26.17 412.079 25.862 411.584C25.554 411.09 25.3253 410.553 25.176 409.974C25.0267 409.396 24.952 408.78 24.952 408.126C24.952 407.482 25.0267 406.871 25.176 406.292C25.3347 405.704 25.568 405.168 25.876 404.682C26.1933 404.188 26.618 403.796 27.15 403.506C27.6913 403.208 28.312 403.058 29.012 403.058C30.5427 403.058 31.5973 403.646 32.176 404.822L31.084 405.382C30.8227 404.99 30.5333 404.696 30.216 404.5C29.908 404.295 29.5067 404.192 29.012 404.192C28.3493 404.192 27.7987 404.402 27.36 404.822C26.9213 405.242 26.618 405.737 26.45 406.306C26.2913 406.866 26.212 407.473 26.212 408.126C26.212 409.2 26.45 410.124 26.926 410.898C27.402 411.664 28.0973 412.046 29.012 412.046C29.9267 412.046 30.636 411.631 31.14 410.8L32.26 411.22C31.9893 411.818 31.5833 412.298 31.042 412.662C30.5007 413.017 29.824 413.194 29.012 413.194ZM38.0377 413.194C37.3004 413.194 36.6517 413.05 36.0917 412.76C35.5411 412.462 35.1071 412.065 34.7897 411.57C34.4817 411.066 34.2531 410.53 34.1037 409.96C33.9544 409.382 33.8797 408.77 33.8797 408.126C33.8797 407.482 33.9544 406.876 34.1037 406.306C34.2531 405.728 34.4817 405.191 34.7897 404.696C35.1071 404.192 35.5411 403.796 36.0917 403.506C36.6517 403.208 37.3004 403.058 38.0377 403.058C38.6351 403.058 39.1717 403.156 39.6477 403.352C40.1331 403.548 40.5297 403.81 40.8377 404.136C41.1551 404.463 41.4164 404.85 41.6217 405.298C41.8364 405.746 41.9857 406.204 42.0697 406.67C42.1631 407.137 42.2097 407.622 42.2097 408.126C42.2097 408.63 42.1631 409.116 42.0697 409.582C41.9857 410.049 41.8364 410.506 41.6217 410.954C41.4164 411.402 41.1551 411.79 40.8377 412.116C40.5297 412.443 40.1331 412.704 39.6477 412.9C39.1717 413.096 38.6351 413.194 38.0377 413.194ZM36.6797 411.71C37.0717 411.934 37.5244 412.046 38.0377 412.046C38.5511 412.046 39.0037 411.93 39.3957 411.696C39.7877 411.454 40.0911 411.136 40.3057 410.744C40.5204 410.352 40.6791 409.937 40.7817 409.498C40.8844 409.05 40.9357 408.593 40.9357 408.126C40.9357 407.436 40.8471 406.81 40.6697 406.25C40.5017 405.681 40.1891 405.196 39.7317 404.794C39.2837 404.393 38.7191 404.192 38.0377 404.192C37.5244 404.192 37.0717 404.314 36.6797 404.556C36.2971 404.79 35.9984 405.107 35.7837 405.508C35.5691 405.9 35.4057 406.316 35.2937 406.754C35.1911 407.193 35.1397 407.65 35.1397 408.126C35.1397 408.63 35.1911 409.106 35.2937 409.554C35.3964 410.002 35.5551 410.418 35.7697 410.8C35.9937 411.183 36.2971 411.486 36.6797 411.71ZM53.0383 413.026H51.8203V407.006C51.8203 406.624 51.8296 406.264 51.8483 405.928C51.755 406.19 51.6103 406.558 51.4143 407.034L48.7263 413.194L46.1223 407.006C45.8983 406.465 45.7583 406.11 45.7023 405.942C45.7303 406.194 45.7443 406.549 45.7443 407.006V413.026H44.5263V403.226H45.6743L48.5163 409.82L48.7683 410.478C48.8056 410.366 48.8896 410.147 49.0203 409.82L51.8763 403.226H53.0383V413.026ZM55.7646 413.026V403.226H59.5166C60.0859 403.226 60.5806 403.31 61.0006 403.478C61.4299 403.646 61.7612 403.875 61.9946 404.164C62.2279 404.444 62.4006 404.752 62.5126 405.088C62.6246 405.424 62.6806 405.784 62.6806 406.166C62.6806 406.941 62.4146 407.622 61.8826 408.21C61.3599 408.798 60.5712 409.092 59.5166 409.092H56.9826V413.026H55.7646ZM59.6006 407.958C60.2352 407.958 60.7019 407.781 61.0006 407.426C61.3086 407.072 61.4626 406.652 61.4626 406.166C61.4626 405.69 61.3179 405.27 61.0286 404.906C60.7392 404.542 60.2632 404.36 59.6006 404.36H56.9826V407.958H59.6006ZM69.3214 413.026L68.4814 410.632H64.5894L63.7634 413.026H62.4894L65.9614 403.226H67.0954L70.5674 413.026H69.3214ZM68.1034 409.554L66.8434 405.928C66.6847 405.471 66.5821 405.14 66.5354 404.934C66.4327 405.298 66.3301 405.63 66.2274 405.928L64.9534 409.554H68.1034ZM72.3759 413.026V403.226H76.2399C77.3226 403.226 78.1066 403.492 78.5919 404.024C79.0866 404.556 79.3339 405.219 79.3339 406.012C79.3339 406.656 79.1426 407.235 78.7599 407.748C78.3866 408.252 77.8172 408.584 77.0519 408.742L79.1519 413.026H77.7799L75.7639 408.826H73.5939V413.026H72.3759ZM73.5939 407.692H76.2679C76.9026 407.692 77.3646 407.534 77.6539 407.216C77.9526 406.899 78.1019 406.507 78.1019 406.04C78.1019 405.592 77.9572 405.2 77.6679 404.864C77.3879 404.528 76.9212 404.36 76.2679 404.36H73.5939V407.692ZM81.6865 413.026V403.226H87.5105V404.374H82.9045V407.384H85.9425V408.532H82.9045V411.864H87.8185V413.026H81.6865ZM97.0022 413.194C96.2929 413.194 95.6676 413.05 95.1262 412.76C94.5849 412.471 94.1602 412.079 93.8522 411.584C93.5442 411.09 93.3156 410.553 93.1662 409.974C93.0169 409.396 92.9422 408.78 92.9422 408.126C92.9422 407.482 93.0169 406.871 93.1662 406.292C93.3249 405.704 93.5582 405.168 93.8662 404.682C94.1836 404.188 94.6082 403.796 95.1402 403.506C95.6816 403.208 96.3022 403.058 97.0022 403.058C98.5329 403.058 99.5876 403.646 100.166 404.822L99.0742 405.382C98.8129 404.99 98.5236 404.696 98.2062 404.5C97.8982 404.295 97.4969 404.192 97.0022 404.192C96.3396 404.192 95.7889 404.402 95.3502 404.822C94.9116 405.242 94.6082 405.737 94.4402 406.306C94.2816 406.866 94.2022 407.473 94.2022 408.126C94.2022 409.2 94.4402 410.124 94.9162 410.898C95.3922 411.664 96.0876 412.046 97.0022 412.046C97.9169 412.046 98.6262 411.631 99.1302 410.8L100.25 411.22C99.9796 411.818 99.5736 412.298 99.0322 412.662C98.4909 413.017 97.8142 413.194 97.0022 413.194ZM106.028 413.194C105.291 413.194 104.642 413.05 104.082 412.76C103.531 412.462 103.097 412.065 102.78 411.57C102.472 411.066 102.243 410.53 102.094 409.96C101.945 409.382 101.87 408.77 101.87 408.126C101.87 407.482 101.945 406.876 102.094 406.306C102.243 405.728 102.472 405.191 102.78 404.696C103.097 404.192 103.531 403.796 104.082 403.506C104.642 403.208 105.291 403.058 106.028 403.058C106.625 403.058 107.162 403.156 107.638 403.352C108.123 403.548 108.52 403.81 108.828 404.136C109.145 404.463 109.407 404.85 109.612 405.298C109.827 405.746 109.976 406.204 110.06 406.67C110.153 407.137 110.2 407.622 110.2 408.126C110.2 408.63 110.153 409.116 110.06 409.582C109.976 410.049 109.827 410.506 109.612 410.954C109.407 411.402 109.145 411.79 108.828 412.116C108.52 412.443 108.123 412.704 107.638 412.9C107.162 413.096 106.625 413.194 106.028 413.194ZM104.67 411.71C105.062 411.934 105.515 412.046 106.028 412.046C106.541 412.046 106.994 411.93 107.386 411.696C107.778 411.454 108.081 411.136 108.296 410.744C108.511 410.352 108.669 409.937 108.772 409.498C108.875 409.05 108.926 408.593 108.926 408.126C108.926 407.436 108.837 406.81 108.66 406.25C108.492 405.681 108.179 405.196 107.722 404.794C107.274 404.393 106.709 404.192 106.028 404.192C105.515 404.192 105.062 404.314 104.67 404.556C104.287 404.79 103.989 405.107 103.774 405.508C103.559 405.9 103.396 406.316 103.284 406.754C103.181 407.193 103.13 407.65 103.13 408.126C103.13 408.63 103.181 409.106 103.284 409.554C103.387 410.002 103.545 410.418 103.76 410.8C103.984 411.183 104.287 411.486 104.67 411.71ZM115.373 413.194C114.542 413.194 113.819 412.994 113.203 412.592C112.596 412.182 112.181 411.654 111.957 411.01L113.105 410.59C113.31 411.038 113.613 411.393 114.015 411.654C114.416 411.916 114.878 412.046 115.401 412.046C115.998 412.046 116.469 411.906 116.815 411.626C117.16 411.337 117.333 410.926 117.333 410.394C117.333 409.881 117.137 409.47 116.745 409.162C116.362 408.854 115.821 408.574 115.121 408.322C114.785 408.201 114.505 408.094 114.281 408C114.066 407.907 113.814 407.776 113.525 407.608C113.245 407.431 113.021 407.254 112.853 407.076C112.685 406.89 112.54 406.661 112.419 406.39C112.307 406.11 112.251 405.807 112.251 405.48C112.251 404.799 112.521 404.225 113.063 403.758C113.604 403.292 114.337 403.058 115.261 403.058C116.017 403.058 116.647 403.222 117.151 403.548C117.655 403.866 117.981 404.286 118.131 404.808L117.011 405.186C116.88 404.897 116.656 404.659 116.339 404.472C116.021 404.286 115.634 404.192 115.177 404.192C114.663 404.192 114.257 404.309 113.959 404.542C113.66 404.766 113.511 405.079 113.511 405.48C113.511 405.695 113.562 405.891 113.665 406.068C113.777 406.246 113.945 406.404 114.169 406.544C114.402 406.684 114.617 406.796 114.813 406.88C115.009 406.964 115.279 407.072 115.625 407.202C116.054 407.361 116.409 407.515 116.689 407.664C116.969 407.804 117.272 407.996 117.599 408.238C117.925 408.481 118.173 408.784 118.341 409.148C118.509 409.503 118.593 409.909 118.593 410.366C118.593 411.244 118.294 411.934 117.697 412.438C117.099 412.942 116.325 413.194 115.373 413.194ZM124.215 404.388V413.026H122.997V404.388H120.267V403.226H126.945V404.388H124.215ZM131.916 413.194C131.085 413.194 130.362 412.994 129.745 412.592C129.139 412.182 128.724 411.654 128.5 411.01L129.648 410.59C129.853 411.038 130.156 411.393 130.558 411.654C130.959 411.916 131.421 412.046 131.944 412.046C132.541 412.046 133.012 411.906 133.358 411.626C133.703 411.337 133.876 410.926 133.876 410.394C133.876 409.881 133.68 409.47 133.288 409.162C132.905 408.854 132.364 408.574 131.664 408.322C131.328 408.201 131.048 408.094 130.824 408C130.609 407.907 130.357 407.776 130.068 407.608C129.788 407.431 129.564 407.254 129.396 407.076C129.228 406.89 129.083 406.661 128.962 406.39C128.85 406.11 128.794 405.807 128.794 405.48C128.794 404.799 129.064 404.225 129.606 403.758C130.147 403.292 130.88 403.058 131.803 403.058C132.56 403.058 133.19 403.222 133.694 403.548C134.198 403.866 134.524 404.286 134.674 404.808L133.554 405.186C133.423 404.897 133.199 404.659 132.882 404.472C132.564 404.286 132.177 404.192 131.72 404.192C131.206 404.192 130.8 404.309 130.502 404.542C130.203 404.766 130.054 405.079 130.054 405.48C130.054 405.695 130.105 405.891 130.208 406.068C130.32 406.246 130.488 406.404 130.712 406.544C130.945 406.684 131.16 406.796 131.356 406.88C131.552 406.964 131.822 407.072 132.168 407.202C132.597 407.361 132.952 407.515 133.232 407.664C133.512 407.804 133.815 407.996 134.142 408.238C134.468 408.481 134.716 408.784 134.883 409.148C135.052 409.503 135.136 409.909 135.136 410.366C135.136 411.244 134.837 411.934 134.24 412.438C133.642 412.942 132.868 413.194 131.916 413.194ZM140.735 413.026V403.226H146.629V404.374H141.953V407.384H145.047V408.532H141.953V413.026H140.735ZM151.911 413.194C151.173 413.194 150.525 413.05 149.965 412.76C149.414 412.462 148.98 412.065 148.663 411.57C148.355 411.066 148.126 410.53 147.977 409.96C147.827 409.382 147.753 408.77 147.753 408.126C147.753 407.482 147.827 406.876 147.977 406.306C148.126 405.728 148.355 405.191 148.663 404.696C148.98 404.192 149.414 403.796 149.965 403.506C150.525 403.208 151.173 403.058 151.911 403.058C152.508 403.058 153.045 403.156 153.521 403.352C154.006 403.548 154.403 403.81 154.711 404.136C155.028 404.463 155.289 404.85 155.495 405.298C155.709 405.746 155.859 406.204 155.943 406.67C156.036 407.137 156.083 407.622 156.083 408.126C156.083 408.63 156.036 409.116 155.943 409.582C155.859 410.049 155.709 410.506 155.495 410.954C155.289 411.402 155.028 411.79 154.711 412.116C154.403 412.443 154.006 412.704 153.521 412.9C153.045 413.096 152.508 413.194 151.911 413.194ZM150.553 411.71C150.945 411.934 151.397 412.046 151.911 412.046C152.424 412.046 152.877 411.93 153.269 411.696C153.661 411.454 153.964 411.136 154.179 410.744C154.393 410.352 154.552 409.937 154.655 409.498C154.757 409.05 154.809 408.593 154.809 408.126C154.809 407.436 154.72 406.81 154.543 406.25C154.375 405.681 154.062 405.196 153.605 404.794C153.157 404.393 152.592 404.192 151.911 404.192C151.397 404.192 150.945 404.314 150.553 404.556C150.17 404.79 149.871 405.107 149.657 405.508C149.442 405.9 149.279 406.316 149.167 406.754C149.064 407.193 149.013 407.65 149.013 408.126C149.013 408.63 149.064 409.106 149.167 409.554C149.269 410.002 149.428 410.418 149.643 410.8C149.867 411.183 150.17 411.486 150.553 411.71ZM158.399 413.026V403.226H162.263C163.346 403.226 164.13 403.492 164.615 404.024C165.11 404.556 165.357 405.219 165.357 406.012C165.357 406.656 165.166 407.235 164.783 407.748C164.41 408.252 163.841 408.584 163.075 408.742L165.175 413.026H163.803L161.787 408.826H159.617V413.026H158.399ZM159.617 407.692H162.291C162.926 407.692 163.388 407.534 163.677 407.216C163.976 406.899 164.125 406.507 164.125 406.04C164.125 405.592 163.981 405.2 163.691 404.864C163.411 404.528 162.945 404.36 162.291 404.36H159.617V407.692ZM173.861 413.194C173.03 413.194 172.307 412.994 171.691 412.592C171.084 412.182 170.669 411.654 170.445 411.01L171.593 410.59C171.798 411.038 172.101 411.393 172.503 411.654C172.904 411.916 173.366 412.046 173.889 412.046C174.486 412.046 174.957 411.906 175.303 411.626C175.648 411.337 175.821 410.926 175.821 410.394C175.821 409.881 175.625 409.47 175.233 409.162C174.85 408.854 174.309 408.574 173.609 408.322C173.273 408.201 172.993 408.094 172.769 408C172.554 407.907 172.302 407.776 172.013 407.608C171.733 407.431 171.509 407.254 171.341 407.076C171.173 406.89 171.028 406.661 170.907 406.39C170.795 406.11 170.739 405.807 170.739 405.48C170.739 404.799 171.009 404.225 171.551 403.758C172.092 403.292 172.825 403.058 173.749 403.058C174.505 403.058 175.135 403.222 175.639 403.548C176.143 403.866 176.469 404.286 176.619 404.808L175.499 405.186C175.368 404.897 175.144 404.659 174.827 404.472C174.509 404.286 174.122 404.192 173.665 404.192C173.151 404.192 172.745 404.309 172.447 404.542C172.148 404.766 171.999 405.079 171.999 405.48C171.999 405.695 172.05 405.891 172.153 406.068C172.265 406.246 172.433 406.404 172.657 406.544C172.89 406.684 173.105 406.796 173.301 406.88C173.497 406.964 173.767 407.072 174.113 407.202C174.542 407.361 174.897 407.515 175.177 407.664C175.457 407.804 175.76 407.996 176.087 408.238C176.413 408.481 176.661 408.784 176.829 409.148C176.997 409.503 177.081 409.909 177.081 410.366C177.081 411.244 176.782 411.934 176.185 412.438C175.587 412.942 174.813 413.194 173.861 413.194ZM179.386 413.026V403.226H185.21V404.374H180.604V407.384H183.642V408.532H180.604V411.864H185.518V413.026H179.386ZM187.767 413.026V403.226H188.985V411.85H193.801V413.026H187.767ZM195.587 413.026V403.226H201.411V404.374H196.805V407.384H199.843V408.532H196.805V411.864H201.719V413.026H195.587ZM207.184 413.194C206.475 413.194 205.849 413.05 205.308 412.76C204.767 412.471 204.342 412.079 204.034 411.584C203.726 411.09 203.497 410.553 203.348 409.974C203.199 409.396 203.124 408.78 203.124 408.126C203.124 407.482 203.199 406.871 203.348 406.292C203.507 405.704 203.74 405.168 204.048 404.682C204.365 404.188 204.79 403.796 205.322 403.506C205.863 403.208 206.484 403.058 207.184 403.058C208.715 403.058 209.769 403.646 210.348 404.822L209.256 405.382C208.995 404.99 208.705 404.696 208.388 404.5C208.08 404.295 207.679 404.192 207.184 404.192C206.521 404.192 205.971 404.402 205.532 404.822C205.093 405.242 204.79 405.737 204.622 406.306C204.463 406.866 204.384 407.473 204.384 408.126C204.384 409.2 204.622 410.124 205.098 410.898C205.574 411.664 206.269 412.046 207.184 412.046C208.099 412.046 208.808 411.631 209.312 410.8L210.432 411.22C210.161 411.818 209.755 412.298 209.214 412.662C208.673 413.017 207.996 413.194 207.184 413.194ZM215.79 404.388V413.026H214.572V404.388H211.842V403.226H218.52V404.388H215.79ZM220.634 413.026V403.226H226.458V404.374H221.852V407.384H224.89V408.532H221.852V411.864H226.766V413.026H220.634ZM229.015 403.226H231.689C232.491 403.226 233.196 403.366 233.803 403.646C234.409 403.926 234.885 404.304 235.231 404.78C235.576 405.256 235.828 405.774 235.987 406.334C236.155 406.894 236.239 407.492 236.239 408.126C236.239 408.733 236.159 409.312 236.001 409.862C235.851 410.404 235.609 410.922 235.273 411.416C234.946 411.902 234.47 412.294 233.845 412.592C233.219 412.882 232.482 413.026 231.633 413.026H229.015V403.226ZM231.787 411.892C232.365 411.892 232.869 411.785 233.299 411.57C233.737 411.346 234.073 411.048 234.307 410.674C234.54 410.292 234.708 409.89 234.811 409.47C234.923 409.05 234.979 408.602 234.979 408.126C234.979 407.454 234.881 406.843 234.685 406.292C234.489 405.742 234.153 405.28 233.677 404.906C233.201 404.533 232.622 404.346 231.941 404.346H230.233V411.892H231.787ZM241.852 413.026V403.226H245.604C246.174 403.226 246.668 403.31 247.088 403.478C247.518 403.646 247.849 403.875 248.082 404.164C248.316 404.444 248.488 404.752 248.6 405.088C248.712 405.424 248.768 405.784 248.768 406.166C248.768 406.941 248.502 407.622 247.97 408.21C247.448 408.798 246.659 409.092 245.604 409.092H243.07V413.026H241.852ZM245.688 407.958C246.323 407.958 246.79 407.781 247.088 407.426C247.396 407.072 247.55 406.652 247.55 406.166C247.55 405.69 247.406 405.27 247.116 404.906C246.827 404.542 246.351 404.36 245.688 404.36H243.07V407.958H245.688ZM250.671 413.026V403.226H254.535C255.617 403.226 256.401 403.492 256.887 404.024C257.381 404.556 257.629 405.219 257.629 406.012C257.629 406.656 257.437 407.235 257.055 407.748C256.681 408.252 256.112 408.584 255.347 408.742L257.447 413.026H256.075L254.059 408.826H251.889V413.026H250.671ZM251.889 407.692H254.563C255.197 407.692 255.659 407.534 255.949 407.216C256.247 406.899 256.397 406.507 256.397 406.04C256.397 405.592 256.252 405.2 255.963 404.864C255.683 404.528 255.216 404.36 254.563 404.36H251.889V407.692ZM263.719 413.194C262.982 413.194 262.333 413.05 261.773 412.76C261.223 412.462 260.789 412.065 260.471 411.57C260.163 411.066 259.935 410.53 259.785 409.96C259.636 409.382 259.561 408.77 259.561 408.126C259.561 407.482 259.636 406.876 259.785 406.306C259.935 405.728 260.163 405.191 260.471 404.696C260.789 404.192 261.223 403.796 261.773 403.506C262.333 403.208 262.982 403.058 263.719 403.058C264.317 403.058 264.853 403.156 265.329 403.352C265.815 403.548 266.211 403.81 266.519 404.136C266.837 404.463 267.098 404.85 267.303 405.298C267.518 405.746 267.667 406.204 267.751 406.67C267.845 407.137 267.891 407.622 267.891 408.126C267.891 408.63 267.845 409.116 267.751 409.582C267.667 410.049 267.518 410.506 267.303 410.954C267.098 411.402 266.837 411.79 266.519 412.116C266.211 412.443 265.815 412.704 265.329 412.9C264.853 413.096 264.317 413.194 263.719 413.194ZM262.361 411.71C262.753 411.934 263.206 412.046 263.719 412.046C264.233 412.046 264.685 411.93 265.077 411.696C265.469 411.454 265.773 411.136 265.987 410.744C266.202 410.352 266.361 409.937 266.463 409.498C266.566 409.05 266.617 408.593 266.617 408.126C266.617 407.436 266.529 406.81 266.351 406.25C266.183 405.681 265.871 405.196 265.413 404.794C264.965 404.393 264.401 404.192 263.719 404.192C263.206 404.192 262.753 404.314 262.361 404.556C261.979 404.79 261.68 405.107 261.465 405.508C261.251 405.9 261.087 406.316 260.975 406.754C260.873 407.193 260.821 407.65 260.821 408.126C260.821 408.63 260.873 409.106 260.975 409.554C261.078 410.002 261.237 410.418 261.451 410.8C261.675 411.183 261.979 411.486 262.361 411.71ZM272.897 404.388V413.026H271.679V404.388H268.949V403.226H275.627V404.388H272.897ZM277.741 413.026V403.226H283.565V404.374H278.959V407.384H281.997V408.532H278.959V411.864H283.873V413.026H277.741ZM289.338 413.194C288.629 413.194 288.004 413.05 287.462 412.76C286.921 412.471 286.496 412.079 286.188 411.584C285.88 411.09 285.652 410.553 285.502 409.974C285.353 409.396 285.278 408.78 285.278 408.126C285.278 407.482 285.353 406.871 285.502 406.292C285.661 405.704 285.894 405.168 286.202 404.682C286.52 404.188 286.944 403.796 287.476 403.506C288.018 403.208 288.638 403.058 289.338 403.058C290.869 403.058 291.924 403.646 292.502 404.822L291.41 405.382C291.149 404.99 290.86 404.696 290.542 404.5C290.234 404.295 289.833 404.192 289.338 404.192C288.676 404.192 288.125 404.402 287.686 404.822C287.248 405.242 286.944 405.737 286.776 406.306C286.618 406.866 286.538 407.473 286.538 408.126C286.538 409.2 286.776 410.124 287.252 410.898C287.728 411.664 288.424 412.046 289.338 412.046C290.253 412.046 290.962 411.631 291.466 410.8L292.586 411.22C292.316 411.818 291.91 412.298 291.368 412.662C290.827 413.017 290.15 413.194 289.338 413.194ZM297.944 404.388V413.026H296.726V404.388H293.996V403.226H300.674V404.388H297.944ZM302.816 413.026V403.226H304.034V413.026H302.816ZM310.546 413.194C309.808 413.194 309.16 413.05 308.6 412.76C308.049 412.462 307.615 412.065 307.298 411.57C306.99 411.066 306.761 410.53 306.612 409.96C306.462 409.382 306.388 408.77 306.388 408.126C306.388 407.482 306.462 406.876 306.612 406.306C306.761 405.728 306.99 405.191 307.298 404.696C307.615 404.192 308.049 403.796 308.6 403.506C309.16 403.208 309.808 403.058 310.546 403.058C311.143 403.058 311.68 403.156 312.156 403.352C312.641 403.548 313.038 403.81 313.346 404.136C313.663 404.463 313.924 404.85 314.13 405.298C314.344 405.746 314.494 406.204 314.578 406.67C314.671 407.137 314.718 407.622 314.718 408.126C314.718 408.63 314.671 409.116 314.578 409.582C314.494 410.049 314.344 410.506 314.13 410.954C313.924 411.402 313.663 411.79 313.346 412.116C313.038 412.443 312.641 412.704 312.156 412.9C311.68 413.096 311.143 413.194 310.546 413.194ZM309.188 411.71C309.58 411.934 310.032 412.046 310.546 412.046C311.059 412.046 311.512 411.93 311.904 411.696C312.296 411.454 312.599 411.136 312.814 410.744C313.028 410.352 313.187 409.937 313.29 409.498C313.392 409.05 313.444 408.593 313.444 408.126C313.444 407.436 313.355 406.81 313.178 406.25C313.01 405.681 312.697 405.196 312.24 404.794C311.792 404.393 311.227 404.192 310.546 404.192C310.032 404.192 309.58 404.314 309.188 404.556C308.805 404.79 308.506 405.107 308.292 405.508C308.077 405.9 307.914 406.316 307.802 406.754C307.699 407.193 307.648 407.65 307.648 408.126C307.648 408.63 307.699 409.106 307.802 409.554C307.904 410.002 308.063 410.418 308.278 410.8C308.502 411.183 308.805 411.486 309.188 411.71ZM324.202 413.026H323.026L318.616 406.026C318.448 405.756 318.317 405.527 318.224 405.34C318.243 405.62 318.252 405.849 318.252 406.026V413.026H317.034V403.226H318.266L322.606 410.198C322.755 410.441 322.891 410.684 323.012 410.926C322.993 410.59 322.984 410.352 322.984 410.212V403.226H324.202V413.026ZM330.241 413.026V403.226H333.993C334.562 403.226 335.057 403.31 335.477 403.478C335.906 403.646 336.238 403.875 336.471 404.164C336.704 404.444 336.877 404.752 336.989 405.088C337.101 405.424 337.157 405.784 337.157 406.166C337.157 406.941 336.891 407.622 336.359 408.21C335.836 408.798 335.048 409.092 333.993 409.092H331.459V413.026H330.241ZM334.077 407.958C334.712 407.958 335.178 407.781 335.477 407.426C335.785 407.072 335.939 406.652 335.939 406.166C335.939 405.69 335.794 405.27 335.505 404.906C335.216 404.542 334.74 404.36 334.077 404.36H331.459V407.958H334.077ZM339.06 413.026V403.226H344.883V404.374H340.278V407.384H343.316V408.532H340.278V411.864H345.192V413.026H339.06ZM347.44 413.026V403.226H351.304C352.387 403.226 353.171 403.492 353.656 404.024C354.151 404.556 354.398 405.219 354.398 406.012C354.398 406.656 354.207 407.235 353.824 407.748C353.451 408.252 352.882 408.584 352.116 408.742L354.216 413.026H352.844L350.828 408.826H348.658V413.026H347.44ZM348.658 407.692H351.332C351.967 407.692 352.429 407.534 352.718 407.216C353.017 406.899 353.166 406.507 353.166 406.04C353.166 405.592 353.022 405.2 352.732 404.864C352.452 404.528 351.986 404.36 351.332 404.36H348.658V407.692ZM356.779 413.026V403.226H357.997V413.026H356.779ZM364.508 413.194C363.771 413.194 363.122 413.05 362.562 412.76C362.012 412.462 361.578 412.065 361.26 411.57C360.952 411.066 360.724 410.53 360.574 409.96C360.425 409.382 360.35 408.77 360.35 408.126C360.35 407.482 360.425 406.876 360.574 406.306C360.724 405.728 360.952 405.191 361.26 404.696C361.578 404.192 362.012 403.796 362.562 403.506C363.122 403.208 363.771 403.058 364.508 403.058C365.106 403.058 365.642 403.156 366.118 403.352C366.604 403.548 367 403.81 367.308 404.136C367.626 404.463 367.887 404.85 368.092 405.298C368.307 405.746 368.456 406.204 368.54 406.67C368.634 407.137 368.68 407.622 368.68 408.126C368.68 408.63 368.634 409.116 368.54 409.582C368.456 410.049 368.307 410.506 368.092 410.954C367.887 411.402 367.626 411.79 367.308 412.116C367 412.443 366.604 412.704 366.118 412.9C365.642 413.096 365.106 413.194 364.508 413.194ZM363.15 411.71C363.542 411.934 363.995 412.046 364.508 412.046C365.022 412.046 365.474 411.93 365.866 411.696C366.258 411.454 366.562 411.136 366.776 410.744C366.991 410.352 367.15 409.937 367.252 409.498C367.355 409.05 367.406 408.593 367.406 408.126C367.406 407.436 367.318 406.81 367.14 406.25C366.972 405.681 366.66 405.196 366.202 404.794C365.754 404.393 365.19 404.192 364.508 404.192C363.995 404.192 363.542 404.314 363.15 404.556C362.768 404.79 362.469 405.107 362.254 405.508C362.04 405.9 361.876 406.316 361.764 406.754C361.662 407.193 361.61 407.65 361.61 408.126C361.61 408.63 361.662 409.106 361.764 409.554C361.867 410.002 362.026 410.418 362.24 410.8C362.464 411.183 362.768 411.486 363.15 411.71ZM370.997 403.226H373.671C374.474 403.226 375.178 403.366 375.785 403.646C376.392 403.926 376.868 404.304 377.213 404.78C377.558 405.256 377.81 405.774 377.969 406.334C378.137 406.894 378.221 407.492 378.221 408.126C378.221 408.733 378.142 409.312 377.983 409.862C377.834 410.404 377.591 410.922 377.255 411.416C376.928 411.902 376.452 412.294 375.827 412.592C375.202 412.882 374.464 413.026 373.615 413.026H370.997V403.226ZM373.769 411.892C374.348 411.892 374.852 411.785 375.281 411.57C375.72 411.346 376.056 411.048 376.289 410.674C376.522 410.292 376.69 409.89 376.793 409.47C376.905 409.05 376.961 408.602 376.961 408.126C376.961 407.454 376.863 406.843 376.667 406.292C376.471 405.742 376.135 405.28 375.659 404.906C375.183 404.533 374.604 404.346 373.923 404.346H372.215V411.892H373.769ZM383.396 413.194C382.565 413.194 381.842 412.994 381.226 412.592C380.619 412.182 380.204 411.654 379.98 411.01L381.128 410.59C381.333 411.038 381.637 411.393 382.038 411.654C382.439 411.916 382.901 412.046 383.424 412.046C384.021 412.046 384.493 411.906 384.838 411.626C385.183 411.337 385.356 410.926 385.356 410.394C385.356 409.881 385.16 409.47 384.768 409.162C384.385 408.854 383.844 408.574 383.144 408.322C382.808 408.201 382.528 408.094 382.304 408C382.089 407.907 381.837 407.776 381.548 407.608C381.268 407.431 381.044 407.254 380.876 407.076C380.708 406.89 380.563 406.661 380.442 406.39C380.33 406.11 380.274 405.807 380.274 405.48C380.274 404.799 380.545 404.225 381.086 403.758C381.627 403.292 382.36 403.058 383.284 403.058C384.04 403.058 384.67 403.222 385.174 403.548C385.678 403.866 386.005 404.286 386.154 404.808L385.034 405.186C384.903 404.897 384.679 404.659 384.362 404.472C384.045 404.286 383.657 404.192 383.2 404.192C382.687 404.192 382.281 404.309 381.982 404.542C381.683 404.766 381.534 405.079 381.534 405.48C381.534 405.695 381.585 405.891 381.688 406.068C381.8 406.246 381.968 406.404 382.192 406.544C382.425 406.684 382.64 406.796 382.836 406.88C383.032 406.964 383.303 407.072 383.648 407.202C384.077 407.361 384.432 407.515 384.712 407.664C384.992 407.804 385.295 407.996 385.622 408.238C385.949 408.481 386.196 408.784 386.364 409.148C386.532 409.503 386.616 409.909 386.616 410.366C386.616 411.244 386.317 411.934 385.72 412.438C385.123 412.942 384.348 413.194 383.396 413.194ZM394.414 413.194C393.574 413.194 392.892 412.947 392.37 412.452C391.856 411.958 391.6 411.304 391.6 410.492C391.6 409.811 391.796 409.242 392.188 408.784C392.58 408.327 393.14 407.893 393.868 407.482C393.457 406.969 393.168 406.554 393 406.236C392.832 405.91 392.748 405.56 392.748 405.186C392.748 404.533 392.972 404.015 393.42 403.632C393.868 403.25 394.428 403.058 395.1 403.058C395.762 403.058 396.308 403.264 396.738 403.674C397.176 404.076 397.396 404.589 397.396 405.214C397.396 405.737 397.237 406.19 396.92 406.572C396.612 406.955 396.164 407.333 395.576 407.706L397.41 409.904C397.634 409.419 397.764 408.924 397.802 408.42H398.964C398.926 409.27 398.679 410.086 398.222 410.87L400.028 413.026H398.446L397.48 411.864C396.64 412.751 395.618 413.194 394.414 413.194ZM395.058 404.136C394.712 404.136 394.432 404.234 394.218 404.43C394.012 404.617 393.91 404.869 393.91 405.186C393.91 405.345 393.956 405.522 394.05 405.718C394.152 405.914 394.26 406.092 394.372 406.25C394.493 406.4 394.67 406.614 394.904 406.894C395.79 406.381 396.234 405.849 396.234 405.298C396.234 404.944 396.122 404.664 395.898 404.458C395.674 404.244 395.394 404.136 395.058 404.136ZM394.61 412.06C395.394 412.06 396.103 411.696 396.738 410.968L394.54 408.308C393.97 408.663 393.546 409.004 393.266 409.33C392.986 409.648 392.846 410.012 392.846 410.422C392.846 410.908 393.009 411.304 393.336 411.612C393.662 411.911 394.087 412.06 394.61 412.06ZM25.372 437.026V427.226H26.59V435.85H31.406V437.026H25.372ZM33.1923 437.026V427.226H39.0163V428.374H34.4103V431.384H37.4483V432.532H34.4103V435.864H39.3243V437.026H33.1923ZM44.1648 437.026L40.8048 427.226H42.1068L44.4448 434.31C44.6128 434.88 44.7108 435.211 44.7388 435.304C44.7761 435.127 44.8695 434.796 45.0188 434.31L47.2868 427.226H48.5888L45.2428 437.026H44.1648ZM50.3915 437.026V427.226H56.2155V428.374H51.6095V431.384H54.6475V432.532H51.6095V435.864H56.5235V437.026H50.3915ZM58.7724 437.026V427.226H59.9904V435.85H64.8064V437.026H58.7724ZM69.4487 437.194C68.618 437.194 67.8947 436.994 67.2787 436.592C66.672 436.182 66.2567 435.654 66.0327 435.01L67.1807 434.59C67.386 435.038 67.6894 435.393 68.0907 435.654C68.492 435.916 68.954 436.046 69.4767 436.046C70.074 436.046 70.5454 435.906 70.8907 435.626C71.236 435.337 71.4087 434.926 71.4087 434.394C71.4087 433.881 71.2127 433.47 70.8207 433.162C70.438 432.854 69.8967 432.574 69.1967 432.322C68.8607 432.201 68.5807 432.094 68.3567 432C68.142 431.907 67.89 431.776 67.6007 431.608C67.3207 431.431 67.0967 431.254 66.9287 431.076C66.7607 430.89 66.616 430.661 66.4947 430.39C66.3827 430.11 66.3267 429.807 66.3267 429.48C66.3267 428.799 66.5974 428.225 67.1387 427.758C67.68 427.292 68.4127 427.058 69.3367 427.058C70.0927 427.058 70.7227 427.222 71.2267 427.548C71.7307 427.866 72.0574 428.286 72.2067 428.808L71.0867 429.186C70.956 428.897 70.732 428.659 70.4147 428.472C70.0974 428.286 69.71 428.192 69.2527 428.192C68.7394 428.192 68.3334 428.309 68.0347 428.542C67.736 428.766 67.5867 429.079 67.5867 429.48C67.5867 429.695 67.638 429.891 67.7407 430.068C67.8527 430.246 68.0207 430.404 68.2447 430.544C68.478 430.684 68.6927 430.796 68.8887 430.88C69.0847 430.964 69.3554 431.072 69.7007 431.202C70.13 431.361 70.4847 431.515 70.7647 431.664C71.0447 431.804 71.348 431.996 71.6747 432.238C72.0014 432.481 72.2487 432.784 72.4167 433.148C72.5847 433.503 72.6687 433.909 72.6687 434.366C72.6687 435.244 72.37 435.934 71.7727 436.438C71.1754 436.942 70.4007 437.194 69.4487 437.194ZM75.8556 436.928C75.6689 437.115 75.4402 437.208 75.1696 437.208C74.8989 437.208 74.6702 437.115 74.4836 436.928C74.2969 436.732 74.2036 436.508 74.2036 436.256C74.2036 435.995 74.2969 435.771 74.4836 435.584C74.6702 435.388 74.8989 435.29 75.1696 435.29C75.4402 435.29 75.6689 435.388 75.8556 435.584C76.0516 435.78 76.1496 436.004 76.1496 436.256C76.1496 436.508 76.0516 436.732 75.8556 436.928Z" fill="white"/>
<defs>
<clipPath id="clip0_3396_9008">
<rect y="0.0263672" width="464" height="350" rx="8" fill="white"/>
</clipPath>
</defs>
</svg>
