<svg width="464" height="493" viewBox="0 0 464 493" fill="none" xmlns="http://www.w3.org/2000/svg">
<g clip-path="url(#clip0_3396_9046)">
<rect y="0.0263672" width="464" height="334" rx="8" fill="white"/>
<rect width="464" height="64" transform="translate(0 0.0263672)" fill="#60034C" fill-opacity="0.1"/>
<path d="M17.2 39.0264V25.0264H22.2C22.96 25.0264 23.6467 25.2164 24.26 25.5964C24.88 25.9764 25.37 26.4864 25.73 27.1264C26.09 27.7664 26.27 28.4697 26.27 29.2364C26.27 30.023 26.0833 30.7364 25.71 31.3764C25.3433 32.0097 24.85 32.5164 24.23 32.8964C23.61 33.2697 22.9333 33.4564 22.2 33.4564H19.64V39.0264H17.2ZM19.64 31.0164H21.94C22.2867 31.0164 22.6033 30.9297 22.89 30.7564C23.1767 30.583 23.4033 30.3497 23.57 30.0564C23.7433 29.763 23.83 29.4364 23.83 29.0764C23.83 28.7097 23.7433 28.3797 23.57 28.0864C23.4033 27.793 23.1767 27.5597 22.89 27.3864C22.6033 27.213 22.2867 27.1264 21.94 27.1264H19.64V31.0164ZM28.0984 39.0264V25.0264H33.4684C34.2284 25.0264 34.9151 25.2164 35.5284 25.5964C36.1418 25.9764 36.6284 26.4864 36.9884 27.1264C37.3484 27.7597 37.5284 28.463 37.5284 29.2364C37.5284 29.8697 37.4118 30.453 37.1784 30.9864C36.9518 31.513 36.6318 31.9697 36.2184 32.3564C35.8118 32.743 35.3418 33.0364 34.8084 33.2364L38.1584 39.0264H35.3484L32.1084 33.4564H30.5384V39.0264H28.0984ZM30.5384 31.0164H33.1884C33.5351 31.0164 33.8518 30.9297 34.1384 30.7564C34.4251 30.583 34.6551 30.3497 34.8284 30.0564C35.0018 29.763 35.0884 29.4364 35.0884 29.0764C35.0884 28.7097 35.0018 28.3797 34.8284 28.0864C34.6551 27.793 34.4251 27.5597 34.1384 27.3864C33.8518 27.213 33.5351 27.1264 33.1884 27.1264H30.5384V31.0164ZM46.1023 39.2864C45.1557 39.2864 44.2657 39.0997 43.4323 38.7264C42.599 38.3464 41.8657 37.823 41.2323 37.1564C40.599 36.4897 40.1023 35.7197 39.7423 34.8464C39.3823 33.9664 39.2023 33.0264 39.2023 32.0264C39.2023 31.0264 39.3823 30.0897 39.7423 29.2164C40.1023 28.3364 40.599 27.563 41.2323 26.8964C41.8657 26.2297 42.599 25.7097 43.4323 25.3364C44.2657 24.9564 45.1557 24.7664 46.1023 24.7664C47.0557 24.7664 47.949 24.9564 48.7823 25.3364C49.6157 25.7097 50.349 26.2297 50.9823 26.8964C51.6157 27.563 52.109 28.3364 52.4623 29.2164C52.8223 30.0897 53.0023 31.0264 53.0023 32.0264C53.0023 33.0264 52.8223 33.9664 52.4623 34.8464C52.109 35.7197 51.6157 36.4897 50.9823 37.1564C50.349 37.823 49.6157 38.3464 48.7823 38.7264C47.949 39.0997 47.0557 39.2864 46.1023 39.2864ZM46.1023 36.8464C46.7157 36.8464 47.2923 36.7197 47.8323 36.4664C48.3723 36.213 48.8457 35.8664 49.2523 35.4264C49.6657 34.9797 49.9857 34.4664 50.2123 33.8864C50.4457 33.3064 50.5623 32.6864 50.5623 32.0264C50.5623 31.3664 50.4457 30.7464 50.2123 30.1664C49.979 29.5797 49.6557 29.0664 49.2423 28.6264C48.8357 28.1864 48.3623 27.8397 47.8223 27.5864C47.289 27.333 46.7157 27.2064 46.1023 27.2064C45.489 27.2064 44.9123 27.333 44.3723 27.5864C43.8323 27.8397 43.3557 28.1897 42.9423 28.6364C42.5357 29.0764 42.2157 29.5864 41.9823 30.1664C41.7557 30.7464 41.6423 31.3664 41.6423 32.0264C41.6423 32.693 41.759 33.3164 41.9923 33.8964C42.2257 34.4764 42.5457 34.9897 42.9523 35.4364C43.3657 35.8764 43.839 36.223 44.3723 36.4764C44.9123 36.723 45.489 36.8464 46.1023 36.8464ZM64.7922 25.0264V27.4664H60.5122V39.0264H58.0722V27.4664H53.7922V25.0264H64.7922ZM66.7898 39.0264V25.0264H75.5698V27.4664H69.2298V30.3064H74.2598V32.7464H69.2298V36.5864H75.5698V39.0264H66.7898ZM84.1878 39.2864C83.2411 39.2864 82.3511 39.0997 81.5178 38.7264C80.6845 38.3464 79.9511 37.823 79.3178 37.1564C78.6911 36.4897 78.1978 35.7197 77.8378 34.8464C77.4845 33.9664 77.3078 33.0264 77.3078 32.0264C77.3078 31.0197 77.4845 30.0797 77.8378 29.2064C78.1978 28.3264 78.6911 27.5564 79.3178 26.8964C79.9511 26.2297 80.6845 25.7097 81.5178 25.3364C82.3511 24.9564 83.2411 24.7664 84.1878 24.7664C85.3211 24.7664 86.3645 25.0297 87.3178 25.5564C88.2711 26.0764 89.0611 26.773 89.6878 27.6464L87.5078 28.8164C87.1145 28.3297 86.6245 27.9397 86.0378 27.6464C85.4578 27.353 84.8411 27.2064 84.1878 27.2064C83.5745 27.2064 82.9978 27.333 82.4578 27.5864C81.9178 27.833 81.4445 28.1797 81.0378 28.6264C80.6311 29.0664 80.3145 29.5797 80.0878 30.1664C79.8611 30.7464 79.7478 31.3664 79.7478 32.0264C79.7478 32.693 79.8611 33.3164 80.0878 33.8964C80.3211 34.4764 80.6411 34.9897 81.0478 35.4364C81.4545 35.8764 81.9245 36.223 82.4578 36.4764C82.9978 36.723 83.5745 36.8464 84.1878 36.8464C84.8545 36.8464 85.4745 36.6997 86.0478 36.4064C86.6278 36.1064 87.1145 35.713 87.5078 35.2264L89.6878 36.4064C89.0611 37.273 88.2711 37.9697 87.3178 38.4964C86.3645 39.023 85.3211 39.2864 84.1878 39.2864ZM102.195 25.0264V27.4664H97.9145V39.0264H95.4745V27.4664H91.1945V25.0264H102.195ZM104.492 39.0264V25.0264H106.932V39.0264H104.492ZM116.141 39.2864C115.195 39.2864 114.305 39.0997 113.471 38.7264C112.638 38.3464 111.905 37.823 111.271 37.1564C110.638 36.4897 110.141 35.7197 109.781 34.8464C109.421 33.9664 109.241 33.0264 109.241 32.0264C109.241 31.0264 109.421 30.0897 109.781 29.2164C110.141 28.3364 110.638 27.563 111.271 26.8964C111.905 26.2297 112.638 25.7097 113.471 25.3364C114.305 24.9564 115.195 24.7664 116.141 24.7664C117.095 24.7664 117.988 24.9564 118.821 25.3364C119.655 25.7097 120.388 26.2297 121.021 26.8964C121.655 27.563 122.148 28.3364 122.501 29.2164C122.861 30.0897 123.041 31.0264 123.041 32.0264C123.041 33.0264 122.861 33.9664 122.501 34.8464C122.148 35.7197 121.655 36.4897 121.021 37.1564C120.388 37.823 119.655 38.3464 118.821 38.7264C117.988 39.0997 117.095 39.2864 116.141 39.2864ZM116.141 36.8464C116.755 36.8464 117.331 36.7197 117.871 36.4664C118.411 36.213 118.885 35.8664 119.291 35.4264C119.705 34.9797 120.025 34.4664 120.251 33.8864C120.485 33.3064 120.601 32.6864 120.601 32.0264C120.601 31.3664 120.485 30.7464 120.251 30.1664C120.018 29.5797 119.695 29.0664 119.281 28.6264C118.875 28.1864 118.401 27.8397 117.861 27.5864C117.328 27.333 116.755 27.2064 116.141 27.2064C115.528 27.2064 114.951 27.333 114.411 27.5864C113.871 27.8397 113.395 28.1897 112.981 28.6364C112.575 29.0764 112.255 29.5864 112.021 30.1664C111.795 30.7464 111.681 31.3664 111.681 32.0264C111.681 32.693 111.798 33.3164 112.031 33.8964C112.265 34.4764 112.585 34.9897 112.991 35.4364C113.405 35.8764 113.878 36.223 114.411 36.4764C114.951 36.723 115.528 36.8464 116.141 36.8464ZM124.856 39.0264V25.0264H127.496L133.406 34.6164V25.0264H135.846V39.0264H133.216L127.296 29.4364V39.0264H124.856ZM147.739 25.0264H150.549L155.639 39.0264H153.049L152.149 36.5464H146.149L145.249 39.0264H142.659L147.739 25.0264ZM147.039 34.1064H151.249L149.139 28.3364L147.039 34.1064ZM163.055 39.2864C162.082 39.2864 161.175 39.0964 160.335 38.7164C159.502 38.3364 158.775 37.813 158.155 37.1464C157.535 36.473 157.048 35.6997 156.695 34.8264C156.348 33.9464 156.175 33.0064 156.175 32.0064C156.175 30.953 156.362 29.9864 156.735 29.1064C157.115 28.2264 157.632 27.463 158.285 26.8164C158.938 26.1697 159.678 25.6697 160.505 25.3164C161.338 24.963 162.205 24.7864 163.105 24.7864C164.112 24.7864 165.088 25.023 166.035 25.4964C166.988 25.963 167.828 26.6864 168.555 27.6664L166.375 28.8364C165.928 28.2897 165.415 27.883 164.835 27.6164C164.262 27.343 163.675 27.2064 163.075 27.2064C162.488 27.2064 161.925 27.3264 161.385 27.5664C160.852 27.8064 160.375 28.1464 159.955 28.5864C159.542 29.0197 159.215 29.533 158.975 30.1264C158.735 30.713 158.615 31.3564 158.615 32.0564C158.615 32.7164 158.732 33.3397 158.965 33.9264C159.198 34.5064 159.518 35.0164 159.925 35.4564C160.338 35.8897 160.815 36.2297 161.355 36.4764C161.895 36.723 162.475 36.8464 163.095 36.8464C163.508 36.8464 163.912 36.783 164.305 36.6564C164.705 36.523 165.078 36.333 165.425 36.0864C165.778 35.8397 166.092 35.5397 166.365 35.1864C166.645 34.833 166.878 34.433 167.065 33.9864H164.515V31.8564H169.935C169.962 32.8764 169.802 33.833 169.455 34.7264C169.108 35.6197 168.618 36.4097 167.985 37.0964C167.352 37.783 166.615 38.3197 165.775 38.7064C164.935 39.093 164.028 39.2864 163.055 39.2864ZM171.77 39.0264V25.0264H177.14C177.9 25.0264 178.587 25.2164 179.2 25.5964C179.814 25.9764 180.3 26.4864 180.66 27.1264C181.02 27.7597 181.2 28.463 181.2 29.2364C181.2 29.8697 181.084 30.453 180.85 30.9864C180.624 31.513 180.304 31.9697 179.89 32.3564C179.484 32.743 179.014 33.0364 178.48 33.2364L181.83 39.0264H179.02L175.78 33.4564H174.21V39.0264H171.77ZM174.21 31.0164H176.86C177.207 31.0164 177.524 30.9297 177.81 30.7564C178.097 30.583 178.327 30.3497 178.5 30.0564C178.674 29.763 178.76 29.4364 178.76 29.0764C178.76 28.7097 178.674 28.3797 178.5 28.0864C178.327 27.793 178.097 27.5597 177.81 27.3864C177.524 27.213 177.207 27.1264 176.86 27.1264H174.21V31.0164ZM183.743 39.0264V25.0264H192.523V27.4664H186.183V30.3064H191.213V32.7464H186.183V36.5864H192.523V39.0264H183.743ZM194.778 39.0264V25.0264H203.558V27.4664H197.218V30.3064H202.248V32.7464H197.218V36.5864H203.558V39.0264H194.778ZM205.755 39.0264L208.475 25.0264H210.495L213.905 33.9964L217.315 25.0264H219.335L222.055 39.0264H219.565L217.885 30.3664L214.735 38.7064H213.065L209.915 30.3664L208.245 39.0264H205.755ZM224.075 39.0264V25.0264H232.855V27.4664H226.515V30.3064H231.545V32.7464H226.515V36.5864H232.855V39.0264H224.075ZM235.11 39.0264V25.0264H237.75L243.66 34.6164V25.0264H246.1V39.0264H243.47L237.55 29.4364V39.0264H235.11ZM259.109 25.0264V27.4664H254.829V39.0264H252.389V27.4664H248.109V25.0264H259.109Z" fill="#60034C"/>
<path d="M25.36 104.026V92.8264H30.016C31.3067 92.8264 32.256 93.1624 32.864 93.8344C33.472 94.5064 33.776 95.3277 33.776 96.2984C33.776 97.2157 33.456 98.0264 32.816 98.7304C32.1867 99.4344 31.2533 99.7864 30.016 99.7864H27.28V104.026H25.36ZM30.112 97.9624C30.6773 97.9624 31.0987 97.797 31.376 97.4664C31.6533 97.1357 31.792 96.7464 31.792 96.2984C31.792 95.8717 31.6587 95.493 31.392 95.1624C31.136 94.821 30.7093 94.6504 30.112 94.6504H27.28V97.9624H30.112ZM35.3719 104.026V95.8504H37.2439V96.6984C37.5745 96.005 38.1345 95.6584 38.9239 95.6584C39.4999 95.6584 40.0065 95.845 40.4439 96.2184L40.1719 97.9304C39.7665 97.6424 39.3025 97.4984 38.7799 97.4984C38.3532 97.4984 37.9905 97.6477 37.6919 97.9464C37.3932 98.245 37.2439 98.7464 37.2439 99.4504V104.026H35.3719ZM45.1221 104.218C43.9701 104.218 43.0581 103.84 42.3861 103.082C41.7141 102.325 41.3781 101.28 41.3781 99.9464C41.3781 98.613 41.7141 97.5677 42.3861 96.8104C43.0581 96.0424 43.9701 95.6584 45.1221 95.6584C46.2741 95.6584 47.1861 96.0424 47.8581 96.8104C48.5408 97.5677 48.8821 98.613 48.8821 99.9464C48.8821 101.28 48.5461 102.325 47.8741 103.082C47.2021 103.84 46.2848 104.218 45.1221 104.218ZM45.1221 102.426C45.7088 102.426 46.1675 102.208 46.4981 101.77C46.8395 101.333 47.0101 100.725 47.0101 99.9464C47.0101 99.1677 46.8395 98.5544 46.4981 98.1064C46.1675 97.6584 45.7088 97.4344 45.1221 97.4344C44.5568 97.4344 44.1035 97.6637 43.7621 98.1224C43.4208 98.5704 43.2501 99.1784 43.2501 99.9464C43.2501 100.714 43.4155 101.322 43.7461 101.77C44.0875 102.208 44.5461 102.426 45.1221 102.426ZM53.2406 104.218C51.9713 104.218 51.3366 103.52 51.3366 102.122V97.4824H50.1206V95.8504H51.3366V93.3704L53.2086 92.4744V95.8504H55.0966V97.4824H53.2086V101.754C53.2086 102.277 53.438 102.538 53.8966 102.538C54.3126 102.538 54.7393 102.416 55.1766 102.17L54.9526 103.85C54.4833 104.096 53.9126 104.218 53.2406 104.218ZM60.2635 104.218C59.1008 104.218 58.1782 103.84 57.4955 103.082C56.8235 102.314 56.4875 101.264 56.4875 99.9304C56.4875 98.6077 56.8288 97.5677 57.5115 96.8104C58.1942 96.0424 59.1115 95.6584 60.2635 95.6584C61.3088 95.6584 62.1622 95.9837 62.8235 96.6344C63.4955 97.285 63.8315 98.2397 63.8315 99.4984C63.8315 99.9357 63.8102 100.32 63.7675 100.65H58.3435C58.3755 101.226 58.5728 101.69 58.9355 102.042C59.3088 102.394 59.7515 102.57 60.2635 102.57C60.9888 102.57 61.5648 102.288 61.9915 101.722L63.1755 102.938C62.4608 103.792 61.4902 104.218 60.2635 104.218ZM58.3595 99.0984H61.9755C61.9328 98.5117 61.7515 98.069 61.4315 97.7704C61.1115 97.461 60.7222 97.3064 60.2635 97.3064C59.7302 97.3064 59.2875 97.4557 58.9355 97.7544C58.5942 98.0424 58.4022 98.4904 58.3595 99.0984ZM68.9949 104.218C67.8749 104.218 66.9842 103.84 66.3229 103.082C65.6722 102.325 65.3469 101.28 65.3469 99.9464C65.3469 98.613 65.6722 97.5677 66.3229 96.8104C66.9842 96.0424 67.8749 95.6584 68.9949 95.6584C70.6802 95.6584 71.7629 96.4104 72.2429 97.9144L70.4669 98.5064C70.2002 97.8024 69.7309 97.4504 69.0589 97.4504C68.4935 97.4504 68.0509 97.6744 67.7309 98.1224C67.4109 98.5704 67.2509 99.1784 67.2509 99.9464C67.2509 100.704 67.4055 101.306 67.7149 101.754C68.0349 102.192 68.4615 102.41 68.9949 102.41C69.7522 102.41 70.2482 102.016 70.4829 101.226L72.2749 101.77C71.8055 103.402 70.7122 104.218 68.9949 104.218ZM76.5531 104.218C75.2838 104.218 74.6491 103.52 74.6491 102.122V97.4824H73.4331V95.8504H74.6491V93.3704L76.5211 92.4744V95.8504H78.4091V97.4824H76.5211V101.754C76.5211 102.277 76.7505 102.538 77.2091 102.538C77.6251 102.538 78.0518 102.416 78.4891 102.17L78.2651 103.85C77.7958 104.096 77.2251 104.218 76.5531 104.218ZM82.069 94.4104C81.8557 94.6237 81.5943 94.7304 81.285 94.7304C80.9757 94.7304 80.709 94.6237 80.485 94.4104C80.2717 94.1864 80.165 93.9197 80.165 93.6104C80.165 93.301 80.2717 93.0397 80.485 92.8264C80.709 92.613 80.9757 92.5064 81.285 92.5064C81.5943 92.5064 81.8557 92.613 82.069 92.8264C82.2823 93.0397 82.389 93.301 82.389 93.6104C82.389 93.9197 82.2823 94.1864 82.069 94.4104ZM80.341 104.026V95.8504H82.213V104.026H80.341ZM87.9659 104.218C86.8139 104.218 85.9019 103.84 85.2299 103.082C84.5579 102.325 84.2219 101.28 84.2219 99.9464C84.2219 98.613 84.5579 97.5677 85.2299 96.8104C85.9019 96.0424 86.8139 95.6584 87.9659 95.6584C89.1179 95.6584 90.0299 96.0424 90.7019 96.8104C91.3845 97.5677 91.7259 98.613 91.7259 99.9464C91.7259 101.28 91.3899 102.325 90.7179 103.082C90.0459 103.84 89.1285 104.218 87.9659 104.218ZM87.9659 102.426C88.5525 102.426 89.0112 102.208 89.3419 101.77C89.6832 101.333 89.8539 100.725 89.8539 99.9464C89.8539 99.1677 89.6832 98.5544 89.3419 98.1064C89.0112 97.6584 88.5525 97.4344 87.9659 97.4344C87.4005 97.4344 86.9472 97.6637 86.6059 98.1224C86.2645 98.5704 86.0939 99.1784 86.0939 99.9464C86.0939 100.714 86.2592 101.322 86.5899 101.77C86.9312 102.208 87.3899 102.426 87.9659 102.426ZM98.7873 104.026V99.3384C98.7873 98.069 98.2806 97.4344 97.2673 97.4344C96.1579 97.4344 95.6033 98.0584 95.6033 99.3064V104.026H93.7313V95.8504H95.6033V96.6184C96.1366 95.9784 96.8566 95.6584 97.7633 95.6584C98.6166 95.6584 99.3099 95.925 99.8433 96.4584C100.387 96.9917 100.659 97.8397 100.659 99.0024V104.026H98.7873ZM107.063 104.026V92.8264H111.719C113.01 92.8264 113.959 93.1624 114.567 93.8344C115.175 94.5064 115.479 95.3277 115.479 96.2984C115.479 97.2157 115.159 98.0264 114.519 98.7304C113.89 99.4344 112.956 99.7864 111.719 99.7864H108.983V104.026H107.063ZM111.815 97.9624C112.38 97.9624 112.802 97.797 113.079 97.4664C113.356 97.1357 113.495 96.7464 113.495 96.2984C113.495 95.8717 113.362 95.493 113.095 95.1624C112.839 94.821 112.412 94.6504 111.815 94.6504H108.983V97.9624H111.815ZM117.075 104.026V95.8504H118.947V96.6984C119.278 96.005 119.838 95.6584 120.627 95.6584C121.203 95.6584 121.71 95.845 122.147 96.2184L121.875 97.9304C121.47 97.6424 121.006 97.4984 120.483 97.4984C120.056 97.4984 119.694 97.6477 119.395 97.9464C119.096 98.245 118.947 98.7464 118.947 99.4504V104.026H117.075ZM125.272 94.4104C125.059 94.6237 124.797 94.7304 124.488 94.7304C124.179 94.7304 123.912 94.6237 123.688 94.4104C123.475 94.1864 123.368 93.9197 123.368 93.6104C123.368 93.301 123.475 93.0397 123.688 92.8264C123.912 92.613 124.179 92.5064 124.488 92.5064C124.797 92.5064 125.059 92.613 125.272 92.8264C125.485 93.0397 125.592 93.301 125.592 93.6104C125.592 93.9197 125.485 94.1864 125.272 94.4104ZM123.544 104.026V95.8504H125.416V104.026H123.544ZM131.073 104.218C129.953 104.218 129.062 103.84 128.401 103.082C127.75 102.325 127.425 101.28 127.425 99.9464C127.425 98.613 127.75 97.5677 128.401 96.8104C129.062 96.0424 129.953 95.6584 131.073 95.6584C132.758 95.6584 133.841 96.4104 134.321 97.9144L132.545 98.5064C132.278 97.8024 131.809 97.4504 131.137 97.4504C130.572 97.4504 130.129 97.6744 129.809 98.1224C129.489 98.5704 129.329 99.1784 129.329 99.9464C129.329 100.704 129.484 101.306 129.793 101.754C130.113 102.192 130.54 102.41 131.073 102.41C131.83 102.41 132.326 102.016 132.561 101.226L134.353 101.77C133.884 103.402 132.79 104.218 131.073 104.218ZM139.685 104.218C138.523 104.218 137.6 103.84 136.917 103.082C136.245 102.314 135.909 101.264 135.909 99.9304C135.909 98.6077 136.251 97.5677 136.933 96.8104C137.616 96.0424 138.533 95.6584 139.685 95.6584C140.731 95.6584 141.584 95.9837 142.245 96.6344C142.917 97.285 143.253 98.2397 143.253 99.4984C143.253 99.9357 143.232 100.32 143.189 100.65H137.765C137.797 101.226 137.995 101.69 138.357 102.042C138.731 102.394 139.173 102.57 139.685 102.57C140.411 102.57 140.987 102.288 141.413 101.722L142.597 102.938C141.883 103.792 140.912 104.218 139.685 104.218ZM137.781 99.0984H141.397C141.355 98.5117 141.173 98.069 140.853 97.7704C140.533 97.461 140.144 97.3064 139.685 97.3064C139.152 97.3064 138.709 97.4557 138.357 97.7544C138.016 98.0424 137.824 98.4904 137.781 99.0984Z" fill="#242424"/>
<rect x="24" y="114.026" width="280" height="40" rx="4" fill="#EFEFEF"/>
<path d="M43.792 141.546V140.106C43.0667 139.946 42.448 139.626 41.936 139.146C41.424 138.666 41.0453 138.064 40.8 137.338L42.576 136.682C42.8 137.205 43.1093 137.621 43.504 137.93C43.8987 138.24 44.3467 138.394 44.848 138.394C45.3707 138.394 45.7867 138.261 46.096 137.994C46.4053 137.717 46.56 137.333 46.56 136.842C46.56 136.586 46.5067 136.362 46.4 136.17C46.2933 135.968 46.112 135.786 45.856 135.626C45.6107 135.466 45.3867 135.344 45.184 135.258C44.992 135.173 44.704 135.056 44.32 134.906C43.9253 134.757 43.6267 134.64 43.424 134.554C43.2213 134.458 42.9493 134.314 42.608 134.122C42.2773 133.92 42.0267 133.717 41.856 133.514C41.696 133.312 41.5467 133.045 41.408 132.714C41.28 132.384 41.216 132.016 41.216 131.61C41.216 130.896 41.44 130.277 41.888 129.754C42.3467 129.221 42.9813 128.874 43.792 128.714V127.434H45.664V128.73C46.2933 128.88 46.8053 129.157 47.2 129.562C47.6053 129.957 47.8933 130.448 48.064 131.034L46.336 131.61C46.0267 130.842 45.44 130.458 44.576 130.458C44.1387 130.458 43.7973 130.56 43.552 130.762C43.3067 130.965 43.184 131.248 43.184 131.61C43.184 131.77 43.2213 131.92 43.296 132.058C43.3707 132.197 43.456 132.314 43.552 132.41C43.6587 132.496 43.8133 132.592 44.016 132.698C44.2293 132.805 44.4053 132.885 44.544 132.938C44.6827 132.992 44.896 133.072 45.184 133.178C45.536 133.317 45.7973 133.424 45.968 133.498C46.1387 133.573 46.384 133.69 46.704 133.85C47.024 134.01 47.2693 134.176 47.44 134.346C47.6107 134.506 47.792 134.709 47.984 134.954C48.176 135.189 48.3147 135.466 48.4 135.786C48.4853 136.096 48.528 136.442 48.528 136.826C48.528 137.733 48.2613 138.474 47.728 139.05C47.1947 139.626 46.5067 139.989 45.664 140.138V141.546H43.792ZM51.7884 140.026V131.53H50.0124V130.058C51.1964 130.058 51.927 129.648 52.2044 128.826H53.7084V140.026H51.7884ZM56.608 141.754C56.8 141.584 57.0027 141.344 57.216 141.034C57.4293 140.736 57.5627 140.453 57.616 140.186C57.3387 140.122 57.104 139.989 56.912 139.786C56.72 139.573 56.624 139.312 56.624 139.002C56.624 138.629 56.7467 138.325 56.992 138.09C57.248 137.845 57.5467 137.722 57.888 137.722C58.2613 137.722 58.5707 137.856 58.816 138.122C59.072 138.378 59.2 138.746 59.2 139.226C59.2 139.824 59.024 140.4 58.672 140.954C58.32 141.52 57.8827 141.962 57.36 142.282L56.608 141.754ZM67.6056 139.242C66.8803 139.893 65.9203 140.218 64.7256 140.218C63.531 140.218 62.571 139.893 61.8456 139.242C61.131 138.592 60.7736 137.744 60.7736 136.698C60.7736 135.418 61.3976 134.485 62.6456 133.898C61.707 133.376 61.2376 132.602 61.2376 131.578C61.2376 130.714 61.5523 130.01 62.1816 129.466C62.8216 128.912 63.6696 128.634 64.7256 128.634C65.7816 128.634 66.6296 128.912 67.2696 129.466C67.9096 130.01 68.2296 130.714 68.2296 131.578C68.2296 132.592 67.7603 133.36 66.8216 133.882C67.3976 134.16 67.851 134.538 68.1816 135.018C68.523 135.498 68.6936 136.058 68.6936 136.698C68.6936 137.744 68.331 138.592 67.6056 139.242ZM63.5896 132.65C63.8776 132.906 64.2563 133.034 64.7256 133.034C65.195 133.034 65.5736 132.906 65.8616 132.65C66.1603 132.394 66.3096 132.074 66.3096 131.69C66.3096 131.306 66.1603 130.997 65.8616 130.762C65.5736 130.517 65.195 130.394 64.7256 130.394C64.2563 130.394 63.8776 130.517 63.5896 130.762C63.3016 130.997 63.1576 131.306 63.1576 131.69C63.1576 132.074 63.3016 132.394 63.5896 132.65ZM63.2856 137.946C63.659 138.277 64.139 138.442 64.7256 138.442C65.3123 138.442 65.7976 138.277 66.1816 137.946C66.5656 137.605 66.7576 137.173 66.7576 136.65C66.7576 136.138 66.5603 135.706 66.1656 135.354C65.7816 135.002 65.3016 134.826 64.7256 134.826C64.139 134.826 63.659 135.002 63.2856 135.354C62.9123 135.696 62.7256 136.128 62.7256 136.65C62.7256 137.184 62.9123 137.616 63.2856 137.946ZM74.0871 140.218C72.6258 140.218 71.4738 139.866 70.6311 139.162L71.7191 137.658C72.4551 138.149 73.2445 138.394 74.0871 138.394C74.7911 138.394 75.3565 138.202 75.7831 137.818C76.2205 137.434 76.4391 136.922 76.4391 136.282C76.4391 135.696 76.2738 135.242 75.9431 134.922C75.6231 134.602 75.1805 134.442 74.6151 134.442C73.9218 134.442 73.3351 134.698 72.8551 135.21L70.9511 134.41L71.2871 128.826H77.6711V130.666H73.0631L72.8871 133.098C73.4311 132.778 74.0605 132.618 74.7751 132.618C75.9271 132.618 76.8125 132.97 77.4311 133.674C78.0605 134.378 78.3751 135.242 78.3751 136.266C78.3751 137.461 77.9751 138.421 77.1751 139.146C76.3751 139.861 75.3458 140.218 74.0871 140.218ZM84.5914 140.218C83.9834 140.218 83.4394 140.106 82.9594 139.882C82.4794 139.648 82.09 139.349 81.7914 138.986C81.4927 138.613 81.2474 138.17 81.0554 137.658C80.8634 137.136 80.7247 136.613 80.6394 136.09C80.5647 135.568 80.5274 135.013 80.5274 134.426C80.5274 133.861 80.5647 133.317 80.6394 132.794C80.714 132.272 80.8474 131.754 81.0394 131.242C81.242 130.72 81.4874 130.272 81.7754 129.898C82.074 129.525 82.4634 129.221 82.9434 128.986C83.434 128.752 83.9834 128.634 84.5914 128.634C85.3487 128.634 85.9994 128.805 86.5434 129.146C87.098 129.477 87.5194 129.93 87.8074 130.506C88.106 131.082 88.3194 131.696 88.4474 132.346C88.586 132.986 88.6554 133.68 88.6554 134.426C88.6554 135.152 88.5914 135.834 88.4634 136.474C88.3354 137.104 88.122 137.712 87.8234 138.298C87.5354 138.885 87.114 139.354 86.5594 139.706C86.0047 140.048 85.3487 140.218 84.5914 140.218ZM84.5914 138.394C84.9967 138.394 85.3434 138.282 85.6314 138.058C85.9194 137.824 86.138 137.509 86.2874 137.114C86.4367 136.72 86.5434 136.304 86.6074 135.866C86.682 135.418 86.7194 134.938 86.7194 134.426C86.7194 133.893 86.682 133.408 86.6074 132.97C86.5434 132.522 86.4314 132.106 86.2714 131.722C86.122 131.328 85.9034 131.018 85.6154 130.794C85.3274 130.57 84.986 130.458 84.5914 130.458C84.186 130.458 83.8394 130.57 83.5514 130.794C83.2634 131.018 83.0447 131.333 82.8954 131.738C82.746 132.133 82.6394 132.549 82.5754 132.986C82.5114 133.424 82.4794 133.904 82.4794 134.426C82.4794 134.949 82.5114 135.434 82.5754 135.882C82.65 136.33 82.762 136.752 82.9114 137.146C83.0607 137.53 83.2794 137.834 83.5674 138.058C83.8554 138.282 84.1967 138.394 84.5914 138.394ZM92.5961 139.866C92.3508 140.101 92.0468 140.218 91.6841 140.218C91.3215 140.218 91.0175 140.101 90.7721 139.866C90.5268 139.621 90.4041 139.322 90.4041 138.97C90.4041 138.618 90.5268 138.325 90.7721 138.09C91.0175 137.845 91.3215 137.722 91.6841 137.722C92.0468 137.722 92.3508 137.845 92.5961 138.09C92.8415 138.336 92.9641 138.629 92.9641 138.97C92.9641 139.322 92.8415 139.621 92.5961 139.866ZM99.7069 140.026V137.626H93.7549V136.41L99.4829 128.826H101.595V135.866H103.003V137.626H101.595V140.026H99.7069ZM99.7069 135.866V131.258L96.2669 135.866H99.7069ZM108.641 140.218C107.692 140.218 106.876 139.989 106.194 139.53C105.522 139.061 105.02 138.421 104.69 137.61L106.45 136.906C106.919 137.898 107.66 138.394 108.674 138.394C109.239 138.394 109.703 138.256 110.066 137.978C110.428 137.69 110.61 137.285 110.61 136.762C110.61 136.282 110.45 135.888 110.13 135.578C109.81 135.269 109.324 135.114 108.674 135.114H107.698V133.29H108.674C109.132 133.29 109.5 133.162 109.778 132.906C110.066 132.65 110.21 132.314 110.21 131.898C110.21 131.461 110.071 131.114 109.794 130.858C109.527 130.592 109.143 130.458 108.641 130.458C107.842 130.458 107.239 130.837 106.834 131.594L105.074 130.922C105.383 130.218 105.847 129.664 106.466 129.258C107.084 128.842 107.82 128.634 108.674 128.634C109.687 128.634 110.519 128.933 111.17 129.53C111.831 130.117 112.161 130.848 112.161 131.722C112.161 132.821 111.692 133.626 110.754 134.138C111.298 134.352 111.735 134.682 112.066 135.13C112.396 135.578 112.562 136.112 112.562 136.73C112.562 137.829 112.199 138.688 111.474 139.306C110.759 139.914 109.815 140.218 108.641 140.218Z" fill="#242424"/>
<path d="M376.933 131.391C377.177 131.147 377.573 131.147 377.817 131.391C378.061 131.636 378.061 132.032 377.817 132.277L373.442 136.66C373.198 136.905 372.802 136.905 372.558 136.66L368.183 132.277C367.939 132.032 367.939 131.636 368.183 131.391C368.427 131.147 368.823 131.147 369.067 131.391L373 135.332L376.933 131.391Z" fill="#60034C"/>
<rect width="120" height="40" transform="translate(320 114.026)" fill="#60034C"/>
<path d="M366.86 128.826H371.436C372.684 128.826 373.591 129.109 374.156 129.674C374.732 130.24 375.02 130.954 375.02 131.818C375.02 132.885 374.54 133.653 373.58 134.122C374.199 134.346 374.657 134.698 374.956 135.178C375.265 135.648 375.42 136.16 375.42 136.714C375.42 137.61 375.111 138.389 374.492 139.05C373.884 139.701 372.945 140.026 371.676 140.026H366.86V128.826ZM371.18 133.338C371.799 133.338 372.268 133.216 372.588 132.97C372.919 132.725 373.084 132.389 373.084 131.962C373.084 131.056 372.551 130.602 371.484 130.602H368.78V133.338H371.18ZM371.788 138.25C372.385 138.25 372.812 138.106 373.068 137.818C373.335 137.52 373.468 137.168 373.468 136.762C373.468 135.664 372.753 135.114 371.324 135.114H368.78V138.25H371.788ZM382.551 140.026V139.242C382.039 139.893 381.324 140.218 380.407 140.218C379.554 140.218 378.855 139.952 378.311 139.418C377.767 138.874 377.495 138.021 377.495 136.858V131.85H379.367V136.522C379.367 137.792 379.879 138.426 380.903 138.426C382.002 138.426 382.551 137.802 382.551 136.554V131.85H384.423V140.026H382.551ZM387.833 143.13L389.097 139.898L386.025 131.85H387.913L389.817 136.874C389.913 137.109 389.993 137.354 390.057 137.61C390.11 137.376 390.185 137.13 390.281 136.874L392.201 131.85H394.089L389.769 143.13H387.833Z" fill="white"/>
<g clip-path="url(#clip1_3396_9046)">
<rect x="24" y="178.026" width="392" height="16" rx="5" fill="#FBECE6"/>
<rect x="24" y="178.026" width="37.8996" height="16" rx="5" fill="#38BB55"/>
</g>
<rect x="424" y="178.026" width="16" height="16" rx="8" fill="#333333"/>
<rect x="431.398" y="182.939" width="1.20466" height="1.47851" rx="0.602328" fill="white"/>
<rect x="431.398" y="185.418" width="1.20466" height="3.69627" rx="0.602328" fill="white"/>
<g clip-path="url(#clip2_3396_9046)">
<rect x="24" y="208.026" width="392" height="16" rx="5" fill="#FBECE6"/>
<rect x="24" y="208.026" width="175.65" height="16" rx="5" fill="#800000"/>
</g>
<rect x="424" y="208.026" width="16" height="16" rx="8" fill="#333333"/>
<rect x="431.398" y="212.939" width="1.20466" height="1.47851" rx="0.602328" fill="white"/>
<rect x="431.398" y="215.418" width="1.20466" height="3.69627" rx="0.602328" fill="white"/>
<g clip-path="url(#clip3_3396_9046)">
<rect x="24" y="238.026" width="392" height="16" rx="5" fill="#FBECE6"/>
<rect x="24" y="238.026" width="105.682" height="16" rx="5" fill="#FFA654"/>
</g>
<rect x="424" y="238.026" width="16" height="16" rx="8" fill="#333333"/>
<rect x="431.398" y="242.939" width="1.20466" height="1.47851" rx="0.602328" fill="white"/>
<rect x="431.398" y="245.418" width="1.20466" height="3.69627" rx="0.602328" fill="white"/>
<rect width="464" height="54" transform="translate(0 280.026)" fill="#60034C" fill-opacity="0.1"/>
<rect opacity="0.1" x="16" y="296.026" width="187" height="22" rx="2" fill="#60034C"/>
<path d="M213.48 314.129C213.165 314.129 212.894 314.016 212.668 313.79C212.442 313.564 212.33 313.293 212.33 312.978C212.33 312.663 212.442 312.392 212.668 312.166C212.894 311.94 213.165 311.828 213.48 311.828C213.795 311.828 214.066 311.94 214.292 312.166C214.518 312.392 214.631 312.663 214.631 312.978C214.631 313.187 214.577 313.379 214.471 313.553C214.369 313.728 214.23 313.869 214.055 313.975C213.885 314.078 213.693 314.129 213.48 314.129ZM213.48 306.842C213.165 306.842 212.894 306.729 212.668 306.503C212.442 306.277 212.33 306.006 212.33 305.691C212.33 305.376 212.442 305.105 212.668 304.879C212.894 304.653 213.165 304.541 213.48 304.541C213.795 304.541 214.066 304.653 214.292 304.879C214.518 305.105 214.631 305.376 214.631 305.691C214.631 305.9 214.577 306.092 214.471 306.266C214.369 306.441 214.23 306.582 214.055 306.688C213.885 306.791 213.693 306.842 213.48 306.842Z" fill="#3E4968"/>
<rect opacity="0.1" x="224" y="296.026" width="92" height="22" rx="2" fill="#60034C"/>
</g>
<path d="M0 334.026H464V484.026C464 488.445 460.418 492.026 456 492.026H7.99999C3.58171 492.026 0 488.445 0 484.026V334.026Z" fill="#60034C"/>
<path d="M29.8999 376.205C28.9453 376.205 28.0952 376.041 27.3494 375.713C26.608 375.381 26.022 374.925 25.5916 374.345C25.1655 373.761 24.946 373.088 24.9332 372.325H27.7202C27.7372 372.645 27.8416 372.926 28.0334 373.169C28.2294 373.408 28.4893 373.593 28.8132 373.725C29.1371 373.857 29.5014 373.923 29.9062 373.923C30.3281 373.923 30.701 373.849 31.0249 373.7C31.3487 373.551 31.6023 373.344 31.7855 373.08C31.9688 372.815 32.0604 372.511 32.0604 372.166C32.0604 371.816 31.9624 371.507 31.7663 371.239C31.5746 370.966 31.2976 370.753 30.9354 370.6C30.5774 370.446 30.1513 370.369 29.657 370.369H28.4361V368.337H29.657C30.0746 368.337 30.4432 368.264 30.7628 368.119C31.0866 367.975 31.3381 367.774 31.517 367.519C31.696 367.259 31.7855 366.956 31.7855 366.611C31.7855 366.283 31.7067 365.995 31.549 365.748C31.3956 365.497 31.1783 365.301 30.897 365.16C30.62 365.019 30.2962 364.949 29.9254 364.949C29.5504 364.949 29.2074 365.017 28.8963 365.153C28.5852 365.286 28.3359 365.475 28.1484 365.722C27.9609 365.97 27.8608 366.259 27.848 366.592H25.1953C25.2081 365.837 25.4233 365.173 25.8409 364.597C26.2585 364.022 26.821 363.573 27.5284 363.249C28.2401 362.921 29.0433 362.756 29.9382 362.756C30.8416 362.756 31.6321 362.921 32.3097 363.249C32.9872 363.577 33.5135 364.02 33.8885 364.578C34.2678 365.132 34.4553 365.754 34.451 366.445C34.4553 367.178 34.2273 367.789 33.767 368.279C33.3111 368.769 32.7166 369.08 31.9837 369.212V369.315C32.9467 369.438 33.6797 369.773 34.1825 370.318C34.6896 370.859 34.9411 371.537 34.9368 372.351C34.9411 373.097 34.7259 373.759 34.2912 374.339C33.8608 374.918 33.2663 375.374 32.5078 375.707C31.7493 376.039 30.88 376.205 29.8999 376.205ZM38.1744 376.193C37.7525 376.193 37.3903 376.043 37.0877 375.745C36.7894 375.443 36.6403 375.08 36.6403 374.658C36.6403 374.241 36.7894 373.883 37.0877 373.585C37.3903 373.286 37.7525 373.137 38.1744 373.137C38.5835 373.137 38.9414 373.286 39.2482 373.585C39.555 373.883 39.7085 374.241 39.7085 374.658C39.7085 374.94 39.636 375.198 39.4911 375.432C39.3505 375.662 39.1651 375.847 38.935 375.988C38.7049 376.124 38.4513 376.193 38.1744 376.193ZM45.546 376.026V362.935H50.7875C51.7505 362.935 52.5538 363.078 53.1973 363.364C53.8407 363.649 54.3244 364.046 54.6483 364.553C54.9721 365.055 55.1341 365.635 55.1341 366.291C55.1341 366.803 55.0318 367.252 54.8272 367.64C54.6227 368.024 54.3414 368.339 53.9835 368.586C53.6298 368.829 53.225 369.002 52.769 369.104V369.232C53.2676 369.253 53.7342 369.394 54.1689 369.653C54.6078 369.913 54.9636 370.278 55.2363 370.747C55.5091 371.211 55.6454 371.765 55.6454 372.408C55.6454 373.103 55.4728 373.723 55.1277 374.269C54.7868 374.81 54.2818 375.238 53.6127 375.553C52.9437 375.869 52.1191 376.026 51.139 376.026H45.546ZM48.3137 373.764H50.5701C51.3414 373.764 51.9039 373.617 52.2576 373.323C52.6113 373.024 52.7882 372.628 52.7882 372.134C52.7882 371.771 52.7008 371.452 52.5261 371.175C52.3514 370.898 52.1021 370.68 51.7782 370.523C51.4586 370.365 51.0772 370.286 50.6341 370.286H48.3137V373.764ZM48.3137 368.413H50.3656C50.7449 368.413 51.0815 368.347 51.3755 368.215C51.6738 368.079 51.9082 367.887 52.0787 367.64C52.2534 367.393 52.3407 367.097 52.3407 366.752C52.3407 366.278 52.1724 365.897 51.8358 365.607C51.5034 365.318 51.0304 365.173 50.4167 365.173H48.3137V368.413ZM65.5323 362.935H68.3001V371.437C68.3001 372.391 68.0721 373.227 67.6161 373.943C67.1644 374.658 66.5316 375.217 65.7177 375.617C64.9038 376.014 63.9556 376.212 62.8732 376.212C61.7866 376.212 60.8363 376.014 60.0224 375.617C59.2085 375.217 58.5756 374.658 58.1239 373.943C57.6722 373.227 57.4464 372.391 57.4464 371.437V362.935H60.2141V371.2C60.2141 371.699 60.3228 372.142 60.5401 372.53C60.7617 372.918 61.0728 373.222 61.4734 373.444C61.8739 373.666 62.3406 373.776 62.8732 373.776C63.4102 373.776 63.8768 373.666 64.2731 373.444C64.6737 373.222 64.9826 372.918 65.1999 372.53C65.4215 372.142 65.5323 371.699 65.5323 371.2V362.935ZM69.8102 362.935H72.9103L75.8954 368.573H76.0233L79.0083 362.935H82.1085L77.3336 371.399V376.026H74.5851V371.399L69.8102 362.935ZM90.0426 376.026H87.0767L91.5959 362.935H95.1626L99.6754 376.026H96.7095L93.4304 365.927H93.3281L90.0426 376.026ZM89.8572 370.881H96.8629V373.041H89.8572V370.881ZM105.892 376.026H101.251V362.935H105.93C107.247 362.935 108.38 363.198 109.331 363.722C110.281 364.242 111.012 364.989 111.523 365.965C112.039 366.941 112.297 368.109 112.297 369.468C112.297 370.832 112.039 372.004 111.523 372.984C111.012 373.964 110.277 374.716 109.318 375.24C108.363 375.764 107.221 376.026 105.892 376.026ZM104.019 373.655H105.777C106.595 373.655 107.283 373.51 107.841 373.22C108.404 372.926 108.826 372.472 109.107 371.859C109.392 371.241 109.535 370.444 109.535 369.468C109.535 368.501 109.392 367.71 109.107 367.097C108.826 366.483 108.406 366.031 107.848 365.742C107.289 365.452 106.601 365.307 105.783 365.307H104.019V373.655ZM115.865 376.026H112.899L117.418 362.935H120.985L125.498 376.026H122.532L119.253 365.927H119.15L115.865 376.026ZM115.68 370.881H122.685V373.041H115.68V370.881ZM127.073 376.026V362.935H132.238C133.231 362.935 134.077 363.125 134.776 363.504C135.475 363.879 136.007 364.401 136.374 365.07C136.744 365.735 136.93 366.502 136.93 367.372C136.93 368.241 136.742 369.008 136.367 369.673C135.992 370.337 135.449 370.855 134.737 371.226C134.03 371.597 133.173 371.782 132.168 371.782H128.876V369.564H131.72C132.253 369.564 132.692 369.472 133.037 369.289C133.387 369.102 133.646 368.844 133.817 368.516C133.992 368.183 134.079 367.802 134.079 367.372C134.079 366.937 133.992 366.558 133.817 366.234C133.646 365.906 133.387 365.652 133.037 365.473C132.688 365.29 132.244 365.198 131.708 365.198H129.841V376.026H127.073ZM138.229 365.217V362.935H148.98V365.217H144.973V376.026H142.237V365.217H138.229ZM153.519 362.935V376.026H150.751V362.935H153.519ZM158.161 362.935L161.325 372.881H161.447L164.617 362.935H167.685L163.172 376.026H159.606L155.086 362.935H158.161ZM169.261 376.026V362.935H178.082V365.217H172.029V368.337H177.628V370.619H172.029V373.744H178.107V376.026H169.261ZM191.55 366.7C191.499 366.185 191.279 365.784 190.892 365.499C190.504 365.213 189.977 365.07 189.313 365.07C188.861 365.07 188.48 365.134 188.169 365.262C187.857 365.386 187.619 365.558 187.453 365.78C187.291 366.002 187.21 366.253 187.21 366.534C187.201 366.769 187.25 366.973 187.357 367.148C187.468 367.323 187.619 367.474 187.811 367.602C188.002 367.725 188.224 367.834 188.475 367.928C188.727 368.017 188.995 368.094 189.281 368.158L190.457 368.439C191.028 368.567 191.552 368.737 192.029 368.95C192.507 369.163 192.92 369.426 193.269 369.737C193.619 370.048 193.889 370.414 194.081 370.836C194.277 371.258 194.377 371.742 194.382 372.287C194.377 373.088 194.173 373.783 193.768 374.371C193.367 374.955 192.788 375.408 192.029 375.732C191.275 376.052 190.365 376.212 189.3 376.212C188.243 376.212 187.323 376.05 186.539 375.726C185.759 375.402 185.149 374.923 184.71 374.288C184.276 373.649 184.048 372.858 184.026 371.916H186.705C186.735 372.355 186.86 372.722 187.082 373.016C187.308 373.305 187.608 373.525 187.983 373.674C188.362 373.819 188.791 373.891 189.268 373.891C189.737 373.891 190.144 373.823 190.489 373.687C190.838 373.551 191.109 373.361 191.301 373.118C191.492 372.875 191.588 372.596 191.588 372.281C191.588 371.987 191.501 371.739 191.326 371.539C191.156 371.339 190.904 371.168 190.572 371.028C190.244 370.887 189.841 370.759 189.364 370.644L187.938 370.286C186.835 370.018 185.963 369.598 185.324 369.027C184.685 368.456 184.367 367.687 184.372 366.72C184.367 365.927 184.578 365.234 185.004 364.642C185.435 364.05 186.025 363.587 186.775 363.255C187.525 362.923 188.377 362.756 189.332 362.756C190.303 362.756 191.151 362.923 191.876 363.255C192.605 363.587 193.171 364.05 193.576 364.642C193.981 365.234 194.19 365.921 194.203 366.7H191.55ZM196.243 376.026V362.935H199.011V368.337H204.63V362.935H207.391V376.026H204.63V370.619H199.011V376.026H196.243ZM212.441 362.935V376.026H209.673V362.935H212.441ZM214.718 376.026V362.935H223.539V365.217H217.486V368.337H223.085V370.619H217.486V373.744H223.564V376.026H214.718ZM225.739 376.026V362.935H228.507V373.744H234.119V376.026H225.739ZM240.593 376.026H235.952V362.935H240.631C241.948 362.935 243.081 363.198 244.032 363.722C244.982 364.242 245.713 364.989 246.224 365.965C246.74 366.941 246.998 368.109 246.998 369.468C246.998 370.832 246.74 372.004 246.224 372.984C245.713 373.964 244.978 374.716 244.019 375.24C243.064 375.764 241.922 376.026 240.593 376.026ZM238.72 373.655H240.478C241.296 373.655 241.984 373.51 242.542 373.22C243.105 372.926 243.527 372.472 243.808 371.859C244.094 371.241 244.236 370.444 244.236 369.468C244.236 368.501 244.094 367.71 243.808 367.097C243.527 366.483 243.107 366.031 242.549 365.742C241.991 365.452 241.302 365.307 240.484 365.307H238.72V373.655ZM265.244 369.481C265.244 370.908 264.973 372.123 264.432 373.124C263.895 374.126 263.162 374.891 262.233 375.419C261.308 375.943 260.269 376.205 259.114 376.205C257.95 376.205 256.906 375.941 255.982 375.413C255.057 374.884 254.326 374.119 253.789 373.118C253.252 372.117 252.984 370.904 252.984 369.481C252.984 368.053 253.252 366.839 253.789 365.837C254.326 364.836 255.057 364.073 255.982 363.549C256.906 363.021 257.95 362.756 259.114 362.756C260.269 362.756 261.308 363.021 262.233 363.549C263.162 364.073 263.895 364.836 264.432 365.837C264.973 366.839 265.244 368.053 265.244 369.481ZM262.438 369.481C262.438 368.556 262.299 367.776 262.022 367.141C261.749 366.506 261.364 366.025 260.865 365.697C260.367 365.369 259.783 365.205 259.114 365.205C258.445 365.205 257.861 365.369 257.362 365.697C256.864 366.025 256.476 366.506 256.199 367.141C255.926 367.776 255.79 368.556 255.79 369.481C255.79 370.406 255.926 371.185 256.199 371.82C256.476 372.455 256.864 372.937 257.362 373.265C257.861 373.593 258.445 373.757 259.114 373.757C259.783 373.757 260.367 373.593 260.865 373.265C261.364 372.937 261.749 372.455 262.022 371.82C262.299 371.185 262.438 370.406 262.438 369.481ZM267.294 376.026V362.935H272.459C273.447 362.935 274.291 363.112 274.99 363.466C275.693 363.815 276.228 364.312 276.594 364.955C276.965 365.595 277.151 366.347 277.151 367.212C277.151 368.081 276.963 368.829 276.588 369.455C276.213 370.078 275.67 370.555 274.958 370.887C274.251 371.22 273.394 371.386 272.388 371.386H268.93V369.161H271.941C272.469 369.161 272.908 369.089 273.258 368.944C273.607 368.799 273.867 368.582 274.038 368.292C274.212 368.002 274.3 367.642 274.3 367.212C274.3 366.777 274.212 366.411 274.038 366.112C273.867 365.814 273.605 365.588 273.251 365.435C272.902 365.277 272.461 365.198 271.928 365.198H270.062V376.026H267.294ZM274.364 370.069L277.617 376.026H274.562L271.379 370.069H274.364ZM287.913 376.026H283.273V362.935H287.952C289.268 362.935 290.402 363.198 291.352 363.722C292.302 364.242 293.033 364.989 293.545 365.965C294.06 366.941 294.318 368.109 294.318 369.468C294.318 370.832 294.06 372.004 293.545 372.984C293.033 373.964 292.298 374.716 291.339 375.24C290.385 375.764 289.243 376.026 287.913 376.026ZM286.04 373.655H287.798C288.616 373.655 289.305 373.51 289.863 373.22C290.425 372.926 290.847 372.472 291.128 371.859C291.414 371.241 291.557 370.444 291.557 369.468C291.557 368.501 291.414 367.71 291.128 367.097C290.847 366.483 290.427 366.031 289.869 365.742C289.311 365.452 288.623 365.307 287.805 365.307H286.04V373.655ZM299.136 362.935V376.026H296.368V362.935H299.136ZM300.646 362.935H303.746L306.731 368.573H306.859L309.844 362.935H312.944L308.17 371.399V376.026H305.421V371.399L300.646 362.935Z" fill="white"/>
<path d="M25.372 403.226H28.844C29.9173 403.226 30.692 403.474 31.168 403.968C31.6533 404.463 31.896 405.079 31.896 405.816C31.896 406.264 31.77 406.67 31.518 407.034C31.266 407.389 30.9113 407.664 30.454 407.86C31.0233 408.038 31.462 408.336 31.77 408.756C32.0873 409.167 32.246 409.652 32.246 410.212C32.246 410.567 32.19 410.903 32.078 411.22C31.966 411.538 31.7933 411.836 31.56 412.116C31.3267 412.396 30.9953 412.62 30.566 412.788C30.1367 412.947 29.6373 413.026 29.068 413.026H25.372V403.226ZM28.606 407.384C29.2873 407.384 29.8053 407.249 30.16 406.978C30.5147 406.698 30.692 406.316 30.692 405.83C30.692 404.832 30.0993 404.332 28.914 404.332H26.59V407.384H28.606ZM29.208 411.906C29.8707 411.906 30.342 411.752 30.622 411.444C30.902 411.136 31.042 410.754 31.042 410.296C31.042 409.092 30.2813 408.49 28.76 408.49H26.59V411.906H29.208ZM38.0035 413.194C35.6608 413.194 34.4895 411.911 34.4895 409.344V403.226H35.7075V409.344C35.7075 410.343 35.9128 411.043 36.3235 411.444C36.7342 411.846 37.2942 412.046 38.0035 412.046C38.7128 412.046 39.2728 411.846 39.6835 411.444C40.1035 411.043 40.3135 410.343 40.3135 409.344V403.226H41.5315V409.344C41.5315 411.911 40.3555 413.194 38.0035 413.194ZM46.7318 413.026V409.176L43.3998 403.226H44.7718L47.3338 407.986L49.9238 403.226H51.2538L47.9498 409.148V413.026H46.7318ZM61.5284 413.026L60.6884 410.632H56.7964L55.9704 413.026H54.6964L58.1684 403.226H59.3024L62.7744 413.026H61.5284ZM60.3104 409.554L59.0504 405.928C58.8918 405.471 58.7891 405.14 58.7424 404.934C58.6398 405.298 58.5371 405.63 58.4344 405.928L57.1604 409.554H60.3104ZM71.3288 413.194C70.6101 413.194 69.9754 413.054 69.4248 412.774C68.8834 412.485 68.4494 412.098 68.1228 411.612C67.8054 411.127 67.5674 410.59 67.4088 410.002C67.2501 409.414 67.1708 408.789 67.1708 408.126C67.1708 407.473 67.2548 406.852 67.4228 406.264C67.5908 405.667 67.8381 405.13 68.1648 404.654C68.4914 404.169 68.9254 403.782 69.4668 403.492C70.0174 403.203 70.6381 403.058 71.3288 403.058C72.1594 403.058 72.8128 403.212 73.2887 403.52C73.7741 403.828 74.1801 404.248 74.5068 404.78L73.4147 405.41C73.1534 405.028 72.8641 404.734 72.5468 404.528C72.2294 404.314 71.8234 404.206 71.3288 404.206C70.9088 404.206 70.5308 404.286 70.1948 404.444C69.8588 404.603 69.5834 404.813 69.3688 405.074C69.1541 405.326 68.9721 405.625 68.8228 405.97C68.6828 406.316 68.5801 406.67 68.5148 407.034C68.4588 407.389 68.4308 407.753 68.4308 408.126C68.4308 409.228 68.6734 410.156 69.1588 410.912C69.6441 411.659 70.3674 412.032 71.3288 412.032C71.9914 412.032 72.5234 411.827 72.9248 411.416C73.3261 410.996 73.5268 410.45 73.5268 409.778V409.386H71.7488V408.266H74.8008V409.442C74.8008 410.628 74.4741 411.552 73.8208 412.214C73.1768 412.868 72.3461 413.194 71.3288 413.194ZM80.6734 413.194C78.3308 413.194 77.1594 411.911 77.1594 409.344V403.226H78.3774V409.344C78.3774 410.343 78.5828 411.043 78.9934 411.444C79.4041 411.846 79.9641 412.046 80.6734 412.046C81.3828 412.046 81.9428 411.846 82.3534 411.444C82.7734 411.043 82.9834 410.343 82.9834 409.344V403.226H84.2014V409.344C84.2014 411.911 83.0254 413.194 80.6734 413.194ZM92.5909 413.026L91.7509 410.632H87.8589L87.0329 413.026H85.7589L89.2309 403.226H90.3649L93.8369 413.026H92.5909ZM91.3729 409.554L90.1129 405.928C89.9543 405.471 89.8516 405.14 89.8049 404.934C89.7023 405.298 89.5996 405.63 89.4969 405.928L88.2229 409.554H91.3729ZM95.6454 413.026V403.226H99.5094C100.592 403.226 101.376 403.492 101.861 404.024C102.356 404.556 102.603 405.219 102.603 406.012C102.603 406.656 102.412 407.235 102.029 407.748C101.656 408.252 101.087 408.584 100.321 408.742L102.421 413.026H101.049L99.0334 408.826H96.8634V413.026H95.6454ZM96.8634 407.692H99.5374C100.172 407.692 100.634 407.534 100.923 407.216C101.222 406.899 101.371 406.507 101.371 406.04C101.371 405.592 101.227 405.2 100.937 404.864C100.657 404.528 100.191 404.36 99.5374 404.36H96.8634V407.692ZM110.775 413.026L109.935 410.632H106.043L105.217 413.026H103.943L107.415 403.226H108.549L112.021 413.026H110.775ZM109.557 409.554L108.297 405.928C108.138 405.471 108.035 405.14 107.989 404.934C107.886 405.298 107.783 405.63 107.681 405.928L106.407 409.554H109.557ZM120.997 413.026H119.821L115.411 406.026C115.243 405.756 115.112 405.527 115.019 405.34C115.038 405.62 115.047 405.849 115.047 406.026V413.026H113.829V403.226H115.061L119.401 410.198C119.55 410.441 119.686 410.684 119.807 410.926C119.788 410.59 119.779 410.352 119.779 410.212V403.226H120.997V413.026ZM127.059 404.388V413.026H125.841V404.388H123.111V403.226H129.789V404.388H127.059ZM131.903 413.026V403.226H137.727V404.374H133.121V407.384H136.159V408.532H133.121V411.864H138.035V413.026H131.903ZM140.284 413.026V403.226H146.108V404.374H141.502V407.384H144.54V408.532H141.502V411.864H146.416V413.026H140.284ZM148.665 403.226H151.339C152.142 403.226 152.846 403.366 153.453 403.646C154.06 403.926 154.536 404.304 154.881 404.78C155.226 405.256 155.478 405.774 155.637 406.334C155.805 406.894 155.889 407.492 155.889 408.126C155.889 408.733 155.81 409.312 155.651 409.862C155.502 410.404 155.259 410.922 154.923 411.416C154.596 411.902 154.12 412.294 153.495 412.592C152.87 412.882 152.132 413.026 151.283 413.026H148.665V403.226ZM151.437 411.892C152.016 411.892 152.52 411.785 152.949 411.57C153.388 411.346 153.724 411.048 153.957 410.674C154.19 410.292 154.358 409.89 154.461 409.47C154.573 409.05 154.629 408.602 154.629 408.126C154.629 407.454 154.531 406.843 154.335 406.292C154.139 405.742 153.803 405.28 153.327 404.906C152.851 404.533 152.272 404.346 151.591 404.346H149.883V411.892H151.437ZM161.503 413.026V403.226H165.255C165.824 403.226 166.319 403.31 166.739 403.478C167.168 403.646 167.5 403.875 167.733 404.164C167.966 404.444 168.139 404.752 168.251 405.088C168.363 405.424 168.419 405.784 168.419 406.166C168.419 406.941 168.153 407.622 167.621 408.21C167.098 408.798 166.31 409.092 165.255 409.092H162.721V413.026H161.503ZM165.339 407.958C165.974 407.958 166.44 407.781 166.739 407.426C167.047 407.072 167.201 406.652 167.201 406.166C167.201 405.69 167.056 405.27 166.767 404.906C166.478 404.542 166.002 404.36 165.339 404.36H162.721V407.958H165.339ZM170.321 413.026V403.226H174.185C175.268 403.226 176.052 403.492 176.537 404.024C177.032 404.556 177.279 405.219 177.279 406.012C177.279 406.656 177.088 407.235 176.705 407.748C176.332 408.252 175.763 408.584 174.997 408.742L177.097 413.026H175.725L173.709 408.826H171.539V413.026H170.321ZM171.539 407.692H174.213C174.848 407.692 175.31 407.534 175.599 407.216C175.898 406.899 176.047 406.507 176.047 406.04C176.047 405.592 175.903 405.2 175.613 404.864C175.333 404.528 174.867 404.36 174.213 404.36H171.539V407.692ZM183.37 413.194C182.632 413.194 181.984 413.05 181.424 412.76C180.873 412.462 180.439 412.065 180.122 411.57C179.814 411.066 179.585 410.53 179.436 409.96C179.286 409.382 179.212 408.77 179.212 408.126C179.212 407.482 179.286 406.876 179.436 406.306C179.585 405.728 179.814 405.191 180.122 404.696C180.439 404.192 180.873 403.796 181.424 403.506C181.984 403.208 182.632 403.058 183.37 403.058C183.967 403.058 184.504 403.156 184.98 403.352C185.465 403.548 185.862 403.81 186.17 404.136C186.487 404.463 186.748 404.85 186.954 405.298C187.168 405.746 187.318 406.204 187.402 406.67C187.495 407.137 187.542 407.622 187.542 408.126C187.542 408.63 187.495 409.116 187.402 409.582C187.318 410.049 187.168 410.506 186.954 410.954C186.748 411.402 186.487 411.79 186.17 412.116C185.862 412.443 185.465 412.704 184.98 412.9C184.504 413.096 183.967 413.194 183.37 413.194ZM182.012 411.71C182.404 411.934 182.856 412.046 183.37 412.046C183.883 412.046 184.336 411.93 184.728 411.696C185.12 411.454 185.423 411.136 185.638 410.744C185.852 410.352 186.011 409.937 186.114 409.498C186.216 409.05 186.268 408.593 186.268 408.126C186.268 407.436 186.179 406.81 186.002 406.25C185.834 405.681 185.521 405.196 185.064 404.794C184.616 404.393 184.051 404.192 183.37 404.192C182.856 404.192 182.404 404.314 182.012 404.556C181.629 404.79 181.33 405.107 181.116 405.508C180.901 405.9 180.738 406.316 180.626 406.754C180.523 407.193 180.472 407.65 180.472 408.126C180.472 408.63 180.523 409.106 180.626 409.554C180.728 410.002 180.887 410.418 181.102 410.8C181.326 411.183 181.629 411.486 182.012 411.71ZM192.547 404.388V413.026H191.329V404.388H188.599V403.226H195.277V404.388H192.547ZM197.392 413.026V403.226H203.216V404.374H198.61V407.384H201.648V408.532H198.61V411.864H203.524V413.026H197.392ZM208.989 413.194C208.279 413.194 207.654 413.05 207.113 412.76C206.571 412.471 206.147 412.079 205.839 411.584C205.531 411.09 205.302 410.553 205.153 409.974C205.003 409.396 204.929 408.78 204.929 408.126C204.929 407.482 205.003 406.871 205.153 406.292C205.311 405.704 205.545 405.168 205.853 404.682C206.17 404.188 206.595 403.796 207.127 403.506C207.668 403.208 208.289 403.058 208.989 403.058C210.519 403.058 211.574 403.646 212.153 404.822L211.061 405.382C210.799 404.99 210.51 404.696 210.193 404.5C209.885 404.295 209.483 404.192 208.989 404.192C208.326 404.192 207.775 404.402 207.337 404.822C206.898 405.242 206.595 405.737 206.427 406.306C206.268 406.866 206.189 407.473 206.189 408.126C206.189 409.2 206.427 410.124 206.903 410.898C207.379 411.664 208.074 412.046 208.989 412.046C209.903 412.046 210.613 411.631 211.117 410.8L212.237 411.22C211.966 411.818 211.56 412.298 211.019 412.662C210.477 413.017 209.801 413.194 208.989 413.194ZM217.594 404.388V413.026H216.376V404.388H213.646V403.226H220.324V404.388H217.594ZM222.466 413.026V403.226H223.684V413.026H222.466ZM230.196 413.194C229.459 413.194 228.81 413.05 228.25 412.76C227.699 412.462 227.265 412.065 226.948 411.57C226.64 411.066 226.411 410.53 226.262 409.96C226.113 409.382 226.038 408.77 226.038 408.126C226.038 407.482 226.113 406.876 226.262 406.306C226.411 405.728 226.64 405.191 226.948 404.696C227.265 404.192 227.699 403.796 228.25 403.506C228.81 403.208 229.459 403.058 230.196 403.058C230.793 403.058 231.33 403.156 231.806 403.352C232.291 403.548 232.688 403.81 232.996 404.136C233.313 404.463 233.575 404.85 233.78 405.298C233.995 405.746 234.144 406.204 234.228 406.67C234.321 407.137 234.368 407.622 234.368 408.126C234.368 408.63 234.321 409.116 234.228 409.582C234.144 410.049 233.995 410.506 233.78 410.954C233.575 411.402 233.313 411.79 232.996 412.116C232.688 412.443 232.291 412.704 231.806 412.9C231.33 413.096 230.793 413.194 230.196 413.194ZM228.838 411.71C229.23 411.934 229.683 412.046 230.196 412.046C230.709 412.046 231.162 411.93 231.554 411.696C231.946 411.454 232.249 411.136 232.464 410.744C232.679 410.352 232.837 409.937 232.94 409.498C233.043 409.05 233.094 408.593 233.094 408.126C233.094 407.436 233.005 406.81 232.828 406.25C232.66 405.681 232.347 405.196 231.89 404.794C231.442 404.393 230.877 404.192 230.196 404.192C229.683 404.192 229.23 404.314 228.838 404.556C228.455 404.79 228.157 405.107 227.942 405.508C227.727 405.9 227.564 406.316 227.452 406.754C227.349 407.193 227.298 407.65 227.298 408.126C227.298 408.63 227.349 409.106 227.452 409.554C227.555 410.002 227.713 410.418 227.928 410.8C228.152 411.183 228.455 411.486 228.838 411.71ZM243.853 413.026H242.677L238.267 406.026C238.099 405.756 237.968 405.527 237.875 405.34C237.893 405.62 237.903 405.849 237.903 406.026V413.026H236.685V403.226H237.917L242.257 410.198C242.406 410.441 242.541 410.684 242.663 410.926C242.644 410.59 242.635 410.352 242.635 410.212V403.226H243.853V413.026ZM253.532 413.194C252.822 413.194 252.197 413.05 251.656 412.76C251.114 412.471 250.69 412.079 250.382 411.584C250.074 411.09 249.845 410.553 249.696 409.974C249.546 409.396 249.472 408.78 249.472 408.126C249.472 407.482 249.546 406.871 249.696 406.292C249.854 405.704 250.088 405.168 250.396 404.682C250.713 404.188 251.138 403.796 251.67 403.506C252.211 403.208 252.832 403.058 253.532 403.058C255.062 403.058 256.117 403.646 256.696 404.822L255.604 405.382C255.342 404.99 255.053 404.696 254.736 404.5C254.428 404.295 254.026 404.192 253.532 404.192C252.869 404.192 252.318 404.402 251.88 404.822C251.441 405.242 251.138 405.737 250.97 406.306C250.811 406.866 250.732 407.473 250.732 408.126C250.732 409.2 250.97 410.124 251.446 410.898C251.922 411.664 252.617 412.046 253.532 412.046C254.446 412.046 255.156 411.631 255.66 410.8L256.78 411.22C256.509 411.818 256.103 412.298 255.562 412.662C255.02 413.017 254.344 413.194 253.532 413.194ZM262.557 413.194C261.82 413.194 261.171 413.05 260.611 412.76C260.061 412.462 259.627 412.065 259.309 411.57C259.001 411.066 258.773 410.53 258.623 409.96C258.474 409.382 258.399 408.77 258.399 408.126C258.399 407.482 258.474 406.876 258.623 406.306C258.773 405.728 259.001 405.191 259.309 404.696C259.627 404.192 260.061 403.796 260.611 403.506C261.171 403.208 261.82 403.058 262.557 403.058C263.155 403.058 263.691 403.156 264.167 403.352C264.653 403.548 265.049 403.81 265.357 404.136C265.675 404.463 265.936 404.85 266.141 405.298C266.356 405.746 266.505 406.204 266.589 406.67C266.683 407.137 266.729 407.622 266.729 408.126C266.729 408.63 266.683 409.116 266.589 409.582C266.505 410.049 266.356 410.506 266.141 410.954C265.936 411.402 265.675 411.79 265.357 412.116C265.049 412.443 264.653 412.704 264.167 412.9C263.691 413.096 263.155 413.194 262.557 413.194ZM261.199 411.71C261.591 411.934 262.044 412.046 262.557 412.046C263.071 412.046 263.523 411.93 263.915 411.696C264.307 411.454 264.611 411.136 264.825 410.744C265.04 410.352 265.199 409.937 265.301 409.498C265.404 409.05 265.455 408.593 265.455 408.126C265.455 407.436 265.367 406.81 265.189 406.25C265.021 405.681 264.709 405.196 264.251 404.794C263.803 404.393 263.239 404.192 262.557 404.192C262.044 404.192 261.591 404.314 261.199 404.556C260.817 404.79 260.518 405.107 260.303 405.508C260.089 405.9 259.925 406.316 259.813 406.754C259.711 407.193 259.659 407.65 259.659 408.126C259.659 408.63 259.711 409.106 259.813 409.554C259.916 410.002 260.075 410.418 260.289 410.8C260.513 411.183 260.817 411.486 261.199 411.71ZM276.214 413.026H275.038L270.628 406.026C270.46 405.756 270.329 405.527 270.236 405.34C270.254 405.62 270.264 405.849 270.264 406.026V413.026H269.046V403.226H270.278L274.618 410.198C274.767 410.441 274.902 410.684 275.024 410.926C275.005 410.59 274.996 410.352 274.996 410.212V403.226H276.214V413.026ZM282.276 404.388V413.026H281.058V404.388H278.328V403.226H285.006V404.388H282.276ZM287.12 413.026V403.226H290.984C292.067 403.226 292.851 403.492 293.336 404.024C293.831 404.556 294.078 405.219 294.078 406.012C294.078 406.656 293.887 407.235 293.504 407.748C293.131 408.252 292.561 408.584 291.796 408.742L293.896 413.026H292.524L290.508 408.826H288.338V413.026H287.12ZM288.338 407.692H291.012C291.647 407.692 292.109 407.534 292.398 407.216C292.697 406.899 292.846 406.507 292.846 406.04C292.846 405.592 292.701 405.2 292.412 404.864C292.132 404.528 291.665 404.36 291.012 404.36H288.338V407.692ZM302.249 413.026L301.409 410.632H297.517L296.691 413.026H295.417L298.889 403.226H300.023L303.495 413.026H302.249ZM301.031 409.554L299.771 405.928C299.612 405.471 299.51 405.14 299.463 404.934C299.36 405.298 299.258 405.63 299.155 405.928L297.881 409.554H301.031ZM308.616 413.194C307.906 413.194 307.281 413.05 306.74 412.76C306.198 412.471 305.774 412.079 305.466 411.584C305.158 411.09 304.929 410.553 304.78 409.974C304.63 409.396 304.556 408.78 304.556 408.126C304.556 407.482 304.63 406.871 304.78 406.292C304.938 405.704 305.172 405.168 305.48 404.682C305.797 404.188 306.222 403.796 306.754 403.506C307.295 403.208 307.916 403.058 308.616 403.058C310.146 403.058 311.201 403.646 311.78 404.822L310.688 405.382C310.426 404.99 310.137 404.696 309.82 404.5C309.512 404.295 309.11 404.192 308.616 404.192C307.953 404.192 307.402 404.402 306.964 404.822C306.525 405.242 306.222 405.737 306.054 406.306C305.895 406.866 305.816 407.473 305.816 408.126C305.816 409.2 306.054 410.124 306.53 410.898C307.006 411.664 307.701 412.046 308.616 412.046C309.53 412.046 310.24 411.631 310.744 410.8L311.864 411.22C311.593 411.818 311.187 412.298 310.646 412.662C310.104 413.017 309.428 413.194 308.616 413.194ZM317.221 404.388V413.026H316.003V404.388H313.273V403.226H319.951V404.388H317.221ZM320.439 414.79C320.607 414.641 320.775 414.426 320.943 414.146C321.111 413.866 321.204 413.568 321.223 413.25C320.943 413.232 320.709 413.138 320.523 412.97C320.336 412.793 320.243 412.574 320.243 412.312C320.243 412.023 320.331 411.785 320.509 411.598C320.695 411.412 320.919 411.318 321.181 411.318C321.479 411.318 321.731 411.426 321.937 411.64C322.142 411.846 322.245 412.149 322.245 412.55C322.245 413.064 322.114 413.535 321.853 413.964C321.591 414.403 321.255 414.748 320.845 415L320.439 414.79ZM331.19 413.194C330.453 413.194 329.804 413.05 329.244 412.76C328.693 412.462 328.259 412.065 327.942 411.57C327.634 411.066 327.405 410.53 327.256 409.96C327.107 409.382 327.032 408.77 327.032 408.126C327.032 407.482 327.107 406.876 327.256 406.306C327.405 405.728 327.634 405.191 327.942 404.696C328.259 404.192 328.693 403.796 329.244 403.506C329.804 403.208 330.453 403.058 331.19 403.058C331.787 403.058 332.324 403.156 332.8 403.352C333.285 403.548 333.682 403.81 333.99 404.136C334.307 404.463 334.569 404.85 334.774 405.298C334.989 405.746 335.138 406.204 335.222 406.67C335.315 407.137 335.362 407.622 335.362 408.126C335.362 408.63 335.315 409.116 335.222 409.582C335.138 410.049 334.989 410.506 334.774 410.954C334.569 411.402 334.307 411.79 333.99 412.116C333.682 412.443 333.285 412.704 332.8 412.9C332.324 413.096 331.787 413.194 331.19 413.194ZM329.832 411.71C330.224 411.934 330.677 412.046 331.19 412.046C331.703 412.046 332.156 411.93 332.548 411.696C332.94 411.454 333.243 411.136 333.458 410.744C333.673 410.352 333.831 409.937 333.934 409.498C334.037 409.05 334.088 408.593 334.088 408.126C334.088 407.436 333.999 406.81 333.822 406.25C333.654 405.681 333.341 405.196 332.884 404.794C332.436 404.393 331.871 404.192 331.19 404.192C330.677 404.192 330.224 404.314 329.832 404.556C329.449 404.79 329.151 405.107 328.936 405.508C328.721 405.9 328.558 406.316 328.446 406.754C328.343 407.193 328.292 407.65 328.292 408.126C328.292 408.63 328.343 409.106 328.446 409.554C328.549 410.002 328.707 410.418 328.922 410.8C329.146 411.183 329.449 411.486 329.832 411.71ZM337.679 413.026V403.226H341.543C342.625 403.226 343.409 403.492 343.895 404.024C344.389 404.556 344.637 405.219 344.637 406.012C344.637 406.656 344.445 407.235 344.063 407.748C343.689 408.252 343.12 408.584 342.355 408.742L344.455 413.026H343.083L341.067 408.826H338.897V413.026H337.679ZM338.897 407.692H341.571C342.205 407.692 342.667 407.534 342.957 407.216C343.255 406.899 343.405 406.507 343.405 406.04C343.405 405.592 343.26 405.2 342.971 404.864C342.691 404.528 342.224 404.36 341.571 404.36H338.897V407.692ZM353.728 413.194C351.385 413.194 350.214 411.911 350.214 409.344V403.226H351.432V409.344C351.432 410.343 351.637 411.043 352.048 411.444C352.459 411.846 353.019 412.046 353.728 412.046C354.437 412.046 354.997 411.846 355.408 411.444C355.828 411.043 356.038 410.343 356.038 409.344V403.226H357.256V409.344C357.256 411.911 356.08 413.194 353.728 413.194ZM362.792 413.194C361.962 413.194 361.238 412.994 360.622 412.592C360.016 412.182 359.6 411.654 359.376 411.01L360.524 410.59C360.73 411.038 361.033 411.393 361.434 411.654C361.836 411.916 362.298 412.046 362.82 412.046C363.418 412.046 363.889 411.906 364.234 411.626C364.58 411.337 364.752 410.926 364.752 410.394C364.752 409.881 364.556 409.47 364.164 409.162C363.782 408.854 363.24 408.574 362.54 408.322C362.204 408.201 361.924 408.094 361.7 408C361.486 407.907 361.234 407.776 360.944 407.608C360.664 407.431 360.44 407.254 360.272 407.076C360.104 406.89 359.96 406.661 359.838 406.39C359.726 406.11 359.67 405.807 359.67 405.48C359.67 404.799 359.941 404.225 360.482 403.758C361.024 403.292 361.756 403.058 362.68 403.058C363.436 403.058 364.066 403.222 364.57 403.548C365.074 403.866 365.401 404.286 365.55 404.808L364.43 405.186C364.3 404.897 364.076 404.659 363.758 404.472C363.441 404.286 363.054 404.192 362.596 404.192C362.083 404.192 361.677 404.309 361.378 404.542C361.08 404.766 360.93 405.079 360.93 405.48C360.93 405.695 360.982 405.891 361.084 406.068C361.196 406.246 361.364 406.404 361.588 406.544C361.822 406.684 362.036 406.796 362.232 406.88C362.428 406.964 362.699 407.072 363.044 407.202C363.474 407.361 363.828 407.515 364.108 407.664C364.388 407.804 364.692 407.996 365.018 408.238C365.345 408.481 365.592 408.784 365.76 409.148C365.928 409.503 366.012 409.909 366.012 410.366C366.012 411.244 365.714 411.934 365.116 412.438C364.519 412.942 363.744 413.194 362.792 413.194ZM368.317 413.026V403.226H374.141V404.374H369.535V407.384H372.573V408.532H369.535V411.864H374.449V413.026H368.317ZM31.546 437.026L30.706 434.632H26.814L25.988 437.026H24.714L28.186 427.226H29.32L32.792 437.026H31.546ZM30.328 433.554L29.068 429.928C28.9093 429.471 28.8067 429.14 28.76 428.934C28.6573 429.298 28.5547 429.63 28.452 429.928L27.178 433.554H30.328ZM34.6005 427.226H37.2745C38.0772 427.226 38.7818 427.366 39.3885 427.646C39.9952 427.926 40.4712 428.304 40.8165 428.78C41.1618 429.256 41.4138 429.774 41.5725 430.334C41.7405 430.894 41.8245 431.492 41.8245 432.126C41.8245 432.733 41.7452 433.312 41.5865 433.862C41.4372 434.404 41.1945 434.922 40.8585 435.416C40.5318 435.902 40.0558 436.294 39.4305 436.592C38.8052 436.882 38.0678 437.026 37.2185 437.026H34.6005V427.226ZM37.3725 435.892C37.9512 435.892 38.4552 435.785 38.8845 435.57C39.3232 435.346 39.6592 435.048 39.8925 434.674C40.1258 434.292 40.2938 433.89 40.3965 433.47C40.5085 433.05 40.5645 432.602 40.5645 432.126C40.5645 431.454 40.4665 430.843 40.2705 430.292C40.0745 429.742 39.7385 429.28 39.2625 428.906C38.7865 428.533 38.2078 428.346 37.5265 428.346H35.8185V435.892H37.3725ZM49.7159 437.026L48.8759 434.632H44.9839L44.1579 437.026H42.8839L46.3559 427.226H47.4899L50.9619 437.026H49.7159ZM48.4979 433.554L47.2379 429.928C47.0793 429.471 46.9766 429.14 46.9299 428.934C46.8273 429.298 46.7246 429.63 46.6219 429.928L45.3479 433.554H48.4979ZM52.7704 437.026V427.226H56.5224C57.0918 427.226 57.5864 427.31 58.0064 427.478C58.4358 427.646 58.7671 427.875 59.0004 428.164C59.2338 428.444 59.4064 428.752 59.5184 429.088C59.6304 429.424 59.6864 429.784 59.6864 430.166C59.6864 430.941 59.4204 431.622 58.8884 432.21C58.3658 432.798 57.5771 433.092 56.5224 433.092H53.9884V437.026H52.7704ZM56.6064 431.958C57.2411 431.958 57.7078 431.781 58.0064 431.426C58.3144 431.072 58.4684 430.652 58.4684 430.166C58.4684 429.69 58.3238 429.27 58.0344 428.906C57.7451 428.542 57.2691 428.36 56.6064 428.36H53.9884V431.958H56.6064ZM64.7291 428.388V437.026H63.5111V428.388H60.7811V427.226H67.4591V428.388H64.7291ZM69.6012 437.026V427.226H70.8192V437.026H69.6012ZM76.0066 437.026L72.6466 427.226H73.9486L76.2866 434.31C76.4546 434.88 76.5526 435.211 76.5806 435.304C76.6179 435.127 76.7113 434.796 76.8606 434.31L79.1286 427.226H80.4306L77.0846 437.026H76.0066ZM82.2333 437.026V427.226H88.0573V428.374H83.4513V431.384H86.4893V432.532H83.4513V435.864H88.3653V437.026H82.2333ZM89.9842 427.226H91.4962L91.2302 431.048H90.2362L89.9842 427.226ZM96.4643 437.194C95.6337 437.194 94.9103 436.994 94.2943 436.592C93.6877 436.182 93.2723 435.654 93.0483 435.01L94.1963 434.59C94.4017 435.038 94.705 435.393 95.1063 435.654C95.5077 435.916 95.9697 436.046 96.4923 436.046C97.0897 436.046 97.561 435.906 97.9063 435.626C98.2517 435.337 98.4243 434.926 98.4243 434.394C98.4243 433.881 98.2283 433.47 97.8363 433.162C97.4537 432.854 96.9123 432.574 96.2123 432.322C95.8763 432.201 95.5963 432.094 95.3723 432C95.1577 431.907 94.9057 431.776 94.6163 431.608C94.3363 431.431 94.1123 431.254 93.9443 431.076C93.7763 430.89 93.6317 430.661 93.5103 430.39C93.3983 430.11 93.3423 429.807 93.3423 429.48C93.3423 428.799 93.613 428.225 94.1543 427.758C94.6957 427.292 95.4283 427.058 96.3523 427.058C97.1083 427.058 97.7383 427.222 98.2423 427.548C98.7463 427.866 99.073 428.286 99.2223 428.808L98.1023 429.186C97.9717 428.897 97.7477 428.659 97.4303 428.472C97.113 428.286 96.7257 428.192 96.2683 428.192C95.755 428.192 95.349 428.309 95.0503 428.542C94.7517 428.766 94.6023 429.079 94.6023 429.48C94.6023 429.695 94.6537 429.891 94.7563 430.068C94.8683 430.246 95.0363 430.404 95.2603 430.544C95.4937 430.684 95.7083 430.796 95.9043 430.88C96.1003 430.964 96.371 431.072 96.7163 431.202C97.1457 431.361 97.5003 431.515 97.7803 431.664C98.0603 431.804 98.3637 431.996 98.6903 432.238C99.017 432.481 99.2643 432.784 99.4323 433.148C99.6003 433.503 99.6843 433.909 99.6843 434.366C99.6843 435.244 99.3857 435.934 98.7883 436.438C98.191 436.942 97.4163 437.194 96.4643 437.194ZM105.284 437.026V427.226H109.036C109.605 427.226 110.1 427.31 110.52 427.478C110.949 427.646 111.281 427.875 111.514 428.164C111.747 428.444 111.92 428.752 112.032 429.088C112.144 429.424 112.2 429.784 112.2 430.166C112.2 430.941 111.934 431.622 111.402 432.21C110.879 432.798 110.091 433.092 109.036 433.092H106.502V437.026H105.284ZM109.12 431.958C109.755 431.958 110.221 431.781 110.52 431.426C110.828 431.072 110.982 430.652 110.982 430.166C110.982 429.69 110.837 429.27 110.548 428.906C110.259 428.542 109.783 428.36 109.12 428.36H106.502V431.958H109.12ZM114.102 437.026V427.226H117.966C119.049 427.226 119.833 427.492 120.318 428.024C120.813 428.556 121.06 429.219 121.06 430.012C121.06 430.656 120.869 431.235 120.486 431.748C120.113 432.252 119.544 432.584 118.778 432.742L120.878 437.026H119.506L117.49 432.826H115.32V437.026H114.102ZM115.32 431.692H117.994C118.629 431.692 119.091 431.534 119.38 431.216C119.679 430.899 119.828 430.507 119.828 430.04C119.828 429.592 119.684 429.2 119.394 428.864C119.114 428.528 118.648 428.36 117.994 428.36H115.32V431.692ZM127.151 437.194C126.414 437.194 125.765 437.05 125.205 436.76C124.654 436.462 124.22 436.065 123.903 435.57C123.595 435.066 123.366 434.53 123.217 433.96C123.068 433.382 122.993 432.77 122.993 432.126C122.993 431.482 123.068 430.876 123.217 430.306C123.366 429.728 123.595 429.191 123.903 428.696C124.22 428.192 124.654 427.796 125.205 427.506C125.765 427.208 126.414 427.058 127.151 427.058C127.748 427.058 128.285 427.156 128.761 427.352C129.246 427.548 129.643 427.81 129.951 428.136C130.268 428.463 130.53 428.85 130.735 429.298C130.95 429.746 131.099 430.204 131.183 430.67C131.276 431.137 131.323 431.622 131.323 432.126C131.323 432.63 131.276 433.116 131.183 433.582C131.099 434.049 130.95 434.506 130.735 434.954C130.53 435.402 130.268 435.79 129.951 436.116C129.643 436.443 129.246 436.704 128.761 436.9C128.285 437.096 127.748 437.194 127.151 437.194ZM125.793 435.71C126.185 435.934 126.638 436.046 127.151 436.046C127.664 436.046 128.117 435.93 128.509 435.696C128.901 435.454 129.204 435.136 129.419 434.744C129.634 434.352 129.792 433.937 129.895 433.498C129.998 433.05 130.049 432.593 130.049 432.126C130.049 431.436 129.96 430.81 129.783 430.25C129.615 429.681 129.302 429.196 128.845 428.794C128.397 428.393 127.832 428.192 127.151 428.192C126.638 428.192 126.185 428.314 125.793 428.556C125.41 428.79 125.112 429.107 124.897 429.508C124.682 429.9 124.519 430.316 124.407 430.754C124.304 431.193 124.253 431.65 124.253 432.126C124.253 432.63 124.304 433.106 124.407 433.554C124.51 434.002 124.668 434.418 124.883 434.8C125.107 435.183 125.41 435.486 125.793 435.71ZM136.329 428.388V437.026H135.111V428.388H132.381V427.226H139.059V428.388H136.329ZM141.173 437.026V427.226H146.997V428.374H142.391V431.384H145.429V432.532H142.391V435.864H147.305V437.026H141.173ZM152.77 437.194C152.06 437.194 151.435 437.05 150.894 436.76C150.352 436.471 149.928 436.079 149.62 435.584C149.312 435.09 149.083 434.553 148.934 433.974C148.784 433.396 148.71 432.78 148.71 432.126C148.71 431.482 148.784 430.871 148.934 430.292C149.092 429.704 149.326 429.168 149.634 428.682C149.951 428.188 150.376 427.796 150.908 427.506C151.449 427.208 152.07 427.058 152.77 427.058C154.3 427.058 155.355 427.646 155.934 428.822L154.842 429.382C154.58 428.99 154.291 428.696 153.974 428.5C153.666 428.295 153.264 428.192 152.77 428.192C152.107 428.192 151.556 428.402 151.118 428.822C150.679 429.242 150.376 429.737 150.208 430.306C150.049 430.866 149.97 431.473 149.97 432.126C149.97 433.2 150.208 434.124 150.684 434.898C151.16 435.664 151.855 436.046 152.77 436.046C153.684 436.046 154.394 435.631 154.898 434.8L156.018 435.22C155.747 435.818 155.341 436.298 154.8 436.662C154.258 437.017 153.582 437.194 152.77 437.194ZM161.376 428.388V437.026H160.158V428.388H157.428V427.226H164.106V428.388H161.376ZM166.248 437.026V427.226H167.466V437.026H166.248ZM173.977 437.194C173.24 437.194 172.591 437.05 172.031 436.76C171.481 436.462 171.047 436.065 170.729 435.57C170.421 435.066 170.193 434.53 170.043 433.96C169.894 433.382 169.819 432.77 169.819 432.126C169.819 431.482 169.894 430.876 170.043 430.306C170.193 429.728 170.421 429.191 170.729 428.696C171.047 428.192 171.481 427.796 172.031 427.506C172.591 427.208 173.24 427.058 173.977 427.058C174.575 427.058 175.111 427.156 175.587 427.352C176.073 427.548 176.469 427.81 176.777 428.136C177.095 428.463 177.356 428.85 177.561 429.298C177.776 429.746 177.925 430.204 178.009 430.67C178.103 431.137 178.149 431.622 178.149 432.126C178.149 432.63 178.103 433.116 178.009 433.582C177.925 434.049 177.776 434.506 177.561 434.954C177.356 435.402 177.095 435.79 176.777 436.116C176.469 436.443 176.073 436.704 175.587 436.9C175.111 437.096 174.575 437.194 173.977 437.194ZM172.619 435.71C173.011 435.934 173.464 436.046 173.977 436.046C174.491 436.046 174.943 435.93 175.335 435.696C175.727 435.454 176.031 435.136 176.245 434.744C176.46 434.352 176.619 433.937 176.721 433.498C176.824 433.05 176.875 432.593 176.875 432.126C176.875 431.436 176.787 430.81 176.609 430.25C176.441 429.681 176.129 429.196 175.671 428.794C175.223 428.393 174.659 428.192 173.977 428.192C173.464 428.192 173.011 428.314 172.619 428.556C172.237 428.79 171.938 429.107 171.723 429.508C171.509 429.9 171.345 430.316 171.233 430.754C171.131 431.193 171.079 431.65 171.079 432.126C171.079 432.63 171.131 433.106 171.233 433.554C171.336 434.002 171.495 434.418 171.709 434.8C171.933 435.183 172.237 435.486 172.619 435.71ZM187.634 437.026H186.458L182.048 430.026C181.88 429.756 181.749 429.527 181.656 429.34C181.674 429.62 181.684 429.849 181.684 430.026V437.026H180.466V427.226H181.698L186.038 434.198C186.187 434.441 186.322 434.684 186.444 434.926C186.425 434.59 186.416 434.352 186.416 434.212V427.226H187.634V437.026ZM196.43 428.388V437.026H195.212V428.388H192.482V427.226H199.16V428.388H196.43ZM204.383 437.194C203.646 437.194 202.997 437.05 202.437 436.76C201.887 436.462 201.453 436.065 201.135 435.57C200.827 435.066 200.599 434.53 200.449 433.96C200.3 433.382 200.225 432.77 200.225 432.126C200.225 431.482 200.3 430.876 200.449 430.306C200.599 429.728 200.827 429.191 201.135 428.696C201.453 428.192 201.887 427.796 202.437 427.506C202.997 427.208 203.646 427.058 204.383 427.058C204.981 427.058 205.517 427.156 205.993 427.352C206.479 427.548 206.875 427.81 207.183 428.136C207.501 428.463 207.762 428.85 207.967 429.298C208.182 429.746 208.331 430.204 208.415 430.67C208.509 431.137 208.555 431.622 208.555 432.126C208.555 432.63 208.509 433.116 208.415 433.582C208.331 434.049 208.182 434.506 207.967 434.954C207.762 435.402 207.501 435.79 207.183 436.116C206.875 436.443 206.479 436.704 205.993 436.9C205.517 437.096 204.981 437.194 204.383 437.194ZM203.025 435.71C203.417 435.934 203.87 436.046 204.383 436.046C204.897 436.046 205.349 435.93 205.741 435.696C206.133 435.454 206.437 435.136 206.651 434.744C206.866 434.352 207.025 433.937 207.127 433.498C207.23 433.05 207.281 432.593 207.281 432.126C207.281 431.436 207.193 430.81 207.015 430.25C206.847 429.681 206.535 429.196 206.077 428.794C205.629 428.393 205.065 428.192 204.383 428.192C203.87 428.192 203.417 428.314 203.025 428.556C202.643 428.79 202.344 429.107 202.129 429.508C201.915 429.9 201.751 430.316 201.639 430.754C201.537 431.193 201.485 431.65 201.485 432.126C201.485 432.63 201.537 433.106 201.639 433.554C201.742 434.002 201.901 434.418 202.115 434.8C202.339 435.183 202.643 435.486 203.025 435.71ZM214.61 437.194C213.873 437.194 213.224 437.05 212.664 436.76C212.113 436.462 211.679 436.065 211.362 435.57C211.054 435.066 210.825 434.53 210.676 433.96C210.527 433.382 210.452 432.77 210.452 432.126C210.452 431.482 210.527 430.876 210.676 430.306C210.825 429.728 211.054 429.191 211.362 428.696C211.679 428.192 212.113 427.796 212.664 427.506C213.224 427.208 213.873 427.058 214.61 427.058C215.207 427.058 215.744 427.156 216.22 427.352C216.705 427.548 217.102 427.81 217.41 428.136C217.727 428.463 217.989 428.85 218.194 429.298C218.409 429.746 218.558 430.204 218.642 430.67C218.735 431.137 218.782 431.622 218.782 432.126C218.782 432.63 218.735 433.116 218.642 433.582C218.558 434.049 218.409 434.506 218.194 434.954C217.989 435.402 217.727 435.79 217.41 436.116C217.102 436.443 216.705 436.704 216.22 436.9C215.744 437.096 215.207 437.194 214.61 437.194ZM213.252 435.71C213.644 435.934 214.097 436.046 214.61 436.046C215.123 436.046 215.576 435.93 215.968 435.696C216.36 435.454 216.663 435.136 216.878 434.744C217.093 434.352 217.251 433.937 217.354 433.498C217.457 433.05 217.508 432.593 217.508 432.126C217.508 431.436 217.419 430.81 217.242 430.25C217.074 429.681 216.761 429.196 216.304 428.794C215.856 428.393 215.291 428.192 214.61 428.192C214.097 428.192 213.644 428.314 213.252 428.556C212.869 428.79 212.571 429.107 212.356 429.508C212.141 429.9 211.978 430.316 211.866 430.754C211.763 431.193 211.712 431.65 211.712 432.126C211.712 432.63 211.763 433.106 211.866 433.554C211.969 434.002 212.127 434.418 212.342 434.8C212.566 435.183 212.869 435.486 213.252 435.71ZM221.099 437.026V427.226H222.317V435.85H227.133V437.026H221.099ZM231.775 437.194C230.944 437.194 230.221 436.994 229.605 436.592C228.998 436.182 228.583 435.654 228.359 435.01L229.507 434.59C229.712 435.038 230.016 435.393 230.417 435.654C230.818 435.916 231.28 436.046 231.803 436.046C232.4 436.046 232.872 435.906 233.217 435.626C233.562 435.337 233.735 434.926 233.735 434.394C233.735 433.881 233.539 433.47 233.147 433.162C232.764 432.854 232.223 432.574 231.523 432.322C231.187 432.201 230.907 432.094 230.683 432C230.468 431.907 230.216 431.776 229.927 431.608C229.647 431.431 229.423 431.254 229.255 431.076C229.087 430.89 228.942 430.661 228.821 430.39C228.709 430.11 228.653 429.807 228.653 429.48C228.653 428.799 228.924 428.225 229.465 427.758C230.006 427.292 230.739 427.058 231.663 427.058C232.419 427.058 233.049 427.222 233.553 427.548C234.057 427.866 234.384 428.286 234.533 428.808L233.413 429.186C233.282 428.897 233.058 428.659 232.741 428.472C232.424 428.286 232.036 428.192 231.579 428.192C231.066 428.192 230.66 428.309 230.361 428.542C230.062 428.766 229.913 429.079 229.913 429.48C229.913 429.695 229.964 429.891 230.067 430.068C230.179 430.246 230.347 430.404 230.571 430.544C230.804 430.684 231.019 430.796 231.215 430.88C231.411 430.964 231.682 431.072 232.027 431.202C232.456 431.361 232.811 431.515 233.091 431.664C233.371 431.804 233.674 431.996 234.001 432.238C234.328 432.481 234.575 432.784 234.743 433.148C234.911 433.503 234.995 433.909 234.995 434.366C234.995 435.244 234.696 435.934 234.099 436.438C233.502 436.942 232.727 437.194 231.775 437.194ZM243.352 428.388V437.026H242.134V428.388H239.404V427.226H246.082V428.388H243.352ZM251.305 437.194C250.568 437.194 249.919 437.05 249.359 436.76C248.809 436.462 248.375 436.065 248.057 435.57C247.749 435.066 247.521 434.53 247.371 433.96C247.222 433.382 247.147 432.77 247.147 432.126C247.147 431.482 247.222 430.876 247.371 430.306C247.521 429.728 247.749 429.191 248.057 428.696C248.375 428.192 248.809 427.796 249.359 427.506C249.919 427.208 250.568 427.058 251.305 427.058C251.903 427.058 252.439 427.156 252.915 427.352C253.401 427.548 253.797 427.81 254.105 428.136C254.423 428.463 254.684 428.85 254.889 429.298C255.104 429.746 255.253 430.204 255.337 430.67C255.431 431.137 255.477 431.622 255.477 432.126C255.477 432.63 255.431 433.116 255.337 433.582C255.253 434.049 255.104 434.506 254.889 434.954C254.684 435.402 254.423 435.79 254.105 436.116C253.797 436.443 253.401 436.704 252.915 436.9C252.439 437.096 251.903 437.194 251.305 437.194ZM249.947 435.71C250.339 435.934 250.792 436.046 251.305 436.046C251.819 436.046 252.271 435.93 252.663 435.696C253.055 435.454 253.359 435.136 253.573 434.744C253.788 434.352 253.947 433.937 254.049 433.498C254.152 433.05 254.203 432.593 254.203 432.126C254.203 431.436 254.115 430.81 253.937 430.25C253.769 429.681 253.457 429.196 252.999 428.794C252.551 428.393 251.987 428.192 251.305 428.192C250.792 428.192 250.339 428.314 249.947 428.556C249.565 428.79 249.266 429.107 249.051 429.508C248.837 429.9 248.673 430.316 248.561 430.754C248.459 431.193 248.407 431.65 248.407 432.126C248.407 432.63 248.459 433.106 248.561 433.554C248.664 434.002 248.823 434.418 249.037 434.8C249.261 435.183 249.565 435.486 249.947 435.71ZM261.117 437.026V427.226H262.335V437.026H261.117ZM265.108 427.226H267.782C268.585 427.226 269.29 427.366 269.896 427.646C270.503 427.926 270.979 428.304 271.324 428.78C271.67 429.256 271.922 429.774 272.08 430.334C272.248 430.894 272.332 431.492 272.332 432.126C272.332 432.733 272.253 433.312 272.094 433.862C271.945 434.404 271.702 434.922 271.366 435.416C271.04 435.902 270.564 436.294 269.938 436.592C269.313 436.882 268.576 437.026 267.726 437.026H265.108V427.226ZM267.88 435.892C268.459 435.892 268.963 435.785 269.392 435.57C269.831 435.346 270.167 435.048 270.4 434.674C270.634 434.292 270.802 433.89 270.904 433.47C271.016 433.05 271.072 432.602 271.072 432.126C271.072 431.454 270.974 430.843 270.778 430.292C270.582 429.742 270.246 429.28 269.77 428.906C269.294 428.533 268.716 428.346 268.034 428.346H266.326V435.892H267.88ZM274.651 437.026V427.226H280.475V428.374H275.869V431.384H278.907V432.532H275.869V435.864H280.783V437.026H274.651ZM290.2 437.026H289.024L284.614 430.026C284.446 429.756 284.315 429.527 284.222 429.34C284.241 429.62 284.25 429.849 284.25 430.026V437.026H283.032V427.226H284.264L288.604 434.198C288.753 434.441 288.889 434.684 289.01 434.926C288.991 434.59 288.982 434.352 288.982 434.212V427.226H290.2V437.026ZM296.262 428.388V437.026H295.044V428.388H292.314V427.226H298.992V428.388H296.262ZM301.134 437.026V427.226H302.352V437.026H301.134ZM305.126 437.026V427.226H311.02V428.374H306.344V431.384H309.438V432.532H306.344V437.026H305.126ZM315.439 437.026V433.176L312.107 427.226H313.479L316.041 431.986L318.631 427.226H319.961L316.657 433.148V437.026H315.439ZM327.478 437.194C326.647 437.194 325.924 436.994 325.308 436.592C324.701 436.182 324.286 435.654 324.062 435.01L325.21 434.59C325.415 435.038 325.719 435.393 326.12 435.654C326.521 435.916 326.983 436.046 327.506 436.046C328.103 436.046 328.575 435.906 328.92 435.626C329.265 435.337 329.438 434.926 329.438 434.394C329.438 433.881 329.242 433.47 328.85 433.162C328.467 432.854 327.926 432.574 327.226 432.322C326.89 432.201 326.61 432.094 326.386 432C326.171 431.907 325.919 431.776 325.63 431.608C325.35 431.431 325.126 431.254 324.958 431.076C324.79 430.89 324.645 430.661 324.524 430.39C324.412 430.11 324.356 429.807 324.356 429.48C324.356 428.799 324.627 428.225 325.168 427.758C325.709 427.292 326.442 427.058 327.366 427.058C328.122 427.058 328.752 427.222 329.256 427.548C329.76 427.866 330.087 428.286 330.236 428.808L329.116 429.186C328.985 428.897 328.761 428.659 328.444 428.472C328.127 428.286 327.739 428.192 327.282 428.192C326.769 428.192 326.363 428.309 326.064 428.542C325.765 428.766 325.616 429.079 325.616 429.48C325.616 429.695 325.667 429.891 325.77 430.068C325.882 430.246 326.05 430.404 326.274 430.544C326.507 430.684 326.722 430.796 326.918 430.88C327.114 430.964 327.385 431.072 327.73 431.202C328.159 431.361 328.514 431.515 328.794 431.664C329.074 431.804 329.377 431.996 329.704 432.238C330.031 432.481 330.278 432.784 330.446 433.148C330.614 433.503 330.698 433.909 330.698 434.366C330.698 435.244 330.399 435.934 329.802 436.438C329.205 436.942 328.43 437.194 327.478 437.194ZM333.003 437.026V427.226H336.755C337.324 427.226 337.819 427.31 338.239 427.478C338.668 427.646 339 427.875 339.233 428.164C339.466 428.444 339.639 428.752 339.751 429.088C339.863 429.424 339.919 429.784 339.919 430.166C339.919 430.941 339.653 431.622 339.121 432.21C338.598 432.798 337.81 433.092 336.755 433.092H334.221V437.026H333.003ZM336.839 431.958C337.474 431.958 337.94 431.781 338.239 431.426C338.547 431.072 338.701 430.652 338.701 430.166C338.701 429.69 338.556 429.27 338.267 428.906C337.978 428.542 337.502 428.36 336.839 428.36H334.221V431.958H336.839ZM341.821 437.026V427.226H347.645V428.374H343.039V431.384H346.077V432.532H343.039V435.864H347.953V437.026H341.821ZM353.418 437.194C352.709 437.194 352.084 437.05 351.542 436.76C351.001 436.471 350.576 436.079 350.268 435.584C349.96 435.09 349.732 434.553 349.582 433.974C349.433 433.396 349.358 432.78 349.358 432.126C349.358 431.482 349.433 430.871 349.582 430.292C349.741 429.704 349.974 429.168 350.282 428.682C350.6 428.188 351.024 427.796 351.556 427.506C352.098 427.208 352.718 427.058 353.418 427.058C354.949 427.058 356.004 427.646 356.582 428.822L355.49 429.382C355.229 428.99 354.94 428.696 354.622 428.5C354.314 428.295 353.913 428.192 353.418 428.192C352.756 428.192 352.205 428.402 351.766 428.822C351.328 429.242 351.024 429.737 350.856 430.306C350.698 430.866 350.618 431.473 350.618 432.126C350.618 433.2 350.856 434.124 351.332 434.898C351.808 435.664 352.504 436.046 353.418 436.046C354.333 436.046 355.042 435.631 355.546 434.8L356.666 435.22C356.396 435.818 355.99 436.298 355.448 436.662C354.907 437.017 354.23 437.194 353.418 437.194ZM358.871 437.026V427.226H360.089V437.026H358.871ZM362.862 437.026V427.226H368.756V428.374H364.08V431.384H367.174V432.532H364.08V437.026H362.862ZM370.752 437.026V427.226H371.97V437.026H370.752ZM378.383 437.194C377.674 437.194 377.048 437.05 376.507 436.76C375.966 436.471 375.541 436.079 375.233 435.584C374.925 435.09 374.696 434.553 374.547 433.974C374.398 433.396 374.323 432.78 374.323 432.126C374.323 431.482 374.398 430.871 374.547 430.292C374.706 429.704 374.939 429.168 375.247 428.682C375.564 428.188 375.989 427.796 376.521 427.506C377.062 427.208 377.683 427.058 378.383 427.058C379.914 427.058 380.968 427.646 381.547 428.822L380.455 429.382C380.194 428.99 379.904 428.696 379.587 428.5C379.279 428.295 378.878 428.192 378.383 428.192C377.72 428.192 377.17 428.402 376.731 428.822C376.292 429.242 375.989 429.737 375.821 430.306C375.662 430.866 375.583 431.473 375.583 432.126C375.583 433.2 375.821 434.124 376.297 434.898C376.773 435.664 377.468 436.046 378.383 436.046C379.298 436.046 380.007 435.631 380.511 434.8L381.631 435.22C381.36 435.818 380.954 436.298 380.413 436.662C379.872 437.017 379.195 437.194 378.383 437.194ZM387.102 437.026V427.226H390.854C391.424 427.226 391.918 427.31 392.338 427.478C392.768 427.646 393.099 427.875 393.332 428.164C393.566 428.444 393.738 428.752 393.85 429.088C393.962 429.424 394.018 429.784 394.018 430.166C394.018 430.941 393.752 431.622 393.22 432.21C392.698 432.798 391.909 433.092 390.854 433.092H388.32V437.026H387.102ZM390.938 431.958C391.573 431.958 392.04 431.781 392.338 431.426C392.646 431.072 392.8 430.652 392.8 430.166C392.8 429.69 392.656 429.27 392.366 428.906C392.077 428.542 391.601 428.36 390.938 428.36H388.32V431.958H390.938ZM399.255 437.194C396.913 437.194 395.741 435.911 395.741 433.344V427.226H396.959V433.344C396.959 434.343 397.165 435.043 397.575 435.444C397.986 435.846 398.546 436.046 399.255 436.046C399.965 436.046 400.525 435.846 400.935 435.444C401.355 435.043 401.565 434.343 401.565 433.344V427.226H402.783V433.344C402.783 435.911 401.607 437.194 399.255 437.194ZM408.782 428.388V437.026H407.564V428.388H404.834V427.226H411.512V428.388H408.782ZM29.11 461.194C28.3727 461.194 27.724 461.05 27.164 460.76C26.6133 460.462 26.1793 460.065 25.862 459.57C25.554 459.066 25.3253 458.53 25.176 457.96C25.0267 457.382 24.952 456.77 24.952 456.126C24.952 455.482 25.0267 454.876 25.176 454.306C25.3253 453.728 25.554 453.191 25.862 452.696C26.1793 452.192 26.6133 451.796 27.164 451.506C27.724 451.208 28.3727 451.058 29.11 451.058C29.7073 451.058 30.244 451.156 30.72 451.352C31.2053 451.548 31.602 451.81 31.91 452.136C32.2273 452.463 32.4887 452.85 32.694 453.298C32.9087 453.746 33.058 454.204 33.142 454.67C33.2353 455.137 33.282 455.622 33.282 456.126C33.282 456.63 33.2353 457.116 33.142 457.582C33.058 458.049 32.9087 458.506 32.694 458.954C32.4887 459.402 32.2273 459.79 31.91 460.116C31.602 460.443 31.2053 460.704 30.72 460.9C30.244 461.096 29.7073 461.194 29.11 461.194ZM27.752 459.71C28.144 459.934 28.5967 460.046 29.11 460.046C29.6233 460.046 30.076 459.93 30.468 459.696C30.86 459.454 31.1633 459.136 31.378 458.744C31.5927 458.352 31.7513 457.937 31.854 457.498C31.9567 457.05 32.008 456.593 32.008 456.126C32.008 455.436 31.9193 454.81 31.742 454.25C31.574 453.681 31.2613 453.196 30.804 452.794C30.356 452.393 29.7913 452.192 29.11 452.192C28.5967 452.192 28.144 452.314 27.752 452.556C27.3693 452.79 27.0707 453.107 26.856 453.508C26.6413 453.9 26.478 454.316 26.366 454.754C26.2633 455.193 26.212 455.65 26.212 456.126C26.212 456.63 26.2633 457.106 26.366 457.554C26.4687 458.002 26.6273 458.418 26.842 458.8C27.066 459.183 27.3693 459.486 27.752 459.71ZM35.5986 461.026V451.226H39.3506C39.9199 451.226 40.4146 451.31 40.8346 451.478C41.2639 451.646 41.5952 451.875 41.8286 452.164C42.0619 452.444 42.2346 452.752 42.3466 453.088C42.4586 453.424 42.5146 453.784 42.5146 454.166C42.5146 454.941 42.2486 455.622 41.7166 456.21C41.1939 456.798 40.4052 457.092 39.3506 457.092H36.8166V461.026H35.5986ZM39.4346 455.958C40.0692 455.958 40.5359 455.781 40.8346 455.426C41.1426 455.072 41.2966 454.652 41.2966 454.166C41.2966 453.69 41.1519 453.27 40.8626 452.906C40.5732 452.542 40.0972 452.36 39.4346 452.36H36.8166V455.958H39.4346ZM47.5572 452.388V461.026H46.3392V452.388H43.6092V451.226H50.2872V452.388H47.5572ZM52.4293 461.026V451.226H53.6473V461.026H52.4293ZM60.1588 461.194C59.4215 461.194 58.7728 461.05 58.2128 460.76C57.6622 460.462 57.2282 460.065 56.9108 459.57C56.6028 459.066 56.3742 458.53 56.2248 457.96C56.0755 457.382 56.0008 456.77 56.0008 456.126C56.0008 455.482 56.0755 454.876 56.2248 454.306C56.3742 453.728 56.6028 453.191 56.9108 452.696C57.2282 452.192 57.6622 451.796 58.2128 451.506C58.7728 451.208 59.4215 451.058 60.1588 451.058C60.7562 451.058 61.2928 451.156 61.7688 451.352C62.2542 451.548 62.6508 451.81 62.9588 452.136C63.2762 452.463 63.5375 452.85 63.7428 453.298C63.9575 453.746 64.1068 454.204 64.1908 454.67C64.2842 455.137 64.3308 455.622 64.3308 456.126C64.3308 456.63 64.2842 457.116 64.1908 457.582C64.1068 458.049 63.9575 458.506 63.7428 458.954C63.5375 459.402 63.2762 459.79 62.9588 460.116C62.6508 460.443 62.2542 460.704 61.7688 460.9C61.2928 461.096 60.7562 461.194 60.1588 461.194ZM58.8008 459.71C59.1928 459.934 59.6455 460.046 60.1588 460.046C60.6722 460.046 61.1248 459.93 61.5168 459.696C61.9088 459.454 62.2122 459.136 62.4268 458.744C62.6415 458.352 62.8002 457.937 62.9028 457.498C63.0055 457.05 63.0568 456.593 63.0568 456.126C63.0568 455.436 62.9682 454.81 62.7908 454.25C62.6228 453.681 62.3102 453.196 61.8528 452.794C61.4048 452.393 60.8402 452.192 60.1588 452.192C59.6455 452.192 59.1928 452.314 58.8008 452.556C58.4182 452.79 58.1195 453.107 57.9048 453.508C57.6902 453.9 57.5268 454.316 57.4148 454.754C57.3122 455.193 57.2608 455.65 57.2608 456.126C57.2608 456.63 57.3122 457.106 57.4148 457.554C57.5175 458.002 57.6762 458.418 57.8908 458.8C58.1148 459.183 58.4182 459.486 58.8008 459.71ZM73.8154 461.026H72.6394L68.2294 454.026C68.0614 453.756 67.9307 453.527 67.8374 453.34C67.8561 453.62 67.8654 453.849 67.8654 454.026V461.026H66.6474V451.226H67.8794L72.2194 458.198C72.3687 458.441 72.5041 458.684 72.6254 458.926C72.6067 458.59 72.5974 458.352 72.5974 458.212V451.226H73.8154V461.026ZM79.4155 461.194C78.5848 461.194 77.8615 460.994 77.2455 460.592C76.6388 460.182 76.2235 459.654 75.9995 459.01L77.1475 458.59C77.3528 459.038 77.6562 459.393 78.0575 459.654C78.4588 459.916 78.9208 460.046 79.4435 460.046C80.0408 460.046 80.5122 459.906 80.8575 459.626C81.2028 459.337 81.3755 458.926 81.3755 458.394C81.3755 457.881 81.1795 457.47 80.7875 457.162C80.4048 456.854 79.8635 456.574 79.1635 456.322C78.8275 456.201 78.5475 456.094 78.3235 456C78.1088 455.907 77.8568 455.776 77.5675 455.608C77.2875 455.431 77.0635 455.254 76.8955 455.076C76.7275 454.89 76.5828 454.661 76.4615 454.39C76.3495 454.11 76.2935 453.807 76.2935 453.48C76.2935 452.799 76.5642 452.225 77.1055 451.758C77.6468 451.292 78.3795 451.058 79.3035 451.058C80.0595 451.058 80.6895 451.222 81.1935 451.548C81.6975 451.866 82.0242 452.286 82.1735 452.808L81.0535 453.186C80.9228 452.897 80.6988 452.659 80.3815 452.472C80.0642 452.286 79.6768 452.192 79.2195 452.192C78.7062 452.192 78.3002 452.309 78.0015 452.542C77.7028 452.766 77.5535 453.079 77.5535 453.48C77.5535 453.695 77.6048 453.891 77.7075 454.068C77.8195 454.246 77.9875 454.404 78.2115 454.544C78.4448 454.684 78.6595 454.796 78.8555 454.88C79.0515 454.964 79.3222 455.072 79.6675 455.202C80.0968 455.361 80.4515 455.515 80.7315 455.664C81.0115 455.804 81.3148 455.996 81.6415 456.238C81.9682 456.481 82.2155 456.784 82.3835 457.148C82.5515 457.503 82.6355 457.909 82.6355 458.366C82.6355 459.244 82.3368 459.934 81.7395 460.438C81.1422 460.942 80.3675 461.194 79.4155 461.194ZM88.2633 461.026V451.226H89.4813V461.026H88.2633ZM99.4228 461.026H98.2468L93.8368 454.026C93.6688 453.756 93.5381 453.527 93.4448 453.34C93.4635 453.62 93.4728 453.849 93.4728 454.026V461.026H92.2548V451.226H93.4868L97.8268 458.198C97.9761 458.441 98.1115 458.684 98.2328 458.926C98.2141 458.59 98.2048 458.352 98.2048 458.212V451.226H99.4228V461.026ZM105.462 461.026V451.226H109.214C109.783 451.226 110.278 451.31 110.698 451.478C111.127 451.646 111.459 451.875 111.692 452.164C111.925 452.444 112.098 452.752 112.21 453.088C112.322 453.424 112.378 453.784 112.378 454.166C112.378 454.941 112.112 455.622 111.58 456.21C111.057 456.798 110.269 457.092 109.214 457.092H106.68V461.026H105.462ZM109.298 455.958C109.933 455.958 110.399 455.781 110.698 455.426C111.006 455.072 111.16 454.652 111.16 454.166C111.16 453.69 111.015 453.27 110.726 452.906C110.437 452.542 109.961 452.36 109.298 452.36H106.68V455.958H109.298ZM117.615 461.194C115.272 461.194 114.101 459.911 114.101 457.344V451.226H115.319V457.344C115.319 458.343 115.524 459.043 115.935 459.444C116.345 459.846 116.905 460.046 117.615 460.046C118.324 460.046 118.884 459.846 119.295 459.444C119.715 459.043 119.925 458.343 119.925 457.344V451.226H121.143V457.344C121.143 459.911 119.967 461.194 117.615 461.194ZM123.823 451.226H127.295C128.369 451.226 129.143 451.474 129.619 451.968C130.105 452.463 130.347 453.079 130.347 453.816C130.347 454.264 130.221 454.67 129.969 455.034C129.717 455.389 129.363 455.664 128.905 455.86C129.475 456.038 129.913 456.336 130.221 456.756C130.539 457.167 130.697 457.652 130.697 458.212C130.697 458.567 130.641 458.903 130.529 459.22C130.417 459.538 130.245 459.836 130.011 460.116C129.778 460.396 129.447 460.62 129.017 460.788C128.588 460.947 128.089 461.026 127.519 461.026H123.823V451.226ZM127.057 455.384C127.739 455.384 128.257 455.249 128.611 454.978C128.966 454.698 129.143 454.316 129.143 453.83C129.143 452.832 128.551 452.332 127.365 452.332H125.041V455.384H127.057ZM127.659 459.906C128.322 459.906 128.793 459.752 129.073 459.444C129.353 459.136 129.493 458.754 129.493 458.296C129.493 457.092 128.733 456.49 127.211 456.49H125.041V459.906H127.659ZM133.011 461.026V451.226H134.229V459.85H139.045V461.026H133.011ZM140.859 461.026V451.226H142.077V461.026H140.859ZM148.491 461.194C147.781 461.194 147.156 461.05 146.615 460.76C146.073 460.471 145.649 460.079 145.341 459.584C145.033 459.09 144.804 458.553 144.655 457.974C144.505 457.396 144.431 456.78 144.431 456.126C144.431 455.482 144.505 454.871 144.655 454.292C144.813 453.704 145.047 453.168 145.355 452.682C145.672 452.188 146.097 451.796 146.629 451.506C147.17 451.208 147.791 451.058 148.491 451.058C150.021 451.058 151.076 451.646 151.655 452.822L150.563 453.382C150.301 452.99 150.012 452.696 149.695 452.5C149.387 452.295 148.985 452.192 148.491 452.192C147.828 452.192 147.277 452.402 146.839 452.822C146.4 453.242 146.097 453.737 145.929 454.306C145.77 454.866 145.691 455.473 145.691 456.126C145.691 457.2 145.929 458.124 146.405 458.898C146.881 459.664 147.576 460.046 148.491 460.046C149.405 460.046 150.115 459.631 150.619 458.8L151.739 459.22C151.468 459.818 151.062 460.298 150.521 460.662C149.979 461.017 149.303 461.194 148.491 461.194ZM165.722 461.026H164.504V455.006C164.504 454.624 164.513 454.264 164.532 453.928C164.439 454.19 164.294 454.558 164.098 455.034L161.41 461.194L158.806 455.006C158.582 454.465 158.442 454.11 158.386 453.942C158.414 454.194 158.428 454.549 158.428 455.006V461.026H157.21V451.226H158.358L161.2 457.82L161.452 458.478C161.489 458.366 161.573 458.147 161.704 457.82L164.56 451.226H165.722V461.026ZM174.349 461.026L173.509 458.632H169.617L168.791 461.026H167.517L170.989 451.226H172.123L175.595 461.026H174.349ZM173.131 457.554L171.871 453.928C171.712 453.471 171.609 453.14 171.563 452.934C171.46 453.298 171.357 453.63 171.255 453.928L169.981 457.554H173.131ZM177.403 461.026V451.226H181.267C182.35 451.226 183.134 451.492 183.619 452.024C184.114 452.556 184.361 453.219 184.361 454.012C184.361 454.656 184.17 455.235 183.787 455.748C183.414 456.252 182.845 456.584 182.079 456.742L184.179 461.026H182.807L180.791 456.826H178.621V461.026H177.403ZM178.621 455.692H181.295C181.93 455.692 182.392 455.534 182.681 455.216C182.98 454.899 183.129 454.507 183.129 454.04C183.129 453.592 182.985 453.2 182.695 452.864C182.415 452.528 181.949 452.36 181.295 452.36H178.621V455.692ZM192.51 461.026L189.598 455.636L187.932 457.68V461.026H186.714V451.226H187.932V456.028L191.754 451.226H193.126L190.424 454.614L193.924 461.026H192.51ZM195.956 461.026V451.226H201.78V452.374H197.174V455.384H200.212V456.532H197.174V459.864H202.088V461.026H195.956ZM207.655 452.388V461.026H206.437V452.388H203.707V451.226H210.385V452.388H207.655ZM215.355 461.194C214.524 461.194 213.801 460.994 213.185 460.592C212.578 460.182 212.163 459.654 211.939 459.01L213.087 458.59C213.292 459.038 213.596 459.393 213.997 459.654C214.398 459.916 214.86 460.046 215.383 460.046C215.98 460.046 216.452 459.906 216.797 459.626C217.142 459.337 217.315 458.926 217.315 458.394C217.315 457.881 217.119 457.47 216.727 457.162C216.344 456.854 215.803 456.574 215.103 456.322C214.767 456.201 214.487 456.094 214.263 456C214.048 455.907 213.796 455.776 213.507 455.608C213.227 455.431 213.003 455.254 212.835 455.076C212.667 454.89 212.522 454.661 212.401 454.39C212.289 454.11 212.233 453.807 212.233 453.48C212.233 452.799 212.504 452.225 213.045 451.758C213.586 451.292 214.319 451.058 215.243 451.058C215.999 451.058 216.629 451.222 217.133 451.548C217.637 451.866 217.964 452.286 218.113 452.808L216.993 453.186C216.862 452.897 216.638 452.659 216.321 452.472C216.004 452.286 215.616 452.192 215.159 452.192C214.646 452.192 214.24 452.309 213.941 452.542C213.642 452.766 213.493 453.079 213.493 453.48C213.493 453.695 213.544 453.891 213.647 454.068C213.759 454.246 213.927 454.404 214.151 454.544C214.384 454.684 214.599 454.796 214.795 454.88C214.991 454.964 215.262 455.072 215.607 455.202C216.036 455.361 216.391 455.515 216.671 455.664C216.951 455.804 217.254 455.996 217.581 456.238C217.908 456.481 218.155 456.784 218.323 457.148C218.491 457.503 218.575 457.909 218.575 458.366C218.575 459.244 218.276 459.934 217.679 460.438C217.082 460.942 216.307 461.194 215.355 461.194ZM221.762 460.928C221.575 461.115 221.346 461.208 221.076 461.208C220.805 461.208 220.576 461.115 220.39 460.928C220.203 460.732 220.11 460.508 220.11 460.256C220.11 459.995 220.203 459.771 220.39 459.584C220.576 459.388 220.805 459.29 221.076 459.29C221.346 459.29 221.575 459.388 221.762 459.584C221.958 459.78 222.056 460.004 222.056 460.256C222.056 460.508 221.958 460.732 221.762 460.928Z" fill="white"/>
<defs>
<clipPath id="clip0_3396_9046">
<rect y="0.0263672" width="464" height="334" rx="8" fill="white"/>
</clipPath>
<clipPath id="clip1_3396_9046">
<rect x="24" y="178.026" width="392" height="16" rx="5" fill="white"/>
</clipPath>
<clipPath id="clip2_3396_9046">
<rect x="24" y="208.026" width="392" height="16" rx="5" fill="white"/>
</clipPath>
<clipPath id="clip3_3396_9046">
<rect x="24" y="238.026" width="392" height="16" rx="5" fill="white"/>
</clipPath>
</defs>
</svg>
